<svg xmlns="http://www.w3.org/2000/svg" xmlns:xlink="http://www.w3.org/1999/xlink" width="500" zoomAndPan="magnify" viewBox="0 0 375 374.999991" height="500" preserveAspectRatio="xMidYMid meet" version="1.2"><defs><clipPath id="de433d81f6"><path d="M 19 50.695312 L 357 50.695312 L 357 324 L 19 324 Z M 19 50.695312 "/></clipPath></defs><g id="4c5ae49500"><g clip-rule="nonzero" clip-path="url(#de433d81f6)"><path style=" stroke:none;fill-rule:evenodd;fill:#000000;fill-opacity:1;" d="M 129.554688 323.9375 C 89.460938 323.9375 51.808594 319.210938 19.089844 310.898438 C 41.609375 314.320312 65.683594 316.160156 90.714844 316.160156 C 216.175781 316.160156 317.886719 269.84375 317.886719 212.703125 C 317.886719 173.839844 270.804688 139.984375 201.179688 122.289062 C 291.550781 135.957031 356.726562 174.75 356.726562 220.503906 C 356.726562 277.621094 255.015625 323.9375 129.554688 323.9375 Z M 133.769531 105.125 L 133.769531 104.289062 C 183.855469 104.289062 187.488281 96.160156 187.488281 50.546875 L 188.328125 50.546875 C 188.328125 96.160156 191.984375 104.289062 242.070312 104.289062 L 242.070312 105.125 C 191.984375 105.125 188.328125 113.230469 188.328125 158.84375 L 187.488281 158.84375 C 187.488281 113.230469 183.855469 105.125 133.769531 105.125 "/></g><g style="fill:#000000;fill-opacity:1;"><g transform="translate(106.460954, 263.212343)"><path style="stroke:none" d="M 63.09375 -44.953125 C 66.914062 -41.867188 69.597656 -38.140625 71.140625 -33.765625 C 72.679688 -29.390625 73.140625 -25.039062 72.515625 -20.71875 C 71.898438 -16.40625 70.050781 -12.644531 66.96875 -9.4375 C 64.625 -7.09375 61.265625 -5.179688 56.890625 -3.703125 C 52.515625 -2.222656 47.671875 -1.234375 42.359375 -0.734375 C 37.054688 -0.242188 31.753906 -0.273438 26.453125 -0.828125 C 21.148438 -1.390625 16.367188 -2.5625 12.109375 -4.34375 C 7.859375 -6.132812 4.6875 -8.507812 2.59375 -11.46875 C 1.351562 -13.320312 0.914062 -15.421875 1.28125 -17.765625 C 1.65625 -20.109375 2.457031 -22.570312 3.6875 -25.15625 C 4.925781 -27.75 6.253906 -30.21875 7.671875 -32.5625 C 9.097656 -34.90625 10.238281 -36.941406 11.09375 -38.671875 C 11.34375 -39.160156 11.679688 -39.34375 12.109375 -39.21875 C 12.546875 -39.09375 12.765625 -38.910156 12.765625 -38.671875 C 10.910156 -30.648438 10.597656 -24.109375 11.828125 -19.046875 C 13.066406 -13.992188 15.226562 -10.171875 18.3125 -7.578125 C 21.394531 -4.992188 24.910156 -3.421875 28.859375 -2.859375 C 32.804688 -2.304688 36.691406 -2.492188 40.515625 -3.421875 C 44.335938 -4.347656 47.546875 -5.828125 50.140625 -7.859375 C 52.734375 -9.898438 54.242188 -12.242188 54.671875 -14.890625 C 55.097656 -17.546875 53.832031 -20.226562 50.875 -22.9375 C 50.132812 -23.675781 48.742188 -24.785156 46.703125 -26.265625 C 44.671875 -27.753906 42.421875 -29.359375 39.953125 -31.078125 C 37.492188 -32.804688 35.125 -34.441406 32.84375 -35.984375 C 30.5625 -37.523438 28.738281 -38.726562 27.375 -39.59375 C 23.675781 -42.1875 19.851562 -44.625 15.90625 -46.90625 C 11.957031 -49.1875 8.65625 -51.804688 6 -54.765625 C 3.351562 -57.722656 2.03125 -61.363281 2.03125 -65.6875 C 2.03125 -69.75 3.351562 -73.382812 6 -76.59375 C 8.65625 -79.800781 12.171875 -82.453125 16.546875 -84.546875 C 20.929688 -86.648438 25.742188 -88.160156 30.984375 -89.078125 C 36.234375 -90.003906 41.414062 -90.28125 46.53125 -89.90625 C 51.644531 -89.539062 56.300781 -88.429688 60.5 -86.578125 C 64.695312 -84.734375 67.90625 -82.023438 70.125 -78.453125 C 71.851562 -76.109375 72.160156 -73.421875 71.046875 -70.390625 C 69.929688 -67.367188 68.382812 -64.378906 66.40625 -61.421875 C 64.4375 -58.460938 62.898438 -55.8125 61.796875 -53.46875 C 61.421875 -52.976562 61.046875 -52.789062 60.671875 -52.90625 C 60.304688 -53.03125 60.0625 -53.15625 59.9375 -53.28125 C 59.082031 -61.175781 57.484375 -67.898438 55.140625 -73.453125 C 52.910156 -78.628906 50.285156 -82.359375 47.265625 -84.640625 C 44.242188 -86.921875 41.097656 -88.0625 37.828125 -88.0625 C 34.566406 -88.0625 31.546875 -87.195312 28.765625 -85.46875 C 25.992188 -83.75 23.742188 -81.46875 22.015625 -78.625 C 20.285156 -75.789062 19.421875 -72.648438 19.421875 -69.203125 C 19.421875 -65.742188 19.945312 -61.976562 21 -57.90625 C 22.050781 -53.832031 23.773438 -49.976562 26.171875 -46.34375 C 28.578125 -42.707031 31.816406 -39.71875 35.890625 -37.375 C 37.492188 -36.507812 39.21875 -36.414062 41.0625 -37.09375 C 42.914062 -37.769531 44.769531 -38.816406 46.625 -40.234375 C 48.476562 -41.660156 50.328125 -42.988281 52.171875 -44.21875 C 54.023438 -45.445312 55.875 -46.242188 57.71875 -46.609375 C 59.570312 -46.984375 61.363281 -46.429688 63.09375 -44.953125 Z M 63.09375 -44.953125 "/></g></g><g style="fill:#000000;fill-opacity:1;"><g transform="translate(186.014306, 263.212343)"><path style="stroke:none" d="M 73.640625 -33.125 C 76.847656 -33.125 78.941406 -31.953125 79.921875 -29.609375 C 80.910156 -27.265625 80.878906 -24.425781 79.828125 -21.09375 C 78.785156 -17.757812 76.753906 -14.425781 73.734375 -11.09375 C 70.710938 -7.769531 66.734375 -5.054688 61.796875 -2.953125 C 55.128906 -0.242188 49.546875 0.738281 45.046875 0 C 40.546875 -0.738281 36.722656 -2.710938 33.578125 -5.921875 C 30.429688 -9.128906 27.503906 -13.015625 24.796875 -17.578125 C 23.554688 -19.921875 22.289062 -22.140625 21 -24.234375 C 19.707031 -26.328125 18.378906 -27.992188 17.015625 -29.234375 C 15.785156 -30.335938 14.519531 -30.675781 13.21875 -30.25 C 11.925781 -29.820312 10.664062 -28.003906 9.4375 -24.796875 C 8.570312 -22.691406 7.675781 -22.132812 6.75 -23.125 C 5.820312 -24.113281 4.988281 -25.960938 4.25 -28.671875 C 3.507812 -31.390625 2.921875 -34.378906 2.484375 -37.640625 C 2.054688 -40.910156 1.90625 -43.84375 2.03125 -46.4375 C 2.40625 -53.46875 4.222656 -60.128906 7.484375 -66.421875 C 10.753906 -72.710938 15.441406 -77.832031 21.546875 -81.78125 C 27.660156 -85.726562 35.21875 -87.703125 44.21875 -87.703125 C 55.9375 -87.816406 64.628906 -85.253906 70.296875 -80.015625 C 75.972656 -74.773438 78.875 -68.023438 79 -59.765625 C 79 -59.765625 78.101562 -59.515625 76.3125 -59.015625 C 74.53125 -58.523438 72.28125 -57.910156 69.5625 -57.171875 C 66.851562 -56.429688 63.957031 -55.722656 60.875 -55.046875 C 57.789062 -54.367188 54.953125 -53.84375 52.359375 -53.46875 C 52.109375 -53.957031 51.953125 -54.296875 51.890625 -54.484375 C 51.828125 -54.671875 51.675781 -54.945312 51.4375 -55.3125 C 54.269531 -60.5 55.75 -65.34375 55.875 -69.84375 C 56 -74.34375 55.070312 -78.070312 53.09375 -81.03125 C 51.125 -84 48.164062 -85.539062 44.21875 -85.65625 C 40.394531 -85.90625 37.15625 -84.085938 34.5 -80.203125 C 31.851562 -76.316406 29.847656 -71.257812 28.484375 -65.03125 C 27.128906 -58.800781 26.390625 -52.234375 26.265625 -45.328125 C 26.265625 -40.640625 26.507812 -35.675781 27 -30.4375 C 27.5 -25.195312 28.644531 -20.382812 30.4375 -16 C 32.226562 -11.625 34.910156 -8.234375 38.484375 -5.828125 C 42.054688 -3.421875 46.925781 -2.648438 53.09375 -3.515625 C 57.164062 -4.128906 60.835938 -5.703125 64.109375 -8.234375 C 67.378906 -10.765625 69.015625 -14.679688 69.015625 -19.984375 C 69.015625 -22.328125 67.378906 -24.390625 64.109375 -26.171875 C 60.835938 -27.960938 56.796875 -29.320312 51.984375 -30.25 C 47.179688 -31.175781 42.3125 -31.515625 37.375 -31.265625 C 37.375 -31.265625 37.25 -31.296875 37 -31.359375 C 36.757812 -31.421875 36.640625 -31.695312 36.640625 -32.1875 C 36.640625 -32.5625 36.757812 -32.8125 37 -32.9375 C 37.25 -33.0625 37.375 -33.125 37.375 -33.125 C 37.863281 -33.125 39.679688 -33.125 42.828125 -33.125 C 45.972656 -33.125 49.640625 -33.125 53.828125 -33.125 C 58.023438 -33.125 62.003906 -33.125 65.765625 -33.125 C 69.535156 -33.125 72.160156 -33.125 73.640625 -33.125 Z M 73.640625 -33.125 "/></g></g></g></svg>