<svg xmlns="http://www.w3.org/2000/svg" xmlns:xlink="http://www.w3.org/1999/xlink" width="500" zoomAndPan="magnify" viewBox="0 0 375 374.999991" height="500" preserveAspectRatio="xMidYMid meet" version="1.2"><defs><clipPath id="136467c744"><path d="M 0 321 L 375 321 L 375 331.425781 L 0 331.425781 Z M 0 321 "/></clipPath></defs><g id="b8ef12bc25"><path style=" stroke:none;fill-rule:evenodd;fill:#daa082;fill-opacity:1;" d="M 109.78125 114.378906 L 166.613281 64.753906 C 178.351562 75.164062 191.0625 85.019531 190.699219 102.339844 L 184.148438 145.84375 C 177.128906 167.359375 164.769531 168.425781 150.976562 164.003906 C 154.917969 176.996094 152.542969 190.375 150.765625 203.703125 C 127.535156 204.367188 111.367188 185.859375 93.089844 173.085938 Z M 109.78125 114.378906 "/><path style=" stroke:none;fill-rule:evenodd;fill:#253038;fill-opacity:1;" d="M 142.816406 46.753906 C 126.203125 43.453125 112.171875 45.875 98.910156 60.175781 C 90.625 69.109375 89.878906 81.941406 87.996094 92.554688 C 85.679688 105.59375 80.398438 115.332031 72.800781 123.53125 C 63.261719 133.820312 57.347656 141.300781 58.6875 152.53125 L 72.800781 159.410156 C 73.515625 153.707031 75.753906 145.863281 78.671875 140.164062 C 76.71875 149.535156 77.515625 159.335938 80.40625 167.828125 C 88.058594 169.800781 95.382812 170.464844 102.59375 170.675781 C 113.453125 156.964844 117.988281 140.292969 114.765625 119.984375 C 136.574219 108.609375 158.148438 97.828125 167.121094 76.714844 C 172.851562 85.574219 178.847656 90.460938 185.019531 92.722656 L 183.492188 127.160156 C 183.300781 137.046875 179.816406 145.875 173.464844 153.558594 C 164.265625 164.683594 159.21875 165.503906 151.347656 163.746094 L 151.25 176.289062 C 158.175781 180.695312 165.742188 181.1875 174.921875 180.636719 C 175.648438 177.59375 175.296875 174.546875 174.289062 171.5 C 176.386719 174.242188 176.976562 177.183594 176.910156 180.210938 L 180.898438 179.542969 C 184.804688 171.511719 187.15625 163.203125 187.230469 154.496094 C 189.5 161.269531 188.207031 169.039062 184.839844 177.386719 L 190.605469 176.789062 C 196.269531 170.65625 203.410156 156.703125 195.335938 143.660156 C 190.5 135.847656 187.652344 122.738281 189.558594 111.695312 C 199.734375 106.875 206.066406 97.445312 195.953125 79.316406 C 188.085938 65.214844 172.625 52.675781 142.816406 46.753906 Z M 142.816406 46.753906 "/><path style="fill-rule:evenodd;fill:#5c7182;fill-opacity:1;stroke-width:1.15;stroke-linecap:round;stroke-linejoin:round;stroke:#253038;stroke-opacity:1;stroke-miterlimit:1.5;" d="M 684.417008 9.217445 C 699.575176 12.622336 714.255052 15.972012 726.653845 20.002667 C 589.568085 47.168176 553.824978 145.321063 554.799957 268.062784 C 589.420918 287.53508 601.91169 343.651365 570.399625 382.485528 C 543.872831 415.190887 510.116475 407.111173 487.268848 399.233911 C 421.540531 376.559177 429.837052 289.743658 491.113577 265.081204 C 503.806703 117.180098 552.316519 16.487347 684.417008 9.217445 Z M 684.417008 9.217445 " transform="matrix(0.212344,0,0,0.212241,0.0000045,45.446027)"/><path style="fill-rule:nonzero;fill:#5c7182;fill-opacity:1;stroke-width:2.02;stroke-linecap:round;stroke-linejoin:round;stroke:#2a3d5e;stroke-opacity:1;stroke-miterlimit:1.5;" d="M 565.671895 333.69436 C 565.671895 338.277159 565.285583 342.804744 564.476166 347.295519 C 563.685145 351.76789 562.507812 356.129831 560.944166 360.344534 C 559.362124 364.577642 557.448957 368.589892 555.18627 372.399689 C 552.905186 376.191081 550.329769 379.706401 547.441623 382.945649 C 544.535081 386.184896 541.389394 389.074453 538.00456 391.614317 C 534.601331 394.154182 531.014143 396.289141 527.224601 398.037598 C 523.453455 399.804461 519.553538 401.111203 515.543246 402.013039 C 511.532954 402.89647 507.48587 403.35659 503.401995 403.35659 C 499.299724 403.35659 495.25264 402.89647 491.242348 402.013039 C 487.232056 401.111203 483.350535 399.804461 479.560993 398.037598 C 475.789847 396.289141 472.202659 394.154182 468.79943 391.614317 C 465.396201 389.074453 462.250513 386.184896 459.362367 382.945649 C 456.474221 379.706401 453.880408 376.191081 451.61772 372.399689 C 449.336637 368.589892 447.42347 364.577642 445.859824 360.344534 C 444.296178 356.129831 443.118845 351.76789 442.309428 347.295519 C 441.518407 342.804744 441.113699 338.277159 441.113699 333.69436 C 441.113699 329.129965 441.518407 324.60238 442.309428 320.111605 C 443.118845 315.62083 444.296178 311.277293 445.859824 307.044185 C 447.42347 302.829482 449.336637 298.817232 451.61772 295.007435 C 453.880408 291.197638 456.474221 287.682318 459.362367 284.443071 C 462.250513 281.222228 465.396201 278.332672 468.79943 275.792807 C 472.202659 273.252942 475.789847 271.099579 479.560993 269.351121 C 483.350535 267.602664 487.232056 266.277517 491.242348 265.394086 C 495.25264 264.49225 499.299724 264.050534 503.401995 264.050534 C 507.48587 264.050534 511.532954 264.49225 515.543246 265.394086 C 519.553538 266.277517 523.453455 267.602664 527.224601 269.351121 C 531.014143 271.099579 534.601331 273.252942 538.00456 275.792807 C 541.389394 278.332672 544.535081 281.222228 547.441623 284.443071 C 550.329769 287.682318 552.905186 291.197638 555.18627 295.007435 C 557.448957 298.817232 559.362124 302.829482 560.944166 307.044185 C 562.507812 311.277293 563.685145 315.62083 564.476166 320.111605 C 565.285583 324.60238 565.671895 329.129965 565.671895 333.69436 Z M 565.671895 333.69436 " transform="matrix(0.212344,0,0,0.212241,0.0000045,45.446027)"/><path style=" stroke:none;fill-rule:evenodd;fill:#a47860;fill-opacity:1;" d="M 116.171875 136.421875 C 126.640625 149.945312 141.449219 161.835938 154.082031 164.257812 L 151.253906 175.25 C 135.59375 168.015625 121.027344 151.515625 116.171875 136.421875 Z M 116.171875 136.421875 "/><path style="fill-rule:evenodd;fill:#da735f;fill-opacity:1;stroke-width:2.02;stroke-linecap:round;stroke-linejoin:round;stroke:#253038;stroke-opacity:1;stroke-miterlimit:1.5;" d="M 518.210642 531.766995 L 461.109971 540.950999 L 427.537573 586.042799 C 375.146236 605.551904 327.887336 625.392297 270.363561 644.901402 C 152.133532 812.127565 348.932171 1249.886126 476.544076 1294.60983 L 868.559313 1300.830658 L 1144.460042 1297.849078 C 1053.658202 1112.199693 968.191154 903.489074 885.060377 684.563782 L 798.931079 651.876828 L 721.613386 579.601113 L 679.210987 741.176997 L 623.434816 650.606895 C 578.32823 629.699024 543.688873 605.588714 503.714724 559.061338 C 508.939141 550.171812 513.722058 541.043023 518.210642 531.766995 Z M 518.210642 531.766995 " transform="matrix(0.212344,0,0,0.212241,0.0000045,45.446027)"/><path style="fill:none;stroke-width:2.02;stroke-linecap:round;stroke-linejoin:round;stroke:#253038;stroke-opacity:1;stroke-miterlimit:1.5;" d="M 427.353614 585.674703 C 449.63097 639.08548 504.873662 681.747845 557.044249 724.299781 L 623.821129 650.367633 " transform="matrix(0.212344,0,0,0.212241,0.0000045,45.446027)"/><path style="fill:none;stroke-width:2.02;stroke-linecap:round;stroke-linejoin:round;stroke:#253038;stroke-opacity:1;stroke-miterlimit:1.5;" d="M 708.736302 634.815563 L 785.354953 710.551383 L 799.170225 652.281734 " transform="matrix(0.212344,0,0,0.212241,0.0000045,45.446027)"/><path style="fill:none;stroke-width:2.02;stroke-linecap:round;stroke-linejoin:round;stroke:#253038;stroke-opacity:1;stroke-miterlimit:1.5;" d="M 679.670883 740.606448 C 694.497926 908.035064 695.068197 1082.733582 694.369155 1250.162198 " transform="matrix(0.212344,0,0,0.212241,0.0000045,45.446027)"/><path style="fill:none;stroke-width:2.02;stroke-linecap:round;stroke-linejoin:round;stroke:#253038;stroke-opacity:1;stroke-miterlimit:1.5;" d="M 874.53796 757.078759 C 870.178147 784.575555 869.129584 811.501801 872.624793 837.691855 C 878.916168 884.82659 904.688733 936.857007 903.916108 967.445812 C 893.651232 1068.819541 868.209793 1143.340643 842.878728 1225.389315 " transform="matrix(0.212344,0,0,0.212241,0.0000045,45.446027)"/><path style="fill-rule:evenodd;fill:#daa082;fill-opacity:1;stroke-width:2.02;stroke-linecap:round;stroke-linejoin:round;stroke:#253038;stroke-opacity:1;stroke-miterlimit:1.5;" d="M 650.18236 1186.757605 C 665.94759 1189.573542 681.197737 1192.665551 695.104988 1196.420134 C 710.778239 1200.653242 722.772324 1199.84343 731.326387 1193.641006 C 747.091617 1182.174806 765.45066 1165.352804 779.376307 1160.199455 C 803.03335 1155.266964 841.940541 1152.009312 882.466564 1139.65968 L 1000.531032 1235.41994 C 1000.089531 1280.879837 988.352989 1303.002426 949.059486 1288.149739 C 911.642358 1275.247963 874.53796 1261.462755 839.217957 1242.340151 C 807.006851 1253.751137 772.845786 1269.726518 755.075409 1283.198844 L 609.987461 1293.358302 C 582.945584 1252.186728 599.244294 1217.051933 650.18236 1186.757605 Z M 650.18236 1186.757605 " transform="matrix(0.212344,0,0,0.212241,0.0000045,45.446027)"/><path style="fill:none;stroke-width:2.02;stroke-linecap:round;stroke-linejoin:round;stroke:#253038;stroke-opacity:1;stroke-miterlimit:1.5;" d="M 849.574812 1157.015422 L 886.32969 1157.512352 L 995.76651 1243.757322 " transform="matrix(0.212344,0,0,0.212241,0.0000045,45.446027)"/><path style="fill:none;stroke-width:2.02;stroke-linecap:round;stroke-linejoin:round;stroke:#253038;stroke-opacity:1;stroke-miterlimit:1.5;" d="M 807.31958 1172.107371 L 880.075106 1170.819034 L 988.150635 1249.738887 " transform="matrix(0.212344,0,0,0.212241,0.0000045,45.446027)"/><path style="fill:none;stroke-width:2.02;stroke-linecap:round;stroke-linejoin:round;stroke:#253038;stroke-opacity:1;stroke-miterlimit:1.5;" d="M 831.822832 1203.045868 L 854.26575 1207.426214 L 980.589947 1279.996406 " transform="matrix(0.212344,0,0,0.212241,0.0000045,45.446027)"/><path style="fill-rule:evenodd;fill:#da735f;fill-opacity:1;stroke-width:2.02;stroke-linecap:round;stroke-linejoin:round;stroke:#253038;stroke-opacity:1;stroke-miterlimit:1.5;" d="M 269.627728 645.343118 C 342.236087 682.539252 394.388279 748.557329 410.686988 865.096627 L 379.027757 1102.702808 C 387.710591 1106.107699 387.397861 1119.782478 374.925486 1127.070785 C 472.165868 1157.291494 572.220813 1181.530637 669.461195 1186.168651 C 631.437004 1215.174642 607.669586 1247.438285 620.859399 1304.62205 L 196.688243 1300.775443 C 187.324763 1290.689604 175.661804 1275.965751 175.569825 1256.640693 C 174.318908 969.175864 194.057639 735.637148 269.627728 645.343118 Z M 269.627728 645.343118 " transform="matrix(0.212344,0,0,0.212241,0.0000045,45.446027)"/><path style="fill:none;stroke-width:2.02;stroke-linecap:round;stroke-linejoin:round;stroke:#253038;stroke-opacity:1;stroke-miterlimit:1.5;" d="M 259.896331 1145.843698 C 289.311271 1118.843832 334.951337 1104.00955 379.027757 1102.702808 " transform="matrix(0.212344,0,0,0.212241,0.0000045,45.446027)"/><path style="fill:none;stroke-width:2.02;stroke-linecap:round;stroke-linejoin:round;stroke:#253038;stroke-opacity:1;stroke-miterlimit:1.5;" d="M 286.75425 1170.414128 C 310.944772 1145.641245 343.72615 1119.432786 375.017465 1127.144404 " transform="matrix(0.212344,0,0,0.212241,0.0000045,45.446027)"/><path style="fill:none;stroke-width:2.02;stroke-linecap:round;stroke-linejoin:round;stroke:#253038;stroke-opacity:1;stroke-miterlimit:1.5;" d="M 562.213478 1174.187115 C 510.944287 1199.84343 475.054014 1236.156133 517.842725 1302.468687 " transform="matrix(0.212344,0,0,0.212241,0.0000045,45.446027)"/><path style="fill-rule:evenodd;fill:#5c7182;fill-opacity:1;stroke-width:2.02;stroke-linecap:round;stroke-linejoin:round;stroke:#253038;stroke-opacity:1;stroke-miterlimit:1.5;" d="M 1114.695582 865.280675 L 1649.609663 866.440179 C 1667.122497 865.611962 1671.371935 873.36039 1662.265997 893.973784 L 1526.891049 1300.131275 L 969.957154 1298.971771 Z M 1114.695582 865.280675 " transform="matrix(0.212344,0,0,0.212241,0.0000045,45.446027)"/><path style="fill-rule:evenodd;fill:#2a3d5e;fill-opacity:1;stroke-width:2.02;stroke-linecap:round;stroke-linejoin:round;stroke:#253038;stroke-opacity:1;stroke-miterlimit:1.5;" d="M 1105.663227 865.29908 L 1121.446853 865.372699 L 985.648801 1299.928822 L 580.186209 1299.542321 L 581.124397 1276.793967 L 722.514782 1276.757158 L 975.696655 1275.119129 Z M 1105.663227 865.29908 " transform="matrix(0.212344,0,0,0.212241,0.0000045,45.446027)"/><g clip-rule="nonzero" clip-path="url(#136467c744)"><path style=" stroke:none;fill-rule:evenodd;fill:#253038;fill-opacity:1;" d="M 374.992188 326.332031 C 374.992188 323.539062 372.726562 321.269531 369.929688 321.269531 L 5.0625 321.269531 C 2.269531 321.269531 0 323.539062 0 326.332031 C 0 329.125 2.269531 331.394531 5.0625 331.394531 L 369.929688 331.394531 C 372.726562 331.394531 374.992188 329.125 374.992188 326.332031 Z M 374.992188 326.332031 "/></g></g></svg>