<svg xmlns="http://www.w3.org/2000/svg" xmlns:xlink="http://www.w3.org/1999/xlink" width="500" zoomAndPan="magnify" viewBox="0 0 375 374.999991" height="500" preserveAspectRatio="xMidYMid meet" version="1.2"><g id="e5d7845178"><path style=" stroke:none;fill-rule:nonzero;fill:#e17158;fill-opacity:1;" d="M 292.199219 82.953125 C 292.105469 83.085938 289.792969 83.632812 289.144531 83.992188 C 284.914062 86.304688 279.265625 97.113281 277.5625 101.667969 C 269.691406 122.742188 275.785156 159.523438 282.460938 180.820312 C 284.125 186.125 286.195312 192.554688 289.027344 197.316406 C 294.972656 207.339844 309.296875 212.023438 320.386719 212.828125 C 328.71875 213.429688 330.65625 209.214844 333.835938 202.785156 C 346.503906 177.214844 352.273438 148.648438 348.726562 120.054688 C 345.324219 92.695312 327.1875 81.0625 300.507812 81.460938 C 298.855469 81.484375 296.339844 82.117188 294.816406 81.984375 C 293.894531 81.90625 293.417969 81.085938 292.589844 81.210938 C 291.363281 81.398438 292.339844 82.78125 292.207031 82.960938 Z M 292.199219 82.953125 "/><path style=" stroke:none;fill-rule:nonzero;fill:#e17158;fill-opacity:1;" d="M 297.894531 211.871094 C 297.597656 212.109375 291.394531 210.597656 290.292969 210.425781 C 268.371094 207.082031 231.960938 209.042969 211.742188 218.601562 C 203.292969 222.601562 188.773438 233.003906 197.097656 243.589844 C 202.121094 249.976562 214.921875 251.804688 222.746094 253.40625 C 249.808594 258.9375 277.039062 257.460938 302.992188 248.078125 C 315.410156 243.597656 328.132812 236.574219 319.433594 221.476562 C 316.386719 216.1875 304.960938 210.683594 299.003906 210.636719 C 297.121094 210.621094 297.988281 211.816406 297.902344 211.886719 Z M 297.894531 211.871094 "/><path style=" stroke:none;fill-rule:nonzero;fill:#000000;fill-opacity:1;" d="M 207.148438 322.578125 C 207.703125 322.109375 208.554688 322.195312 209.140625 321.898438 C 225.660156 313.71875 242.769531 303.574219 257.601562 293.617188 L 257.71875 276.957031 C 256.726562 275.378906 254.335938 274.027344 254.023438 271.980469 C 253.601562 269.207031 256.132812 269.667969 256.242188 268.519531 L 254.015625 256.25 C 254.835938 256.273438 255.523438 256.53125 256.375 256.515625 C 262.8125 256.382812 269.339844 255.015625 275.769531 254.601562 L 276.5625 254.796875 C 276.5625 257.71875 276.664062 260.65625 276.601562 263.574219 C 276.570312 264.863281 275.9375 267.480469 276.46875 268.644531 C 276.632812 269.003906 277.265625 269.292969 277.523438 269.816406 C 278.695312 272.199219 276.34375 274.753906 274.339844 275.753906 C 274.535156 281.523438 276.023438 287.460938 275.339844 293.1875 C 275.660156 293.179688 275.964844 293.257812 276.257812 293.382812 C 291.105469 300.097656 307.539062 306.511719 321.636719 314.460938 C 328.828125 318.515625 345.636719 327.738281 335.988281 337.566406 C 329.765625 343.898438 316.753906 339.207031 314.542969 330.972656 C 313.246094 326.148438 314.636719 322.914062 318.496094 319.960938 C 312.121094 317.460938 306.164062 314 299.984375 311.0625 C 290.144531 306.394531 280.09375 302.128906 270.292969 297.355469 C 269.683594 297.058594 269.550781 296.558594 269.636719 295.910156 C 270.042969 295.503906 272.074219 297.027344 272.605469 297.152344 C 272.449219 296.316406 272.816406 294.777344 272.621094 294.078125 C 272.597656 294.007812 271.441406 293.414062 271.261719 293.40625 C 270.558594 293.398438 269.933594 293.679688 269.269531 293.695312 C 268.402344 293.710938 264.308594 293.53125 263.953125 293.96875 C 263.875 294.0625 263.882812 295.300781 263.390625 296.003906 C 263.078125 296.457031 262.257812 296.839844 262.203125 297.058594 C 262.15625 297.261719 262.703125 298.214844 262.804688 298.644531 C 263.40625 301.121094 263.351562 303.261719 263.703125 305.683594 C 264.605469 311.875 267.316406 320.679688 265.105469 326.484375 C 263.203125 331.480469 255.960938 333.621094 252.8125 328.472656 C 250.097656 324.046875 251.535156 318.875 252.835938 314.210938 C 254.015625 309.980469 255.78125 305.964844 257.273438 301.855469 L 220.707031 324.351562 C 223.542969 323.023438 231.273438 341.542969 214.601562 342.542969 C 201.136719 343.355469 197.730469 330.511719 207.15625 322.585938 Z M 207.148438 322.578125 "/><path style=" stroke:none;fill-rule:nonzero;fill:#000000;fill-opacity:1;" d="M 308.273438 257.148438 C 306.234375 255.820312 308.085938 253.210938 307.320312 252.648438 L 293.925781 251.046875 C 296.261719 250.382812 299.484375 248.390625 301.851562 248.179688 C 304.289062 247.960938 311.972656 249.476562 314.003906 250.9375 C 319.746094 255.0625 312.378906 259.828125 308.273438 257.15625 Z M 308.273438 257.148438 "/><path style=" stroke:none;fill-rule:nonzero;fill:#f5b984;fill-opacity:1;" d="M 147.160156 294.378906 C 147.738281 293.632812 150.917969 289.195312 151.550781 289.140625 C 152.003906 289.101562 157.761719 295.824219 159.859375 298.902344 C 161.085938 300.699219 161.195312 304.324219 161 306.457031 C 160.914062 307.378906 160.117188 308.722656 160.46875 309.183594 C 161.320312 310.292969 166.632812 313.15625 168.070312 312.289062 C 168.40625 312.085938 169.71875 309.324219 170.152344 310.9375 C 170.292969 311.460938 167.796875 314.726562 167.4375 314.898438 C 167 315.117188 166.6875 313.921875 165.695312 315.125 C 162.882812 318.546875 159.640625 323.679688 157.628906 327.636719 C 157.035156 328.816406 154.066406 336.183594 153.417969 336.316406 C 151.847656 336.652344 154.082031 333.113281 153.792969 332.847656 C 153.753906 332.808594 153.082031 332.925781 152.660156 332.621094 C 152.222656 332.308594 150.746094 330.019531 150.628906 329.449219 C 150.339844 328.035156 150.957031 327.550781 151.050781 326.515625 C 151.519531 321.085938 151.574219 317.429688 154.332031 312.4375 C 154.777344 311.625 156.191406 310.175781 155.917969 309.558594 C 155.832031 309.371094 153.574219 307.183594 153.378906 307.128906 C 152.238281 306.792969 146.320312 308.199219 146.40625 306.253906 C 146.429688 305.589844 147.042969 305.769531 147.113281 305.347656 C 145.375 305.972656 143.492188 304.199219 142.242188 304.113281 C 141.460938 304.058594 140.6875 304.527344 139.796875 304.347656 C 138.570312 304.097656 139.390625 303.839844 137.320312 303.863281 C 135.210938 303.894531 133.074219 304.511719 133.464844 301.621094 C 137.40625 301.402344 140.617188 302.871094 147.167969 294.386719 Z M 149.222656 305.589844 C 148.832031 305.917969 148.191406 305.902344 148.089844 306.324219 L 151.808594 306.074219 L 149.605469 304.855469 C 149.550781 304.894531 149.480469 305.378906 149.230469 305.589844 Z M 149.222656 305.589844 "/><path style=" stroke:none;fill-rule:nonzero;fill:#8c3c3c;fill-opacity:1;" d="M 165.945312 314.257812 C 166.34375 314.664062 162.609375 318.773438 162.351562 319.476562 C 162.070312 320.257812 162.335938 320.640625 162.992188 321.054688 C 164.664062 322.109375 170.417969 324.492188 172.308594 324.65625 C 172.746094 324.695312 173.167969 324.765625 173.535156 324.445312 C 174.941406 322.164062 176.355469 319.882812 178.003906 317.757812 C 183.664062 310.480469 191.125 304.066406 197.332031 297.160156 C 199.324219 294.941406 201.355469 291.515625 203.394531 289.585938 C 204.730469 288.320312 206.921875 287.53125 208.484375 286.242188 C 212.46875 282.953125 214.875 278.164062 218.050781 274.230469 C 221.308594 270.183594 225.292969 266.925781 228.558594 262.667969 C 234.765625 254.578125 237.335938 247.148438 246.972656 242.152344 C 249.621094 240.777344 257.742188 236.574219 260.140625 235.980469 C 261.84375 235.558594 264.394531 235.441406 266.363281 235.011719 C 270.558594 234.082031 274.074219 232.425781 278 231.277344 C 283.148438 229.769531 287.289062 229.769531 292.371094 227.046875 C 295.691406 225.265625 302.625 218.914062 304.15625 215.523438 C 306.3125 210.738281 306.6875 200.285156 302.625 196.386719 C 300.773438 194.609375 299.082031 196.355469 298.574219 198.292969 C 298.441406 198.800781 298.441406 200.128906 298.378906 200.207031 C 298.261719 200.347656 295.058594 201.277344 294.839844 201.207031 C 294.417969 201.074219 294.355469 199.886719 293.683594 199.613281 C 293.371094 199.480469 293.035156 199.746094 292.714844 199.613281 C 291.871094 199.269531 289.667969 197.503906 288.496094 196.878906 C 276.734375 190.671875 266.433594 187.445312 253.765625 183.742188 C 250.644531 182.828125 243.925781 180.007812 241.074219 180.203125 C 238.546875 180.375 235.921875 183.59375 233.132812 184.4375 C 230.429688 185.25 227.550781 184.367188 225.238281 184.976562 C 224.144531 185.265625 221.300781 187.453125 219.957031 188.125 C 213.21875 191.507812 205.257812 193.617188 200.925781 200.339844 C 200.628906 200.808594 200.683594 201.363281 200.402344 201.800781 C 197.972656 205.621094 185.0625 212.773438 180.660156 215.78125 C 171.855469 221.8125 169.28125 226.21875 164.921875 235.753906 C 159.742188 247.085938 156.246094 260.234375 151.824219 271.996094 C 150.066406 276.667969 145.992188 283.976562 141.976562 286.945312 C 140.40625 288.109375 138.007812 289.039062 136.695312 290.09375 C 135.523438 291.039062 136.210938 291.882812 136.71875 293.023438 C 137.8125 295.480469 139.484375 298.136719 141.570312 299.847656 C 145.976562 297.628906 147.433594 291.039062 152.316406 292.632812 C 156.027344 293.84375 160.71875 300.832031 161 304.574219 C 161.078125 305.566406 160 309.527344 160.109375 309.777344 C 160.617188 310.921875 163.164062 312.015625 164.085938 312.757812 C 164.609375 313.171875 164.828125 313.78125 165.226562 314.109375 C 165.445312 314.289062 165.914062 314.21875 165.945312 314.25 Z M 165.945312 314.257812 "/><path style=" stroke:none;fill-rule:nonzero;fill:#508c7c;fill-opacity:1;" d="M 202.652344 154.734375 C 201.089844 153.65625 200.003906 150.820312 198.246094 150.210938 C 197.410156 149.921875 196.871094 150.351562 196.089844 149.390625 C 193.894531 146.65625 197.691406 144.292969 199.925781 143.332031 C 202.285156 142.324219 205.804688 142.160156 207.734375 140.722656 C 208.359375 140.261719 208.8125 139.496094 209.515625 139.027344 C 211.03125 138.011719 213.390625 137.761719 215.03125 136.855469 C 217.269531 135.621094 217.769531 134.988281 220.511719 134.152344 C 222.207031 133.636719 223.097656 134.199219 224.121094 132.308594 C 224.488281 131.628906 225.738281 126.703125 225.738281 125.976562 C 225.738281 124.28125 224.183594 120.554688 223.808594 118.460938 C 222.964844 113.71875 221.988281 107.144531 222.527344 102.449219 C 223.066406 97.753906 226.847656 87.070312 229.695312 83.335938 C 231.8125 80.558594 235.445312 78.964844 236.890625 77.144531 C 237.351562 76.566406 237.851562 74.933594 238.328125 74.121094 C 240.507812 70.425781 243.949219 68.042969 247.707031 66.136719 C 257.5625 61.140625 269.988281 57.4375 281.125 58.945312 C 284.171875 59.359375 292.027344 61.203125 292.628906 64.800781 C 292.753906 65.550781 292.378906 66.753906 292.441406 66.832031 C 292.472656 66.871094 293.121094 67.027344 293.410156 67.230469 C 297.144531 69.832031 302.585938 73.769531 300.304688 79.050781 C 300.09375 79.542969 299.238281 80.277344 299.484375 80.726562 C 302.601562 83.1875 305.726562 85.765625 308.15625 88.929688 C 309.414062 90.570312 310.09375 92.296875 311.175781 93.851562 C 312.277344 95.429688 313.777344 96.898438 314.855469 98.597656 C 321.589844 109.183594 324.9375 123.195312 327.078125 135.472656 C 328.085938 141.277344 329.898438 151.578125 328.257812 157.078125 C 327.484375 159.65625 324.539062 164.660156 321.746094 165.324219 C 319.722656 174.503906 317.480469 183.796875 313.808594 192.46875 C 312.800781 194.859375 311.058594 197.519531 310.234375 199.808594 C 309.296875 202.417969 309.5 202.863281 307.953125 205.464844 C 307.3125 206.535156 307.445312 207.855469 305.632812 208.121094 C 304.257812 208.324219 300.132812 205.988281 298.707031 205.238281 C 293.152344 202.285156 286.679688 196.941406 280.773438 195.398438 C 278.6875 194.851562 273.628906 194.695312 272.339844 193.414062 C 271.824219 192.90625 271.535156 191.820312 271.097656 191.4375 C 270.480469 190.898438 269.261719 190.9375 268.488281 190.078125 C 267.886719 189.421875 267.863281 188.242188 267.324219 188 C 258.765625 185.984375 250.019531 184.390625 241.644531 181.703125 C 240.234375 181.25 236.507812 180.4375 236.179688 178.980469 C 235.625 176.496094 238.09375 175.519531 238.125 175.292969 C 238.21875 174.667969 237.53125 174.378906 237.3125 173.878906 C 236.5 172.050781 236.90625 169.488281 237.679688 167.691406 C 238.0625 166.808594 239.859375 164.761719 239.84375 164.144531 C 239.835938 163.832031 238.4375 162.335938 238.140625 161.648438 C 236.898438 158.773438 238.15625 158.492188 238.789062 156.148438 C 239.078125 155.078125 239.164062 153.976562 239.109375 152.875 C 238.9375 152.695312 234.742188 154.140625 234.3125 154.398438 C 233.734375 154.742188 233.351562 155.414062 232.75 155.804688 C 232.15625 156.195312 231.09375 156.421875 230.695312 156.726562 C 230.328125 157.015625 229.960938 158.054688 229.546875 158.554688 C 226.292969 162.429688 223.511719 161.296875 219.261719 162.15625 C 216.445312 162.722656 214.640625 164.480469 211.53125 163.457031 C 210.914062 163.253906 210.117188 162.578125 209.71875 162.539062 C 208.867188 162.460938 207.53125 162.933594 206.28125 162.761719 C 204.402344 162.507812 201.792969 159.929688 201.113281 158.25 C 200.699219 157.226562 201.410156 157.117188 201.410156 156.960938 C 201.410156 156.8125 199.207031 155.625 199.683594 154.609375 C 200.746094 154.265625 202.355469 156.109375 202.660156 154.734375 Z M 246.902344 72.277344 C 247.144531 72.238281 250.332031 70.058594 251.011719 69.691406 L 260.6875 65.113281 C 260.171875 65.074219 259.695312 65.082031 259.195312 65.230469 C 256.90625 65.886719 252.230469 68.222656 249.933594 69.363281 C 249.457031 69.605469 246.433594 71.160156 246.332031 71.339844 C 246.128906 71.699219 246.417969 72.355469 246.894531 72.285156 Z M 246.902344 72.277344 "/><path style=" stroke:none;fill-rule:nonzero;fill:#e17158;fill-opacity:1;" d="M 97.992188 315.992188 C 97.460938 315.992188 96.898438 316.078125 96.390625 316.257812 C 94.742188 316.835938 91.5625 319.539062 91.3125 321.34375 C 90.476562 327.410156 98.460938 334.457031 103.277344 337.105469 C 109.660156 340.621094 114.320312 341.589844 121.421875 342.519531 C 124.730469 342.957031 125.183594 343.734375 127.863281 344.757812 C 132.972656 346.703125 139.03125 348.03125 144.492188 347.96875 C 148.808594 347.921875 149.136719 345.734375 151.324219 343.144531 C 152.785156 341.410156 154.261719 340.621094 155.160156 338.300781 C 155.519531 337.363281 155.558594 336.347656 155.855469 335.527344 C 156.441406 333.902344 157.566406 332.832031 157.542969 330.738281 C 157.511719 328.144531 155.316406 330.238281 153.972656 329.824219 C 153.574219 329.699219 153.300781 329.144531 152.894531 328.917969 C 152.402344 328.644531 151.542969 328.628906 151.316406 328.144531 C 158.183594 325.421875 160.820312 320.375 158.515625 313.140625 C 155.167969 302.667969 143.28125 302.847656 134.363281 301.332031 C 126.167969 299.933594 118.945312 297.550781 111.074219 295.355469 C 107.699219 294.417969 104.582031 293.710938 101.105469 294.699219 C 93.671875 296.808594 93.328125 306.636719 96.125 312.523438 C 96.398438 313.101562 98.273438 315.695312 97.984375 316 Z M 97.992188 315.992188 "/><path style=" stroke:none;fill-rule:nonzero;fill:#c3c3c3;fill-opacity:1;" d="M 259.953125 199.722656 C 260.359375 199.832031 260.070312 199.285156 260.351562 199.214844 C 261.109375 199.035156 261.570312 199.621094 261.804688 199.628906 C 262.125 199.628906 264.097656 198.800781 264.863281 198.777344 C 265.613281 198.753906 265.886719 199.386719 267.207031 198.964844 C 267.441406 198.886719 267.324219 198.488281 267.753906 198.464844 C 268.949219 198.386719 268.871094 199.285156 269.003906 199.230469 C 269.480469 199.058594 269.332031 198.035156 269.378906 197.988281 C 269.519531 197.847656 270.230469 198.003906 270.496094 198.238281 C 271.597656 199.191406 270.933594 202.027344 270.957031 203.277344 C 271.839844 245.9375 273.480469 288.570312 274.074219 331.246094 C 273.988281 337.363281 275.144531 344.554688 274.589844 350.585938 C 274.410156 352.585938 272.839844 352.648438 271.113281 353.054688 C 269.246094 353.5 265.449219 354.21875 263.929688 352.796875 C 262.671875 351.617188 263.242188 345.125 263.1875 343.128906 C 261.90625 299.597656 260.390625 256.03125 259.203125 212.5 C 259.078125 207.964844 259.117188 203.410156 258.960938 198.871094 C 259.96875 198.410156 260.070312 198.753906 259.960938 199.722656 Z M 259.953125 199.722656 "/><path style=" stroke:none;fill-rule:nonzero;fill:#c3c3c3;fill-opacity:1;" d="M 31.519531 188.8125 C 33.238281 188.171875 32.527344 191.054688 32.753906 191.296875 C 32.832031 191.375 34.425781 191.296875 34.996094 191.40625 C 37.636719 191.929688 40.503906 193.609375 43.171875 194.273438 L 43.171875 190.804688 C 44.75 190.578125 44.085938 193.421875 44.164062 194.648438 C 44.8125 204.691406 44.804688 214.84375 45.140625 224.90625 C 46.265625 258.601562 47.546875 292.375 48.632812 326.03125 C 48.757812 329.972656 49.125 334.371094 49.140625 338.183594 C 49.148438 341.957031 42.171875 342.769531 39.527344 341.574219 C 38.511719 341.113281 37.027344 339.597656 36.996094 338.441406 C 36.441406 315.703125 35.347656 292.828125 34.472656 270.019531 C 33.464844 243.816406 32.855469 217.585938 31.496094 191.4375 C 31.449219 190.570312 31.550781 189.6875 31.511719 188.820312 Z M 31.519531 188.8125 "/><path style=" stroke:none;fill-rule:nonzero;fill:#c3c3c3;fill-opacity:1;" d="M 134.699219 217.570312 C 134.765625 217.507812 134.527344 216.1875 135.078125 216.085938 C 136.046875 215.898438 135.65625 219.226562 135.695312 219.921875 C 136.976562 240.816406 136.671875 262.386719 137.171875 283.398438 C 137.835938 311.695312 139.210938 340.105469 139.15625 368.433594 C 139.15625 369.363281 139.695312 370.003906 138.84375 370.949219 C 136.882812 373.113281 127.949219 375.003906 126.277344 371.394531 C 126.097656 359.414062 125.589844 347.382812 125.285156 335.449219 C 124.308594 297.964844 124.347656 260.34375 122.804688 222.898438 C 122.703125 220.382812 122.671875 217.851562 122.554688 215.335938 C 124.464844 216.492188 127.402344 217.609375 129.628906 217.8125 C 130.238281 217.867188 134.527344 217.75 134.707031 217.570312 Z M 134.699219 217.570312 "/><path style=" stroke:none;fill-rule:nonzero;fill:#c3c3c3;fill-opacity:1;" d="M 154.535156 210.386719 C 154.699219 210.542969 154.261719 214.203125 155.457031 214.554688 C 155.730469 214.632812 158.84375 214.390625 159.34375 214.320312 C 160.007812 214.226562 164.742188 213.0625 164.929688 212.835938 C 165.070312 212.664062 164.890625 211.933594 164.953125 211.621094 L 165.945312 211.621094 C 166.195312 218.8125 166.523438 226.046875 166.382812 233.253906 C 163.476562 238.097656 162.34375 243.644531 160.429688 248.867188 C 158.765625 253.40625 156.730469 257.867188 155.152344 262.441406 L 153.542969 210.378906 C 153.785156 210.417969 154.472656 210.316406 154.535156 210.378906 Z M 154.535156 210.386719 "/><path style=" stroke:none;fill-rule:nonzero;fill:#e88756;fill-opacity:1;" d="M 23.117188 175.707031 C 23.132812 177.957031 22.984375 180.242188 23.078125 182.5 C 23.101562 183.03125 23.304688 183.492188 23.335938 183.976562 C 23.414062 185.203125 23.054688 188.445312 24.148438 189.117188 L 130.371094 218.070312 C 177.777344 212.101562 225.066406 205.089844 272.457031 198.957031 C 274.003906 198.300781 275.488281 198.449219 275.582031 196.363281 C 275.621094 195.589844 275.277344 194.914062 275.300781 194.148438 C 275.363281 191.859375 276.414062 188.664062 273.644531 187.390625 L 177.949219 164.808594 C 176.886719 163.480469 175.011719 164.152344 173.324219 163.957031 C 169.867188 163.558594 165.828125 161.921875 162.328125 161.3125 C 118.929688 165.800781 75.507812 170.097656 32.128906 174.683594 C 30.894531 174.816406 23.46875 175.152344 23.109375 175.707031 Z M 23.117188 175.707031 "/><path style=" stroke:none;fill-rule:nonzero;fill:#000000;fill-opacity:1;" d="M 92.039062 117.171875 L 92.101562 118.476562 L 115.890625 173.167969 C 132.753906 177.542969 149.402344 183.132812 166.328125 187.28125 L 227.683594 179.859375 C 228.027344 178.488281 227.160156 178.285156 226.089844 177.925781 C 213.21875 174.730469 200.183594 172.089844 187.335938 168.816406 C 183.304688 167.785156 177.472656 165.339844 173.449219 165.074219 C 170.011719 164.847656 164.15625 166.527344 160.382812 166.753906 C 159.898438 166.785156 159.414062 166.808594 158.929688 166.722656 L 158.5625 166.347656 L 144.773438 128.8125 L 93.101562 117.242188 L 92.046875 117.179688 Z M 92.039062 117.171875 "/><path style=" stroke:none;fill-rule:nonzero;fill:#f5b984;fill-opacity:1;" d="M 273.839844 69.941406 C 273.636719 70.355469 270.378906 71.722656 269.644531 72.199219 C 268.394531 73.011719 267.316406 74.300781 266.136719 75.136719 C 264.839844 76.050781 263.289062 76.675781 261.953125 77.652344 C 259.640625 79.355469 258.0625 81.695312 255.40625 83 C 253.757812 83.8125 251.878906 84.28125 250.027344 84.195312 C 250.503906 82.132812 250.183594 80.261719 249.652344 78.253906 C 249.269531 76.800781 246.472656 70.167969 245.144531 69.863281 C 244.675781 69.753906 242.761719 70.183594 241.746094 70.050781 C 237.140625 69.441406 228.992188 61.085938 226.613281 57.164062 C 223.542969 52.085938 220.121094 40.417969 220.011719 34.511719 C 219.917969 29.65625 221.472656 20.960938 223.738281 16.648438 C 228.714844 7.175781 249.011719 12.214844 254.867188 19 C 256.554688 20.960938 258.460938 25.164062 260.203125 26.554688 C 261.734375 27.773438 264.761719 26.742188 266.042969 27.65625 C 266.746094 28.15625 267.972656 31.425781 268.253906 32.386719 C 269.839844 37.792969 269.230469 42.199219 269.113281 47.617188 C 269.082031 49.164062 269.113281 50.695312 269.371094 52.21875 C 268.003906 50.90625 265.589844 50.757812 264.152344 52.085938 C 263.492188 52.695312 263.359375 53.445312 262.921875 54.09375 C 262.765625 54.328125 262.296875 54.382812 262.226562 54.5 C 261.757812 55.273438 263.40625 59.804688 263.867188 60.820312 C 265.941406 65.324219 269.605469 67.683594 273.832031 69.949219 Z M 273.839844 69.941406 "/><path style=" stroke:none;fill-rule:nonzero;fill:#f5b984;fill-opacity:1;" d="M 203.769531 170.230469 C 203.675781 170.066406 202.503906 169.253906 202.472656 169.175781 C 202.308594 168.761719 202.386719 168.449219 202.636719 168.097656 C 202.996094 167.613281 205.921875 165.644531 206.640625 165.160156 C 209.375 163.339844 215.828125 159.453125 218.925781 159.09375 C 225.738281 158.3125 232.59375 161.898438 239.203125 163.308594 C 243.199219 164.167969 246.355469 163.261719 250.277344 162.414062 C 256.726562 161.007812 263 158.84375 269.496094 157.570312 C 273.472656 160.570312 276.0625 166.011719 275.832031 171.066406 C 270.371094 171.847656 264.839844 172.636719 259.335938 173.191406 C 253.101562 173.816406 245.667969 174.691406 239.507812 174.941406 C 234.671875 175.136719 229.890625 173.222656 225.113281 173.691406 C 221.738281 174.027344 218.886719 176.074219 215.75 176.980469 C 213.53125 177.621094 211.5 178.574219 211.34375 175.425781 C 209.421875 176.035156 208.1875 176.714844 206.039062 176.394531 C 204.183594 176.121094 204.777344 175.082031 203.894531 174.566406 C 203.222656 174.175781 201.863281 174.472656 202.269531 173.183594 C 202.597656 172.152344 204.542969 171.566406 203.777344 170.222656 Z M 203.769531 170.230469 "/><path style=" stroke:none;fill-rule:nonzero;fill:#f5b984;fill-opacity:1;" d="M 175.949219 153.320312 C 181.722656 150.539062 185.460938 151.210938 191.296875 150.070312 C 193.304688 149.679688 195.652344 148.40625 197.347656 148.179688 C 199.394531 147.90625 201.863281 148.4375 204.035156 148.421875 C 207.53125 148.398438 209.984375 147.382812 212.390625 150.953125 C 215.3125 155.289062 211.070312 158.195312 207 158.570312 C 205.367188 158.71875 201.292969 157.953125 200.285156 158.554688 C 199.292969 159.148438 197.277344 165.300781 195.707031 167.113281 C 194.699219 168.285156 187.953125 173.441406 188.820312 169.160156 C 189.179688 167.371094 190.609375 166.957031 191.453125 165.839844 C 192.203125 164.855469 192.28125 163.925781 190.984375 164.878906 C 189.078125 166.277344 185.601562 170.941406 183.375 171.402344 C 180.707031 171.957031 182.320312 169.488281 182.070312 169.230469 C 180.964844 169.644531 178.222656 170.855469 177.207031 169.996094 C 176.832031 169.683594 176.894531 169.019531 176.855469 168.980469 C 176.722656 168.839844 174.136719 170.480469 173.136719 169.472656 C 174.363281 166.496094 174.378906 163.175781 175.644531 160.210938 C 175.855469 159.726562 177.160156 158.3125 176.222656 158.078125 C 175.652344 157.9375 173.597656 159.265625 173.160156 159.710938 C 171.894531 161.015625 170.980469 164.550781 168.664062 163.519531 C 170.089844 159.101562 171.527344 155.4375 175.941406 153.320312 Z M 175.949219 153.320312 "/><path style=" stroke:none;fill-rule:nonzero;fill:#bac48e;fill-opacity:1;" d="M 40.960938 175.910156 C 45.023438 176.449219 49.125 176.839844 53.183594 177.449219 C 63.144531 178.957031 73.0625 180.898438 82.964844 182.609375 C 91.382812 178.800781 99.683594 174.769531 107.917969 170.589844 C 108.722656 169.691406 107.488281 163.964844 107.917969 162.445312 C 107.847656 162.148438 107.261719 162.125 107.011719 162.070312 C 104.667969 161.539062 101.332031 161.320312 98.851562 161.046875 C 89.375 159.984375 79.832031 159.445312 70.359375 158.320312 C 63.503906 160.304688 56.863281 162.957031 50.0625 165.074219 C 47.625 165.832031 43.359375 166.496094 41.304688 167.472656 C 41.046875 167.597656 40.789062 167.808594 40.558594 167.988281 C 40.921875 170.824219 41.09375 173.503906 40.960938 175.902344 Z M 40.960938 175.910156 "/><path style=" stroke:none;fill-rule:nonzero;fill:#e17158;fill-opacity:1;" d="M 40.238281 164.730469 C 41.289062 165.074219 42.351562 165.371094 43.421875 165.636719 C 52.242188 167.832031 62.207031 169.910156 71.15625 171.628906 C 72.679688 171.925781 76.152344 172.777344 77.496094 172.683594 C 79.714844 172.527344 85.496094 170.066406 87.890625 169.167969 C 94.132812 166.816406 100.246094 164.035156 106.425781 161.53125 C 105.699219 158.898438 107.503906 155.1875 106.019531 152.898438 C 95.953125 151.804688 86.074219 149.320312 76.011719 148.179688 C 74.328125 147.992188 70.875 147.492188 69.367188 147.671875 C 66.15625 148.070312 60.285156 150.507812 56.824219 151.492188 C 51.179688 153.101562 44.945312 154.507812 39.441406 156.570312 C 40.355469 159.132812 40.167969 163.441406 40.238281 164.714844 Z M 40.238281 164.730469 "/><path style=" stroke:none;fill-rule:nonzero;fill:#ffffff;fill-opacity:1;" d="M 130.355469 171.957031 C 132.519531 170.667969 135.265625 169.675781 137.789062 169.472656 C 140.320312 169.269531 145.726562 169.621094 148.144531 170.300781 C 151.589844 171.269531 150.269531 172.035156 150.574219 174.816406 C 150.746094 176.410156 152.355469 176.277344 153.628906 177.214844 C 156.800781 179.539062 156.777344 184.15625 154.894531 187.3125 C 153.917969 188.945312 152.636719 189.484375 151.105469 190.46875 L 151.269531 196.207031 C 145.601562 199.605469 137.460938 200.128906 131.542969 197.183594 L 130.363281 171.957031 Z M 151.066406 187.453125 C 151.089844 187.726562 150.925781 188.28125 151.433594 188.070312 C 152.058594 187.8125 153.597656 185.453125 153.800781 184.734375 C 154.542969 182.109375 154.089844 178.253906 150.816406 177.910156 C 150.800781 181.085938 150.832031 184.28125 151.066406 187.453125 Z M 151.066406 187.453125 "/><path style=" stroke:none;fill-rule:nonzero;fill:#000000;fill-opacity:1;" d="M 213.820312 36.480469 C 214 34.675781 214.976562 32.871094 215.289062 31.253906 C 216.179688 26.648438 215.601562 23.570312 217.667969 18.75 C 221.855469 8.949219 230.21875 6.589844 239.421875 3.558594 C 241.566406 2.855469 244.308594 1.707031 246.503906 1.464844 C 251.183594 0.933594 259.804688 2.636719 262.8125 6.597656 C 263.359375 7.324219 263.992188 9.316406 264.238281 9.511719 C 264.550781 9.761719 267.628906 10.160156 268.441406 10.386719 C 272.792969 11.628906 277.851562 15.617188 277.320312 20.609375 C 277.234375 21.40625 276.601562 22.273438 276.9375 22.960938 C 279.023438 24.453125 281.046875 25.804688 282 28.328125 C 284.359375 34.550781 279.234375 38.246094 276.828125 43.292969 C 277.5625 43.207031 278.125 42.683594 278.859375 42.480469 C 283.773438 41.105469 289.003906 43.191406 290.152344 48.4375 C 290.308594 49.140625 290.894531 53.515625 289.597656 53.210938 C 289.042969 53.078125 288.941406 51.359375 288.738281 50.84375 C 286.9375 46.207031 284.203125 44.785156 279.296875 46.277344 L 282.90625 47.003906 C 289.683594 50.101562 289.542969 59.53125 283.640625 63.625 C 282.109375 64.683594 280.5 64.207031 279.304688 64.738281 C 278.890625 64.917969 278.632812 65.628906 278.296875 65.964844 C 278.039062 66.222656 277.484375 66.238281 277.367188 66.402344 C 277.234375 66.589844 277.296875 67.160156 277.132812 67.519531 C 276.742188 68.347656 274.605469 69.308594 273.707031 69.332031 C 272.285156 69.371094 270.238281 67.417969 269.011719 66.582031 C 268.355469 66.128906 267.558594 65.941406 266.777344 65.339844 C 264.503906 63.59375 262.640625 60.09375 261.859375 57.359375 C 261.078125 54.601562 261.570312 52.023438 261.5625 49.226562 C 259.554688 48.429688 258.164062 46.480469 256.398438 45.464844 C 254.835938 44.566406 252.8125 44.191406 251.261719 43.402344 C 247.542969 41.511719 245.542969 35.503906 242.824219 32.253906 C 242.464844 31.824219 239.992188 29.273438 239.726562 29.15625 C 239.59375 29.09375 239.304688 29.109375 239.359375 29.273438 C 242.222656 33.167969 242.785156 37.722656 245.925781 41.550781 C 246.449219 42.183594 250.011719 44.941406 247.207031 44.753906 C 245.339844 44.628906 242.644531 43.433594 241.019531 42.488281 C 238.40625 40.972656 238.117188 39.144531 234.828125 40.363281 C 233.734375 40.769531 233.015625 41.597656 231.921875 41.792969 C 231.195312 39.949219 236.140625 38.996094 236.132812 38.691406 C 233.554688 36.019531 231.625 31.964844 227.707031 31.132812 C 227.597656 34.675781 224.128906 36.222656 222.292969 38.738281 C 220.339844 41.425781 219.355469 44.808594 219.261719 48.101562 C 219.152344 51.992188 219.738281 56.40625 221.503906 59.890625 C 220.972656 60.40625 218.144531 56.71875 217.832031 56.25 C 214.296875 50.875 213.195312 42.785156 213.8125 36.464844 Z M 213.820312 36.480469 "/><path style=" stroke:none;fill-rule:nonzero;fill:#000000;fill-opacity:1;" d="M 231.3125 72.558594 C 231.914062 70.253906 229.984375 68.707031 231.625 65.925781 C 233.289062 63.109375 234.59375 65.980469 236.164062 67.199219 C 240.957031 70.925781 244.230469 71.152344 248.792969 66.972656 C 251.472656 64.519531 253.195312 61.546875 254.320312 58.117188 C 254.421875 57.8125 254.820312 54.453125 255.625 55.679688 C 256.53125 57.070312 253.375 63.210938 252.375 64.589844 C 247.988281 70.652344 241.214844 71.308594 237.265625 77.503906 L 230.523438 82.914062 C 229.8125 83.09375 229.4375 82.875 229.476562 82.125 C 229.570312 80.300781 230.242188 78.082031 231.195312 76.511719 C 230.28125 76.222656 229.109375 75.871094 228.765625 74.894531 C 228.8125 74.355469 230.890625 74.222656 231.328125 72.550781 Z M 231.3125 72.558594 "/><path style=" stroke:none;fill-rule:nonzero;fill:#000000;fill-opacity:1;" d="M 225.464844 43.917969 C 226.933594 44.394531 230.148438 47.558594 230.804688 48.992188 C 232 51.601562 231.3125 53.867188 230.4375 56.421875 L 233.898438 57.554688 C 235.039062 59.945312 229.554688 57.289062 229.429688 56.757812 C 229.515625 55.078125 230.507812 53.3125 230.4375 51.617188 C 230.296875 48.140625 225.027344 43.753906 221.503906 44.542969 C 221.269531 42.863281 224.410156 43.589844 225.464844 43.933594 Z M 225.464844 43.917969 "/><path style=" stroke:none;fill-rule:nonzero;fill:#000000;fill-opacity:1;" d="M 236.703125 44.113281 C 238.921875 42.292969 241.730469 47.027344 238.242188 47.277344 C 236.171875 47.425781 235.304688 45.261719 236.703125 44.113281 Z M 236.703125 44.113281 "/><path style=" stroke:none;fill-rule:nonzero;fill:#000000;fill-opacity:1;" d="M 246.675781 71.558594 C 247.683594 71.777344 246.222656 73.511719 246.058594 73.910156 C 245.136719 76.121094 245.292969 77.472656 246.308594 79.628906 L 245.691406 80.238281 C 244.753906 79.214844 244.238281 77.535156 244.324219 76.152344 C 244.371094 75.308594 245.621094 71.332031 246.683594 71.558594 Z M 246.675781 71.558594 "/><path style=" stroke:none;fill-rule:nonzero;fill:#000000;fill-opacity:1;" d="M 224.230469 47.609375 C 224.902344 47.441406 226.511719 48.578125 226.675781 49.171875 C 227.074219 50.59375 224.917969 50.976562 224.042969 50.171875 C 223.472656 49.640625 223.082031 47.789062 224.222656 47.609375 Z M 224.230469 47.609375 "/><path style=" stroke:none;fill-rule:nonzero;fill:#000000;fill-opacity:1;" d="M 240.589844 62.867188 C 240.453125 63.070312 238.164062 63.609375 237.734375 63.625 C 236.578125 63.6875 235.679688 63.09375 237.015625 62.640625 C 237.335938 62.53125 240.046875 61.859375 240.210938 61.890625 C 240.53125 61.960938 240.746094 62.625 240.589844 62.859375 Z M 240.589844 62.867188 "/><path style=" stroke:none;fill-rule:nonzero;fill:#000000;fill-opacity:1;" d="M 241.105469 66.839844 C 237.789062 67.199219 237.796875 65.488281 241.105469 65.847656 Z M 241.105469 66.839844 "/><path style=" stroke:none;fill-rule:nonzero;fill:#ffffff;fill-opacity:1;" d="M 75.65625 163.660156 C 75.65625 163.660156 79.300781 167.886719 76.621094 171.488281 L 40.128906 163.660156 L 39.628906 157.296875 L 75.648438 163.660156 Z M 75.65625 163.660156 "/><path style=" stroke:none;fill-rule:nonzero;fill:#ffffff;fill-opacity:1;" d="M 82.667969 181.15625 L 40.976562 175.089844 L 40.550781 168.660156 L 81.316406 173.394531 C 84.785156 176.996094 82.660156 181.15625 82.660156 181.15625 Z M 82.667969 181.15625 "/><path style=" stroke:none;fill-rule:nonzero;fill:#ffffff;fill-opacity:1;" d="M 231.242188 4.933594 C 230.882812 5.300781 230.726562 6.417969 231.335938 6.589844 C 231.65625 6.675781 232.28125 6.316406 232.78125 6.347656 C 234.242188 6.441406 236.65625 6.902344 238.132812 7.214844 C 246.957031 9.074219 255.679688 14.757812 258.726562 23.570312 C 250.058594 28.695312 253 46.363281 262.710938 48.335938 C 275.183594 50.882812 277.828125 29.757812 267.214844 23.507812 C 265.644531 22.585938 263.710938 22.148438 262.3125 20.96875 C 261.273438 18.789062 261.007812 16.609375 259.992188 14.371094 C 256.109375 5.824219 245.964844 0.0820312 236.625 2.503906 C 235.90625 2.691406 231.59375 4.558594 231.242188 4.925781 Z M 231.242188 4.933594 "/><path style=" stroke:none;fill-rule:nonzero;fill:#000000;fill-opacity:1;" d="M 166.398438 301.933594 C 172.660156 291.429688 176.785156 279.976562 181.574219 268.753906 C 181.675781 268.441406 181.511719 268.261719 181.207031 268.386719 C 180.933594 268.503906 178.160156 271.371094 177.730469 271.855469 C 174.785156 275.113281 170.253906 281.117188 168.304688 284.992188 C 167.9375 285.726562 166.890625 288.96875 166.710938 289.101562 C 166.460938 289.273438 166.234375 289.21875 165.960938 289.21875 C 166.054688 286.171875 168.101562 283.226562 169.726562 280.710938 C 173.144531 275.433594 177.402344 269.910156 182.53125 266.238281 L 194.433594 232.519531 C 194.816406 231.144531 192.546875 232.972656 192.171875 233.238281 C 189.59375 235.019531 187.609375 237.597656 185.320312 239.277344 C 184.984375 239.527344 184.820312 239.746094 184.320312 239.636719 C 184.25 239.175781 184.320312 238.902344 184.554688 238.511719 C 185.445312 236.988281 191.625 232.238281 193.359375 231.199219 C 193.941406 230.855469 194.847656 230.800781 195.246094 230.355469 C 195.808594 229.714844 196.660156 226.851562 197.167969 225.835938 C 200.082031 220.023438 202.667969 217.070312 207.945312 213.304688 C 210.265625 211.652344 215.109375 208.050781 217.410156 206.902344 C 217.769531 206.722656 217.996094 206.621094 218.417969 206.667969 C 218.863281 207.238281 218.152344 207.675781 217.777344 208.011719 C 211.070312 214.03125 204.449219 214.828125 199.402344 223.859375 C 192.804688 235.636719 188.625 253 183.757812 265.980469 C 179.050781 278.523438 171.722656 297.707031 163.679688 308.144531 C 163.234375 308.722656 162.835938 309.714844 161.992188 309.550781 C 161.9375 309.121094 162.023438 308.777344 162.1875 308.378906 C 162.835938 306.816406 165.359375 303.699219 166.40625 301.941406 Z M 166.398438 301.933594 "/><path style=" stroke:none;fill-rule:nonzero;fill:#000000;fill-opacity:1;" d="M 275.199219 242.613281 C 276.367188 242.417969 277.9375 242.488281 279.140625 242.332031 C 290.496094 240.839844 302.25 237.230469 312.113281 231.402344 C 312.792969 231.003906 316.644531 228.117188 316.996094 228.476562 C 317.035156 228.933594 317.050781 229.199219 316.746094 229.582031 C 316.222656 230.230469 312.886719 232.199219 311.957031 232.730469 C 303.65625 237.480469 293.972656 240.847656 284.554688 242.527344 C 282.15625 242.957031 277.710938 243.863281 275.441406 243.605469 C 274.378906 243.488281 274.261719 242.761719 275.207031 242.605469 Z M 275.199219 242.613281 "/><path style=" stroke:none;fill-rule:nonzero;fill:#000000;fill-opacity:1;" d="M 257.109375 234.417969 C 258.085938 234.527344 258.375 235.105469 257.34375 235.417969 C 246.386719 235.378906 235.242188 235.660156 224.394531 237.191406 C 222.925781 237.402344 220.964844 238.074219 219.644531 238.152344 C 218.996094 238.191406 219.292969 237.644531 219.300781 237.183594 C 226.949219 235.464844 234.882812 235.003906 242.707031 234.675781 C 246.988281 234.496094 252.914062 233.949219 257.109375 234.417969 Z M 257.109375 234.417969 "/><path style=" stroke:none;fill-rule:nonzero;fill:#000000;fill-opacity:1;" d="M 200.308594 287.492188 C 202.730469 285.296875 204.769531 282.601562 207.117188 280.414062 C 207.828125 279.75 210.382812 277.558594 211.085938 277.191406 C 211.765625 276.847656 212.109375 277.613281 211.460938 278.3125 C 210.59375 279.265625 208.664062 280.40625 207.609375 281.40625 C 205.328125 283.5625 203.300781 286.203125 200.917969 288.359375 C 197.160156 291.75 192.320312 295.550781 187.273438 296.410156 L 187.53125 295.550781 C 192.367188 293.914062 196.558594 290.882812 200.300781 287.492188 Z M 200.308594 287.492188 "/><path style=" stroke:none;fill-rule:nonzero;fill:#000000;fill-opacity:1;" d="M 155.402344 295.417969 C 150.761719 291.414062 143.96875 289.851562 138.070312 291.6875 C 136.710938 290.46875 139.398438 290.085938 140.3125 289.992188 C 148.785156 289.117188 156.371094 292.585938 160.296875 300.207031 C 160.5625 300.722656 161.921875 303.707031 161.953125 304.019531 C 162.007812 304.558594 161.429688 304.683594 161.007812 304.582031 C 159.65625 301.214844 158.207031 297.839844 155.410156 295.425781 Z M 155.402344 295.417969 "/><path style=" stroke:none;fill-rule:nonzero;fill:#000000;fill-opacity:1;" d="M 185.960938 247.101562 C 186.445312 247.03125 186.703125 247.6875 186.507812 248.03125 C 186.414062 248.195312 183.882812 249.671875 183.3125 250.164062 C 177.699219 254.921875 173.910156 263.042969 171.035156 269.628906 C 170.519531 270.808594 169.804688 270.496094 169.964844 269.324219 C 170.410156 266.003906 175.324219 258.359375 177.402344 255.421875 C 179.707031 252.171875 182.367188 248.976562 185.960938 247.101562 Z M 185.960938 247.101562 "/><path style=" stroke:none;fill-rule:nonzero;fill:#000000;fill-opacity:1;" d="M 217.292969 247.195312 C 217.902344 246.617188 223.347656 244.902344 224.542969 244.527344 C 229.304688 243.050781 234.25 241.839844 239.117188 240.878906 L 239.101562 241.855469 L 217.042969 248.0625 C 217.011719 247.664062 216.976562 247.492188 217.292969 247.195312 Z M 217.292969 247.195312 "/><path style=" stroke:none;fill-rule:nonzero;fill:#000000;fill-opacity:1;" d="M 157.394531 275.589844 C 157.863281 275.058594 159.429688 272.527344 159.867188 272.613281 C 161.15625 272.871094 158.554688 275.847656 158.25 276.199219 C 155.511719 279.398438 150.574219 283.726562 146.855469 285.632812 C 146.582031 285.773438 143.585938 287.484375 143.625 286.375 C 143.640625 285.945312 148.308594 283.5625 149.160156 282.984375 C 151.863281 281.125 155.222656 278.0625 157.394531 275.597656 Z M 157.394531 275.589844 "/><path style=" stroke:none;fill-rule:nonzero;fill:#000000;fill-opacity:1;" d="M 219.613281 261.964844 L 220.011719 262.566406 C 216.023438 264.425781 212.046875 266.433594 208.1875 268.605469 C 207.203125 269.160156 205.199219 270.753906 204.394531 271.019531 C 204.027344 271.136719 203.480469 271.167969 203.394531 270.753906 C 203.316406 270.378906 204.503906 269.652344 204.800781 269.441406 C 206.804688 268.027344 209.695312 266.542969 211.90625 265.386719 C 213.0625 264.785156 218.800781 261.738281 219.605469 261.972656 Z M 219.613281 261.964844 "/><path style=" stroke:none;fill-rule:nonzero;fill:#000000;fill-opacity:1;" d="M 171.761719 318.234375 C 172.683594 319.625 174.183594 322.96875 171.402344 322.929688 C 171.363281 322.1875 171.941406 321.890625 171.917969 321.078125 C 171.886719 319.992188 170.167969 317.914062 169.390625 317.125 C 168.726562 316.453125 165.617188 314.414062 165.5 314.195312 C 165.40625 314.023438 165.40625 313.296875 165.445312 313.257812 C 166.140625 312.507812 171.222656 317.421875 171.753906 318.234375 Z M 171.761719 318.234375 "/><path style=" stroke:none;fill-rule:nonzero;fill:#000000;fill-opacity:1;" d="M 282.546875 208.003906 C 281.125 206.949219 279.867188 205.480469 278.5625 204.300781 C 278.046875 203.832031 275.457031 202.152344 275.582031 201.582031 C 275.839844 201.261719 275.96875 201.121094 276.40625 201.246094 L 284.257812 208.277344 C 283.71875 209.050781 283.078125 208.394531 282.554688 208.003906 Z M 282.546875 208.003906 "/><path style=" stroke:none;fill-rule:nonzero;fill:#000000;fill-opacity:1;" d="M 278.804688 198.730469 C 279.265625 198.628906 279.632812 198.449219 280.140625 198.488281 C 281.375 198.574219 288.660156 202.636719 288.480469 203.558594 C 288.402344 203.972656 287.871094 203.957031 287.492188 203.808594 C 286.21875 203.300781 284.09375 201.347656 282.53125 200.582031 C 281.40625 200.035156 280.125 199.839844 279.234375 199.410156 C 278.898438 199.246094 278.726562 199.144531 278.804688 198.730469 Z M 278.804688 198.730469 "/><path style=" stroke:none;fill-rule:nonzero;fill:#000000;fill-opacity:1;" d="M 131.339844 366.074219 C 132.628906 366.042969 137.210938 364.503906 137.523438 364.597656 C 138.28125 364.824219 137.859375 365.339844 137.359375 365.621094 C 136.007812 366.394531 128.410156 368.136719 128.003906 366.183594 C 128.339844 365.066406 130.144531 366.097656 131.339844 366.066406 Z M 131.339844 366.074219 "/><path style=" stroke:none;fill-rule:nonzero;fill:#000000;fill-opacity:1;" d="M 41.039062 332.324219 C 42.789062 332.332031 45.03125 331.496094 46.75 331.121094 C 47.023438 331.332031 47.289062 331.457031 47.023438 331.863281 C 46.351562 332.910156 38.800781 334.113281 38.457031 332.472656 C 38.222656 331.355469 40.503906 332.324219 41.039062 332.324219 Z M 41.039062 332.324219 "/><path style=" stroke:none;fill-rule:nonzero;fill:#000000;fill-opacity:1;" d="M 264.0625 345.273438 C 264.292969 345.226562 265.957031 345.53125 266.746094 345.460938 C 268.433594 345.3125 270.292969 344.59375 271.964844 344.257812 L 272.355469 344.867188 C 272.128906 345.984375 265.464844 346.695312 264.300781 346.484375 C 263.429688 346.328125 263.515625 345.390625 264.070312 345.273438 Z M 264.0625 345.273438 "/><path style=" stroke:none;fill-rule:nonzero;fill:#000000;fill-opacity:1;" d="M 99.527344 319.789062 C 101.496094 323.007812 101.246094 326.773438 103.488281 329.707031 C 105.941406 332.925781 110.378906 334.988281 114.109375 336.316406 C 114.4375 334.808594 114.671875 333.269531 114.617188 331.714844 C 114.570312 330.394531 113.8125 328.019531 113.875 326.992188 C 113.898438 326.648438 114.109375 326.367188 114.476562 326.398438 C 115.15625 326.539062 115.546875 330.191406 115.59375 330.980469 C 115.703125 332.894531 115.476562 334.691406 115.203125 336.566406 C 115.796875 337.433594 124.105469 337.980469 125.519531 337.800781 L 125.519531 339.042969 C 118.078125 338.988281 108.089844 336.800781 103.066406 330.863281 C 100.449219 327.761719 100.941406 325.320312 99.519531 322.015625 C 98.890625 320.5625 97.859375 319.390625 96.992188 318.09375 C 97.84375 316.960938 99.101562 319.09375 99.519531 319.78125 Z M 99.527344 319.789062 "/><path style=" stroke:none;fill-rule:nonzero;fill:#000000;fill-opacity:1;" d="M 124.050781 327.503906 L 122.296875 327.394531 L 122.546875 330.863281 C 121.554688 331.878906 120.882812 327.714844 121.3125 327.144531 L 119.328125 326.898438 C 119.179688 327.246094 119.578125 327.636719 119.578125 327.761719 L 119.578125 331.480469 C 119.578125 331.730469 118.796875 331.988281 118.585938 331.847656 C 118.242188 331.621094 118.171875 327.316406 118.585938 326.648438 C 114.070312 325.875 108.464844 324.476562 104.722656 321.789062 C 103.871094 321.179688 99.707031 317.632812 99.359375 316.976562 C 98.882812 316.046875 99.957031 316.257812 100.605469 316.726562 C 104.394531 319.460938 105.121094 321.4375 110.089844 323.359375 C 114.8125 325.171875 120.226562 326.3125 125.285156 326.398438 L 125.285156 331.230469 C 125.285156 331.332031 125.597656 331.628906 125.535156 331.964844 L 125.035156 332.222656 L 124.058594 327.488281 Z M 124.050781 327.503906 "/><path style=" stroke:none;fill-rule:nonzero;fill:#000000;fill-opacity:1;" d="M 100.878906 296.917969 C 106.175781 296.730469 113.960938 303.230469 118.65625 305.871094 C 120.6875 307.011719 122.757812 308.136719 124.996094 308.832031 L 125.027344 310.042969 C 118.609375 308.019531 113.460938 303.292969 107.738281 300.175781 C 105.308594 298.855469 102.769531 297.746094 99.910156 298.207031 C 99.441406 298.277344 96.5 299.753906 96.507812 298.769531 C 96.507812 298.066406 100.214844 296.949219 100.886719 296.925781 Z M 100.878906 296.917969 "/><path style=" stroke:none;fill-rule:nonzero;fill:#000000;fill-opacity:1;" d="M 155.894531 320.710938 C 156.011719 318.195312 154.207031 316.835938 152.222656 315.703125 C 148.535156 313.59375 144.273438 313.039062 140.15625 314.007812 C 139.890625 312.8125 142.117188 312.585938 143 312.515625 C 146.597656 312.210938 155.800781 314.601562 156.722656 318.648438 C 156.886719 319.359375 156.996094 321.515625 155.902344 320.710938 Z M 155.894531 320.710938 "/><path style=" stroke:none;fill-rule:nonzero;fill:#000000;fill-opacity:1;" d="M 147.488281 328.894531 C 148.027344 328.699219 150.480469 327.023438 150.824219 327.394531 C 150.613281 329.488281 154.378906 329.261719 155.871094 329.417969 L 156.167969 329.613281 L 156.277344 330.371094 C 154.832031 330.433594 153.464844 330.386719 152.058594 330.003906 C 151.238281 329.777344 150.191406 329.683594 150.324219 328.636719 C 150.207031 328.519531 148.058594 329.855469 147.597656 329.996094 C 146.988281 330.191406 146.140625 330.332031 145.5 330.378906 C 144.179688 330.480469 140.195312 330.589844 139.039062 330.378906 C 138.484375 330.269531 138.171875 329.691406 138.171875 329.136719 C 140.960938 329.308594 144.828125 329.871094 147.488281 328.902344 Z M 147.488281 328.894531 "/><path style=" stroke:none;fill-rule:nonzero;fill:#000000;fill-opacity:1;" d="M 153.542969 311.28125 C 152.449219 311.382812 151.667969 310.457031 150.699219 310.042969 C 146.375 308.199219 142.203125 308.574219 137.710938 307.777344 L 137.671875 306.824219 C 143.132812 307.503906 148.714844 307.175781 153.503906 310.332031 Z M 153.542969 311.28125 "/><path style=" stroke:none;fill-rule:nonzero;fill:#000000;fill-opacity:1;" d="M 141.085938 334.894531 C 143.664062 334.394531 147.066406 334.480469 149.675781 334.863281 C 150.363281 334.964844 153.300781 335.402344 153.308594 336.191406 C 153.324219 336.535156 153.152344 336.730469 152.792969 336.722656 C 152.027344 336.699219 150.261719 335.996094 149.183594 335.855469 C 146.792969 335.542969 143.71875 335.496094 141.34375 335.886719 C 140.320312 336.058594 139.414062 336.535156 138.429688 336.816406 C 138.09375 335.394531 139.992188 335.113281 141.09375 334.894531 Z M 141.085938 334.894531 "/><path style=" stroke:none;fill-rule:nonzero;fill:#000000;fill-opacity:1;" d="M 100.828125 314.828125 L 107.609375 302.121094 L 108.664062 302.679688 L 101.882812 315.390625 Z M 100.828125 314.828125 "/><path style=" stroke:none;fill-rule:nonzero;fill:#000000;fill-opacity:1;" d="M 112.160156 321.679688 L 117.953125 308.835938 L 119.019531 309.316406 L 113.230469 322.164062 Z M 112.160156 321.679688 "/><path style=" stroke:none;fill-rule:nonzero;fill:#000000;fill-opacity:1;" d="M 112.875 307.066406 C 113.257812 307.464844 111.882812 310.285156 111.601562 310.867188 C 110.371094 313.445312 108.746094 315.90625 107.636719 318.554688 C 107.269531 319.28125 106.246094 319 106.527344 318.195312 L 111.914062 307.457031 L 112.875 307.058594 Z M 112.875 307.066406 "/><path style=" stroke:none;fill-rule:nonzero;fill:#000000;fill-opacity:1;" d="M 123.660156 312.023438 C 124.472656 312.203125 123.527344 313.945312 123.332031 314.421875 C 122.4375 316.664062 121.085938 320.195312 119.953125 322.203125 C 119.085938 323.734375 118.296875 323.460938 118.953125 321.703125 C 119.84375 319.320312 121.210938 316.226562 122.328125 313.921875 C 122.53125 313.5 123.152344 311.921875 123.660156 312.03125 Z M 123.660156 312.023438 "/><path style=" stroke:none;fill-rule:nonzero;fill:#000000;fill-opacity:1;" d="M 145.609375 316.734375 C 146.0625 317.21875 143.34375 325.125 142.890625 326.28125 C 142.59375 327.039062 142.40625 328.355469 141.398438 328.128906 L 144.671875 317.15625 Z M 145.609375 316.734375 "/><path style=" stroke:none;fill-rule:nonzero;fill:#000000;fill-opacity:1;" d="M 97.25 309.300781 C 97.195312 308.941406 97.265625 308.660156 97.390625 308.324219 C 97.875 307.003906 101.035156 300.941406 101.855469 299.894531 C 102.519531 299.050781 103.113281 299.355469 102.847656 300.386719 L 98.265625 309.152344 L 97.25 309.308594 Z M 97.25 309.300781 "/><path style=" stroke:none;fill-rule:nonzero;fill:#000000;fill-opacity:1;" d="M 146.957031 342.292969 C 147.457031 342.355469 148.113281 342.472656 147.839844 343.128906 C 147.566406 343.789062 146.550781 343.261719 145.992188 343.246094 C 143.53125 343.175781 141.109375 343.285156 138.679688 342.746094 L 138.789062 341.519531 C 141.304688 342.558594 144.367188 341.980469 146.957031 342.285156 Z M 146.957031 342.292969 "/><path style=" stroke:none;fill-rule:nonzero;fill:#000000;fill-opacity:1;" d="M 120.3125 300.488281 C 119.726562 300.175781 117.195312 299.261719 117.09375 299.113281 C 116.90625 298.847656 117.125 298.144531 117.648438 298.167969 C 118.210938 298.199219 120.867188 299.605469 121.546875 299.988281 C 121.96875 300.222656 124.394531 301.503906 124.480469 301.644531 C 124.644531 301.902344 124.472656 302.496094 124.519531 302.839844 C 124.363281 303.027344 120.75 300.722656 120.304688 300.480469 Z M 120.3125 300.488281 "/><path style=" stroke:none;fill-rule:nonzero;fill:#000000;fill-opacity:1;" d="M 151.324219 318.835938 C 151.605469 319.039062 151.558594 319.226562 151.519531 319.523438 C 151.378906 320.65625 150.246094 323.554688 149.761719 324.726562 C 149.488281 325.398438 149.308594 326.171875 148.707031 326.648438 C 148.183594 326.289062 148.316406 325.875 148.386719 325.351562 C 148.660156 323.421875 150.402344 320.851562 150.566406 318.71875 L 151.316406 318.835938 Z M 151.324219 318.835938 "/><path style=" stroke:none;fill-rule:nonzero;fill:#000000;fill-opacity:1;" d="M 160.492188 307.808594 L 159.484375 312.625 L 158.875 313.5 C 157.824219 313.515625 159.039062 308.667969 159.617188 308.050781 C 159.914062 307.738281 160.085938 307.769531 160.484375 307.800781 Z M 160.492188 307.808594 "/><path style=" stroke:none;fill-rule:nonzero;fill:#000000;fill-opacity:1;" d="M 297.652344 145.433594 L 301.96875 146.890625 L 302.117188 147.65625 C 298.574219 147.75 294.269531 144.699219 290.761719 145.605469 C 288.332031 146.238281 286.765625 148.53125 284.507812 149.390625 L 289.136719 150.835938 L 296.410156 154.351562 C 296.488281 155.875 295.457031 155.164062 294.589844 154.804688 C 291.496094 153.539062 288.574219 150.992188 285.101562 150.65625 C 282.515625 150.398438 280.335938 151.695312 278.0625 152.617188 C 277.90625 153.1875 278.203125 153.03125 278.375 153.179688 C 280.039062 154.625 282.1875 155.789062 283.890625 157.320312 C 284.4375 157.8125 287.328125 160.429688 286.734375 161.046875 C 285.234375 160.75 284.1875 158.9375 283.023438 157.945312 C 281.445312 156.601562 277.070312 153.195312 275.191406 152.875 C 273.746094 152.632812 267.996094 153.554688 267.503906 155.078125 C 267.285156 155.757812 267.503906 156.617188 267.113281 157.289062 L 266.160156 157.328125 C 266.519531 155.4375 266.050781 154.328125 267.925781 153.265625 C 269.886719 152.148438 273.207031 151.796875 275.433594 151.890625 C 275.914062 151.914062 276.359375 152.320312 276.84375 152.242188 C 277.445312 152.140625 278.414062 151.28125 279.054688 151.007812 C 280.390625 150.4375 281.953125 150.078125 283.1875 149.4375 C 285.648438 148.164062 287.570312 145.238281 290.457031 144.683594 L 289.933594 142.480469 C 283.125 141.949219 277.078125 138.324219 272.832031 133.160156 C 273.011719 132.324219 273.277344 132.589844 273.816406 132.925781 C 275.285156 133.863281 277.179688 136.167969 278.820312 137.347656 C 282.046875 139.675781 286.210938 141.167969 290.183594 141.433594 C 290.292969 139.628906 292.308594 137.886719 291.503906 136.066406 C 291.222656 135.425781 290.597656 135.324219 290.207031 134.886719 C 288.324219 132.800781 287.730469 133.011719 285.65625 131.496094 C 283.039062 129.585938 282.125 126.75 281.601562 123.65625 C 281.484375 122.945312 280.960938 120.921875 281.523438 120.507812 C 282.5 119.796875 282.523438 123.15625 282.625 123.625 C 283.539062 127.757812 284.648438 130.230469 288.714844 132.035156 C 287.609375 126.210938 287.871094 120.007812 286.1875 114.351562 C 286.015625 113.277344 283.171875 112.316406 284.867188 111.707031 C 287.460938 112.785156 287.824219 115.867188 288.191406 118.3125 C 288.722656 121.875 288.863281 131.324219 290.738281 133.863281 C 291.308594 134.636719 292.394531 134.894531 292.628906 135.933594 C 293.308594 138.917969 289.785156 141.402344 291.730469 144.394531 C 293.136719 144.191406 294.691406 145.035156 295.996094 144.925781 C 296.652344 144.871094 297.386719 144.386719 298.082031 144.261719 C 301.132812 143.691406 308.429688 142.980469 310.421875 140.730469 C 311.964844 138.996094 309.71875 137.753906 308.179688 137.496094 C 307.09375 137.316406 305.609375 137.628906 304.460938 137.496094 C 303.59375 136.816406 304.5 136.457031 305.265625 136.316406 C 308.28125 135.761719 314.746094 138.128906 310.90625 141.707031 C 307.914062 144.496094 301.46875 144.363281 297.636719 145.433594 Z M 297.652344 145.433594 "/><path style=" stroke:none;fill-rule:nonzero;fill:#000000;fill-opacity:1;" d="M 325.96875 195.691406 C 334.328125 171.636719 341.753906 145.816406 338.042969 120.0625 C 337.707031 117.75 337.238281 115.4375 336.769531 113.160156 C 336.457031 111.644531 335.417969 108.902344 335.371094 107.597656 C 335.324219 106.363281 336.113281 106.605469 336.535156 107.699219 C 340.300781 117.460938 340.621094 135.425781 339.574219 145.808594 C 337.824219 163.183594 332.40625 180.0625 326.921875 196.503906 C 326.320312 196.605469 325.8125 196.371094 325.976562 195.699219 Z M 325.96875 195.691406 "/><path style=" stroke:none;fill-rule:nonzero;fill:#000000;fill-opacity:1;" d="M 241.582031 145.582031 C 241.792969 147.40625 240.738281 149.226562 240.328125 150.976562 C 240.117188 151.898438 239.664062 156.15625 239.242188 156.335938 C 239.148438 156.375 238.617188 156.429688 238.625 156.210938 C 238.585938 154.5 238.828125 152.75 239.195312 151.078125 C 239.65625 148.976562 241.269531 146.59375 240.078125 144.597656 C 238.742188 142.347656 233.328125 140.425781 233.125 136.550781 C 232.054688 136.527344 231.546875 135.691406 230.578125 135.253906 C 229.304688 134.683594 227.691406 134.832031 226.730469 133.894531 C 226.714844 132.683594 232.179688 134.410156 232.679688 135.261719 C 231.921875 130.699219 233.429688 126.328125 233.679688 121.804688 C 232.335938 121.007812 228.246094 114.445312 228.480469 113.34375 C 228.550781 113.019531 229.21875 112.816406 229.453125 112.972656 C 229.617188 113.082031 230.632812 115.84375 231 116.507812 C 231.734375 117.804688 232.820312 119.429688 233.921875 120.398438 C 234.101562 117.320312 232.671875 114.335938 232.4375 111.347656 C 232.28125 109.347656 232.757812 103.777344 233.429688 101.933594 C 233.570312 101.558594 233.703125 101.292969 234.046875 101.058594 L 234.648438 101.449219 C 233.851562 105.207031 233.140625 108.933594 233.742188 112.761719 C 234.046875 114.6875 234.78125 116.554688 234.921875 118.523438 C 235.40625 125.40625 230.835938 134.332031 236.390625 140.113281 C 237.984375 141.769531 241.292969 143.019531 241.589844 145.582031 Z M 241.582031 145.582031 "/><path style=" stroke:none;fill-rule:nonzero;fill:#000000;fill-opacity:1;" d="M 321.589844 165.261719 L 322.207031 165.636719 C 322.363281 166.230469 320.597656 167.792969 320.089844 168.230469 C 316.128906 171.613281 309.828125 172.871094 304.710938 172.464844 C 304.007812 172.410156 303.484375 172.285156 302.867188 171.957031 C 302.46875 173.691406 301.578125 174.925781 299.734375 175.152344 C 297.832031 175.378906 295.019531 175.636719 293.269531 174.980469 C 292.378906 174.644531 291.808594 173.980469 290.964844 173.699219 C 290.746094 176.121094 289.089844 177.144531 286.953125 177.746094 C 285.203125 178.246094 280.898438 179.128906 279.304688 178.527344 C 278.335938 178.167969 273.839844 173.832031 273.855469 173.066406 C 273.863281 172.730469 274.449219 172.636719 274.839844 172.816406 C 275.628906 173.175781 277.695312 176.425781 279.132812 177.207031 C 280.796875 178.105469 286.671875 177.097656 288.324219 176.128906 C 289.792969 175.269531 290.152344 172.621094 290.628906 172.464844 C 291.675781 172.121094 292.839844 173.894531 293.871094 174.128906 C 295.042969 174.386719 300 174.308594 300.914062 173.582031 C 301.734375 172.933594 301.773438 171.464844 302.1875 171.011719 C 302.726562 170.425781 303.859375 171.339844 304.5 171.441406 C 306.523438 171.753906 311.207031 171.089844 313.285156 170.589844 C 316.644531 169.785156 319.324219 167.785156 321.597656 165.261719 Z M 321.589844 165.261719 "/><path style=" stroke:none;fill-rule:nonzero;fill:#000000;fill-opacity:1;" d="M 296.089844 82.265625 C 293.566406 83.921875 286.953125 85.273438 283.898438 85.453125 C 277.929688 85.796875 271.121094 84.289062 265.410156 85.5625 C 261.265625 86.484375 256.960938 89.148438 252.515625 87.421875 C 252.398438 85.773438 253.773438 86.882812 254.859375 86.945312 C 259.414062 87.210938 264.214844 84.21875 268.996094 83.945312 C 277.007812 83.492188 282.742188 85.484375 291.144531 83.03125 C 292.355469 82.679688 294.996094 81.367188 295.855469 81.273438 C 296.785156 81.171875 296.925781 81.726562 296.089844 82.273438 Z M 296.089844 82.265625 "/><path style=" stroke:none;fill-rule:nonzero;fill:#000000;fill-opacity:1;" d="M 252.515625 88.664062 L 253.265625 88.53125 C 254.25 89.546875 254.648438 90.976562 254.921875 92.335938 C 256.273438 99.144531 254.890625 106.621094 257.15625 113.402344 C 257.804688 115.328125 258.703125 117.367188 260.578125 118.398438 C 263.46875 113.617188 264.917969 119.234375 263.015625 119.867188 C 262.609375 120 259.757812 119.195312 259.335938 118.90625 C 252.882812 114.507812 255.757812 97.605469 253.4375 90.835938 C 253.15625 90.023438 252.523438 89.507812 252.515625 88.65625 Z M 252.515625 88.664062 "/><path style=" stroke:none;fill-rule:nonzero;fill:#000000;fill-opacity:1;" d="M 251.308594 134.605469 C 252.371094 136.378906 255.007812 137.894531 255.242188 139.855469 C 255.546875 142.363281 254.90625 147.867188 254.460938 150.492188 C 254.40625 150.820312 254.070312 152.226562 253.773438 153.195312 C 254.523438 154.78125 251.402344 155.664062 251.074219 156.773438 C 250.503906 158.6875 252.121094 158.984375 252.035156 160.445312 C 251.996094 161.125 251.636719 161.617188 250.902344 161.5625 C 250.066406 161.03125 251.019531 160.6875 250.988281 160.242188 C 250.957031 159.796875 249.980469 158.875 249.839844 158.15625 C 249.589844 156.890625 250.261719 155.921875 251.144531 155.109375 L 252.859375 153.8125 C 252.554688 152.921875 253.429688 150.445312 253.484375 150 C 253.804688 147.679688 254.554688 142.199219 254.242188 140.128906 C 254.007812 138.582031 252.207031 137.535156 251.285156 136.386719 C 247.246094 131.386719 249.996094 126.71875 250.535156 121.148438 L 251.519531 121.148438 C 251.441406 125.664062 248.746094 130.308594 251.316406 134.613281 Z M 251.308594 134.605469 "/><path style=" stroke:none;fill-rule:nonzero;fill:#000000;fill-opacity:1;" d="M 267.753906 182.875 C 267.308594 182.84375 266.949219 182.945312 266.652344 182.492188 C 266.910156 182.1875 267.097656 181.960938 267.519531 181.882812 C 274.113281 180.609375 288.691406 185.40625 294.589844 188.773438 C 295.285156 189.171875 299.082031 191.5625 299.378906 191.921875 C 299.695312 192.296875 299.671875 192.578125 299.632812 193.03125 C 299.253906 193.421875 295.410156 190.5 294.746094 190.101562 C 289.347656 186.914062 281.101562 184.085938 274.878906 183.179688 C 272.324219 182.8125 270.183594 183.054688 267.746094 182.867188 Z M 267.753906 182.875 "/><path style=" stroke:none;fill-rule:nonzero;fill:#000000;fill-opacity:1;" d="M 250.277344 108.371094 C 250.105469 110.097656 248.511719 114.179688 246.222656 112.925781 C 242.925781 111.105469 247.855469 106.535156 247.792969 111.222656 C 246.855469 111.386719 246.964844 110.878906 246.683594 110.230469 C 245.550781 112.621094 247.621094 112.519531 248.589844 110.402344 C 250.996094 105.136719 246.285156 96.210938 248.050781 90.398438 L 248.800781 90.507812 C 249.332031 90.882812 248.808594 91.734375 248.792969 92.257812 C 248.597656 97.667969 250.785156 103.292969 250.277344 108.363281 Z M 250.277344 108.371094 "/><path style=" stroke:none;fill-rule:nonzero;fill:#000000;fill-opacity:1;" d="M 332.117188 102.425781 C 328.710938 95.765625 320.519531 93.109375 313.441406 93.085938 L 313.136719 92.890625 L 313.027344 92.132812 C 313.394531 91.5625 317.910156 92.320312 318.738281 92.492188 C 322.824219 93.335938 328.34375 95.515625 331.007812 98.816406 C 331.484375 99.410156 333.875 102.667969 332.117188 102.425781 Z M 332.117188 102.425781 "/><path style=" stroke:none;fill-rule:nonzero;fill:#000000;fill-opacity:1;" d="M 220.019531 156.835938 L 220.050781 155.875 C 221.472656 155.71875 222.058594 154.90625 222.019531 153.492188 C 221.910156 148.9375 213.804688 143.933594 209.601562 143.574219 L 209.351562 142.707031 C 213.945312 142.550781 222.199219 147.929688 222.933594 152.554688 C 223.300781 154.851562 222.621094 156.84375 220.019531 156.835938 Z M 220.019531 156.835938 "/><path style=" stroke:none;fill-rule:nonzero;fill:#000000;fill-opacity:1;" d="M 274.839844 75.417969 L 274.089844 75.152344 C 273.847656 74.230469 276.28125 73.511719 276.9375 73.285156 C 280.359375 72.089844 287.164062 71.519531 289.597656 69.324219 C 290.066406 68.902344 291.628906 65.988281 292.199219 66.597656 C 292.730469 67.160156 291.035156 69.378906 290.597656 69.824219 C 287.078125 73.425781 279.117188 72.527344 274.847656 75.417969 Z M 274.839844 75.417969 "/><path style=" stroke:none;fill-rule:nonzero;fill:#000000;fill-opacity:1;" d="M 279.898438 77.488281 C 280.34375 77.378906 281.789062 76.746094 281.898438 76.761719 C 282.1875 76.816406 282.421875 77.511719 282.265625 77.738281 C 282.078125 78.019531 278.9375 78.808594 278.351562 78.910156 C 273.410156 79.785156 270.144531 79.472656 265.167969 81.34375 C 264.371094 81.640625 263.0625 82.851562 262.4375 82.078125 C 262.203125 81.179688 265.027344 80.246094 265.777344 79.972656 C 270.714844 78.160156 275.035156 78.652344 279.898438 77.480469 Z M 279.898438 77.488281 "/><path style=" stroke:none;fill-rule:nonzero;fill:#000000;fill-opacity:1;" d="M 304.460938 95.351562 C 300.976562 98.121094 297.894531 103.941406 296.894531 108.246094 L 295.933594 107.855469 C 296.582031 104.738281 298.136719 101.621094 299.921875 98.996094 C 300.796875 97.714844 304.851562 92.367188 306.578125 93.492188 C 307.21875 94.265625 305.25 94.71875 304.453125 95.351562 Z M 304.460938 95.351562 "/><path style=" stroke:none;fill-rule:nonzero;fill:#000000;fill-opacity:1;" d="M 234.164062 145.300781 C 234.46875 146.175781 235.125 147.609375 233.664062 147.414062 C 232.703125 141.800781 227.128906 138.777344 222.253906 137.003906 C 222.066406 135.457031 223.597656 136.285156 224.480469 136.636719 C 228.152344 138.128906 232.828125 141.417969 234.171875 145.300781 Z M 234.164062 145.300781 "/><path style=" stroke:none;fill-rule:nonzero;fill:#000000;fill-opacity:1;" d="M 301.242188 152.6875 C 304.460938 155.242188 308.828125 160.164062 308.25 164.582031 C 308.1875 165.074219 307.40625 168.324219 306.578125 167.496094 C 306.414062 166.261719 307.296875 165.066406 307.328125 163.894531 C 307.421875 159.929688 303.164062 155.90625 300.632812 153.25 L 301.242188 152.695312 Z M 301.242188 152.6875 "/><path style=" stroke:none;fill-rule:nonzero;fill:#000000;fill-opacity:1;" d="M 177.332031 169.199219 C 177.003906 169.394531 176.339844 169.160156 176.402344 168.652344 C 177.714844 166.550781 178.394531 163.777344 179.636719 161.71875 C 180.136719 160.882812 183.765625 156.390625 184.421875 156.359375 C 184.695312 156.34375 185 156.617188 185.296875 156.59375 C 183.898438 158.382812 181.929688 160.148438 180.730469 162.0625 C 180.089844 163.089844 177.675781 168.996094 177.332031 169.199219 Z M 177.332031 169.199219 "/><path style=" stroke:none;fill-rule:nonzero;fill:#000000;fill-opacity:1;" d="M 245.699219 88.15625 C 243.707031 87.492188 241.886719 87.421875 240.132812 86.039062 C 238.742188 84.9375 236.851562 82.28125 237.140625 80.488281 C 237.742188 80.035156 239.023438 83.09375 239.367188 83.585938 C 241.355469 86.46875 243.300781 86.164062 246.207031 87.164062 C 246.738281 87.34375 249.363281 88.320312 248.550781 89.15625 C 247.472656 89.273438 246.691406 88.484375 245.707031 88.15625 Z M 245.699219 88.15625 "/><path style=" stroke:none;fill-rule:nonzero;fill:#000000;fill-opacity:1;" d="M 275.105469 67.988281 C 275.261719 67.472656 279.453125 65.886719 276.578125 64.738281 C 275.089844 64.144531 270.441406 64.355469 269.683594 63.835938 C 269.339844 63.59375 269.371094 62.84375 270.003906 62.875 C 272.167969 63.359375 277.609375 62.796875 278.625 65.183594 C 278.960938 65.980469 278.492188 66.746094 277.9375 67.347656 C 277.429688 67.886719 274.558594 69.761719 275.105469 67.996094 Z M 275.105469 67.988281 "/><path style=" stroke:none;fill-rule:nonzero;fill:#000000;fill-opacity:1;" d="M 293.308594 180.140625 C 292.011719 180.03125 290.277344 180.34375 289.097656 180.140625 C 288.144531 179.96875 288.277344 179.257812 289.332031 179.144531 C 290.550781 179.011719 292.785156 179.074219 294.050781 179.160156 C 295.542969 179.257812 299.640625 179.773438 300.953125 180.1875 C 301.453125 180.34375 301.40625 180.703125 301.367188 181.132812 C 301.0625 181.421875 294.394531 180.234375 293.300781 180.148438 Z M 293.308594 180.140625 "/><path style=" stroke:none;fill-rule:nonzero;fill:#000000;fill-opacity:1;" d="M 225.480469 146.050781 C 225.980469 145.183594 226.675781 145.675781 227.386719 146.128906 C 229.945312 147.757812 231.757812 152.203125 230.5625 155.101562 C 230.453125 155.453125 229.742188 155.101562 229.71875 155.070312 C 229.4375 154.625 229.929688 153.34375 229.914062 152.773438 C 229.859375 149.96875 227.753906 147.46875 225.480469 146.050781 Z M 225.480469 146.050781 "/><path style=" stroke:none;fill-rule:nonzero;fill:#000000;fill-opacity:1;" d="M 288.222656 166.753906 C 289.082031 167.300781 287.777344 172.433594 287.304688 173.402344 C 286.710938 174.628906 286.125 174.316406 286.28125 173.136719 C 286.515625 171.378906 288.027344 169.113281 287.25 167.144531 C 287.3125 166.808594 287.988281 166.613281 288.214844 166.753906 Z M 288.222656 166.753906 "/><path style=" stroke:none;fill-rule:nonzero;fill:#000000;fill-opacity:1;" d="M 131.605469 206.628906 L 272.328125 188.785156 L 272.476562 189.941406 L 131.75 207.785156 Z M 131.605469 206.628906 "/><path style=" stroke:none;fill-rule:nonzero;fill:#000000;fill-opacity:1;" d="M 26.171875 180.042969 L 26.472656 178.949219 L 129.886719 207.222656 L 129.589844 208.316406 Z M 26.171875 180.042969 "/><path style=" stroke:none;fill-rule:nonzero;fill:#000000;fill-opacity:1;" d="M 130.847656 172.441406 C 135.695312 173.800781 142.765625 174.558594 147.535156 172.769531 C 148.152344 172.535156 149.933594 171.394531 150.191406 171.464844 C 150.378906 171.511719 150.753906 171.988281 150.449219 172.214844 C 149.605469 173.886719 143.3125 174.847656 141.507812 174.933594 C 138.9375 175.058594 133.519531 174.558594 131.160156 173.628906 C 130.355469 173.316406 129.644531 172.902344 130.847656 172.441406 Z M 130.847656 172.441406 "/><path style=" stroke:none;fill-rule:nonzero;fill:#000000;fill-opacity:1;" d="M 216.789062 166.128906 C 213.734375 167.152344 210.234375 171.519531 208.03125 173.855469 C 207.226562 174.707031 205.019531 175.652344 205.9375 173.988281 C 205.992188 173.894531 206.539062 173.714844 206.765625 173.457031 C 210.070312 169.605469 214.59375 164.691406 219.933594 164.285156 C 221.058594 164.199219 221.933594 164.722656 220.667969 165.277344 C 219.746094 165.675781 217.957031 165.730469 216.796875 166.121094 Z M 216.789062 166.128906 "/><path style=" stroke:none;fill-rule:nonzero;fill:#000000;fill-opacity:1;" d="M 212.242188 163.066406 C 212.945312 162.539062 218.355469 160.875 218.777344 161.304688 C 218.777344 161.570312 218.847656 161.820312 218.667969 162.0625 C 218.433594 162.382812 213.640625 163.277344 212.65625 164.105469 C 212.414062 164.308594 212.234375 164.816406 211.84375 165.152344 C 209.609375 167.050781 207.398438 168.972656 205.136719 170.847656 L 204.394531 170.589844 L 204.746094 169.707031 C 206.992188 167.910156 209.171875 166.027344 211.351562 164.152344 C 211.703125 163.847656 211.835938 163.371094 212.242188 163.058594 Z M 212.242188 163.066406 "/><path style=" stroke:none;fill-rule:nonzero;fill:#000000;fill-opacity:1;" d="M 223.738281 170.097656 C 220.996094 171.292969 218.636719 171.457031 215.820312 173.347656 C 215.164062 173.785156 212.429688 176.488281 211.828125 175.925781 C 211.710938 175.292969 212.0625 175.066406 212.4375 174.675781 C 214.585938 172.457031 220.386719 169.363281 223.425781 169.035156 C 224.636719 168.902344 224.894531 169.589844 223.730469 170.097656 Z M 223.738281 170.097656 "/><path style=" stroke:none;fill-rule:nonzero;fill:#000000;fill-opacity:1;" d="M 186.046875 162.421875 C 184.429688 164.246094 183.96875 166.222656 182.867188 168.167969 C 182.234375 169.285156 181.621094 168.574219 181.9375 167.488281 C 182.53125 165.394531 184.78125 162.015625 186.421875 160.5625 C 187.460938 159.640625 188.640625 158.429688 190.007812 159.320312 C 188.710938 160.429688 187.21875 161.101562 186.046875 162.421875 Z M 186.046875 162.421875 "/><path style=" stroke:none;fill-rule:nonzero;fill:#000000;fill-opacity:1;" d="M 77.035156 172.449219 C 75.957031 171.808594 77.175781 170.621094 77.347656 169.542969 C 77.667969 167.527344 77.113281 165.128906 75.664062 163.660156 L 41.5625 157.59375 L 41.445312 156.960938 C 41.945312 156.679688 42.476562 156.867188 42.992188 156.914062 L 76.167969 162.671875 C 78.613281 165.042969 79.425781 169.816406 77.042969 172.449219 Z M 77.035156 172.449219 "/><path style=" stroke:none;fill-rule:nonzero;fill:#000000;fill-opacity:1;" d="M 103.761719 154.546875 C 102.503906 155.242188 99.472656 156.109375 97.929688 156.65625 C 91.71875 158.875 85.308594 160.453125 79.082031 162.617188 C 78.902344 162.722656 78.183594 162.578125 78.152344 162.539062 C 77.660156 161.882812 80.089844 161.117188 80.441406 160.984375 C 87.789062 158.179688 96.1875 156.859375 103.441406 153.46875 C 104.597656 153.21875 104.800781 153.976562 103.769531 154.546875 Z M 103.761719 154.546875 "/><path style=" stroke:none;fill-rule:nonzero;fill:#000000;fill-opacity:1;" d="M 105.621094 162.824219 C 107.496094 163.152344 105.652344 163.925781 104.855469 164.308594 C 99.449219 166.933594 92.585938 169.636719 86.894531 171.644531 C 86.011719 171.957031 84.324219 172.660156 83.488281 172.707031 C 82.839844 172.738281 83.136719 172.199219 83.144531 171.738281 C 90.867188 169.371094 98.1875 165.925781 105.621094 162.832031 Z M 105.621094 162.824219 "/><path style=" stroke:none;fill-rule:nonzero;fill:#000000;fill-opacity:1;" d="M 64.484375 171.402344 L 40.558594 168.660156 L 40.558594 167.457031 L 64.617188 170.238281 Z M 64.484375 171.402344 "/><path style=" stroke:none;fill-rule:nonzero;fill:#000000;fill-opacity:1;" d="M 81.503906 172.207031 C 82.605469 171.980469 84.230469 177.003906 84.253906 178.074219 C 84.277344 179.179688 83.902344 182.585938 82.363281 182.367188 C 83.019531 179.789062 83.675781 177.566406 82.410156 175.011719 C 82.191406 174.574219 80.261719 172.464844 81.503906 172.207031 Z M 81.503906 172.207031 "/><path style=" stroke:none;fill-rule:nonzero;fill:#000000;fill-opacity:1;" d="M 252.757812 174.191406 C 253.328125 173.613281 254.265625 175.496094 254.375 175.917969 C 254.695312 177.144531 254.6875 178.378906 253.421875 178.949219 L 249.527344 180.882812 C 249.074219 178.785156 252.898438 178.644531 253.375 177.667969 C 254 176.378906 252.585938 175.449219 252.757812 174.199219 Z M 252.757812 174.191406 "/><path style=" stroke:none;fill-rule:nonzero;fill:#000000;fill-opacity:1;" d="M 130.355469 210.128906 C 130.878906 209.371094 131.394531 210.136719 131.472656 210.753906 C 131.714844 212.648438 131.292969 214.992188 131.472656 216.945312 C 129.941406 218.304688 130.527344 213.554688 130.488281 212.46875 C 130.464844 211.777344 129.964844 210.675781 130.347656 210.121094 Z M 130.355469 210.128906 "/><path style=" stroke:none;fill-rule:nonzero;fill:#000000;fill-opacity:1;" d="M 176.863281 158.070312 C 176.824219 157.609375 176.800781 157.34375 177.113281 156.960938 C 177.347656 156.671875 180.246094 154.445312 180.457031 154.445312 C 180.769531 154.445312 181.191406 154.882812 181.574219 154.859375 L 177.949219 157.796875 L 176.871094 158.078125 Z M 176.863281 158.070312 "/><path style=" stroke:none;fill-rule:nonzero;fill:#000000;fill-opacity:1;" d="M 230.898438 128.851562 C 231.03125 131.449219 227.066406 127.25 227.707031 126.59375 C 228.285156 125.992188 230.164062 128.859375 230.898438 128.851562 Z M 230.898438 128.851562 "/><path style=" stroke:none;fill-rule:nonzero;fill:#000000;fill-opacity:1;" d="M 260.8125 25.945312 C 261.875 26.835938 260.125 27.6875 259.59375 28.4375 C 256.171875 33.285156 258.367188 43.941406 264.238281 46.074219 C 266.167969 46.777344 267.472656 45.839844 268.230469 46.035156 C 269.957031 46.480469 266.824219 47.589844 265.558594 47.488281 C 257.15625 46.808594 253.617188 30.4375 260.804688 25.9375 Z M 260.8125 25.945312 "/><path style=" stroke:none;fill-rule:nonzero;fill:#000000;fill-opacity:1;" d="M 268.832031 41.636719 C 262.640625 43.167969 260.65625 32.238281 265.972656 29.117188 C 266.503906 28.804688 268.097656 28.070312 268.511719 28.664062 L 268.628906 29.414062 C 262.71875 29.320312 262.40625 40.605469 267.785156 40.800781 C 269.238281 40.855469 270.878906 38.714844 271.355469 39.082031 C 272.316406 39.816406 269.605469 41.449219 268.832031 41.636719 Z M 268.832031 41.636719 "/><path style=" stroke:none;fill-rule:nonzero;fill:#000000;fill-opacity:1;" d="M 258.453125 17.132812 C 257.757812 17.320312 257.296875 18.109375 256.476562 18.007812 C 256.289062 16.117188 258.625 15.890625 260.03125 16.015625 C 261.070312 17.3125 259.328125 16.890625 258.453125 17.132812 Z M 258.453125 17.132812 "/><path style=" stroke:none;fill-rule:nonzero;fill:#000000;fill-opacity:1;" d="M 259.210938 23.085938 C 259.054688 22.335938 262.015625 21.921875 262.539062 21.734375 L 262.929688 22.34375 C 262.828125 22.828125 259.703125 23.992188 259.210938 23.085938 Z M 259.210938 23.085938 "/><path style=" stroke:none;fill-rule:nonzero;fill:#686868;fill-opacity:1;" d="M 328.609375 336.402344 C 330.421875 335.933594 332.164062 333.722656 331.382812 331.863281 C 333.695312 332.261719 336.769531 332.550781 338.574219 330.738281 L 338.199219 330.121094 C 336.058594 331.082031 333.101562 331.792969 330.960938 330.425781 C 329.882812 329.738281 328.210938 326.828125 327.046875 325.664062 C 325.351562 323.976562 321.839844 321.53125 319.738281 320.320312 C 319.417969 320.132812 319.253906 319.820312 318.738281 319.960938 C 318.058594 321.492188 322.199219 322.828125 322.207031 323.304688 C 314.519531 327.847656 320.488281 338.496094 328.617188 336.394531 Z M 321.441406 325.023438 C 321.972656 324.53125 322.785156 324.695312 322.816406 323.679688 C 324.460938 324.898438 326.054688 326.226562 327.414062 327.761719 C 328.570312 329.058594 329.390625 331.175781 331.125 331.613281 C 330.179688 333.347656 330.039062 335.121094 327.71875 335.519531 C 321.863281 336.519531 316.832031 329.277344 321.433594 325.03125 Z M 321.441406 325.023438 "/><path style=" stroke:none;fill-rule:nonzero;fill:#686868;fill-opacity:1;" d="M 204.238281 334.324219 C 205.144531 334.175781 207.101562 334.738281 208.453125 334.582031 C 211.46875 334.238281 211.421875 332.324219 212.835938 330.285156 C 213.882812 328.777344 216.742188 325.367188 218.355469 324.648438 C 219.207031 324.265625 219.824219 324.273438 219.730469 325.398438 C 218.714844 325.632812 217.792969 326.25 217.261719 327.136719 C 218.636719 327.101562 219.667969 328.707031 220.113281 329.871094 C 222.003906 334.871094 218.722656 340.636719 212.984375 339.730469 C 211.960938 339.566406 208.554688 338.105469 210.445312 337.066406 C 213.382812 340.402344 218.660156 338.574219 219.394531 334.347656 C 219.691406 332.613281 219.558594 330.488281 218.472656 329.042969 C 217.964844 328.355469 217.121094 328.253906 217.015625 327.394531 C 216.679688 327.152344 214.859375 329.355469 214.546875 329.753906 C 213.484375 331.113281 212.203125 334.160156 211 334.886719 C 209.25 335.941406 206.375 335.988281 204.457031 335.378906 C 203.550781 335.089844 203.207031 334.503906 204.261719 334.332031 Z M 204.238281 334.324219 "/><path style=" stroke:none;fill-rule:nonzero;fill:#686868;fill-opacity:1;" d="M 256.234375 318.085938 C 260.296875 319.203125 261.046875 327.683594 258.375 330.285156 C 257.84375 330.800781 256.875 331.269531 256.726562 330.253906 C 259.507812 328.082031 259.679688 322.515625 257.234375 320.078125 C 256.765625 319.609375 255.039062 318.78125 254.992188 318.59375 C 254.835938 317.921875 255.757812 317.960938 256.242188 318.085938 Z M 256.234375 318.085938 "/><path style=" stroke:none;fill-rule:nonzero;fill:#686868;fill-opacity:1;" d="M 255.984375 316.484375 L 261.3125 316.484375 L 261.6875 317.101562 L 261.3125 317.476562 L 255.984375 317.476562 Z M 255.984375 316.484375 "/><path style=" stroke:none;fill-rule:nonzero;fill:#686868;fill-opacity:1;" d="M 93.65625 118.890625 L 143.492188 130.558594 L 163.164062 183.789062 C 163.453125 184.828125 162.585938 185.148438 162.179688 184.25 L 142.820312 131.355469 C 127.378906 127.421875 111.710938 124.359375 96.242188 120.515625 C 95.421875 120.3125 91.703125 119.78125 93.648438 118.890625 Z M 93.65625 118.890625 "/><path style=" stroke:none;fill-rule:nonzero;fill:#686868;fill-opacity:1;" d="M 158.882812 167.496094 C 160.0625 167.246094 160.820312 172.886719 161.90625 173.394531 L 188.476562 180.992188 L 220.589844 177.402344 L 220.996094 178.035156 L 166.804688 184.609375 L 166.304688 184.359375 C 165.75 183.578125 166.648438 183.476562 167.335938 183.390625 C 172.917969 182.695312 178.574219 182.351562 184.148438 181.59375 C 184.523438 181.539062 185.648438 181.476562 185.789062 181.132812 L 161.976562 174.441406 C 162.296875 175.761719 165.765625 183.5 165.195312 184.101562 L 164.25 183.679688 L 158.601562 168.246094 C 158.382812 167.980469 158.65625 167.535156 158.867188 167.496094 Z M 158.882812 167.496094 "/><path style=" stroke:none;fill-rule:nonzero;fill:#686868;fill-opacity:1;" d="M 271.105469 54.578125 C 269.417969 54.132812 266.519531 50.765625 268.011719 49.234375 C 269.253906 47.960938 268.878906 50.28125 268.988281 50.726562 C 269.761719 53.882812 275.761719 55.070312 274.589844 50.234375 C 276.164062 49.8125 276.046875 51.914062 275.714844 52.976562 C 275.199219 54.664062 272.566406 54.96875 271.105469 54.585938 Z M 271.105469 54.578125 "/><path style=" stroke:none;fill-rule:nonzero;fill:#686868;fill-opacity:1;" d="M 282.148438 59.40625 C 283.601562 58.351562 284.523438 56.390625 284.242188 54.585938 C 284.117188 53.757812 283.1875 52.84375 283.25 52.09375 C 283.367188 50.78125 284.429688 51.914062 284.804688 52.539062 C 286.945312 56.132812 284.15625 61.59375 279.796875 61.390625 C 279.515625 59.898438 281.046875 60.203125 282.148438 59.40625 Z M 282.148438 59.40625 "/><path style=" stroke:none;fill-rule:nonzero;fill:#686868;fill-opacity:1;" d="M 275.589844 36.691406 C 275.332031 35.816406 276.578125 34.667969 276.757812 33.691406 C 277.054688 32.105469 276.8125 30.570312 275.816406 29.289062 C 275.394531 28.742188 273.152344 27.382812 273.832031 26.6875 C 274.566406 25.9375 277.078125 28.734375 277.445312 29.398438 C 278.179688 30.75 278.382812 32.902344 277.929688 34.371094 C 277.742188 34.988281 276.046875 38.222656 275.582031 36.691406 Z M 275.589844 36.691406 "/><path style=" stroke:none;fill-rule:nonzero;fill:#686868;fill-opacity:1;" d="M 267.269531 14.042969 C 269.910156 14.292969 272.730469 17.382812 271.542969 20.046875 C 270.878906 21.53125 268.933594 21.65625 269.691406 20.289062 C 269.753906 20.179688 270.183594 20.101562 270.347656 19.84375 C 271.394531 18.1875 269.566406 15.820312 267.902344 15.390625 C 267.222656 15.21875 266.027344 15.40625 265.652344 15.15625 C 264.386719 14.292969 266.519531 13.964844 267.269531 14.035156 Z M 267.269531 14.042969 "/><path style=" stroke:none;fill-rule:nonzero;fill:#686868;fill-opacity:1;" d="M 280.15625 56.171875 C 281.445312 54.125 280.101562 53.210938 280.046875 51.226562 C 281.09375 50.765625 281.75 52.640625 281.921875 53.445312 C 282.273438 55.101562 281.429688 57.617188 279.734375 58.226562 C 279.125 58.445312 278.710938 58.617188 278.5625 57.796875 C 278.40625 56.96875 279.5625 57.132812 280.171875 56.171875 Z M 280.15625 56.171875 "/><path style=" stroke:none;fill-rule:nonzero;fill:#686868;fill-opacity:1;" d="M 234.875 71.902344 C 234.976562 71.183594 234.5 68.675781 235.765625 69.074219 C 236.734375 69.378906 236.117188 73.511719 234.992188 74.496094 C 234.3125 75.097656 231.96875 75.832031 232.429688 74.417969 C 232.59375 73.902344 234.578125 74.105469 234.875 71.910156 Z M 234.875 71.902344 "/><path style=" stroke:none;fill-rule:nonzero;fill:#686868;fill-opacity:1;" d="M 273.230469 59.898438 C 274.964844 59.703125 273.410156 61.554688 272.535156 61.945312 C 270.652344 62.804688 267.199219 62.085938 267.144531 59.65625 C 268.691406 59.609375 268.769531 61.046875 270.527344 61.125 C 272.175781 61.203125 272.519531 59.96875 273.230469 59.890625 Z M 273.230469 59.898438 "/><path style=" stroke:none;fill-rule:nonzero;fill:#686868;fill-opacity:1;" d="M 237.960938 14.058594 C 237.65625 14.035156 235.3125 14.613281 236.257812 13.285156 C 236.953125 12.308594 242.003906 13.652344 243.152344 14.097656 C 247.949219 15.929688 250.472656 19.429688 252.273438 24.070312 C 252.710938 25.210938 253.851562 28.289062 253.953125 29.34375 C 253.992188 29.742188 253.703125 30.984375 253.265625 31.140625 C 251.058594 22.5625 248.019531 14.851562 237.96875 14.050781 Z M 237.960938 14.058594 "/><path style=" stroke:none;fill-rule:nonzero;fill:#686868;fill-opacity:1;" d="M 235.210938 18.804688 C 234.671875 18.671875 232.757812 18.992188 233.28125 18 C 233.625 17.34375 234.59375 17.46875 235.210938 17.570312 C 241.863281 18.632812 245.949219 26 249.433594 30.875 C 250.269531 32.042969 251.511719 33.175781 252.261719 34.238281 C 252.5 34.574219 252.710938 34.621094 252.261719 34.988281 C 251.566406 35.417969 249.980469 33.519531 249.542969 32.996094 C 245.121094 27.8125 242.933594 20.671875 235.21875 18.804688 Z M 235.210938 18.804688 "/><path style=" stroke:none;fill-rule:nonzero;fill:#686868;fill-opacity:1;" d="M 229.195312 27.796875 C 231.851562 28.28125 234.414062 30.5 236.148438 32.496094 C 237.9375 34.558594 239.132812 37.082031 240.855469 39.199219 C 241.410156 39.886719 242.363281 39.886719 242.089844 41.058594 C 241.316406 41.175781 240.636719 40.699219 240.109375 40.191406 C 236.921875 37.089844 236.070312 32.957031 231.507812 29.953125 C 231.046875 29.648438 227.925781 28.585938 229.195312 27.796875 Z M 229.195312 27.796875 "/><path style=" stroke:none;fill-rule:nonzero;fill:#686868;fill-opacity:1;" d="M 235.890625 8.839844 C 235.851562 9.128906 235.984375 9.582031 235.851562 9.792969 C 235.757812 9.941406 233.226562 10.410156 232.492188 10.777344 C 230.125 11.957031 227.292969 15.898438 226.816406 18.492188 C 226.566406 19.859375 227.316406 22.054688 225.464844 21.726562 C 225.003906 15.851562 229.578125 8.839844 235.882812 8.839844 Z M 235.890625 8.839844 "/><path style=" stroke:none;fill-rule:nonzero;fill:#686868;fill-opacity:1;" d="M 221.285156 25.726562 C 221.707031 25.585938 222.519531 25.65625 222.464844 26.265625 C 220.480469 30.25 217.457031 33.417969 217.816406 38.175781 C 217.855469 38.675781 218.316406 39.902344 218.253906 40.167969 C 218.160156 40.589844 217.222656 40.691406 217.050781 40.550781 C 216.914062 40.441406 216.523438 37.628906 216.523438 37.214844 C 216.476562 32.972656 219.738281 29.4375 221.285156 25.71875 Z M 221.285156 25.726562 "/><path style=" stroke:none;fill-rule:nonzero;fill:#686868;fill-opacity:1;" d="M 221.019531 21.609375 C 220.550781 22.15625 220.074219 22.875 219.667969 23.484375 C 218.964844 24.539062 218.691406 26.460938 217.292969 26.1875 C 216.367188 25.257812 221.027344 19.140625 222.261719 18.632812 C 222.675781 18.460938 223.058594 18.460938 223.488281 18.5 C 224.082031 19.09375 221.527344 21.015625 221.019531 21.609375 Z M 221.019531 21.609375 "/><path style=" stroke:none;fill-rule:nonzero;fill:#686868;fill-opacity:1;" d="M 220.269531 18.132812 C 218.074219 18.289062 220.058594 16.546875 220.785156 15.921875 C 221.535156 15.28125 224.199219 13.300781 225.066406 13.582031 C 225.300781 13.652344 225.527344 13.902344 225.472656 14.167969 C 225.402344 14.488281 220.746094 17.320312 220.269531 18.132812 Z M 220.269531 18.132812 "/><path style=" stroke:none;fill-rule:nonzero;fill:#686868;fill-opacity:1;" d="M 233.734375 24.75 C 233.148438 24.375 230.367188 23.320312 231.179688 22.46875 C 231.648438 21.976562 237.054688 25.265625 237.320312 25.742188 C 237.492188 26.046875 237.335938 26.570312 237.375 26.929688 C 237.0625 27.273438 234.242188 25.078125 233.734375 24.75 Z M 233.734375 24.75 "/></g></svg>