<svg xmlns="http://www.w3.org/2000/svg" xmlns:xlink="http://www.w3.org/1999/xlink" width="500" zoomAndPan="magnify" viewBox="0 0 375 374.999991" height="500" preserveAspectRatio="xMidYMid meet" version="1.2"><defs><clipPath id="76d0f55f0c"><path d="M 19 50.695312 L 357 50.695312 L 357 324.445312 L 19 324.445312 Z M 19 50.695312 "/></clipPath></defs><g id="0c9aea1202"><g clip-rule="nonzero" clip-path="url(#76d0f55f0c)"><path style=" stroke:none;fill-rule:evenodd;fill:#ffffff;fill-opacity:1;" d="M 129.578125 324.078125 C 89.472656 324.078125 51.8125 319.347656 19.09375 311.03125 C 41.613281 314.453125 65.695312 316.296875 90.730469 316.296875 C 216.21875 316.296875 317.949219 269.957031 317.949219 212.785156 C 317.949219 173.902344 270.855469 140.03125 201.21875 122.324219 C 291.609375 136 356.796875 174.8125 356.796875 220.589844 C 356.796875 277.738281 255.066406 324.078125 129.578125 324.078125 Z M 133.792969 105.152344 L 133.792969 104.316406 C 183.890625 104.316406 187.523438 96.183594 187.523438 50.546875 L 188.363281 50.546875 C 188.363281 96.183594 192.019531 104.316406 242.117188 104.316406 L 242.117188 105.152344 C 192.019531 105.152344 188.363281 113.261719 188.363281 158.898438 L 187.523438 158.898438 C 187.523438 113.261719 183.890625 105.152344 133.792969 105.152344 "/></g><g style="fill:#ffffff;fill-opacity:1;"><g transform="translate(96.387441, 266.055628)"><path style="stroke:none" d="M 4.1875 -10.890625 C 4.1875 -13.210938 4.460938 -15.351562 5.015625 -17.3125 C 5.578125 -19.269531 6.113281 -21.296875 6.625 -23.390625 C 7.144531 -25.484375 7.40625 -27.972656 7.40625 -30.859375 C 7.40625 -34.390625 6.9375 -37.085938 6 -38.953125 C 5.070312 -40.816406 4.609375 -41.75 4.609375 -41.75 C 4.703125 -41.84375 5.75 -42.144531 7.75 -42.65625 C 9.75 -43.164062 12.050781 -43.421875 14.65625 -43.421875 C 17.351562 -43.421875 20.078125 -42.929688 22.828125 -41.953125 C 25.578125 -40.972656 27.878906 -39.085938 29.734375 -36.296875 C 31.597656 -33.503906 32.484375 -29.457031 32.390625 -24.15625 C 32.390625 -21.550781 32.550781 -18.804688 32.875 -15.921875 C 33.207031 -13.035156 34.1875 -10.613281 35.8125 -8.65625 C 37.4375 -6.695312 40.160156 -5.71875 43.984375 -5.71875 C 47.890625 -5.8125 50.585938 -7.273438 52.078125 -10.109375 C 53.566406 -12.953125 54.3125 -16.515625 54.3125 -20.796875 C 54.3125 -24.898438 53.097656 -28.414062 50.671875 -31.34375 C 48.253906 -34.28125 45.160156 -36.957031 41.390625 -39.375 C 37.628906 -41.789062 33.628906 -44.1875 29.390625 -46.5625 C 25.148438 -48.9375 21.144531 -51.472656 17.375 -54.171875 C 13.613281 -56.867188 10.519531 -60.03125 8.09375 -63.65625 C 5.675781 -67.289062 4.46875 -71.578125 4.46875 -76.515625 C 4.46875 -81.535156 5.421875 -85.601562 7.328125 -88.71875 C 9.234375 -91.84375 11.769531 -94.125 14.9375 -95.5625 C 18.101562 -97.007812 21.5 -97.734375 25.125 -97.734375 L 46.90625 -97.734375 C 48.125 -97.734375 49.382812 -97.753906 50.6875 -97.796875 C 51.988281 -97.847656 53.382812 -97.875 54.875 -97.875 C 57.945312 -97.875 61.085938 -97.6875 64.296875 -97.3125 C 67.503906 -96.945312 70.457031 -96.203125 73.15625 -95.078125 C 75.863281 -93.960938 78.050781 -92.265625 79.71875 -89.984375 C 81.394531 -87.703125 82.234375 -84.609375 82.234375 -80.703125 C 82.234375 -76.328125 80.859375 -72.53125 78.109375 -69.3125 C 75.367188 -66.101562 71.113281 -64.5 65.34375 -64.5 C 62.269531 -64.5 59.640625 -65.054688 57.453125 -66.171875 C 55.265625 -67.296875 53.472656 -68.625 52.078125 -70.15625 C 50.679688 -71.695312 49.65625 -73.023438 49 -74.140625 C 48.351562 -75.253906 48.03125 -75.8125 48.03125 -75.8125 C 48.03125 -75.8125 48.539062 -76.085938 49.5625 -76.640625 C 50.59375 -77.203125 51.59375 -78.113281 52.5625 -79.375 C 53.539062 -80.632812 54.03125 -82.191406 54.03125 -84.046875 C 54.03125 -85.171875 53.75 -86.359375 53.1875 -87.609375 C 52.632812 -88.867188 51.585938 -89.941406 50.046875 -90.828125 C 48.515625 -91.710938 46.257812 -92.15625 43.28125 -92.15625 C 38.8125 -92.15625 35.53125 -91.15625 33.4375 -89.15625 C 31.34375 -87.15625 30.296875 -84.753906 30.296875 -81.953125 C 30.296875 -78.609375 31.578125 -75.609375 34.140625 -72.953125 C 36.703125 -70.296875 39.984375 -67.78125 43.984375 -65.40625 C 47.984375 -63.039062 52.238281 -60.578125 56.75 -58.015625 C 61.269531 -55.453125 65.53125 -52.566406 69.53125 -49.359375 C 73.53125 -46.148438 76.8125 -42.398438 79.375 -38.109375 C 81.9375 -33.828125 83.21875 -28.757812 83.21875 -22.90625 C 83.21875 -17.6875 82.21875 -13.539062 80.21875 -10.46875 C 78.21875 -7.394531 75.703125 -5.113281 72.671875 -3.625 C 69.648438 -2.132812 66.554688 -1.15625 63.390625 -0.6875 C 60.222656 -0.226562 57.429688 0 55.015625 0 L 15.640625 0 C 12.097656 0 9.300781 -0.925781 7.25 -2.78125 C 5.207031 -4.644531 4.1875 -7.347656 4.1875 -10.890625 Z M 4.1875 -10.890625 "/></g></g><g style="fill:#ffffff;fill-opacity:1;"><g transform="translate(183.787807, 266.055628)"><path style="stroke:none" d="M 18.015625 0 C 14.378906 0 11.5625 -0.90625 9.5625 -2.71875 C 7.5625 -4.539062 6.164062 -6.707031 5.375 -9.21875 C 4.582031 -11.726562 4.1875 -14.101562 4.1875 -16.34375 C 4.1875 -20.4375 4.765625 -24.992188 5.921875 -30.015625 C 7.085938 -35.046875 8.226562 -40.84375 9.34375 -47.40625 C 10.46875 -53.96875 11.03125 -61.671875 11.03125 -70.515625 C 11.03125 -76.742188 10.46875 -81.859375 9.34375 -85.859375 C 8.226562 -89.867188 7.085938 -92.847656 5.921875 -94.796875 C 4.765625 -96.753906 4.1875 -97.734375 4.1875 -97.734375 C 4.1875 -97.734375 5.28125 -97.734375 7.46875 -97.734375 C 9.65625 -97.734375 12.585938 -97.734375 16.265625 -97.734375 C 19.941406 -97.734375 23.941406 -97.734375 28.265625 -97.734375 C 32.597656 -97.734375 36.925781 -97.734375 41.25 -97.734375 C 45.582031 -97.734375 49.585938 -97.734375 53.265625 -97.734375 C 56.941406 -97.734375 59.875 -97.734375 62.0625 -97.734375 C 64.25 -97.734375 65.34375 -97.734375 65.34375 -97.734375 C 68.414062 -97.734375 71.441406 -97.523438 74.421875 -97.109375 C 77.398438 -96.691406 80.097656 -95.851562 82.515625 -94.59375 C 84.941406 -93.34375 86.894531 -91.410156 88.375 -88.796875 C 89.863281 -86.191406 90.609375 -82.703125 90.609375 -78.328125 C 90.609375 -72.554688 88.722656 -67.804688 84.953125 -64.078125 C 81.191406 -60.359375 76.238281 -58.5 70.09375 -58.5 C 66.363281 -58.5 63.382812 -59.21875 61.15625 -60.65625 C 58.925781 -62.101562 57.273438 -63.757812 56.203125 -65.625 C 55.128906 -67.488281 54.425781 -69.140625 54.09375 -70.578125 C 53.769531 -72.023438 53.609375 -72.75 53.609375 -72.75 C 53.609375 -72.75 54.003906 -73.023438 54.796875 -73.578125 C 55.585938 -74.140625 56.351562 -75.117188 57.09375 -76.515625 C 57.84375 -77.910156 58.21875 -79.863281 58.21875 -82.375 C 58.21875 -85.070312 57.3125 -87.375 55.5 -89.28125 C 53.6875 -91.195312 51.195312 -92.15625 48.03125 -92.15625 C 45.144531 -92.15625 42.65625 -90.847656 40.5625 -88.234375 C 38.46875 -85.628906 36.882812 -81.09375 35.8125 -74.625 C 34.738281 -68.15625 34.203125 -59.101562 34.203125 -47.46875 C 34.203125 -41.882812 34.691406 -36.578125 35.671875 -31.546875 C 36.648438 -26.523438 37.976562 -22.054688 39.65625 -18.140625 C 41.332031 -14.234375 43.238281 -11.160156 45.375 -8.921875 C 47.519531 -6.691406 49.753906 -5.578125 52.078125 -5.578125 C 54.679688 -5.578125 56.679688 -6.039062 58.078125 -6.96875 C 59.472656 -7.90625 60.171875 -9.957031 60.171875 -13.125 C 60.171875 -15.351562 59.378906 -17.28125 57.796875 -18.90625 C 56.222656 -20.539062 54.429688 -22.148438 52.421875 -23.734375 C 50.421875 -25.316406 48.628906 -27.128906 47.046875 -29.171875 C 45.472656 -31.222656 44.6875 -33.785156 44.6875 -36.859375 C 44.6875 -42.078125 46.335938 -45.800781 49.640625 -48.03125 C 52.941406 -50.257812 56.921875 -51.375 61.578125 -51.375 C 65.484375 -51.375 68.53125 -50.882812 70.71875 -49.90625 C 72.90625 -48.9375 74.507812 -47.84375 75.53125 -46.625 C 76.5625 -45.414062 77.210938 -44.320312 77.484375 -43.34375 C 77.765625 -42.375 77.90625 -41.890625 77.90625 -41.890625 C 77.90625 -41.890625 77.347656 -41.144531 76.234375 -39.65625 C 75.117188 -38.164062 74.5625 -36.488281 74.5625 -34.625 C 74.5625 -32.207031 75.09375 -30.253906 76.15625 -28.765625 C 77.226562 -27.273438 78.578125 -26.015625 80.203125 -24.984375 C 81.835938 -23.960938 83.46875 -22.867188 85.09375 -21.703125 C 86.726562 -20.546875 88.078125 -19.128906 89.140625 -17.453125 C 90.210938 -15.773438 90.75 -13.492188 90.75 -10.609375 C 90.75 -8.003906 90.050781 -5.929688 88.65625 -4.390625 C 87.257812 -2.859375 85.488281 -1.742188 83.34375 -1.046875 C 81.207031 -0.347656 78.976562 0 76.65625 0 Z M 18.015625 0 "/></g></g></g></svg>