<svg xmlns="http://www.w3.org/2000/svg" xmlns:xlink="http://www.w3.org/1999/xlink" width="500" zoomAndPan="magnify" viewBox="0 0 375 374.999991" height="500" preserveAspectRatio="xMidYMid meet" version="1.2"><defs><clipPath id="9e051bfb6e"><path d="M 19 50.695312 L 357 50.695312 L 357 324.445312 L 19 324.445312 Z M 19 50.695312 "/></clipPath></defs><g id="b293e397d9"><g clip-rule="nonzero" clip-path="url(#9e051bfb6e)"><path style=" stroke:none;fill-rule:evenodd;fill:#ffffff;fill-opacity:1;" d="M 129.578125 324.078125 C 89.472656 324.078125 51.8125 319.347656 19.09375 311.03125 C 41.613281 314.453125 65.695312 316.296875 90.730469 316.296875 C 216.21875 316.296875 317.949219 269.957031 317.949219 212.785156 C 317.949219 173.902344 270.855469 140.03125 201.21875 122.324219 C 291.609375 136 356.796875 174.8125 356.796875 220.589844 C 356.796875 277.738281 255.066406 324.078125 129.578125 324.078125 Z M 133.792969 105.152344 L 133.792969 104.316406 C 183.890625 104.316406 187.523438 96.183594 187.523438 50.546875 L 188.363281 50.546875 C 188.363281 96.183594 192.019531 104.316406 242.117188 104.316406 L 242.117188 105.152344 C 192.019531 105.152344 188.363281 113.261719 188.363281 158.902344 L 187.523438 158.902344 C 187.523438 113.261719 183.890625 105.152344 133.792969 105.152344 "/></g><g style="fill:#ffffff;fill-opacity:1;"><g transform="translate(35.408579, 238.54967)"><path style="stroke:none" d="M 17.609375 12.953125 C 16.253906 12.953125 15.195312 12.460938 14.4375 11.484375 C 13 9.734375 12.804688 7.875 13.859375 5.90625 C 15.148438 3.707031 16.953125 1.585938 19.265625 -0.453125 C 21.578125 -2.492188 23.789062 -4.160156 25.90625 -5.453125 C 26.664062 -5.835938 27.382812 -6.253906 28.0625 -6.703125 C 28.75 -7.160156 29.472656 -7.613281 30.234375 -8.0625 C 30.910156 -8.445312 31.609375 -8.863281 32.328125 -9.3125 C 33.054688 -9.769531 33.796875 -10.1875 34.546875 -10.5625 C 35.679688 -11.25 36.492188 -12.195312 36.984375 -13.40625 C 37.484375 -14.625 37.8125 -15.875 37.96875 -17.15625 C 38.414062 -21.707031 36.40625 -24.054688 31.9375 -24.203125 C 30.644531 -24.203125 29.429688 -24.09375 28.296875 -23.875 C 27.460938 -23.71875 26.59375 -23.523438 25.6875 -23.296875 C 24.78125 -23.066406 23.910156 -22.878906 23.078125 -22.734375 C 22.160156 -22.578125 21.25 -22.382812 20.34375 -22.15625 C 19.4375 -21.9375 18.566406 -21.75 17.734375 -21.59375 C 16.597656 -21.363281 15.421875 -21.132812 14.203125 -20.90625 C 12.992188 -20.6875 11.78125 -20.578125 10.5625 -20.578125 C 8.0625 -20.578125 5.941406 -21.179688 4.203125 -22.390625 C 2.460938 -23.597656 1.25 -25.453125 0.5625 -27.953125 C 0.03125 -29.929688 -0.175781 -31.90625 -0.0625 -33.875 C 0.0507812 -35.84375 0.375 -37.8125 0.90625 -39.78125 C 1.894531 -44.019531 3.582031 -48.242188 5.96875 -52.453125 C 8.351562 -56.660156 11.191406 -60.5625 14.484375 -64.15625 C 17.785156 -67.757812 21.253906 -70.769531 24.890625 -73.1875 C 27.160156 -74.707031 29.617188 -76 32.265625 -77.0625 C 34.921875 -78.125 37.613281 -78.65625 40.34375 -78.65625 C 43.457031 -78.65625 46.207031 -77.875 48.59375 -76.3125 C 50.976562 -74.757812 52.242188 -72.359375 52.390625 -69.109375 C 52.546875 -67.441406 52.394531 -65.960938 51.9375 -64.671875 C 50.5 -59.671875 48.113281 -54.9375 44.78125 -50.46875 C 43.71875 -49.25 42.445312 -48.050781 40.96875 -46.875 C 39.488281 -45.707031 37.878906 -45.125 36.140625 -45.125 C 35.765625 -45.125 35.40625 -45.179688 35.0625 -45.296875 C 34.71875 -45.410156 34.507812 -45.691406 34.4375 -46.140625 C 34.363281 -46.671875 34.59375 -47.164062 35.125 -47.625 C 35.269531 -47.769531 35.421875 -47.84375 35.578125 -47.84375 C 35.722656 -47.84375 35.835938 -47.882812 35.921875 -47.96875 C 37.585938 -48.269531 39.210938 -49.175781 40.796875 -50.6875 C 42.390625 -52.207031 43.847656 -54.023438 45.171875 -56.140625 C 46.503906 -58.265625 47.566406 -60.40625 48.359375 -62.5625 C 49.148438 -64.726562 49.546875 -66.601562 49.546875 -68.1875 C 49.546875 -70.914062 48.632812 -72.847656 46.8125 -73.984375 C 45 -75.117188 42.882812 -75.6875 40.46875 -75.6875 C 38.34375 -75.6875 36.140625 -75.269531 33.859375 -74.4375 C 31.585938 -73.601562 29.582031 -72.617188 27.84375 -71.484375 C 15.71875 -63.679688 7.648438 -52.769531 3.640625 -38.75 C 3.253906 -37.238281 3.003906 -35.765625 2.890625 -34.328125 C 2.785156 -32.890625 2.882812 -31.445312 3.1875 -30 C 3.9375 -25.601562 6.320312 -23.40625 10.34375 -23.40625 C 10.644531 -23.40625 10.875 -23.445312 11.03125 -23.53125 C 11.101562 -23.53125 11.195312 -23.53125 11.3125 -23.53125 C 11.425781 -23.53125 11.519531 -23.53125 11.59375 -23.53125 C 12.050781 -23.601562 12.503906 -23.695312 12.953125 -23.8125 C 13.410156 -23.925781 13.867188 -24.019531 14.328125 -24.09375 C 14.773438 -24.164062 15.222656 -24.238281 15.671875 -24.3125 C 16.128906 -24.394531 16.585938 -24.472656 17.046875 -24.546875 C 17.878906 -24.703125 18.726562 -24.890625 19.59375 -25.109375 C 20.46875 -25.335938 21.320312 -25.53125 22.15625 -25.6875 C 22.988281 -25.832031 23.820312 -26 24.65625 -26.1875 C 25.488281 -26.382812 26.320312 -26.554688 27.15625 -26.703125 C 28.070312 -26.929688 28.984375 -27.0625 29.890625 -27.09375 C 30.796875 -27.132812 31.742188 -27.15625 32.734375 -27.15625 C 35.390625 -27.007812 37.453125 -26.117188 38.921875 -24.484375 C 40.398438 -22.859375 41.101562 -20.722656 41.03125 -18.078125 C 41.03125 -17.617188 40.953125 -17.085938 40.796875 -16.484375 C 40.648438 -15.878906 40.691406 -15.3125 40.921875 -14.78125 L 41.375 -14.78125 C 41.976562 -14.78125 42.46875 -14.929688 42.84375 -15.234375 C 43 -15.378906 43.1875 -15.507812 43.40625 -15.625 C 43.632812 -15.738281 43.828125 -15.832031 43.984375 -15.90625 L 59.09375 -23.875 C 59.25 -23.945312 59.441406 -24.019531 59.671875 -24.09375 C 59.898438 -24.164062 60.125 -24.242188 60.34375 -24.328125 C 60.5 -24.398438 60.691406 -24.472656 60.921875 -24.546875 C 61.148438 -24.617188 61.335938 -24.695312 61.484375 -24.78125 C 61.566406 -24.851562 61.71875 -24.890625 61.9375 -24.890625 C 62.320312 -24.890625 62.628906 -24.703125 62.859375 -24.328125 C 62.929688 -24.171875 62.984375 -24.015625 63.015625 -23.859375 C 63.054688 -23.710938 63.078125 -23.5625 63.078125 -23.40625 C 63.078125 -23.03125 62.960938 -22.769531 62.734375 -22.625 C 62.359375 -22.238281 61.941406 -21.929688 61.484375 -21.703125 C 61.253906 -21.628906 61.023438 -21.535156 60.796875 -21.421875 C 60.578125 -21.304688 60.351562 -21.175781 60.125 -21.03125 C 58.6875 -20.269531 57.226562 -19.488281 55.75 -18.6875 C 54.269531 -17.894531 52.773438 -17.082031 51.265625 -16.25 C 48.234375 -14.582031 45.160156 -12.992188 42.046875 -11.484375 C 39.847656 -10.347656 38.257812 -8.71875 37.28125 -6.59375 C 36.59375 -5.070312 35.625 -3.328125 34.375 -1.359375 C 33.125 0.609375 31.6875 2.554688 30.0625 4.484375 C 28.4375 6.421875 26.734375 8.125 24.953125 9.59375 C 23.171875 11.070312 21.484375 12.039062 19.890625 12.5 C 19.285156 12.800781 18.523438 12.953125 17.609375 12.953125 Z M 17.84375 10 C 18.144531 10 18.332031 9.960938 18.40625 9.890625 C 19.164062 9.585938 19.925781 9.207031 20.6875 8.75 C 23.113281 7.3125 25.460938 5.242188 27.734375 2.546875 C 30.003906 -0.140625 31.671875 -3 32.734375 -6.03125 C 31.140625 -5.113281 29.148438 -3.878906 26.765625 -2.328125 C 24.378906 -0.773438 22.179688 0.867188 20.171875 2.609375 C 18.160156 4.359375 16.851562 6.066406 16.25 7.734375 C 16.101562 8.335938 16.253906 8.90625 16.703125 9.4375 C 17.085938 9.8125 17.46875 10 17.84375 10 Z M 17.84375 10 "/></g></g><g style="fill:#ffffff;fill-opacity:1;"><g transform="translate(92.803494, 238.54967)"><path style="stroke:none" d="M 2.15625 3.640625 C 1.25 3.640625 0.644531 3.144531 0.34375 2.15625 C 0.113281 1.25 0 0.265625 0 -0.796875 C -0.15625 -2.992188 -0.117188 -5.148438 0.109375 -7.265625 C 0.335938 -9.390625 0.640625 -11.550781 1.015625 -13.75 C 1.171875 -14.507812 1.320312 -15.25 1.46875 -15.96875 C 1.625 -16.6875 1.78125 -17.425781 1.9375 -18.1875 C 2.082031 -18.863281 2.226562 -19.5625 2.375 -20.28125 C 2.53125 -21.007812 2.648438 -21.75 2.734375 -22.5 C 2.804688 -22.882812 2.898438 -23.242188 3.015625 -23.578125 C 3.128906 -23.921875 3.222656 -24.242188 3.296875 -24.546875 C 3.441406 -25.234375 3.328125 -25.992188 2.953125 -26.828125 C 2.804688 -27.273438 2.84375 -27.648438 3.0625 -27.953125 C 3.144531 -28.109375 3.222656 -28.257812 3.296875 -28.40625 C 3.367188 -28.5625 3.441406 -28.71875 3.515625 -28.875 C 3.898438 -29.40625 4.242188 -29.953125 4.546875 -30.515625 C 4.847656 -31.085938 5.113281 -31.640625 5.34375 -32.171875 C 5.488281 -32.773438 5.675781 -33.359375 5.90625 -33.921875 C 6.132812 -34.492188 6.363281 -35.082031 6.59375 -35.6875 C 8.5625 -41.675781 11.039062 -47.71875 14.03125 -53.8125 C 17.03125 -59.914062 20.460938 -65.503906 24.328125 -70.578125 C 24.472656 -70.734375 24.675781 -70.90625 24.9375 -71.09375 C 25.207031 -71.28125 25.492188 -71.453125 25.796875 -71.609375 C 25.867188 -71.679688 25.984375 -71.71875 26.140625 -71.71875 C 26.898438 -71.71875 27.28125 -71.414062 27.28125 -70.8125 C 27.28125 -70.65625 27.28125 -70.5 27.28125 -70.34375 C 27.28125 -70.195312 27.28125 -70.050781 27.28125 -69.90625 C 27.28125 -69.75 27.257812 -69.59375 27.21875 -69.4375 C 27.175781 -69.289062 27.117188 -69.140625 27.046875 -68.984375 C 26.972656 -68.679688 26.894531 -68.394531 26.8125 -68.125 C 26.738281 -67.863281 26.628906 -67.582031 26.484375 -67.28125 C 26.410156 -66.976562 26.316406 -66.691406 26.203125 -66.421875 C 26.085938 -66.160156 25.953125 -65.878906 25.796875 -65.578125 C 23.597656 -60.648438 21.304688 -55.835938 18.921875 -51.140625 C 16.535156 -46.441406 13.863281 -41.820312 10.90625 -37.28125 C 9.769531 -35.539062 8.726562 -33.207031 7.78125 -30.28125 C 6.832031 -27.363281 6 -24.257812 5.28125 -20.96875 C 4.5625 -17.675781 3.992188 -14.515625 3.578125 -11.484375 C 3.160156 -8.453125 2.953125 -5.953125 2.953125 -3.984375 C 2.953125 -3.753906 2.96875 -3.539062 3 -3.34375 C 3.039062 -3.15625 3.101562 -2.875 3.1875 -2.5 C 3.9375 -3.03125 4.425781 -3.597656 4.65625 -4.203125 C 4.8125 -4.503906 4.945312 -4.785156 5.0625 -5.046875 C 5.175781 -5.316406 5.304688 -5.601562 5.453125 -5.90625 C 6.210938 -7.5 7.195312 -9.46875 8.40625 -11.8125 C 9.625 -14.164062 10.953125 -16.554688 12.390625 -18.984375 C 13.828125 -21.410156 15.34375 -23.644531 16.9375 -25.6875 C 18.53125 -27.726562 20.046875 -29.242188 21.484375 -30.234375 C 22.015625 -30.609375 22.582031 -30.796875 23.1875 -30.796875 C 24.550781 -30.796875 25.347656 -30.039062 25.578125 -28.53125 C 25.648438 -28.226562 25.703125 -27.960938 25.734375 -27.734375 C 25.773438 -27.503906 25.796875 -27.273438 25.796875 -27.046875 C 25.722656 -26.742188 25.6875 -26.476562 25.6875 -26.25 C 25.6875 -26.019531 25.6875 -25.796875 25.6875 -25.578125 C 25.6875 -25.046875 25.6875 -24.550781 25.6875 -24.09375 C 25.6875 -23.632812 25.6875 -23.179688 25.6875 -22.734375 C 25.613281 -21.828125 25.613281 -20.914062 25.6875 -20 C 25.6875 -19.695312 25.6875 -19.429688 25.6875 -19.203125 C 25.6875 -18.972656 25.6875 -18.75 25.6875 -18.53125 C 25.6875 -18.226562 25.703125 -17.960938 25.734375 -17.734375 C 25.773438 -17.503906 25.832031 -17.273438 25.90625 -17.046875 C 26.132812 -15.753906 26.664062 -15.109375 27.5 -15.109375 C 27.957031 -15.109375 28.414062 -15.222656 28.875 -15.453125 C 29.78125 -15.910156 31.007812 -16.671875 32.5625 -17.734375 C 34.113281 -18.796875 35.628906 -19.910156 37.109375 -21.078125 C 38.585938 -22.253906 39.664062 -23.1875 40.34375 -23.875 C 40.726562 -24.320312 41.144531 -24.738281 41.59375 -25.125 C 41.75 -25.269531 41.941406 -25.34375 42.171875 -25.34375 C 42.390625 -25.34375 42.539062 -25.304688 42.625 -25.234375 C 42.695312 -25.160156 42.75 -25.125 42.78125 -25.125 C 42.820312 -25.125 42.882812 -25.082031 42.96875 -25 C 43.414062 -24.625 43.601562 -24.171875 43.53125 -23.640625 C 43.300781 -22.804688 42.484375 -21.742188 41.078125 -20.453125 C 39.679688 -19.171875 38.054688 -17.882812 36.203125 -16.59375 C 34.347656 -15.300781 32.601562 -14.21875 30.96875 -13.34375 C 29.34375 -12.476562 28.148438 -12.046875 27.390625 -12.046875 C 25.117188 -12.046875 23.679688 -13.410156 23.078125 -16.140625 C 22.847656 -17.273438 22.710938 -18.429688 22.671875 -19.609375 C 22.640625 -20.785156 22.660156 -21.976562 22.734375 -23.1875 C 22.734375 -23.488281 22.734375 -23.753906 22.734375 -23.984375 C 22.734375 -24.210938 22.734375 -24.4375 22.734375 -24.65625 C 22.734375 -24.882812 22.734375 -25.113281 22.734375 -25.34375 C 22.734375 -25.570312 22.695312 -25.835938 22.625 -26.140625 C 22.625 -26.441406 22.46875 -26.59375 22.15625 -26.59375 C 22.007812 -26.59375 21.898438 -26.554688 21.828125 -26.484375 C 21.523438 -26.328125 21.257812 -26.132812 21.03125 -25.90625 C 20.800781 -25.6875 20.609375 -25.5 20.453125 -25.34375 C 17.953125 -22.539062 15.640625 -19.148438 13.515625 -15.171875 C 11.398438 -11.191406 9.546875 -7.535156 7.953125 -4.203125 C 7.578125 -3.367188 7.160156 -2.550781 6.703125 -1.75 C 6.253906 -0.957031 5.800781 -0.144531 5.34375 0.6875 C 4.882812 1.738281 4.273438 2.53125 3.515625 3.0625 C 2.910156 3.445312 2.457031 3.640625 2.15625 3.640625 Z M 15.90625 -50.921875 L 16.03125 -50.921875 L 16.03125 -51.03125 C 16.5625 -51.707031 16.785156 -52.3125 16.703125 -52.84375 C 16.628906 -52.46875 16.550781 -52.128906 16.46875 -51.828125 C 16.394531 -51.523438 16.207031 -51.222656 15.90625 -50.921875 Z M 16.9375 -53.078125 L 17.609375 -53.640625 C 17.535156 -53.566406 17.441406 -53.492188 17.328125 -53.421875 C 17.210938 -53.347656 17.082031 -53.234375 16.9375 -53.078125 Z M 17.953125 -54.21875 C 18.109375 -54.363281 18.1875 -54.515625 18.1875 -54.671875 C 18.1875 -54.898438 18.222656 -55.050781 18.296875 -55.125 Z M 17.953125 -54.21875 "/></g></g><g style="fill:#ffffff;fill-opacity:1;"><g transform="translate(130.650049, 238.54967)"><path style="stroke:none" d="M -0.34375 1.9375 C -0.414062 1.9375 -0.46875 1.9375 -0.5 1.9375 C -0.539062 1.9375 -0.601562 1.9375 -0.6875 1.9375 C -0.6875 1.851562 -0.757812 1.8125 -0.90625 1.8125 C -1.664062 1.59375 -2.117188 1.023438 -2.265625 0.109375 C -2.265625 -0.117188 -2.265625 -0.34375 -2.265625 -0.5625 C -2.265625 -0.789062 -2.304688 -1.054688 -2.390625 -1.359375 C -2.390625 -1.585938 -2.390625 -1.816406 -2.390625 -2.046875 C -2.390625 -2.273438 -2.347656 -2.539062 -2.265625 -2.84375 C -1.515625 -7.914062 -0.382812 -12.5 1.125 -16.59375 C 2.644531 -20.6875 4.390625 -25.003906 6.359375 -29.546875 C 6.515625 -29.847656 6.664062 -30.128906 6.8125 -30.390625 C 6.96875 -30.660156 7.125 -30.910156 7.28125 -31.140625 C 7.5 -31.367188 7.835938 -31.484375 8.296875 -31.484375 L 8.640625 -31.484375 C 9.242188 -31.253906 9.507812 -30.875 9.4375 -30.34375 C 9.4375 -29.664062 9.242188 -28.832031 8.859375 -27.84375 C 8.410156 -26.707031 7.9375 -25.570312 7.4375 -24.4375 C 6.945312 -23.300781 6.4375 -22.164062 5.90625 -21.03125 C 5.15625 -19.28125 4.472656 -17.535156 3.859375 -15.796875 C 3.253906 -14.054688 2.722656 -12.3125 2.265625 -10.5625 C 2.117188 -9.957031 1.988281 -9.351562 1.875 -8.75 C 1.757812 -8.144531 1.851562 -7.539062 2.15625 -6.9375 L 2.046875 -6.9375 L 2.15625 -6.8125 L 6.59375 -15.796875 C 7.5 -17.535156 8.632812 -19.296875 10 -21.078125 C 11.363281 -22.859375 12.914062 -24.28125 14.65625 -25.34375 C 15.113281 -25.570312 15.570312 -25.6875 16.03125 -25.6875 C 16.9375 -25.6875 17.65625 -25.234375 18.1875 -24.328125 C 18.332031 -24.171875 18.460938 -23.976562 18.578125 -23.75 C 18.691406 -23.519531 18.785156 -23.296875 18.859375 -23.078125 C 18.941406 -22.617188 19.132812 -22.160156 19.4375 -21.703125 C 20.269531 -20.335938 21.175781 -19.65625 22.15625 -19.65625 C 22.84375 -19.65625 23.675781 -19.957031 24.65625 -20.5625 C 25.644531 -21.175781 26.648438 -21.859375 27.671875 -22.609375 C 28.691406 -23.367188 29.507812 -24.015625 30.125 -24.546875 C 30.570312 -25.003906 31.0625 -25.382812 31.59375 -25.6875 C 31.664062 -25.757812 31.816406 -25.796875 32.046875 -25.796875 C 32.347656 -25.796875 32.648438 -25.679688 32.953125 -25.453125 C 33.410156 -25.003906 33.523438 -24.550781 33.296875 -24.09375 C 32.992188 -23.488281 32.65625 -23 32.28125 -22.625 C 31.59375 -21.9375 30.644531 -21.117188 29.4375 -20.171875 C 28.226562 -19.222656 26.976562 -18.40625 25.6875 -17.71875 C 24.394531 -17.039062 23.21875 -16.703125 22.15625 -16.703125 C 20.269531 -16.703125 18.71875 -17.535156 17.5 -19.203125 C 17.351562 -19.429688 17.203125 -19.660156 17.046875 -19.890625 C 16.898438 -20.117188 16.75 -20.347656 16.59375 -20.578125 C 16.519531 -20.796875 16.40625 -21.019531 16.25 -21.25 C 16.101562 -21.476562 15.953125 -21.707031 15.796875 -21.9375 C 15.265625 -21.9375 14.863281 -21.820312 14.59375 -21.59375 C 14.332031 -21.363281 14.085938 -21.097656 13.859375 -20.796875 C 12.804688 -19.734375 11.863281 -18.578125 11.03125 -17.328125 C 10.195312 -16.078125 9.4375 -14.8125 8.75 -13.53125 C 8.289062 -12.613281 7.832031 -11.703125 7.375 -10.796875 C 6.925781 -9.890625 6.515625 -8.976562 6.140625 -8.0625 C 5.679688 -7.15625 5.222656 -6.25 4.765625 -5.34375 C 4.316406 -4.4375 3.828125 -3.488281 3.296875 -2.5 C 2.992188 -1.894531 2.671875 -1.304688 2.328125 -0.734375 C 1.984375 -0.171875 1.625 0.410156 1.25 1.015625 C 0.875 1.628906 0.34375 1.9375 -0.34375 1.9375 Z M -0.34375 1.9375 "/></g></g><g style="fill:#ffffff;fill-opacity:1;"><g transform="translate(158.381441, 238.54967)"><path style="stroke:none" d="M 4.890625 -4.09375 C 2.765625 -4.09375 1.285156 -5.191406 0.453125 -7.390625 C 0.222656 -7.992188 0.0859375 -8.617188 0.046875 -9.265625 C 0.015625 -9.910156 0 -10.648438 0 -11.484375 C 0.300781 -13.148438 0.640625 -15.132812 1.015625 -17.4375 C 1.398438 -19.75 1.910156 -21.945312 2.546875 -24.03125 C 3.191406 -26.113281 4.007812 -27.648438 5 -28.640625 C 5.375 -28.867188 5.675781 -28.984375 5.90625 -28.984375 C 5.988281 -28.984375 6.253906 -28.90625 6.703125 -28.75 C 7.234375 -28.53125 7.425781 -28.113281 7.28125 -27.5 C 6.289062 -25 5.414062 -22.363281 4.65625 -19.59375 C 3.894531 -16.832031 3.328125 -14.128906 2.953125 -11.484375 C 2.878906 -10.648438 2.957031 -9.664062 3.1875 -8.53125 C 3.332031 -7.914062 3.59375 -7.53125 3.96875 -7.375 C 4.351562 -7.226562 4.847656 -7.15625 5.453125 -7.15625 C 6.285156 -7.3125 7.039062 -7.578125 7.71875 -7.953125 C 8.40625 -8.335938 9.09375 -8.789062 9.78125 -9.3125 C 11.289062 -10.601562 12.742188 -11.929688 14.140625 -13.296875 C 15.546875 -14.660156 16.894531 -16.097656 18.1875 -17.609375 C 18.632812 -18.140625 19.085938 -18.671875 19.546875 -19.203125 C 20.003906 -19.734375 20.421875 -20.265625 20.796875 -20.796875 C 21.179688 -21.328125 21.597656 -21.859375 22.046875 -22.390625 C 22.503906 -22.921875 22.957031 -23.453125 23.40625 -23.984375 C 23.632812 -24.285156 23.878906 -24.550781 24.140625 -24.78125 C 24.410156 -25.007812 24.695312 -25.234375 25 -25.453125 C 25.15625 -25.609375 25.347656 -25.6875 25.578125 -25.6875 C 25.878906 -25.6875 26.144531 -25.570312 26.375 -25.34375 C 26.820312 -25.039062 26.972656 -24.585938 26.828125 -23.984375 C 26.742188 -23.523438 26.515625 -23.109375 26.140625 -22.734375 C 24.171875 -20.148438 22.144531 -17.644531 20.0625 -15.21875 C 17.976562 -12.800781 15.6875 -10.53125 13.1875 -8.40625 C 12.125 -7.425781 10.851562 -6.460938 9.375 -5.515625 C 7.894531 -4.566406 6.398438 -4.09375 4.890625 -4.09375 Z M 7.84375 -33.078125 C 6.707031 -32.921875 6.0625 -33.640625 5.90625 -35.234375 C 5.90625 -36.597656 6.585938 -37.28125 7.953125 -37.28125 C 9.390625 -37.28125 10.148438 -36.671875 10.234375 -35.453125 C 10.234375 -34.847656 9.984375 -34.300781 9.484375 -33.8125 C 8.992188 -33.320312 8.445312 -33.078125 7.84375 -33.078125 Z M 7.84375 -33.078125 "/></g></g><g style="fill:#ffffff;fill-opacity:1;"><g transform="translate(179.520944, 238.54967)"><path style="stroke:none" d="M -0.796875 9.09375 C -1.398438 9.09375 -2.003906 8.90625 -2.609375 8.53125 C -3.523438 7.914062 -4.09375 7.191406 -4.3125 6.359375 C -4.539062 5.523438 -4.582031 4.617188 -4.4375 3.640625 C -4.207031 2.578125 -3.632812 1.347656 -2.71875 -0.046875 C -1.8125 -1.453125 -0.789062 -2.800781 0.34375 -4.09375 C 1.476562 -5.382812 2.5 -6.332031 3.40625 -6.9375 C 4.238281 -7.613281 4.785156 -8.332031 5.046875 -9.09375 C 5.316406 -9.851562 5.453125 -10.757812 5.453125 -11.8125 C 5.378906 -13.5625 5.226562 -15.269531 5 -16.9375 C 4.769531 -18.601562 4.46875 -20.304688 4.09375 -22.046875 C 3.9375 -22.804688 3.820312 -23.546875 3.75 -24.265625 C 3.675781 -24.984375 3.597656 -25.722656 3.515625 -26.484375 C 3.367188 -29.054688 3.84375 -31.269531 4.9375 -33.125 C 6.039062 -34.988281 7.578125 -36.640625 9.546875 -38.078125 C 10.679688 -38.753906 11.859375 -39.09375 13.078125 -39.09375 C 13.679688 -39.09375 14.171875 -39.054688 14.546875 -38.984375 C 14.921875 -38.910156 15.335938 -38.644531 15.796875 -38.1875 C 16.097656 -37.882812 16.191406 -37.539062 16.078125 -37.15625 C 15.960938 -36.78125 15.71875 -36.519531 15.34375 -36.375 C 15.269531 -36.289062 15.039062 -36.25 14.65625 -36.25 C 12.539062 -36.25 10.6875 -35.488281 9.09375 -33.96875 C 7.5 -32.457031 6.628906 -30.644531 6.484375 -28.53125 C 6.398438 -28.226562 6.359375 -27.921875 6.359375 -27.609375 C 6.359375 -27.304688 6.359375 -27.003906 6.359375 -26.703125 C 6.359375 -26.398438 6.378906 -26.097656 6.421875 -25.796875 C 6.460938 -25.492188 6.519531 -25.191406 6.59375 -24.890625 C 6.96875 -22.847656 7.328125 -20.820312 7.671875 -18.8125 C 8.015625 -16.800781 8.257812 -14.773438 8.40625 -12.734375 C 8.40625 -12.648438 8.597656 -12.304688 8.984375 -11.703125 C 9.660156 -12.085938 10.226562 -12.429688 10.6875 -12.734375 L 27.15625 -24.328125 C 27.539062 -24.472656 27.882812 -24.695312 28.1875 -25 C 28.5625 -25.226562 28.898438 -25.34375 29.203125 -25.34375 C 29.515625 -25.34375 29.78125 -25.226562 30 -25 C 30.6875 -24.394531 30.765625 -23.828125 30.234375 -23.296875 C 29.929688 -22.847656 29.328125 -22.28125 28.421875 -21.59375 C 26.898438 -20.53125 25.421875 -19.488281 23.984375 -18.46875 C 22.546875 -17.445312 21.101562 -16.40625 19.65625 -15.34375 L 10.234375 -8.640625 C 8.941406 -7.734375 8.179688 -6.519531 7.953125 -5 C 7.878906 -3.40625 7.460938 -1.507812 6.703125 0.6875 C 5.941406 2.882812 4.914062 4.832031 3.625 6.53125 C 2.34375 8.238281 0.867188 9.09375 -0.796875 9.09375 Z M -0.5625 5.90625 C -0.257812 5.90625 0.00390625 5.789062 0.234375 5.5625 C 1.285156 4.726562 2.191406 3.5 2.953125 1.875 C 3.710938 0.25 4.128906 -1.472656 4.203125 -3.296875 C 1.554688 -1.328125 -0.335938 1.054688 -1.484375 3.859375 C -1.554688 4.160156 -1.554688 4.425781 -1.484375 4.65625 C -1.484375 5.039062 -1.367188 5.34375 -1.140625 5.5625 C -0.984375 5.789062 -0.789062 5.90625 -0.5625 5.90625 Z M -0.5625 5.90625 "/></g></g><g style="fill:#ffffff;fill-opacity:1;"><g transform="translate(204.297373, 238.54967)"><path style="stroke:none" d="M 2.15625 3.640625 C 1.25 3.640625 0.644531 3.144531 0.34375 2.15625 C 0.113281 1.25 0 0.265625 0 -0.796875 C -0.15625 -2.992188 -0.117188 -5.148438 0.109375 -7.265625 C 0.335938 -9.390625 0.640625 -11.550781 1.015625 -13.75 C 1.171875 -14.507812 1.320312 -15.25 1.46875 -15.96875 C 1.625 -16.6875 1.78125 -17.425781 1.9375 -18.1875 C 2.082031 -18.863281 2.226562 -19.5625 2.375 -20.28125 C 2.53125 -21.007812 2.648438 -21.75 2.734375 -22.5 C 2.804688 -22.882812 2.898438 -23.242188 3.015625 -23.578125 C 3.128906 -23.921875 3.222656 -24.242188 3.296875 -24.546875 C 3.441406 -25.234375 3.328125 -25.992188 2.953125 -26.828125 C 2.804688 -27.273438 2.84375 -27.648438 3.0625 -27.953125 C 3.144531 -28.109375 3.222656 -28.257812 3.296875 -28.40625 C 3.367188 -28.5625 3.441406 -28.71875 3.515625 -28.875 C 3.898438 -29.40625 4.242188 -29.953125 4.546875 -30.515625 C 4.847656 -31.085938 5.113281 -31.640625 5.34375 -32.171875 C 5.488281 -32.773438 5.675781 -33.359375 5.90625 -33.921875 C 6.132812 -34.492188 6.363281 -35.082031 6.59375 -35.6875 C 8.5625 -41.675781 11.039062 -47.71875 14.03125 -53.8125 C 17.03125 -59.914062 20.460938 -65.503906 24.328125 -70.578125 C 24.472656 -70.734375 24.675781 -70.90625 24.9375 -71.09375 C 25.207031 -71.28125 25.492188 -71.453125 25.796875 -71.609375 C 25.867188 -71.679688 25.984375 -71.71875 26.140625 -71.71875 C 26.898438 -71.71875 27.28125 -71.414062 27.28125 -70.8125 C 27.28125 -70.65625 27.28125 -70.5 27.28125 -70.34375 C 27.28125 -70.195312 27.28125 -70.050781 27.28125 -69.90625 C 27.28125 -69.75 27.257812 -69.59375 27.21875 -69.4375 C 27.175781 -69.289062 27.117188 -69.140625 27.046875 -68.984375 C 26.972656 -68.679688 26.894531 -68.394531 26.8125 -68.125 C 26.738281 -67.863281 26.628906 -67.582031 26.484375 -67.28125 C 26.410156 -66.976562 26.316406 -66.691406 26.203125 -66.421875 C 26.085938 -66.160156 25.953125 -65.878906 25.796875 -65.578125 C 23.597656 -60.648438 21.304688 -55.835938 18.921875 -51.140625 C 16.535156 -46.441406 13.863281 -41.820312 10.90625 -37.28125 C 9.769531 -35.539062 8.726562 -33.207031 7.78125 -30.28125 C 6.832031 -27.363281 6 -24.257812 5.28125 -20.96875 C 4.5625 -17.675781 3.992188 -14.515625 3.578125 -11.484375 C 3.160156 -8.453125 2.953125 -5.953125 2.953125 -3.984375 C 2.953125 -3.753906 2.96875 -3.539062 3 -3.34375 C 3.039062 -3.15625 3.101562 -2.875 3.1875 -2.5 C 3.9375 -3.03125 4.425781 -3.597656 4.65625 -4.203125 C 4.8125 -4.503906 4.945312 -4.785156 5.0625 -5.046875 C 5.175781 -5.316406 5.304688 -5.601562 5.453125 -5.90625 C 6.210938 -7.5 7.195312 -9.46875 8.40625 -11.8125 C 9.625 -14.164062 10.953125 -16.554688 12.390625 -18.984375 C 13.828125 -21.410156 15.34375 -23.644531 16.9375 -25.6875 C 18.53125 -27.726562 20.046875 -29.242188 21.484375 -30.234375 C 22.015625 -30.609375 22.582031 -30.796875 23.1875 -30.796875 C 24.550781 -30.796875 25.347656 -30.039062 25.578125 -28.53125 C 25.648438 -28.226562 25.703125 -27.960938 25.734375 -27.734375 C 25.773438 -27.503906 25.796875 -27.273438 25.796875 -27.046875 C 25.722656 -26.742188 25.6875 -26.476562 25.6875 -26.25 C 25.6875 -26.019531 25.6875 -25.796875 25.6875 -25.578125 C 25.6875 -25.046875 25.6875 -24.550781 25.6875 -24.09375 C 25.6875 -23.632812 25.6875 -23.179688 25.6875 -22.734375 C 25.613281 -21.828125 25.613281 -20.914062 25.6875 -20 C 25.6875 -19.695312 25.6875 -19.429688 25.6875 -19.203125 C 25.6875 -18.972656 25.6875 -18.75 25.6875 -18.53125 C 25.6875 -18.226562 25.703125 -17.960938 25.734375 -17.734375 C 25.773438 -17.503906 25.832031 -17.273438 25.90625 -17.046875 C 26.132812 -15.753906 26.664062 -15.109375 27.5 -15.109375 C 27.957031 -15.109375 28.414062 -15.222656 28.875 -15.453125 C 29.78125 -15.910156 31.007812 -16.671875 32.5625 -17.734375 C 34.113281 -18.796875 35.628906 -19.910156 37.109375 -21.078125 C 38.585938 -22.253906 39.664062 -23.1875 40.34375 -23.875 C 40.726562 -24.320312 41.144531 -24.738281 41.59375 -25.125 C 41.75 -25.269531 41.941406 -25.34375 42.171875 -25.34375 C 42.390625 -25.34375 42.539062 -25.304688 42.625 -25.234375 C 42.695312 -25.160156 42.75 -25.125 42.78125 -25.125 C 42.820312 -25.125 42.882812 -25.082031 42.96875 -25 C 43.414062 -24.625 43.601562 -24.171875 43.53125 -23.640625 C 43.300781 -22.804688 42.484375 -21.742188 41.078125 -20.453125 C 39.679688 -19.171875 38.054688 -17.882812 36.203125 -16.59375 C 34.347656 -15.300781 32.601562 -14.21875 30.96875 -13.34375 C 29.34375 -12.476562 28.148438 -12.046875 27.390625 -12.046875 C 25.117188 -12.046875 23.679688 -13.410156 23.078125 -16.140625 C 22.847656 -17.273438 22.710938 -18.429688 22.671875 -19.609375 C 22.640625 -20.785156 22.660156 -21.976562 22.734375 -23.1875 C 22.734375 -23.488281 22.734375 -23.753906 22.734375 -23.984375 C 22.734375 -24.210938 22.734375 -24.4375 22.734375 -24.65625 C 22.734375 -24.882812 22.734375 -25.113281 22.734375 -25.34375 C 22.734375 -25.570312 22.695312 -25.835938 22.625 -26.140625 C 22.625 -26.441406 22.46875 -26.59375 22.15625 -26.59375 C 22.007812 -26.59375 21.898438 -26.554688 21.828125 -26.484375 C 21.523438 -26.328125 21.257812 -26.132812 21.03125 -25.90625 C 20.800781 -25.6875 20.609375 -25.5 20.453125 -25.34375 C 17.953125 -22.539062 15.640625 -19.148438 13.515625 -15.171875 C 11.398438 -11.191406 9.546875 -7.535156 7.953125 -4.203125 C 7.578125 -3.367188 7.160156 -2.550781 6.703125 -1.75 C 6.253906 -0.957031 5.800781 -0.144531 5.34375 0.6875 C 4.882812 1.738281 4.273438 2.53125 3.515625 3.0625 C 2.910156 3.445312 2.457031 3.640625 2.15625 3.640625 Z M 15.90625 -50.921875 L 16.03125 -50.921875 L 16.03125 -51.03125 C 16.5625 -51.707031 16.785156 -52.3125 16.703125 -52.84375 C 16.628906 -52.46875 16.550781 -52.128906 16.46875 -51.828125 C 16.394531 -51.523438 16.207031 -51.222656 15.90625 -50.921875 Z M 16.9375 -53.078125 L 17.609375 -53.640625 C 17.535156 -53.566406 17.441406 -53.492188 17.328125 -53.421875 C 17.210938 -53.347656 17.082031 -53.234375 16.9375 -53.078125 Z M 17.953125 -54.21875 C 18.109375 -54.363281 18.1875 -54.515625 18.1875 -54.671875 C 18.1875 -54.898438 18.222656 -55.050781 18.296875 -55.125 Z M 17.953125 -54.21875 "/></g></g><g style="fill:#ffffff;fill-opacity:1;"><g transform="translate(242.143919, 238.54967)"><path style="stroke:none" d="M 2.046875 8.0625 C 0.609375 8.0625 -0.351562 7.265625 -0.84375 5.671875 C -1.34375 4.085938 -1.59375 2.648438 -1.59375 1.359375 C -1.59375 -2.273438 -1.132812 -6.304688 -0.21875 -10.734375 C 0.6875 -15.171875 1.800781 -19.546875 3.125 -23.859375 C 4.445312 -28.179688 5.71875 -32.046875 6.9375 -35.453125 C 7.3125 -36.515625 7.671875 -37.519531 8.015625 -38.46875 C 8.359375 -39.414062 8.71875 -40.382812 9.09375 -41.375 C 9.394531 -42.207031 9.488281 -42.789062 9.375 -43.125 C 9.257812 -43.46875 8.863281 -43.640625 8.1875 -43.640625 L 7.28125 -43.640625 C 6.519531 -43.566406 5.757812 -43.488281 5 -43.40625 C 4.238281 -43.332031 3.484375 -43.222656 2.734375 -43.078125 C 1.972656 -43.003906 1.191406 -42.910156 0.390625 -42.796875 C -0.398438 -42.679688 -1.175781 -42.582031 -1.9375 -42.5 C -2.382812 -42.425781 -2.851562 -42.351562 -3.34375 -42.28125 C -3.84375 -42.207031 -4.320312 -42.171875 -4.78125 -42.171875 C -5.382812 -42.171875 -5.800781 -42.207031 -6.03125 -42.28125 C -6.40625 -42.351562 -6.664062 -42.582031 -6.8125 -42.96875 C -6.96875 -43.71875 -6.78125 -44.132812 -6.25 -44.21875 C -5.945312 -44.289062 -5.679688 -44.363281 -5.453125 -44.4375 C -5.222656 -44.507812 -5 -44.585938 -4.78125 -44.671875 C -4.46875 -44.742188 -4.175781 -44.796875 -3.90625 -44.828125 C -3.644531 -44.867188 -3.363281 -44.929688 -3.0625 -45.015625 C -2.007812 -45.160156 -0.972656 -45.304688 0.046875 -45.453125 C 1.078125 -45.609375 2.082031 -45.722656 3.0625 -45.796875 C 4.125 -45.953125 5.144531 -46.085938 6.125 -46.203125 C 7.113281 -46.316406 8.101562 -46.410156 9.09375 -46.484375 C 10.457031 -46.554688 11.40625 -47.203125 11.9375 -48.421875 L 15 -55.234375 C 15.300781 -55.691406 15.566406 -56.144531 15.796875 -56.59375 C 16.023438 -57.050781 16.289062 -57.507812 16.59375 -57.96875 C 16.820312 -58.414062 17.066406 -58.867188 17.328125 -59.328125 C 17.597656 -59.785156 17.882812 -60.238281 18.1875 -60.6875 C 19.019531 -62.050781 19.816406 -62.734375 20.578125 -62.734375 C 21.023438 -62.734375 21.363281 -62.46875 21.59375 -61.9375 C 21.75 -61.1875 21.5625 -60.351562 21.03125 -59.4375 C 20.414062 -57.925781 19.75 -56.410156 19.03125 -54.890625 C 18.3125 -53.378906 17.578125 -51.863281 16.828125 -50.34375 C 16.742188 -50.195312 16.664062 -50.007812 16.59375 -49.78125 C 16.519531 -49.550781 16.441406 -49.363281 16.359375 -49.21875 C 16.140625 -48.757812 16.03125 -48.226562 16.03125 -47.625 C 16.332031 -47.550781 16.59375 -47.492188 16.8125 -47.453125 C 17.039062 -47.410156 17.269531 -47.390625 17.5 -47.390625 C 17.800781 -47.390625 18.03125 -47.429688 18.1875 -47.515625 C 18.332031 -47.515625 18.441406 -47.515625 18.515625 -47.515625 C 18.597656 -47.515625 18.675781 -47.515625 18.75 -47.515625 C 20.34375 -47.660156 21.988281 -47.828125 23.6875 -48.015625 C 25.394531 -48.203125 27.195312 -48.375 29.09375 -48.53125 C 30.988281 -48.6875 32.785156 -48.835938 34.484375 -48.984375 C 36.191406 -49.140625 37.84375 -49.289062 39.4375 -49.4375 L 43.53125 -49.4375 C 44.0625 -49.4375 44.363281 -49.054688 44.4375 -48.296875 C 44.4375 -47.691406 44.207031 -47.316406 43.75 -47.171875 C 43.445312 -47.085938 43.179688 -47.023438 42.953125 -46.984375 C 42.734375 -46.953125 42.507812 -46.9375 42.28125 -46.9375 C 42.050781 -46.863281 41.820312 -46.828125 41.59375 -46.828125 C 41.363281 -46.828125 41.097656 -46.789062 40.796875 -46.71875 L 16.359375 -44.546875 C 14.691406 -44.398438 13.597656 -43.644531 13.078125 -42.28125 C 12.390625 -40.84375 11.570312 -38.773438 10.625 -36.078125 C 9.675781 -33.390625 8.691406 -30.492188 7.671875 -27.390625 C 6.648438 -24.285156 5.722656 -21.332031 4.890625 -18.53125 C 4.054688 -15.726562 3.445312 -13.488281 3.0625 -11.8125 C 2.613281 -9.925781 2.253906 -8.050781 1.984375 -6.1875 C 1.722656 -4.332031 1.515625 -2.421875 1.359375 -0.453125 C 1.285156 0.378906 1.226562 1.269531 1.1875 2.21875 C 1.15625 3.164062 1.554688 3.976562 2.390625 4.65625 C 3.222656 4.582031 3.976562 4.203125 4.65625 3.515625 C 4.957031 3.140625 5.238281 2.78125 5.5 2.4375 C 5.769531 2.101562 6.054688 1.785156 6.359375 1.484375 C 7.578125 -0.0351562 9.035156 -1.988281 10.734375 -4.375 C 12.441406 -6.757812 14.1875 -9.203125 15.96875 -11.703125 C 17.75 -14.203125 19.394531 -16.472656 20.90625 -18.515625 C 22.425781 -20.566406 23.601562 -22.007812 24.4375 -22.84375 C 24.582031 -23.070312 24.769531 -23.300781 25 -23.53125 C 25.226562 -23.757812 25.421875 -23.984375 25.578125 -24.203125 C 25.953125 -24.585938 26.40625 -24.894531 26.9375 -25.125 C 27.007812 -25.125 27.082031 -25.160156 27.15625 -25.234375 C 27.238281 -25.234375 27.28125 -25.234375 27.28125 -25.234375 C 27.28125 -25.234375 27.316406 -25.234375 27.390625 -25.234375 C 27.460938 -25.234375 27.726562 -25.15625 28.1875 -25 C 28.789062 -24.550781 28.90625 -23.984375 28.53125 -23.296875 C 28.53125 -23.066406 28.414062 -22.84375 28.1875 -22.625 C 27.050781 -21.257812 25.550781 -19.328125 23.6875 -16.828125 C 21.832031 -14.328125 20.113281 -11.976562 18.53125 -9.78125 C 16.632812 -7.195312 14.703125 -4.597656 12.734375 -1.984375 C 10.765625 0.628906 8.867188 2.992188 7.046875 5.109375 C 6.515625 5.796875 5.773438 6.457031 4.828125 7.09375 C 3.878906 7.738281 2.953125 8.0625 2.046875 8.0625 Z M 2.046875 8.0625 "/></g></g><g style="fill:#ffffff;fill-opacity:1;"><g transform="translate(264.988242, 238.54967)"><path style="stroke:none" d="M 15.34375 22.5 C 14.351562 22.5 13.554688 21.929688 12.953125 20.796875 C 11.972656 19.054688 11.820312 17.351562 12.5 15.6875 C 13.40625 12.957031 14.539062 10.359375 15.90625 7.890625 C 17.269531 5.429688 18.75 2.988281 20.34375 0.5625 C 21.101562 -0.644531 21.632812 -2.003906 21.9375 -3.515625 C 22.082031 -4.804688 22.234375 -6.078125 22.390625 -7.328125 C 22.546875 -8.578125 22.695312 -9.8125 22.84375 -11.03125 C 23 -12.3125 23.171875 -13.578125 23.359375 -14.828125 C 23.546875 -16.078125 23.71875 -17.347656 23.875 -18.640625 L 24.890625 -26.703125 C 24.960938 -26.859375 25 -27.238281 25 -27.84375 C 25 -28.144531 24.882812 -28.296875 24.65625 -28.296875 C 24.4375 -28.453125 24.210938 -28.414062 23.984375 -28.1875 L 21.59375 -25.34375 C 19.695312 -23 17.722656 -20.835938 15.671875 -18.859375 C 13.628906 -16.890625 11.359375 -15.070312 8.859375 -13.40625 C 8.410156 -13.101562 7.957031 -12.894531 7.5 -12.78125 C 7.039062 -12.664062 6.585938 -12.570312 6.140625 -12.5 C 4.617188 -12.5 3.59375 -12.929688 3.0625 -13.796875 C 2.53125 -14.671875 2.265625 -15.789062 2.265625 -17.15625 C 2.265625 -19.65625 2.625 -22.285156 3.34375 -25.046875 C 4.070312 -27.816406 5.269531 -30.191406 6.9375 -32.171875 C 7.3125 -32.546875 7.726562 -32.734375 8.1875 -32.734375 C 8.257812 -32.734375 8.351562 -32.710938 8.46875 -32.671875 C 8.582031 -32.640625 8.753906 -32.582031 8.984375 -32.5 C 9.734375 -32.050781 9.804688 -31.410156 9.203125 -30.578125 C 8.140625 -29.140625 7.363281 -27.601562 6.875 -25.96875 C 6.382812 -24.34375 5.945312 -22.65625 5.5625 -20.90625 C 5.414062 -20.300781 5.320312 -19.695312 5.28125 -19.09375 C 5.25 -18.488281 5.234375 -17.882812 5.234375 -17.28125 C 5.078125 -16.21875 5.414062 -15.6875 6.25 -15.6875 C 6.550781 -15.6875 6.929688 -15.800781 7.390625 -16.03125 C 7.691406 -16.175781 7.972656 -16.363281 8.234375 -16.59375 C 8.503906 -16.820312 8.789062 -17.007812 9.09375 -17.15625 C 9.394531 -17.3125 9.675781 -17.503906 9.9375 -17.734375 C 10.207031 -17.960938 10.492188 -18.148438 10.796875 -18.296875 C 12.234375 -19.359375 13.578125 -20.570312 14.828125 -21.9375 C 16.078125 -23.300781 17.3125 -24.738281 18.53125 -26.25 C 19.0625 -26.851562 19.585938 -27.492188 20.109375 -28.171875 C 20.640625 -28.859375 21.171875 -29.546875 21.703125 -30.234375 C 22.234375 -30.835938 22.742188 -31.476562 23.234375 -32.15625 C 23.734375 -32.84375 24.25 -33.488281 24.78125 -34.09375 C 24.925781 -34.25 25.09375 -34.4375 25.28125 -34.65625 C 25.476562 -34.882812 25.648438 -35.078125 25.796875 -35.234375 C 26.179688 -35.609375 26.597656 -35.796875 27.046875 -35.796875 C 27.117188 -35.796875 27.15625 -35.796875 27.15625 -35.796875 C 27.15625 -35.796875 27.195312 -35.796875 27.28125 -35.796875 C 27.351562 -35.722656 27.425781 -35.6875 27.5 -35.6875 C 28.488281 -35.457031 28.832031 -34.394531 28.53125 -32.5 C 28.375 -31.0625 28.203125 -29.625 28.015625 -28.1875 C 27.828125 -26.75 27.65625 -25.3125 27.5 -23.875 C 27.351562 -22.425781 27.164062 -20.960938 26.9375 -19.484375 C 26.707031 -18.015625 26.519531 -16.554688 26.375 -15.109375 L 25.6875 -8.53125 C 25.757812 -8.53125 26.023438 -8.453125 26.484375 -8.296875 C 27.546875 -9.660156 28.625 -11.023438 29.71875 -12.390625 C 30.820312 -13.753906 31.898438 -15.117188 32.953125 -16.484375 C 34.015625 -17.765625 35.09375 -19.085938 36.1875 -20.453125 C 37.289062 -21.816406 38.453125 -23.144531 39.671875 -24.4375 C 40.046875 -24.894531 40.460938 -25.3125 40.921875 -25.6875 C 41.296875 -25.914062 41.597656 -26.03125 41.828125 -26.03125 C 42.128906 -26.03125 42.394531 -25.914062 42.625 -25.6875 C 43.15625 -25.15625 43.269531 -24.625 42.96875 -24.09375 C 42.65625 -23.5625 42.289062 -23.066406 41.875 -22.609375 C 41.457031 -22.160156 41.0625 -21.671875 40.6875 -21.140625 C 38.257812 -18.335938 35.890625 -15.476562 33.578125 -12.5625 C 31.273438 -9.644531 29.023438 -6.671875 26.828125 -3.640625 C 25.078125 -1.441406 23.976562 0.984375 23.53125 3.640625 C 23.375 4.703125 23.066406 6.273438 22.609375 8.359375 C 22.160156 10.441406 21.59375 12.5625 20.90625 14.71875 C 20.226562 16.875 19.414062 18.707031 18.46875 20.21875 C 17.519531 21.738281 16.476562 22.5 15.34375 22.5 Z M 15.796875 18.1875 C 16.097656 18.1875 16.285156 18.070312 16.359375 17.84375 C 16.441406 17.613281 16.554688 17.347656 16.703125 17.046875 L 18.40625 12.15625 C 18.789062 11.09375 18.753906 10.1875 18.296875 9.4375 C 18.066406 9.96875 17.816406 10.535156 17.546875 11.140625 C 17.285156 11.742188 17.003906 12.347656 16.703125 12.953125 L 15.34375 16.359375 C 15.1875 16.671875 15.085938 16.992188 15.046875 17.328125 C 15.015625 17.671875 15.148438 17.921875 15.453125 18.078125 C 15.535156 18.148438 15.648438 18.1875 15.796875 18.1875 Z M 15.796875 18.1875 "/></g></g><g style="fill:#ffffff;fill-opacity:1;"><g transform="translate(302.494276, 238.54967)"><path style="stroke:none" d=""/></g></g></g></svg>