<svg xmlns="http://www.w3.org/2000/svg" xmlns:xlink="http://www.w3.org/1999/xlink" width="500" zoomAndPan="magnify" viewBox="0 0 375 374.999991" height="500" preserveAspectRatio="xMidYMid meet" version="1.2"><defs><clipPath id="a08007b1d5"><path d="M 29.316406 2 L 345.816406 2 L 345.816406 375 L 29.316406 375 Z M 29.316406 2 "/></clipPath></defs><g id="d11e43f0f4"><g clip-rule="nonzero" clip-path="url(#a08007b1d5)"><path style=" stroke:none;fill-rule:evenodd;fill:#000000;fill-opacity:1;" d="M 336.164062 145.304688 C 337.175781 147.28125 338.378906 147.851562 340.296875 147.210938 C 342.195312 146.582031 343.394531 145.222656 343.828125 143.304688 C 344.765625 139.121094 343.335938 135.609375 340.335938 132.78125 C 336.121094 128.816406 331.128906 128.257812 325.421875 129.957031 C 326.398438 130.550781 327.140625 130.988281 327.871094 131.449219 C 329.917969 132.742188 331.664062 134.324219 332.6875 136.585938 C 333.75 138.929688 333.65625 141.199219 332.253906 143.386719 C 331.960938 143.839844 331.671875 144.292969 331.332031 144.820312 C 332.488281 146.046875 332.761719 147.539062 332.863281 149.140625 C 332.910156 149.894531 333.308594 150.675781 333.714844 151.34375 C 336.371094 155.78125 338.289062 160.472656 338.585938 165.691406 C 338.679688 167.375 338.644531 169.113281 338.351562 170.769531 C 337.71875 174.375 337.152344 178 335.671875 181.417969 C 333.796875 185.757812 333.042969 190.410156 332.144531 195.015625 C 330.933594 201.226562 329.671875 207.429688 329.480469 213.78125 C 329.390625 216.839844 329.546875 219.910156 329.382812 222.964844 C 329.238281 225.671875 328.949219 228.390625 328.457031 231.054688 C 327.667969 235.3125 325.410156 238.886719 322.609375 242.113281 C 321.089844 243.855469 319.5 245.542969 317.871094 247.1875 C 317.117188 247.945312 316.753906 248.675781 316.703125 249.820312 C 316.402344 256.792969 317.015625 263.660156 318.25 270.53125 C 319.289062 276.324219 319.277344 282.1875 317.613281 287.925781 C 316.207031 292.792969 313.585938 296.832031 309.335938 299.691406 C 308.46875 300.269531 308.007812 300.992188 307.847656 301.984375 C 307.722656 302.789062 307.558594 303.589844 307.386719 304.386719 C 307.304688 304.785156 307.292969 305.324219 307.035156 305.535156 C 305.464844 306.824219 305.941406 308.574219 305.867188 310.203125 C 305.5625 316.628906 303.4375 322.4375 299.875 327.742188 C 296.128906 333.320312 291.214844 337.675781 285.527344 341.179688 C 277.710938 345.996094 269.175781 348.867188 260.148438 350.308594 C 242.835938 353.074219 226.113281 350.925781 209.964844 344.160156 C 209.652344 344.03125 209.328125 343.933594 209.007812 343.832031 C 208.949219 343.8125 208.878906 343.84375 208.816406 343.855469 C 208.769531 343.964844 208.644531 344.105469 208.679688 344.183594 C 210.964844 349.589844 208.796875 353.980469 205.421875 358.027344 C 204.410156 359.242188 202.921875 359.921875 201.328125 360.15625 C 197.628906 360.707031 193.925781 361.242188 190.21875 361.714844 C 185.292969 362.339844 180.347656 362.835938 175.429688 363.503906 C 170.597656 364.160156 166.078125 365.855469 161.71875 368.003906 C 157.5625 370.054688 153.335938 371.917969 148.777344 372.917969 C 141.25 374.566406 133.6875 375 126.082031 373.566406 C 124.621094 373.292969 123.167969 372.859375 121.785156 372.316406 C 119.132812 371.277344 118.042969 367.917969 118.988281 365.695312 C 120.835938 361.359375 123.4375 357.59375 126.851562 354.382812 C 129.179688 352.195312 131.648438 350.179688 135.09375 348.835938 C 134.355469 348.425781 134.011719 348.097656 133.644531 348.066406 C 133.269531 348.03125 132.871094 348.285156 132.484375 348.410156 C 125.5625 350.648438 118.632812 352.878906 111.722656 355.148438 C 110.851562 355.433594 110.058594 355.945312 109.226562 356.347656 C 109.050781 356.433594 108.832031 356.605469 108.691406 356.558594 C 106.925781 356.003906 105.671875 357.242188 104.175781 357.710938 C 101.730469 358.46875 99.167969 358.945312 96.617188 359.238281 C 92.023438 359.765625 87.390625 359.957031 82.800781 360.503906 C 78.886719 360.96875 75.015625 361.808594 71.109375 362.34375 C 63.375 363.40625 55.617188 363.675781 47.988281 361.710938 C 44.855469 360.902344 41.816406 359.605469 38.855469 358.257812 C 35.464844 356.710938 33.351562 353.652344 31.148438 350.816406 C 30.347656 349.789062 30.066406 348.34375 29.609375 347.066406 C 29.484375 346.710938 29.535156 346.277344 29.570312 345.886719 C 29.640625 345.15625 29.839844 344.429688 29.84375 343.703125 C 29.863281 340.183594 31.386719 337.429688 34.023438 335.207031 C 37.886719 331.949219 42.429688 330.425781 47.394531 330.410156 C 52.5625 330.394531 57.726562 330.746094 62.894531 330.902344 C 73.09375 331.214844 83.3125 331.863281 93.433594 329.914062 C 94.957031 329.621094 96.4375 329.058594 97.894531 328.503906 C 98.757812 328.175781 99.65625 327.785156 99.628906 326.523438 C 99.621094 326.195312 100.167969 325.796875 100.535156 325.539062 C 101.136719 325.117188 101.796875 324.78125 102.589844 324.316406 C 102.15625 323.792969 101.84375 323.378906 101.5 322.996094 C 90.085938 310.269531 76.246094 300.46875 62.410156 290.660156 C 56.75 286.644531 51.089844 282.617188 45.554688 278.429688 C 41.40625 275.289062 37.695312 271.628906 35.488281 266.8125 C 34.390625 264.425781 33.613281 261.855469 32.976562 259.292969 C 32.316406 256.648438 32.878906 254.003906 33.835938 251.488281 C 36.328125 244.914062 40.253906 239.363281 45.917969 235.128906 C 47.253906 234.132812 48.769531 233.371094 50.367188 232.40625 C 50.246094 232.03125 50.089844 231.460938 49.878906 230.910156 C 44.070312 215.582031 38.253906 200.257812 32.4375 184.933594 C 31.449219 182.332031 31.519531 182.28125 34.320312 182.105469 C 42.128906 181.609375 49.933594 181.0625 57.742188 180.554688 C 63.242188 180.199219 68.746094 179.886719 74.246094 179.53125 C 83.480469 178.925781 92.710938 178.289062 101.945312 177.6875 C 109.484375 177.199219 117.023438 176.746094 124.5625 176.269531 C 126.527344 176.144531 128.492188 175.988281 130.75 175.828125 C 135.691406 190 140.375 204.292969 145.347656 218.648438 C 146.164062 217.734375 146.808594 216.957031 147.507812 216.234375 C 148.605469 215.105469 149.933594 214.496094 151.542969 214.648438 C 152.691406 214.757812 153.851562 214.820312 154.980469 215.035156 C 157.28125 215.472656 158.992188 214.652344 160.191406 212.71875 C 160.726562 211.851562 161.152344 210.917969 161.628906 210.015625 C 163.78125 205.902344 167.085938 203.503906 171.796875 203.195312 C 172.273438 203.164062 172.742188 203.027344 173.214844 203.019531 C 178.378906 202.953125 182.183594 200.320312 185 196.324219 C 187.261719 193.109375 189.273438 189.679688 191.035156 186.164062 C 193.773438 180.691406 196.140625 175.035156 198.777344 169.515625 C 201.652344 163.488281 204.917969 157.679688 208.851562 152.261719 C 211.464844 148.671875 214.359375 145.332031 217.707031 142.410156 C 219.289062 141.023438 220.898438 139.640625 223.019531 139.085938 C 223.390625 138.984375 223.730469 138.691406 224.03125 138.429688 C 225.832031 136.875 227.617188 135.304688 229.480469 133.675781 C 229.410156 132.378906 228.679688 131.371094 227.652344 130.523438 C 226.757812 129.785156 225.835938 129.082031 224.980469 128.308594 C 222.5625 126.121094 221.601562 123.386719 222.261719 120.203125 C 222.648438 118.351562 223.25 116.539062 223.851562 114.738281 C 224.234375 113.582031 224.757812 112.464844 225.273438 111.355469 C 227.238281 107.136719 226.601562 103.144531 224.214844 99.324219 C 223.242188 97.765625 222.1875 96.257812 221.179688 94.722656 C 220.394531 93.527344 219.585938 92.347656 218.855469 91.121094 C 216.355469 86.90625 215.992188 82.550781 218.089844 78.054688 C 218.304688 77.585938 218.503906 77.109375 218.46875 76.511719 C 218.289062 76.757812 218.082031 76.988281 217.9375 77.253906 C 214.429688 83.644531 213.4375 90.449219 214.691406 97.589844 C 214.988281 99.28125 215.59375 100.894531 217.238281 101.816406 C 218.09375 102.296875 218.964844 102.671875 219.898438 101.972656 C 220.726562 101.355469 221.066406 100.171875 220.695312 99.019531 C 220.519531 98.480469 219.867188 98.011719 220.578125 97.351562 C 220.730469 97.359375 220.992188 97.296875 221.101562 97.394531 C 222.414062 98.570312 222.632812 100.386719 221.691406 102.023438 C 220.859375 103.457031 219.253906 104.082031 217.640625 103.53125 C 215.699219 102.867188 214.472656 101.484375 213.824219 99.5625 C 213.011719 97.148438 212.714844 94.648438 212.75 92.121094 C 212.859375 84.519531 215.1875 77.6875 219.992188 71.753906 C 220.796875 70.753906 221.6875 69.824219 222.570312 68.828125 C 222.378906 68.5625 222.25 68.332031 222.074219 68.136719 C 215.632812 60.992188 214.457031 52.703125 217.015625 43.742188 C 219.355469 35.5625 224.34375 29.101562 230.707031 23.605469 C 234.050781 20.722656 237.804688 18.589844 242.011719 17.234375 C 243.691406 16.691406 245.359375 16.082031 246.972656 15.371094 C 247.683594 15.058594 248.308594 14.476562 248.867188 13.910156 C 253.226562 9.488281 258.15625 5.945312 264.066406 3.878906 C 275.164062 0.00390625 286.078125 3.332031 293.132812 12.738281 C 295.992188 16.550781 297.839844 20.835938 299.066406 25.414062 C 299.1875 25.867188 299.324219 26.320312 299.46875 26.835938 C 303.828125 28.007812 307.589844 30.269531 311.082031 33.050781 C 316.441406 37.328125 319.304688 43.085938 320.855469 49.589844 C 321.839844 53.699219 321.519531 57.847656 320.773438 61.953125 C 320.554688 63.164062 320.71875 64.171875 321.125 65.292969 C 322.371094 68.734375 322.890625 72.296875 322.113281 75.921875 C 321.863281 77.09375 321.425781 78.296875 320.78125 79.296875 C 320.355469 79.960938 319.464844 80.4375 318.679688 80.726562 C 317.910156 81.015625 317.203125 80.570312 316.902344 79.757812 C 316.671875 79.132812 316.722656 78.492188 317.433594 78.207031 C 318.128906 77.925781 318.40625 78.386719 318.535156 79.003906 C 318.550781 79.082031 318.742188 79.125 318.851562 79.183594 C 321.351562 77.09375 321.886719 70.359375 319.964844 66.65625 C 317.390625 72.113281 314.765625 77.6875 312.046875 83.460938 C 312.707031 83.710938 313.238281 83.941406 313.789062 84.117188 C 318.871094 85.75 323.082031 88.621094 326.167969 93.007812 C 334.007812 104.152344 329.226562 118.910156 316.289062 123.574219 C 315.460938 123.871094 314.609375 124.109375 313.792969 124.363281 C 313.3125 126.339844 314.046875 127.648438 315.867188 128.007812 C 316.527344 128.136719 317.222656 128.09375 317.902344 128.140625 C 318.917969 128.214844 320.023438 128.066406 320.929688 128.421875 C 322.710938 129.117188 324.355469 128.742188 326.105469 128.417969 C 328.101562 128.046875 330.152344 127.738281 332.171875 127.785156 C 338.253906 127.925781 343.894531 132.671875 345.195312 138.59375 C 345.609375 140.476562 345.660156 142.394531 344.992188 144.238281 C 344.058594 146.816406 342.265625 148.425781 339.476562 148.765625 C 337.582031 148.996094 335.796875 148.089844 335.113281 146.429688 C 334.851562 145.792969 334.78125 144.941406 334.984375 144.300781 C 335.117188 143.886719 335.875 143.589844 336.410156 143.4375 C 336.613281 143.378906 336.96875 143.875 337.257812 144.121094 C 336.921875 144.484375 336.585938 144.847656 336.164062 145.304688 Z M 87.519531 358.6875 C 87.777344 358.613281 88.03125 358.492188 88.296875 358.472656 C 91.882812 358.195312 95.472656 357.976562 99.054688 357.648438 C 101.867188 357.386719 104.601562 356.859375 106.453125 354.371094 C 107.0625 353.554688 107.511719 354.179688 108.234375 354.542969 C 108.183594 353.679688 108.132812 352.816406 108.0625 351.621094 C 107.230469 352.195312 106.714844 352.503906 106.253906 352.878906 C 103.988281 354.707031 101.410156 355.9375 98.59375 356.542969 C 95.613281 357.183594 92.574219 357.574219 89.570312 358.109375 C 88.875 358.234375 88.203125 358.492188 87.519531 358.691406 C 86.191406 358.691406 84.859375 358.691406 83.53125 358.6875 C 84.859375 358.6875 86.1875 358.6875 87.519531 358.6875 Z M 79.136719 359.078125 C 73.71875 359.460938 68.308594 360.007812 62.882812 360.167969 C 58.75 360.296875 54.59375 360 50.457031 359.765625 C 48.449219 359.652344 46.457031 359.253906 44.457031 358.984375 C 45.09375 359.429688 45.769531 359.726562 46.472656 359.9375 C 50.007812 361.015625 53.644531 361.519531 57.320312 361.707031 C 64.441406 362.0625 71.441406 361.113281 78.386719 359.648438 C 78.65625 359.59375 78.871094 359.265625 79.128906 359.074219 C 79.917969 359.144531 80.703125 359.210938 81.492188 359.277344 C 81.496094 359.210938 81.503906 359.144531 81.507812 359.078125 C 80.71875 359.078125 79.925781 359.078125 79.136719 359.078125 Z M 122.757812 350.378906 C 124.160156 349.921875 125.324219 349.585938 126.457031 349.167969 C 146.757812 341.695312 167.144531 334.4375 187.320312 326.648438 C 198.988281 322.144531 210.414062 316.976562 221.773438 311.722656 C 226.929688 309.339844 231.800781 306.230469 236.554688 303.082031 C 242.6875 299.015625 247.808594 293.828125 251.566406 287.449219 C 253.574219 284.046875 255.320312 280.496094 255.265625 276.359375 C 255.257812 275.839844 255.734375 275.320312 255.984375 274.796875 C 256.152344 274.84375 256.3125 274.890625 256.476562 274.9375 C 256.53125 275.863281 256.761719 276.824219 256.597656 277.714844 C 256.269531 279.507812 255.878906 281.324219 255.238281 283.027344 C 252.632812 289.964844 247.953125 295.429688 242.472656 300.234375 C 235.917969 305.976562 228.402344 310.289062 220.53125 313.890625 C 210.570312 318.449219 200.457031 322.664062 190.410156 327.027344 C 189.769531 327.304688 189.136719 327.597656 187.96875 328.121094 C 188.984375 328.921875 189.683594 329.371094 190.261719 329.941406 C 195.214844 334.835938 201.125 338.386719 207.304688 341.367188 C 224.714844 349.761719 243.042969 352 262.027344 348.585938 C 271.226562 346.933594 279.84375 343.628906 287.542969 338.199219 C 294.136719 333.546875 299.347656 327.734375 302.335938 320.140625 C 304.074219 315.726562 304.867188 311.140625 304.476562 306.367188 C 304.136719 306.234375 303.898438 306.101562 303.640625 306.050781 C 299.386719 305.230469 295.785156 303.085938 292.382812 300.527344 C 290.476562 299.097656 288.527344 297.730469 286.585938 296.347656 C 286.207031 296.078125 285.769531 295.695312 285.363281 295.699219 C 284.699219 295.703125 284.410156 295.394531 284.078125 294.929688 C 283.808594 294.554688 283.453125 294.214844 283.074219 293.957031 C 279.800781 291.746094 276.421875 289.726562 272.703125 288.347656 C 270.609375 287.570312 268.4375 287.113281 266.046875 286.949219 C 265.867188 288.476562 265.75 289.886719 265.523438 291.28125 C 264.730469 296.152344 262.921875 300.695312 261.003906 305.214844 C 258.59375 310.890625 254.441406 315.167969 249.980469 319.207031 C 249.726562 319.4375 249.179688 319.34375 248.765625 319.398438 C 248.820312 319.035156 248.753906 318.570312 248.953125 318.328125 C 249.472656 317.699219 250.101562 317.167969 250.695312 316.605469 C 253.066406 314.359375 255.457031 312.136719 257.191406 309.3125 C 260.214844 304.398438 262.203125 299.066406 263.714844 293.53125 C 264.691406 289.953125 264.675781 286.269531 264.851562 282.613281 C 265.019531 279.132812 264.207031 275.890625 262.054688 273.042969 C 261.785156 272.691406 261.855469 272.082031 261.84375 272 C 258 269.78125 254.382812 267.757812 250.835938 265.621094 C 248.976562 264.5 247.210938 263.207031 245.4375 261.945312 C 242.835938 260.089844 239.863281 259.160156 236.777344 259.449219 C 233.558594 259.75 230.429688 259.648438 227.25 259.242188 C 225.699219 259.046875 224.175781 258.984375 223.125 257.617188 C 185.78125 278.769531 148.5625 299.84375 111.214844 320.996094 C 115.675781 324.648438 117.742188 329.550781 119.75 334.476562 C 121.796875 339.488281 122.726562 344.742188 122.757812 350.378906 Z M 239.109375 131.878906 C 237.199219 132.257812 235.167969 131.960938 233.386719 133.050781 C 226.835938 137.066406 221.109375 141.847656 218.210938 149.28125 C 214.574219 158.601562 210.640625 167.785156 206.007812 176.660156 C 204.910156 178.765625 203.996094 180.976562 203.148438 183.199219 C 201.15625 188.4375 200.796875 193.660156 203.671875 198.757812 C 203.738281 198.875 203.792969 199 203.847656 199.125 C 205.601562 203.175781 206.09375 207.328125 205.101562 211.679688 C 204.179688 215.722656 203.285156 219.78125 202.664062 223.878906 C 202.160156 227.214844 201.765625 230.613281 202.496094 234.070312 C 202.980469 234.171875 203.433594 234.3125 203.894531 234.359375 C 210.101562 235 216.308594 235.625 222.5625 236.253906 C 223.691406 233.28125 227.171875 232.035156 229.960938 235.082031 C 230.183594 234.835938 230.386719 234.582031 230.621094 234.359375 C 232.226562 232.839844 233.742188 232.851562 235.179688 234.558594 C 235.863281 235.371094 236.273438 236.414062 236.796875 237.359375 C 237.03125 237.78125 237.238281 238.222656 237.457031 238.652344 C 237.613281 238.609375 237.769531 238.566406 237.929688 238.523438 C 237.828125 237.34375 237.769531 236.160156 237.617188 234.984375 C 237.515625 234.210938 237.417969 233.453125 238.144531 232.945312 C 240.371094 231.390625 242.523438 229.789062 245.511719 229.871094 C 253.046875 230.078125 260.417969 228.792969 267.703125 226.992188 C 269.773438 226.480469 271.769531 225.933594 273.734375 227.074219 C 275.3125 224.21875 275.765625 224.1875 278.523438 226.609375 C 280.21875 224.929688 281.332031 224.875 283.160156 226.523438 C 283.863281 227.152344 284.472656 227.914062 284.996094 228.695312 C 285.828125 229.9375 286.535156 231.265625 287.332031 232.53125 C 287.871094 233.390625 288.433594 234.25 289.070312 235.039062 C 289.625 235.722656 290.308594 236.285156 291.519531 236.050781 C 291.457031 235.425781 291.503906 234.808594 291.320312 234.269531 C 289.550781 229.070312 287.402344 224.078125 282.816406 220.65625 C 280.667969 219.050781 279.929688 216.929688 280.179688 214.40625 C 280.414062 212.039062 280.6875 209.667969 281.136719 207.335938 C 281.648438 204.679688 282.375 202.066406 283.007812 199.433594 C 279.972656 197.445312 279.152344 196.589844 278.378906 194.285156 C 277.199219 190.773438 277.246094 187.300781 279.101562 184.023438 C 279.898438 182.613281 280.828125 181.234375 281.921875 180.039062 C 289.753906 171.46875 299.292969 165.710938 310.621094 163.023438 C 315.65625 161.828125 320.71875 161.683594 325.785156 162.925781 C 329.109375 163.738281 331.574219 165.585938 332.917969 168.769531 C 333.734375 170.707031 334.453125 172.6875 335.222656 174.644531 C 335.363281 175.007812 335.542969 175.355469 335.847656 176.027344 C 336.640625 173.074219 337.199219 170.433594 337.285156 167.714844 C 337.449219 162.585938 335.800781 157.929688 333.371094 153.53125 C 328.519531 144.746094 321.585938 138.152344 312.4375 133.917969 C 307.316406 131.546875 302.09375 129.371094 297.523438 126.113281 C 296.511719 127.421875 295.699219 128.78125 294.597656 129.851562 C 288.691406 135.578125 281.53125 139.136719 273.660156 141.195312 C 268.730469 142.480469 263.632812 142.984375 258.527344 142.359375 C 254.289062 141.839844 250.128906 140.929688 246.371094 138.753906 C 243.871094 137.308594 241.609375 135.589844 240.046875 133.089844 C 239.800781 132.691406 239.472656 132.347656 239.109375 131.878906 Z M 33.375 183.539062 C 41.882812 205.964844 50.265625 228.058594 58.65625 250.175781 C 59.632812 250.175781 60.375 250.175781 61.121094 250.171875 C 86.996094 250.085938 112.871094 250 138.742188 249.910156 C 142.761719 249.894531 146.777344 249.890625 150.796875 249.847656 C 153.09375 249.824219 153.667969 249.164062 153.15625 246.988281 C 152.707031 245.074219 152.160156 243.179688 151.535156 241.316406 C 145.335938 222.953125 139.113281 204.597656 132.894531 186.242188 C 131.894531 183.292969 130.867188 180.351562 129.808594 177.273438 C 97.6875 179.363281 65.6875 181.441406 33.375 183.539062 Z M 239.964844 248.007812 C 240.101562 247.972656 240.238281 247.933594 240.371094 247.894531 C 240.640625 248.140625 241.0625 248.339844 241.148438 248.636719 C 241.375 249.414062 241.558594 250.226562 241.574219 251.03125 C 241.625 253.070312 241.574219 255.113281 241.570312 257.152344 C 241.570312 257.839844 241.59375 258.414062 242.359375 258.851562 C 245.007812 260.367188 247.644531 261.921875 250.195312 263.597656 C 254.007812 266.105469 257.855469 268.554688 262.128906 270.21875 C 269.707031 273.160156 277.515625 273.394531 285.445312 272.117188 C 292.007812 271.058594 297.28125 268.042969 301.152344 262.492188 C 304.554688 257.621094 308.867188 253.539062 313.246094 249.523438 C 316.195312 246.816406 319.015625 243.941406 321.722656 240.984375 C 324.667969 237.765625 326.722656 233.992188 327.359375 229.628906 C 327.773438 226.8125 327.910156 223.949219 328.042969 221.101562 C 328.230469 217.164062 327.980469 213.179688 328.484375 209.285156 C 329.3125 202.886719 330.429688 196.511719 331.753906 190.199219 C 332.597656 186.164062 334.035156 182.253906 335.195312 178.324219 C 334.824219 177.417969 334.40625 176.4375 334.015625 175.445312 C 333.171875 173.296875 332.414062 171.113281 331.488281 169.003906 C 330.445312 166.617188 328.566406 165.148438 326.046875 164.445312 C 322.046875 163.332031 318 163.089844 313.921875 163.796875 C 301.589844 165.921875 291.335938 171.839844 282.921875 181.003906 C 281.699219 182.332031 280.699219 183.941406 279.90625 185.574219 C 278.457031 188.5625 278.667969 191.671875 280.035156 194.648438 C 280.816406 196.359375 281.957031 197.746094 284.109375 197.878906 C 284.660156 197.914062 285.175781 198.445312 285.652344 198.714844 C 285.011719 199.558594 284.335938 200.097656 284.113281 200.785156 C 282.597656 205.535156 281.632812 210.390625 281.574219 215.402344 C 281.554688 216.929688 281.933594 218.265625 283.222656 219.152344 C 287.152344 221.859375 289.300781 225.878906 291.234375 230.027344 C 291.949219 231.554688 292.355469 233.226562 292.859375 234.847656 C 293.140625 235.757812 293 236.628906 292.179688 237.226562 C 291.367188 237.816406 290.445312 237.730469 289.683594 237.207031 C 288.859375 236.636719 288.054688 235.96875 287.429688 235.195312 C 286.707031 234.304688 286.203125 233.238281 285.585938 232.261719 C 284.746094 230.945312 283.9375 229.601562 283.019531 228.339844 C 282.390625 227.480469 281.589844 226.753906 280.046875 226.722656 C 280.234375 227.527344 280.269531 228.191406 280.539062 228.742188 C 281.074219 229.839844 281.714844 230.890625 282.355469 231.933594 C 283.503906 233.8125 284.285156 235.824219 284.660156 237.996094 C 284.808594 238.851562 285.214844 239.78125 284.277344 240.414062 C 283.675781 240.824219 282.902344 240.324219 282.25 238.871094 C 281.1875 236.519531 280.308594 234.085938 279.273438 231.726562 C 278.59375 230.179688 277.816406 228.671875 276.992188 227.199219 C 276.777344 226.820312 276.21875 226.636719 275.511719 226.15625 C 275.511719 227.453125 275.5 228.324219 275.515625 229.191406 C 275.523438 229.734375 275.652344 230.292969 275.570312 230.816406 C 275.519531 231.144531 275.226562 231.519531 274.9375 231.679688 C 274.792969 231.757812 274.34375 231.441406 274.152344 231.207031 C 273.949219 230.957031 273.882812 230.589844 273.765625 230.273438 C 272.824219 227.792969 271.9375 227.277344 269.453125 227.929688 C 261.792969 229.941406 254.050781 231.339844 246.085938 231.195312 C 244.074219 231.15625 242.214844 231.675781 240.554688 232.941406 C 239.480469 233.757812 238.945312 234.628906 239.070312 236.019531 C 239.171875 237.15625 239.085938 238.335938 238.867188 239.457031 C 238.769531 239.945312 238.175781 240.617188 237.734375 240.675781 C 237.3125 240.730469 236.675781 240.1875 236.355469 239.746094 C 235.972656 239.210938 235.867188 238.480469 235.5625 237.878906 C 235.136719 237.035156 234.746094 236.136719 234.144531 235.429688 C 233.179688 234.304688 232.023438 234.4375 231.347656 235.753906 C 230.566406 237.273438 230.160156 238.886719 230.707031 240.632812 C 231.582031 243.433594 232.1875 246.296875 232.191406 249.246094 C 232.191406 252.273438 232.085938 255.300781 232.023438 258.402344 C 234.566406 258.273438 237.253906 258.136719 240.148438 257.988281 C 240.503906 254.6875 240.539062 251.359375 239.964844 248.007812 Z M 142.035156 301.980469 C 141.015625 300.859375 140.214844 299.941406 139.375 299.058594 C 134.808594 294.257812 129.671875 290.117188 124.359375 286.1875 C 117.960938 281.453125 111.558594 276.722656 105.136719 272.023438 C 104.6875 271.695312 104.03125 271.5 103.472656 271.503906 C 98.773438 271.507812 94.074219 271.464844 89.382812 271.652344 C 83.585938 271.886719 77.816406 271.765625 72.0625 271.046875 C 68.679688 270.625 65.335938 270.039062 62.277344 268.378906 C 60.046875 267.167969 58.609375 265.414062 58.117188 262.894531 C 57.539062 259.929688 57.574219 256.953125 57.855469 253.960938 C 57.960938 252.832031 58.304688 251.585938 57.023438 251.210938 C 56.832031 250.140625 56.804688 249.269531 56.519531 248.492188 C 55.019531 244.402344 53.464844 240.339844 51.914062 236.273438 C 51.675781 235.65625 51.371094 235.0625 51.125 234.527344 C 48.957031 234.5 48.953125 234.496094 47.566406 235.484375 C 41.851562 239.558594 37.921875 245.019531 35.316406 251.460938 C 34.394531 253.742188 33.746094 256.132812 34.222656 258.632812 C 34.773438 261.515625 35.609375 264.320312 37.027344 266.910156 C 39.324219 271.109375 42.609375 274.464844 46.367188 277.324219 C 51.238281 281.03125 56.242188 284.570312 61.195312 288.171875 C 67.960938 293.097656 74.738281 298.007812 81.503906 302.9375 C 88.792969 308.25 95.296875 314.433594 101.464844 320.984375 C 102.25 321.816406 103.097656 322.589844 103.96875 323.441406 C 116.636719 316.296875 129.191406 309.222656 142.035156 301.980469 Z M 59.222656 254.015625 C 58.75 257.628906 58.605469 260.957031 59.9375 264.097656 C 60.40625 265.195312 61.457031 266.265625 62.515625 266.847656 C 64.21875 267.785156 66.101562 268.542969 68 268.957031 C 72.1875 269.875 76.453125 270.355469 80.753906 270.332031 C 89.332031 270.289062 97.90625 270.140625 106.480469 270.214844 C 112.738281 270.269531 119.011719 270.390625 125.246094 270.886719 C 132.085938 271.433594 138.886719 272.46875 145.707031 273.257812 C 154.953125 274.332031 164.175781 273.96875 173.378906 272.707031 C 180.9375 271.671875 187.402344 268.441406 192.621094 262.890625 C 194.085938 261.328125 195.199219 259.417969 196.375 257.601562 C 196.882812 256.808594 197.167969 255.855469 196.28125 254.683594 C 150.808594 254.460938 105.15625 254.238281 59.222656 254.015625 Z M 230.957031 55.808594 C 230.863281 56.21875 230.6875 56.796875 230.601562 57.390625 C 230.238281 59.949219 229.785156 62.5 229.574219 65.074219 C 228.949219 72.769531 229.054688 80.4375 231.011719 87.972656 C 232.148438 92.351562 233.789062 96.511719 236.519531 100.171875 C 239.386719 104.019531 243.039062 106.722656 247.855469 107.574219 C 251.800781 108.269531 255.574219 107.503906 259.203125 105.925781 C 264.089844 103.796875 268.167969 100.542969 271.84375 96.746094 C 272.203125 96.375 272.496094 95.933594 272.773438 95.585938 C 272.6875 95.378906 272.675781 95.304688 272.632812 95.257812 C 272.445312 95.066406 272.253906 94.871094 272.050781 94.691406 C 269.265625 92.234375 268.019531 89.144531 268.171875 85.4375 C 268.285156 82.75 268.875 80.191406 270.023438 77.761719 C 271.097656 75.488281 272.3125 73.265625 273.230469 70.929688 C 274.074219 68.792969 274.640625 66.546875 275.261719 64.328125 C 275.722656 62.699219 275.148438 61.300781 273.804688 60.390625 C 271.316406 58.714844 269.347656 56.632812 268.195312 53.964844 C 266.277344 53.496094 264.640625 53.535156 262.988281 54.574219 C 262.203125 55.066406 261.019531 55.105469 260.03125 55.054688 C 258.007812 54.960938 255.992188 54.664062 253.910156 54.445312 C 250.621094 57.753906 246.445312 57.234375 242.128906 56.804688 C 243.695312 59.875 243.867188 62.859375 242.914062 65.910156 C 242.488281 67.269531 242.089844 68.648438 241.542969 69.960938 C 240.566406 72.328125 239.484375 74.65625 238.421875 77.050781 C 239.492188 78.195312 240.523438 79.300781 241.570312 80.417969 C 240.789062 81.214844 240.238281 80.867188 239.734375 80.34375 C 239.121094 79.707031 238.53125 79.042969 237.9375 78.390625 C 236.707031 77.035156 236.757812 77.058594 237.542969 75.382812 C 238.691406 72.921875 239.839844 70.453125 240.847656 67.933594 C 241.738281 65.714844 242.292969 63.402344 242.082031 60.964844 C 241.773438 57.378906 239.625 55.359375 236.046875 55.4375 C 234.96875 55.460938 233.894531 55.699219 232.816406 55.796875 C 232.246094 55.847656 231.671875 55.808594 230.957031 55.808594 Z M 135.996094 373.386719 C 139.804688 372.851562 143.71875 372.394531 147.601562 371.734375 C 152.34375 370.933594 156.683594 368.945312 160.96875 366.839844 C 165.078125 364.824219 169.296875 363.089844 173.851562 362.417969 C 178.5625 361.722656 183.292969 361.175781 188.011719 360.574219 C 191.925781 360.074219 195.835938 359.5625 199.753906 359.109375 C 203.421875 358.691406 205.613281 356.496094 206.96875 353.269531 C 207.339844 352.394531 207.652344 351.492188 207.910156 350.578125 C 208.820312 347.371094 207.964844 344.574219 205.503906 342.453125 C 203.550781 340.773438 201.285156 339.472656 198.730469 338.824219 C 196.238281 338.195312 193.695312 338.191406 191.230469 338.730469 C 186.984375 339.65625 182.757812 340.714844 178.570312 341.886719 C 172.074219 343.707031 165.542969 345.316406 158.808594 345.941406 C 154.808594 346.3125 150.800781 346.5625 146.820312 347.0625 C 139.433594 347.988281 132.671875 350.398438 127.273438 355.832031 C 124.414062 358.707031 121.996094 361.890625 120.402344 365.628906 C 119.347656 368.097656 120.300781 370.234375 122.789062 371.257812 C 123.539062 371.566406 124.328125 371.851562 125.125 371.964844 C 128.6875 372.46875 132.261719 372.902344 135.996094 373.386719 Z M 220.074219 142.132812 C 219.40625 142.6875 218.730469 143.136719 218.191406 143.714844 C 216.011719 146.046875 213.746094 148.316406 211.738281 150.792969 C 206.914062 156.746094 203.222656 163.410156 199.933594 170.296875 C 197.5625 175.265625 195.457031 180.363281 193 185.285156 C 191.121094 189.050781 189.058594 192.75 186.757812 196.265625 C 183.40625 201.394531 178.714844 204.402344 172.34375 204.511719 C 168.21875 204.585938 165.085938 206.558594 163.09375 210.222656 C 162.539062 211.238281 162.054688 212.292969 161.464844 213.285156 C 160.039062 215.679688 157.972656 216.835938 155.136719 216.390625 C 154.261719 216.253906 153.390625 216.089844 152.515625 215.996094 C 150.0625 215.734375 148.328125 216.671875 147.15625 218.863281 C 146.8125 219.507812 146.484375 220.167969 146.089844 220.933594 C 146.773438 222.933594 147.496094 225.039062 148.292969 227.371094 C 150.042969 226.90625 151.671875 226.496094 153.289062 226.042969 C 157.605469 224.832031 161.878906 223.441406 166.238281 222.417969 C 171.308594 221.230469 175.949219 222.378906 179.976562 225.765625 C 181.535156 227.082031 183.105469 228.386719 184.679688 229.683594 C 189.472656 233.632812 195.160156 233.953125 200.953125 233.855469 C 200.953125 231.367188 200.855469 229.054688 200.976562 226.753906 C 201.253906 221.429688 202.660156 216.292969 203.808594 211.125 C 204.640625 207.386719 204.230469 203.84375 202.851562 200.347656 C 202.53125 199.527344 202.160156 198.722656 201.773438 197.925781 C 200.125 194.546875 199.964844 191.007812 200.585938 187.371094 C 201.34375 182.945312 203.257812 178.953125 205.269531 175.023438 C 209.207031 167.328125 212.71875 159.453125 215.871094 151.410156 C 217.082031 148.324219 218.601562 145.359375 220.074219 142.132812 Z M 224.066406 254.609375 C 224.191406 253.476562 224.410156 252.671875 224.347656 251.886719 C 224.015625 247.6875 223.589844 243.496094 223.25 239.296875 C 223.167969 238.28125 222.613281 237.824219 221.734375 237.6875 C 219.730469 237.367188 217.722656 237.058594 215.703125 236.832031 C 214.152344 236.65625 212.582031 236.644531 211.027344 236.503906 C 206.085938 236.050781 201.15625 235.480469 196.207031 235.132812 C 191.46875 234.796875 187.105469 233.625 183.433594 230.445312 C 181.941406 229.148438 180.417969 227.894531 178.886719 226.652344 C 175.40625 223.828125 171.402344 222.609375 167.050781 223.675781 C 160.949219 225.167969 154.933594 227.011719 148.746094 228.746094 C 149.167969 229.953125 149.5 230.894531 149.855469 231.914062 C 152.101562 231.285156 154.175781 230.640625 156.28125 230.125 C 158.789062 229.511719 161.324219 229.003906 163.847656 228.449219 C 164.492188 228.308594 165.039062 228.34375 165.347656 229.40625 C 160.199219 230.3125 155.253906 231.582031 150.296875 233.359375 C 150.882812 235.046875 151.40625 236.558594 151.980469 238.210938 C 154.519531 237.519531 156.867188 236.867188 159.226562 236.25 C 160.410156 235.9375 161.605469 235.667969 162.804688 235.429688 C 163.496094 235.292969 164.160156 235.34375 164.339844 236.25 C 160.394531 237.3125 156.5 238.363281 152.527344 239.429688 C 152.75 240.855469 153.042969 241.996094 154.324219 242.773438 C 155.402344 242.449219 156.5625 242.070312 157.738281 241.757812 C 158.84375 241.460938 159.835938 240.464844 161.113281 241.054688 C 161.113281 241.300781 161.152344 241.527344 161.109375 241.550781 C 158.828125 242.5 156.542969 243.4375 154.097656 244.4375 C 154.335938 245.136719 154.589844 245.875 154.816406 246.542969 C 157.152344 247.035156 159.207031 246.390625 161.265625 246.03125 C 162.867188 245.75 164.386719 245.808594 165.863281 246.4375 C 168.109375 247.398438 170.394531 248.304688 172.554688 249.429688 C 176.539062 251.507812 180.640625 252.054688 185.011719 251.007812 C 189.574219 249.914062 194.183594 249.949219 198.789062 250.738281 C 202.074219 251.300781 205.335938 252.015625 208.628906 252.511719 C 213.660156 253.265625 218.714844 253.886719 224.066406 254.609375 Z M 197 251.8125 C 197.222656 252.632812 197.253906 253.140625 197.484375 253.527344 C 198.949219 255.984375 197.894531 258.085938 196.613281 260.164062 C 196.363281 260.566406 196.097656 260.964844 195.800781 261.335938 C 191.109375 267.1875 185.28125 271.308594 177.929688 273.152344 C 173.21875 274.332031 168.421875 274.914062 163.589844 275.015625 C 158.496094 275.121094 153.378906 275.152344 148.300781 274.824219 C 143.355469 274.507812 138.429688 273.761719 133.515625 273.074219 C 125.136719 271.902344 116.699219 271.867188 108.273438 271.542969 C 107.929688 271.53125 107.578125 271.65625 106.964844 271.765625 C 113.472656 276.523438 119.730469 281.078125 125.964844 285.667969 C 132.21875 290.269531 138.078125 295.324219 143.269531 301.25 C 165.148438 288.859375 186.894531 276.542969 208.726562 264.175781 C 207.273438 262.382812 205.742188 261.148438 203.851562 260.457031 C 201.199219 259.484375 200.015625 257.59375 200.007812 254.84375 C 200.003906 254.039062 199.914062 253.238281 199.859375 252.390625 C 198.933594 252.203125 198.15625 252.042969 197 251.8125 Z M 104.816406 337.839844 C 103.148438 338.519531 101.636719 339.09375 100.160156 339.75 C 90.695312 343.980469 80.964844 343.523438 71.136719 341.433594 C 70.582031 341.3125 70.0625 341.132812 70.246094 340.097656 C 70.914062 340.132812 71.621094 340.105469 72.304688 340.214844 C 73.980469 340.484375 75.640625 340.859375 77.320312 341.117188 C 84.875 342.269531 92.238281 341.644531 99.351562 338.707031 C 100.964844 338.039062 102.605469 337.449219 104.398438 336.757812 C 103.792969 335.402344 103.214844 334.039062 102.578125 332.703125 C 101.917969 331.324219 101.199219 329.96875 100.59375 328.773438 C 98.492188 329.570312 96.648438 330.519531 94.6875 330.953125 C 91.777344 331.597656 88.792969 332 85.820312 332.285156 C 78.960938 332.945312 72.085938 332.472656 65.21875 332.371094 C 63.519531 332.347656 61.824219 332.121094 60.125 332.078125 C 58.066406 332.023438 56.003906 332.0625 53.9375 332.0625 C 53.9375 332.191406 53.914062 332.269531 53.941406 332.308594 C 54.058594 332.476562 54.179688 332.644531 54.320312 332.789062 C 57.921875 336.449219 59.769531 340.902344 60 345.972656 C 60.203125 350.488281 59.105469 354.613281 55.644531 357.832031 C 55.429688 358.03125 55.28125 358.304688 54.949219 358.746094 C 55.6875 358.8125 56.140625 358.890625 56.59375 358.886719 C 60.265625 358.859375 63.957031 359.019531 67.613281 358.730469 C 75.679688 358.097656 83.734375 357.289062 91.78125 356.449219 C 97.75 355.828125 103.429688 354.371094 107.957031 349.867188 C 107.472656 345.796875 106.359375 341.773438 104.816406 337.839844 Z M 306.621094 299.824219 C 312.222656 296.753906 315.488281 291.828125 316.8125 285.5 C 317.972656 279.953125 317.628906 274.40625 316.625 268.890625 C 315.605469 263.25 314.960938 257.597656 315.449219 251.855469 C 315.503906 251.234375 315.410156 250.597656 315.371094 249.515625 C 313.699219 251.027344 312.378906 252.1875 311.101562 253.390625 C 307.378906 256.894531 304.085938 260.78125 300.996094 264.851562 C 298.78125 267.769531 296.085938 270.152344 292.625 271.476562 C 285.140625 274.339844 277.402344 274.832031 269.539062 273.632812 C 267.550781 273.328125 265.601562 272.765625 263.417969 272.273438 C 263.988281 273.519531 264.523438 274.523438 264.917969 275.582031 C 265.335938 276.714844 265.617188 277.894531 265.984375 279.140625 C 281.839844 281.257812 295.175781 288.355469 306.621094 299.824219 Z M 291.125 119.003906 C 290.253906 117.976562 289.347656 117.367188 289.136719 116.570312 C 288.433594 113.9375 286.910156 112.746094 284.179688 112.308594 C 281.074219 111.8125 279.871094 109.40625 280.742188 106.328125 C 281.035156 105.292969 281.539062 104.3125 281.984375 103.328125 C 282.753906 101.625 282.695312 101.011719 281.429688 99.664062 C 279.953125 98.09375 278.140625 97.09375 276.078125 96.445312 C 274.867188 96.0625 274.074219 96.320312 273.230469 97.253906 C 270.757812 99.984375 267.972656 102.378906 264.890625 104.402344 C 260.667969 107.171875 256.132812 109.046875 251 109.160156 C 250.609375 109.171875 250.21875 109.238281 249.65625 109.296875 C 249.902344 111.882812 250.058594 114.378906 250.40625 116.84375 C 250.640625 118.464844 250.796875 120.046875 250.394531 121.644531 C 250.097656 122.828125 249.816406 124.023438 249.414062 125.175781 C 249.03125 126.277344 249.363281 127.074219 250.316406 127.554688 C 251.339844 128.074219 252.410156 128.546875 253.511719 128.847656 C 257.269531 129.863281 261.117188 130.347656 265.011719 130.230469 C 273.976562 129.957031 282.441406 128.21875 289.214844 121.703125 C 290.089844 120.859375 291.089844 120.113281 291.125 119.003906 Z M 58.644531 346.839844 C 58.617188 341.367188 56.195312 336.039062 52.34375 332.863281 C 51.558594 332.214844 50.773438 331.59375 49.640625 331.625 C 45.742188 331.734375 41.898438 332.097656 38.375 333.960938 C 33.953125 336.304688 30.792969 339.492188 31.191406 344.984375 C 31.199219 345.117188 31.238281 345.28125 31.179688 345.386719 C 30.496094 346.703125 31.339844 347.742188 31.847656 348.804688 C 32.347656 349.855469 32.65625 351.175781 34.261719 351.164062 C 34.453125 351.164062 34.628906 351.53125 34.835938 351.703125 C 36.179688 352.828125 37.433594 354.082031 38.890625 355.039062 C 42.207031 357.222656 46.050781 357.832031 49.890625 358.433594 C 51.5 358.6875 52.804688 358.238281 54.054688 357.324219 C 55.515625 356.25 56.582031 354.863281 57.332031 353.230469 C 58.277344 351.164062 58.738281 348.984375 58.644531 346.839844 Z M 101.140625 326.765625 C 105.785156 335.496094 109.460938 344.296875 109.671875 354.378906 C 113.410156 353.25 116.964844 352.171875 120.523438 351.101562 C 121.261719 350.878906 121.417969 350.339844 121.367188 349.675781 C 121.21875 347.710938 121.171875 345.726562 120.882812 343.785156 C 119.992188 337.859375 117.738281 332.402344 114.816406 327.226562 C 113.960938 325.707031 112.769531 324.34375 111.582031 323.054688 C 110.519531 321.898438 109.332031 321.746094 108.085938 322.480469 C 105.808594 323.820312 103.582031 325.25 101.140625 326.765625 Z M 154.742188 248.21875 C 154.800781 249.503906 154.203125 250.511719 152.898438 250.949219 C 152.339844 251.140625 151.703125 251.171875 151.101562 251.175781 C 134.765625 251.269531 118.429688 251.367188 102.09375 251.425781 C 88.75 251.472656 75.410156 251.464844 62.066406 251.484375 C 61.210938 251.484375 60.351562 251.484375 59.007812 251.484375 C 59.609375 252.128906 59.804688 252.511719 60.089844 252.601562 C 60.53125 252.738281 61.03125 252.683594 61.507812 252.6875 C 99.558594 252.855469 137.609375 253.019531 175.660156 253.175781 C 176.753906 253.179688 177.84375 253.082031 178.9375 253.035156 C 176.234375 252.664062 173.851562 251.507812 171.445312 250.390625 C 169.351562 249.417969 167.257812 248.417969 165.097656 247.625 C 164.125 247.269531 162.96875 247.238281 161.917969 247.328125 C 159.621094 247.519531 157.34375 247.882812 154.742188 248.21875 Z M 292.289062 24.515625 C 291.238281 20.714844 289.914062 17.101562 287.160156 14.285156 C 284.304688 11.363281 280.742188 9.46875 276.933594 8.164062 C 275.179688 7.566406 273.1875 7.394531 271.316406 7.453125 C 264.542969 7.667969 258.71875 10.457031 253.414062 14.492188 C 253.164062 14.6875 252.980469 14.964844 252.449219 15.554688 C 253.726562 15.269531 254.558594 15.003906 255.410156 14.902344 C 258.234375 14.558594 261.078125 13.902344 263.886719 14.035156 C 272.609375 14.445312 280.589844 17.421875 288.082031 21.785156 C 289.523438 22.625 290.890625 23.601562 292.289062 24.515625 Z M 249.152344 15.992188 C 249.808594 15.765625 250.171875 15.753906 250.347656 15.566406 C 252.546875 13.183594 255.292969 11.535156 258.042969 9.910156 C 262.796875 7.105469 267.976562 5.878906 273.472656 6.125 C 278.542969 6.355469 282.605469 9.019531 286.519531 11.878906 C 287.757812 12.78125 288.933594 13.945312 289.75 15.234375 C 292.085938 18.925781 293.929688 22.855469 294.726562 27.207031 C 296.035156 34.382812 295.816406 41.542969 294.535156 48.695312 C 294.421875 49.328125 294.351562 49.964844 294.214844 50.910156 C 294.9375 50.503906 295.34375 50.277344 295.75 50.054688 C 296.167969 49.828125 296.5625 49.546875 297.007812 49.386719 C 297.949219 49.042969 298.3125 48.402344 298.472656 47.417969 C 299.472656 41.261719 299.617188 35.105469 298.441406 28.960938 C 297.070312 21.800781 294.378906 15.257812 288.984375 10.148438 C 283.023438 4.503906 275.945312 2.554688 267.902344 4.257812 C 260.722656 5.78125 254.949219 9.71875 249.894531 14.859375 C 249.679688 15.078125 249.546875 15.375 249.152344 15.992188 Z M 183.117188 339.085938 C 182.316406 338.363281 181.8125 337.828125 181.230469 337.402344 C 179.746094 336.316406 178.167969 335.359375 176.746094 334.199219 C 175.375 333.078125 174.097656 332.988281 172.4375 333.613281 C 160.601562 338.085938 148.730469 342.464844 136.875 346.882812 C 136.535156 347.007812 136.238281 347.246094 135.957031 347.410156 C 136.265625 348.390625 136.816406 348.039062 137.324219 347.894531 C 139.355469 347.332031 141.355469 346.550781 143.425781 346.265625 C 148.203125 345.605469 153.007812 345.117188 157.816406 344.6875 C 166.339844 343.925781 174.53125 341.703125 183.117188 339.085938 Z M 283.117188 74.148438 C 283.132812 77.035156 283.246094 79.003906 284.203125 80.808594 C 285.363281 82.992188 287.421875 84.050781 289.828125 83.488281 C 291.070312 83.199219 292.351562 82.761719 293.398438 82.0625 C 295.082031 80.933594 296.746094 79.691406 298.136719 78.226562 C 302.296875 73.847656 305.03125 68.632812 306.457031 62.765625 C 307.15625 59.902344 307.4375 56.984375 306.648438 54.082031 C 305.574219 50.132812 302.621094 48.601562 298.800781 50.125 C 297.367188 50.695312 295.945312 51.484375 294.769531 52.472656 C 287.765625 58.367188 283.980469 65.964844 283.117188 74.148438 Z M 196.53125 337.042969 C 193.042969 334.09375 189.847656 331.390625 186.488281 328.550781 C 183.332031 329.726562 179.992188 330.96875 176.539062 332.253906 C 176.816406 332.609375 176.90625 332.796875 177.054688 332.90625 C 179.390625 334.652344 181.707031 336.425781 184.101562 338.09375 C 184.574219 338.421875 185.398438 338.535156 185.964844 338.386719 C 189.328125 337.488281 192.730469 336.996094 196.53125 337.042969 Z M 222.671875 256.238281 C 222.617188 256.113281 222.5625 255.988281 222.507812 255.859375 C 215.453125 254.851562 208.394531 253.84375 201.117188 252.804688 C 201.25 254.046875 201.304688 255.121094 201.488281 256.171875 C 201.820312 258.097656 203.398438 259.324219 205.390625 259.230469 C 207.019531 259.15625 208.640625 258.992188 210.265625 258.929688 C 212.496094 258.839844 214.730469 258.394531 216.957031 259.003906 C 217.257812 259.085938 217.664062 259.058594 217.929688 258.914062 C 219.527344 258.050781 221.09375 257.136719 222.671875 256.238281 Z M 299.84375 28.535156 C 299.910156 28.929688 299.875 29.207031 299.992188 29.3125 C 300.222656 29.515625 300.53125 29.636719 300.816406 29.765625 C 301.863281 30.242188 303.015625 30.5625 303.949219 31.203125 C 310.550781 35.726562 315.070312 41.773438 316.808594 49.652344 C 317.4375 52.492188 317.652344 55.429688 317.953125 58.332031 C 318.070312 59.472656 318.433594 60.351562 319.40625 61.070312 C 322.777344 46.777344 313.035156 31.847656 299.84375 28.535156 Z M 223.886719 67.648438 C 224.097656 65.125 223.296875 63.117188 222.277344 61.1875 C 219.511719 55.964844 218.652344 50.421875 219.46875 44.601562 C 219.703125 42.941406 220.015625 41.289062 220.316406 39.496094 C 214.804688 49.363281 216.882812 61.890625 223.886719 67.648438 Z M 292.582031 50.441406 C 290.175781 50.980469 288.550781 52.488281 287.226562 54.308594 C 282.8125 60.375 280.472656 67.121094 280.816406 74.683594 C 280.855469 75.597656 281.121094 76.496094 281.28125 77.402344 C 281.457031 77.390625 281.628906 77.378906 281.804688 77.363281 C 281.804688 76.113281 281.675781 74.84375 281.828125 73.605469 C 282.757812 66.007812 285.96875 59.457031 291.167969 53.882812 C 292.109375 52.875 292.597656 51.84375 292.582031 50.441406 Z M 315.699219 118.984375 C 315.566406 118.453125 315.546875 118.183594 315.433594 117.960938 C 315.300781 117.707031 315.089844 117.492188 314.910156 117.261719 C 314.699219 117.542969 314.335938 117.8125 314.304688 118.117188 C 314.1875 119.226562 314.769531 120.003906 315.882812 120.066406 C 316.664062 120.109375 317.605469 120.078125 318.230469 119.683594 C 319.640625 118.792969 321.0625 117.808594 322.1875 116.59375 C 324.382812 114.214844 325.148438 111.160156 325.621094 108.035156 C 326.398438 102.878906 325.695312 98.023438 322.597656 93.6875 C 321.261719 91.816406 319.75 90.121094 317.441406 88.632812 C 319.015625 90.546875 320.449219 92.011719 321.566406 93.691406 C 325.796875 100.058594 325.445312 106.75 322.601562 113.492188 C 321.742188 115.53125 320.203125 117.121094 318.21875 118.160156 C 317.480469 118.546875 316.617188 118.695312 315.699219 118.984375 Z M 250.105469 129.171875 C 249.664062 128.808594 249.140625 128.382812 248.625 127.945312 C 247.617188 127.097656 247.140625 127.011719 246.53125 128.113281 C 245.488281 130 244.628906 132 243.871094 134.019531 C 243.6875 134.5 244.023438 135.433594 244.4375 135.824219 C 245.335938 136.679688 246.40625 137.375 247.617188 137.777344 C 248.460938 134.859375 249.25 132.132812 250.105469 129.171875 Z M 231.613281 54.792969 C 231.816406 54.746094 232.019531 54.699219 232.222656 54.652344 C 228.128906 39.105469 232.644531 26.84375 246.085938 17.9375 C 245.402344 18.113281 244.761719 18.3125 244.207031 18.652344 C 240.75 20.769531 237.730469 23.386719 235.417969 26.734375 C 231.59375 32.261719 229.792969 38.425781 229.6875 45.121094 C 229.644531 47.785156 229.785156 50.421875 230.664062 52.960938 C 230.886719 53.601562 231.292969 54.183594 231.613281 54.792969 Z M 257.808594 140.707031 C 258.5 137.664062 259.195312 134.609375 259.898438 131.503906 C 259.304688 131.40625 258.84375 131.328125 258.378906 131.253906 C 256.683594 130.984375 256.476562 130.972656 255.878906 132.5 C 255.269531 134.0625 254.847656 135.722656 254.53125 137.371094 C 253.964844 140.371094 255.109375 140.617188 257.117188 140.796875 C 257.308594 140.8125 257.507812 140.746094 257.808594 140.707031 Z M 253.007812 139.90625 C 253.09375 136.5 253.824219 133.582031 255.234375 130.6875 C 253.882812 130.359375 252.664062 130.0625 251.269531 129.71875 C 250.671875 131.792969 250.101562 133.660156 249.601562 135.546875 C 249.359375 136.445312 249.246094 137.378906 249.046875 138.441406 C 250.371094 138.929688 251.554688 139.367188 253.007812 139.90625 Z M 274.40625 139.660156 C 275.210938 136.492188 275.304688 133.585938 274.433594 130.574219 C 273.390625 130.792969 272.484375 130.980469 271.550781 131.171875 C 271.550781 134.230469 271.550781 137.171875 271.550781 140.277344 C 272.597656 140.050781 273.511719 139.855469 274.40625 139.660156 Z M 279.652344 129.253906 C 280.253906 131.847656 280.8125 134.265625 281.417969 136.878906 C 282.710938 136.285156 283.917969 135.734375 285.238281 135.128906 C 284.507812 132.621094 284.410156 130.0625 282.519531 128.089844 C 281.480469 128.511719 280.496094 128.910156 279.652344 129.253906 Z M 283.449219 285.417969 C 282.722656 287.460938 282.074219 289.289062 281.402344 291.183594 C 282.609375 291.972656 283.664062 292.664062 284.929688 293.488281 C 285.953125 291.425781 286.875 289.570312 287.871094 287.5625 C 286.363281 286.832031 285.027344 286.183594 283.449219 285.417969 Z M 286.570312 125.726562 C 285.554688 126.351562 284.710938 126.871094 284.121094 127.238281 C 284.96875 129.703125 285.730469 131.914062 286.550781 134.304688 C 287.660156 133.570312 288.710938 132.878906 289.789062 132.164062 C 289.441406 129.628906 288.691406 127.464844 286.570312 125.726562 Z M 264.152344 131.632812 C 263.878906 134.867188 263.617188 137.925781 263.34375 141.105469 C 264.441406 141.085938 265.53125 141.527344 265.914062 140.253906 C 266.746094 137.476562 267.222656 134.644531 266.890625 131.632812 C 265.957031 131.632812 265.171875 131.632812 264.152344 131.632812 Z M 280.054688 137.53125 C 279.488281 134.773438 279.574219 132.109375 278.085938 129.714844 C 277.304688 129.933594 276.605469 130.125 276.082031 130.273438 C 276.082031 133.269531 276.082031 136.117188 276.082031 139.183594 C 277.476562 138.605469 278.644531 138.117188 280.054688 137.53125 Z M 242.339844 133.769531 C 243.011719 132.15625 243.492188 130.660156 244.238281 129.3125 C 244.972656 127.988281 245.972656 126.816406 246.839844 125.601562 C 245.167969 123.59375 244.609375 123.585938 243.324219 125.542969 C 242.65625 126.5625 241.980469 127.585938 241.417969 128.664062 C 239.699219 131.949219 240.011719 131.128906 242.339844 133.769531 Z M 288.050781 124.816406 C 289.125 126.789062 290.222656 128.800781 291.496094 131.132812 C 292.089844 130.199219 292.957031 129.457031 292.980469 128.691406 C 293.054688 126.257812 292.253906 124.011719 290.832031 121.929688 C 289.769531 123.035156 288.855469 123.984375 288.050781 124.816406 Z M 310.484375 82.003906 C 310.621094 82.046875 310.761719 82.09375 310.898438 82.136719 C 311.96875 80.121094 313.050781 78.113281 314.105469 76.09375 C 315.960938 72.542969 317.5625 68.886719 318.644531 65.015625 C 318.933594 63.996094 319.046875 63.09375 317.90625 62.34375 C 317.804688 62.714844 317.71875 62.960938 317.671875 63.214844 C 316.9375 67.105469 315.722656 70.796875 313.59375 74.191406 C 312.558594 75.84375 311.832031 77.695312 311.066406 79.5 C 310.738281 80.277344 310.671875 81.164062 310.484375 82.003906 Z M 288.863281 296.265625 C 289.988281 294.046875 290.980469 292.085938 292.050781 289.96875 C 290.902344 289.351562 289.988281 288.859375 288.941406 288.292969 C 287.9375 290.347656 287.027344 292.214844 286.046875 294.21875 C 286.902344 294.839844 287.703125 295.421875 288.863281 296.265625 Z M 291.230469 120.234375 C 293.132812 122.601562 294.007812 125.203125 294.050781 128.242188 C 295.644531 126.625 296.121094 125.527344 296.289062 123.339844 C 296.527344 120.28125 294.507812 118.886719 291.230469 120.234375 Z M 292.378906 298.695312 C 293.925781 296.585938 294.886719 294.433594 295.617188 292.074219 C 294.730469 291.550781 293.996094 291.113281 293.171875 290.628906 C 292.078125 292.804688 291.054688 294.835938 289.960938 297.015625 C 290.722656 297.546875 291.472656 298.066406 292.378906 298.695312 Z M 261.679688 141.15625 C 262.632812 137.960938 262.917969 132.757812 262.035156 131.238281 C 259.859375 134.253906 260.070312 137.699219 259.109375 141.042969 C 260.179688 141.089844 260.953125 141.125 261.679688 141.15625 Z M 267.484375 140.609375 C 269.585938 140.742188 269.910156 140.675781 270.066406 139.554688 C 270.445312 136.886719 270.394531 134.203125 270.152344 131.394531 C 269.441406 131.453125 268.941406 131.492188 268.464844 131.535156 C 268.128906 134.652344 267.804688 137.628906 267.484375 140.609375 Z M 299.15625 294.984375 C 298.230469 294.160156 297.710938 293.359375 296.75 293.195312 C 295.683594 295.40625 294.671875 297.503906 293.671875 299.582031 C 295.183594 300.890625 296.046875 300.875 296.933594 299.378906 C 297.75 298.003906 298.386719 296.523438 299.15625 294.984375 Z M 254.164062 34.484375 C 253.101562 35.988281 252.734375 37.703125 252.453125 39.429688 C 251.753906 43.636719 252.308594 47.652344 254.476562 51.382812 C 254.957031 52.207031 255.472656 53.023438 256.863281 53.4375 C 255.582031 50.09375 253.742188 47.398438 253.332031 44.074219 C 252.921875 40.761719 253.523438 37.660156 254.164062 34.484375 Z M 275.027344 282.25 C 273.933594 282.027344 272.886719 281.820312 271.808594 281.605469 C 271.140625 283.128906 270.523438 284.539062 269.851562 286.070312 C 271.074219 286.40625 272.164062 286.703125 273.222656 286.992188 C 274.367188 285.542969 274.976562 284.082031 275.027344 282.25 Z M 230.511719 245.738281 C 230.246094 244.574219 229.984375 243.4375 229.683594 242.132812 C 228.078125 242.328125 226.695312 242.496094 225.175781 242.679688 C 225.277344 243.792969 225.359375 244.699219 225.457031 245.738281 C 227.207031 245.738281 228.746094 245.738281 230.511719 245.738281 Z M 302.679688 304.417969 C 303.136719 303.421875 303.578125 302.585938 303.90625 301.710938 C 304.691406 299.628906 304.632812 299.507812 302.605469 298.101562 C 301.78125 299.867188 300.960938 301.617188 300.0625 303.550781 C 300.957031 303.847656 301.761719 304.113281 302.679688 304.417969 Z M 276.578125 282.707031 C 275.945312 284.390625 275.363281 285.949219 274.722656 287.65625 C 275.480469 288.003906 276.246094 288.347656 277.25 288.804688 C 277.914062 287.003906 278.507812 285.398438 279.164062 283.621094 C 278.164062 283.269531 277.371094 282.988281 276.578125 282.707031 Z M 225.691406 249.703125 C 227.511719 249.933594 229.089844 250.136719 230.660156 250.335938 C 231.019531 247.839844 230.5625 247.1875 228.347656 247.003906 C 227.492188 246.933594 226.621094 246.992188 225.691406 246.992188 C 225.691406 247.945312 225.691406 248.722656 225.691406 249.703125 Z M 266.316406 285.414062 C 266.96875 285.542969 267.71875 285.691406 268.515625 285.847656 C 269.214844 284.269531 269.828125 282.882812 270.464844 281.441406 C 266.226562 280.78125 265.816406 281.148438 266.167969 285.050781 C 266.175781 285.113281 266.21875 285.175781 266.316406 285.414062 Z M 194.617188 253.113281 C 194.414062 251.78125 193.628906 251.53125 192.574219 251.527344 C 189.109375 251.515625 185.746094 252.15625 182.410156 253.113281 C 186.453125 253.113281 190.496094 253.113281 194.617188 253.113281 Z M 298.828125 303 C 299.683594 301.171875 300.46875 299.601562 301.160156 297.992188 C 301.578125 297.023438 301.28125 296.316406 300.144531 296.070312 C 299.097656 298.042969 298.089844 299.949219 297.035156 301.949219 C 297.554688 302.253906 298.066406 302.554688 298.828125 303 Z M 225.726562 252.871094 C 227.488281 253.347656 229.074219 253.777344 230.6875 254.214844 C 230.949219 252.160156 230.761719 251.8125 229.125 251.46875 C 228.199219 251.273438 227.253906 251.203125 226.3125 251.109375 C 226.140625 251.09375 225.949219 251.230469 225.726562 251.308594 C 225.726562 251.792969 225.726562 252.253906 225.726562 252.871094 Z M 280.269531 290.394531 C 281 288.4375 281.625 286.753906 282.292969 284.964844 C 281.691406 284.71875 281.28125 284.550781 280.816406 284.359375 C 279.964844 286.035156 279.15625 287.628906 278.296875 289.316406 C 279.015625 289.710938 279.527344 289.992188 280.269531 290.394531 Z M 224.976562 241.390625 C 226.46875 241.207031 227.777344 241.046875 229.109375 240.882812 C 228.386719 238.070312 226.933594 237.535156 224.609375 239.136719 C 224.714844 239.777344 224.820312 240.441406 224.976562 241.390625 Z M 225.953125 254.167969 C 225.109375 255.320312 225.269531 256.003906 226.289062 256.308594 C 227.609375 256.707031 228.960938 257 230.308594 257.335938 C 230.605469 255.765625 230.625 255.703125 229.976562 255.472656 C 228.660156 255.003906 227.320312 254.605469 225.953125 254.167969 Z M 228.722656 236.71875 C 227.75 234.503906 225.820312 234.109375 224.539062 235.636719 C 224.347656 235.867188 224.164062 236.335938 224.269531 236.53125 C 224.429688 236.824219 224.867188 237.171875 225.164062 237.152344 C 226.328125 237.085938 227.480469 236.882812 228.722656 236.71875 Z M 206.984375 260.53125 C 208.191406 261.597656 209.027344 262.335938 210.117188 263.296875 C 209.9375 262.066406 209.816406 261.234375 209.6875 260.347656 C 208.835938 260.40625 208.128906 260.453125 206.984375 260.53125 Z M 242.574219 50.144531 C 242.570312 52.40625 243.703125 54.476562 245.15625 54.792969 C 244.285156 53.222656 243.363281 51.566406 242.574219 50.144531 Z M 306.253906 302.121094 C 304.554688 302.300781 304.714844 303.519531 304.3125 304.554688 C 304.828125 304.652344 305.199219 304.722656 305.6875 304.816406 C 305.75 304.339844 305.773438 303.949219 305.851562 303.574219 C 305.941406 303.144531 306.082031 302.726562 306.253906 302.121094 Z M 211.699219 262.308594 C 212.800781 261.578125 212.339844 260.894531 211.714844 260.101562 C 210.613281 260.875 211.421875 261.605469 211.699219 262.308594 Z M 213.457031 260.148438 C 214.03125 261.183594 214.03125 261.183594 215.214844 260.148438 C 214.589844 260.148438 214.0625 260.148438 213.457031 260.148438 Z M 86.921875 213.808594 C 85.386719 213.351562 83.742188 213.101562 82.335938 212.382812 C 80.183594 211.285156 80.152344 209.136719 82.257812 207.949219 C 85.496094 206.125 88.902344 206.117188 92.167969 207.851562 C 94.195312 208.925781 94.164062 210.9375 92.253906 212.230469 C 90.675781 213.300781 88.863281 213.515625 86.921875 213.808594 Z M 87.375 207.8125 C 85.953125 208.207031 84.46875 208.453125 83.132812 209.046875 C 81.855469 209.613281 81.878906 210.6875 83.144531 211.296875 C 85.882812 212.613281 88.6875 212.5625 91.375 211.136719 C 92.523438 210.527344 92.53125 209.523438 91.363281 208.992188 C 90.15625 208.441406 88.800781 208.21875 87.375 207.8125 Z M 290.171875 198.320312 C 289.753906 197.085938 290.054688 196.347656 290.867188 195.773438 C 294.394531 193.28125 298.214844 191.390625 302.390625 190.277344 C 303.910156 189.875 305.871094 190.78125 306.425781 191.984375 C 307 193.234375 306.597656 195.03125 305.222656 195.976562 C 304.074219 196.765625 302.746094 197.476562 301.402344 197.769531 C 297.738281 198.570312 294 198.371094 290.171875 198.320312 Z M 292.242188 196.636719 C 295.371094 197.074219 298.429688 197.085938 301.410156 196.375 C 302.605469 196.089844 303.730469 195.320312 304.761719 194.589844 C 305.367188 194.164062 305.628906 193.328125 305.226562 192.5625 C 304.804688 191.769531 304.035156 191.351562 303.179688 191.539062 C 299.160156 192.402344 295.535156 194.152344 292.242188 196.636719 Z M 280.945312 259.597656 C 279.378906 259.300781 279.617188 258.417969 279.554688 257.75 C 279.375 255.859375 279.40625 253.9375 279.0625 252.082031 C 278.558594 249.363281 277.808594 246.6875 277.140625 244 C 276.988281 243.375 276.464844 242.738281 277.609375 242.105469 C 280.335938 247.617188 280.730469 253.460938 280.945312 259.597656 Z M 316.105469 184.109375 C 317.5625 182.792969 319.320312 181.914062 321.175781 181.355469 C 324.167969 180.457031 327.210938 180.425781 330.160156 181.640625 C 330.992188 181.980469 331.949219 182.308594 331.90625 183.730469 C 331.480469 183.632812 331.144531 183.636719 330.898438 183.488281 C 327.449219 181.398438 323.914062 181.640625 320.355469 183.117188 C 319.359375 183.535156 318.457031 184.175781 317.472656 184.628906 C 317.132812 184.785156 316.675781 184.691406 316.273438 184.714844 C 316.21875 184.511719 316.160156 184.3125 316.105469 184.109375 Z M 257.71875 84.320312 C 257.605469 84.953125 257.621094 85.648438 257.351562 86.210938 C 256.582031 87.792969 255.800781 89.386719 254.835938 90.855469 C 252.988281 93.671875 250.253906 94.984375 246.921875 95.089844 C 245.285156 95.140625 243.84375 94.578125 242.640625 93.492188 C 241.585938 92.542969 240.558594 91.554688 239.605469 90.503906 C 239.382812 90.261719 239.519531 89.695312 239.492188 89.277344 C 239.851562 89.289062 240.339844 89.152344 240.542969 89.335938 C 242.816406 91.382812 245.429688 91.050781 248.039062 90.394531 C 250.71875 89.722656 253.050781 88.332031 255.105469 86.507812 C 255.59375 86.078125 255.871094 85.417969 256.285156 84.894531 C 256.535156 84.570312 256.859375 84.304688 257.148438 84.011719 C 257.339844 84.113281 257.53125 84.214844 257.71875 84.320312 Z M 243.816406 92.390625 C 245.96875 95.214844 252.03125 93.582031 253.78125 89.515625 C 252.128906 90.222656 250.589844 91.070312 248.945312 91.542969 C 247.273438 92.019531 245.496094 92.128906 243.816406 92.390625 Z M 240.445312 60.621094 C 239.5 61.789062 238.628906 62.863281 237.738281 63.960938 C 238.066406 64.195312 238.488281 64.488281 238.953125 64.8125 C 238.785156 65.070312 238.714844 65.273438 238.570312 65.371094 C 238.417969 65.476562 238.195312 65.511719 238.003906 65.515625 C 236.820312 65.527344 235.640625 65.523438 234.421875 65.523438 C 233.828125 64.667969 234.78125 64.410156 235.003906 64.0625 C 234.621094 62.867188 234.28125 61.800781 233.886719 60.578125 C 233.199219 60.949219 232.476562 61.335938 231.332031 61.949219 C 231.570312 61.148438 231.566406 60.632812 231.820312 60.40625 C 233.417969 58.960938 235.273438 58.171875 237.410156 58.960938 C 238.476562 59.355469 239.746094 59.546875 240.445312 60.621094 Z M 265.738281 62.785156 C 264.84375 63.03125 264.84375 63.03125 262.324219 62.011719 C 262.695312 63.4375 261.105469 64.722656 262.953125 66.398438 C 260.898438 66.296875 259.417969 66.226562 257.605469 66.136719 C 258.847656 64.714844 257.984375 63.539062 257.640625 62.257812 C 257.121094 62.226562 256.589844 62.195312 255.992188 62.160156 C 257.332031 59.257812 263.066406 59.632812 265.738281 62.785156 Z M 255.886719 58.304688 C 259.714844 56.667969 263.511719 55.429688 266.859375 59.265625 C 266.902344 59.316406 266.964844 59.390625 267.015625 59.386719 C 267.355469 59.375 267.695312 59.34375 268.394531 59.296875 C 267.039062 57.148438 265.4375 55.859375 263.265625 55.554688 C 260.5 55.167969 257.871094 55.886719 255.40625 57.144531 C 254.832031 57.4375 254.195312 57.78125 254.453125 58.988281 C 255.070312 58.691406 255.472656 58.480469 255.886719 58.304688 Z M 180.914062 204.140625 C 181.476562 203.074219 182.105469 203.261719 182.570312 203.691406 C 183.160156 204.234375 183.714844 204.867188 184.113281 205.558594 C 186.253906 209.253906 187.285156 213.347656 188.21875 217.460938 C 188.28125 217.738281 187.929688 218.105469 187.773438 218.433594 C 187.46875 218.242188 187.019531 218.121094 186.886719 217.847656 C 186.652344 217.371094 186.589844 216.808594 186.5 216.273438 C 186.007812 213.371094 185.109375 210.597656 183.882812 207.925781 C 183.207031 206.453125 182.605469 204.929688 180.914062 204.140625 Z M 306.285156 57.464844 C 306.222656 60.882812 305.074219 63.945312 303.757812 66.929688 C 301.878906 71.191406 299.382812 75.09375 296.078125 78.390625 C 294.800781 79.664062 293.285156 80.796875 291.6875 81.628906 C 289.460938 82.789062 287.328125 82.140625 285.851562 80.304688 C 285.121094 79.398438 284.96875 78.351562 284.949219 77.246094 C 284.878906 73.507812 285.765625 69.9375 287.1875 66.542969 C 288.3125 63.859375 289.691406 61.265625 291.1875 58.765625 C 292.824219 56.035156 295.292969 54.109375 298.027344 52.480469 C 300.101562 51.242188 302.222656 51.089844 304.183594 52.304688 C 306.011719 53.441406 306.402344 55.464844 306.285156 57.464844 Z M 286.265625 76.070312 C 286.265625 76.574219 286.261719 76.710938 286.265625 76.847656 C 286.3125 80.304688 288.773438 81.8125 291.75 80.121094 C 292.859375 79.488281 293.902344 78.667969 294.792969 77.753906 C 299.421875 72.992188 302.667969 67.402344 304.398438 60.980469 C 304.765625 59.617188 305 58.160156 304.953125 56.761719 C 304.824219 53.238281 301.84375 51.824219 299.148438 53.339844 C 297.050781 54.519531 295.074219 55.863281 293.613281 57.757812 C 289.363281 63.257812 286.933594 69.511719 286.265625 76.070312 Z M 286.265625 76.070312 "/></g></g></svg>