<svg xmlns="http://www.w3.org/2000/svg" xmlns:xlink="http://www.w3.org/1999/xlink" width="500" zoomAndPan="magnify" viewBox="0 0 375 374.999991" height="500" preserveAspectRatio="xMidYMid meet" version="1.2"><defs><clipPath id="742649bf17"><path d="M 29.316406 2 L 345.816406 2 L 345.816406 375 L 29.316406 375 Z M 29.316406 2 "/></clipPath></defs><g id="dcf3179bc6"><g clip-rule="nonzero" clip-path="url(#742649bf17)"><path style=" stroke:none;fill-rule:evenodd;fill:#ffffff;fill-opacity:1;" d="M 336.027344 145.304688 C 337.039062 147.28125 338.242188 147.851562 340.160156 147.210938 C 342.054688 146.582031 343.253906 145.222656 343.6875 143.304688 C 344.625 139.121094 343.199219 135.609375 340.195312 132.78125 C 335.984375 128.816406 330.996094 128.257812 325.292969 129.957031 C 326.265625 130.550781 327.007812 130.988281 327.738281 131.449219 C 329.785156 132.742188 331.527344 134.324219 332.550781 136.585938 C 333.617188 138.929688 333.523438 141.199219 332.117188 143.386719 C 331.828125 143.839844 331.539062 144.292969 331.199219 144.820312 C 332.351562 146.046875 332.625 147.539062 332.726562 149.140625 C 332.773438 149.894531 333.175781 150.675781 333.578125 151.34375 C 336.234375 155.78125 338.152344 160.472656 338.445312 165.691406 C 338.542969 167.375 338.507812 169.113281 338.214844 170.769531 C 337.582031 174.375 337.015625 178 335.539062 181.417969 C 333.660156 185.757812 332.910156 190.410156 332.011719 195.015625 C 330.800781 201.226562 329.539062 207.429688 329.347656 213.78125 C 329.257812 216.839844 329.414062 219.910156 329.25 222.964844 C 329.105469 225.671875 328.816406 228.390625 328.324219 231.054688 C 327.535156 235.3125 325.28125 238.886719 322.476562 242.113281 C 320.960938 243.855469 319.371094 245.542969 317.742188 247.1875 C 316.992188 247.945312 316.625 248.675781 316.574219 249.820312 C 316.277344 256.792969 316.886719 263.660156 318.121094 270.53125 C 319.160156 276.324219 319.148438 282.1875 317.484375 287.925781 C 316.078125 292.792969 313.460938 296.832031 309.210938 299.691406 C 308.347656 300.269531 307.882812 300.992188 307.726562 301.984375 C 307.597656 302.789062 307.433594 303.589844 307.265625 304.386719 C 307.179688 304.785156 307.167969 305.324219 306.910156 305.535156 C 305.34375 306.824219 305.820312 308.574219 305.742188 310.203125 C 305.441406 316.628906 303.316406 322.4375 299.753906 327.742188 C 296.011719 333.320312 291.101562 337.675781 285.414062 341.179688 C 277.601562 345.996094 269.066406 348.867188 260.042969 350.308594 C 242.742188 353.074219 226.027344 350.925781 209.882812 344.160156 C 209.574219 344.03125 209.246094 343.933594 208.925781 343.832031 C 208.871094 343.8125 208.800781 343.84375 208.734375 343.855469 C 208.6875 343.964844 208.566406 344.105469 208.597656 344.183594 C 210.882812 349.589844 208.714844 353.980469 205.34375 358.027344 C 204.332031 359.242188 202.84375 359.921875 201.25 360.15625 C 197.554688 360.707031 193.855469 361.242188 190.144531 361.714844 C 185.222656 362.339844 180.28125 362.835938 175.363281 363.503906 C 170.535156 364.160156 166.015625 365.855469 161.660156 368.003906 C 157.503906 370.054688 153.28125 371.917969 148.722656 372.917969 C 141.199219 374.566406 133.640625 375 126.039062 373.566406 C 124.578125 373.292969 123.128906 372.859375 121.742188 372.316406 C 119.09375 371.277344 118.003906 367.917969 118.949219 365.695312 C 120.796875 361.359375 123.398438 357.59375 126.804688 354.382812 C 129.132812 352.195312 131.601562 350.179688 135.046875 348.835938 C 134.308594 348.425781 133.964844 348.097656 133.597656 348.066406 C 133.226562 348.03125 132.824219 348.285156 132.4375 348.410156 C 125.519531 350.648438 118.59375 352.878906 111.683594 355.148438 C 110.816406 355.433594 110.019531 355.945312 109.1875 356.347656 C 109.015625 356.433594 108.796875 356.605469 108.65625 356.558594 C 106.890625 356.003906 105.640625 357.242188 104.144531 357.710938 C 101.699219 358.46875 99.136719 358.945312 96.585938 359.238281 C 91.996094 359.765625 87.367188 359.957031 82.777344 360.503906 C 78.863281 360.96875 74.996094 361.808594 71.089844 362.34375 C 63.359375 363.40625 55.605469 363.675781 47.980469 361.710938 C 44.847656 360.902344 41.808594 359.605469 38.851562 358.257812 C 35.460938 356.710938 33.347656 353.652344 31.148438 350.816406 C 30.347656 349.789062 30.066406 348.34375 29.609375 347.066406 C 29.484375 346.710938 29.535156 346.277344 29.570312 345.886719 C 29.640625 345.15625 29.839844 344.429688 29.84375 343.703125 C 29.863281 340.183594 31.386719 337.429688 34.019531 335.207031 C 37.882812 331.949219 42.425781 330.425781 47.386719 330.410156 C 52.550781 330.394531 57.714844 330.746094 62.878906 330.902344 C 73.074219 331.214844 83.289062 331.863281 93.40625 329.914062 C 94.925781 329.621094 96.40625 329.058594 97.863281 328.503906 C 98.726562 328.175781 99.625 327.785156 99.597656 326.523438 C 99.589844 326.195312 100.136719 325.796875 100.503906 325.539062 C 101.101562 325.117188 101.765625 324.78125 102.558594 324.316406 C 102.125 323.792969 101.8125 323.378906 101.46875 322.996094 C 90.058594 310.269531 76.226562 300.46875 62.398438 290.660156 C 56.734375 286.644531 51.078125 282.617188 45.546875 278.429688 C 41.398438 275.289062 37.691406 271.628906 35.484375 266.8125 C 34.386719 264.425781 33.613281 261.855469 32.976562 259.292969 C 32.3125 256.648438 32.878906 254.003906 33.832031 251.488281 C 36.328125 244.914062 40.25 239.363281 45.910156 235.128906 C 47.246094 234.132812 48.761719 233.371094 50.359375 232.40625 C 50.238281 232.03125 50.082031 231.460938 49.871094 230.910156 C 44.0625 215.582031 38.25 200.257812 32.4375 184.933594 C 31.449219 182.332031 31.519531 182.28125 34.316406 182.105469 C 42.125 181.609375 49.925781 181.0625 57.730469 180.554688 C 63.230469 180.199219 68.730469 179.886719 74.226562 179.53125 C 83.457031 178.925781 92.683594 178.289062 101.914062 177.6875 C 109.449219 177.199219 116.984375 176.746094 124.519531 176.269531 C 126.484375 176.144531 128.445312 175.988281 130.707031 175.828125 C 135.644531 190 140.324219 204.292969 145.296875 218.648438 C 146.109375 217.734375 146.753906 216.957031 147.453125 216.234375 C 148.550781 215.105469 149.878906 214.496094 151.488281 214.648438 C 152.636719 214.757812 153.796875 214.820312 154.925781 215.035156 C 157.226562 215.472656 158.933594 214.652344 160.132812 212.71875 C 160.667969 211.851562 161.09375 210.917969 161.570312 210.015625 C 163.722656 205.902344 167.027344 203.503906 171.734375 203.195312 C 172.210938 203.164062 172.679688 203.027344 173.152344 203.019531 C 178.3125 202.953125 182.113281 200.320312 184.929688 196.324219 C 187.191406 193.109375 189.203125 189.679688 190.960938 186.164062 C 193.699219 180.691406 196.066406 175.035156 198.703125 169.515625 C 201.578125 163.488281 204.839844 157.679688 208.773438 152.261719 C 211.382812 148.671875 214.277344 145.332031 217.621094 142.410156 C 219.207031 141.023438 220.8125 139.640625 222.933594 139.085938 C 223.304688 138.984375 223.640625 138.691406 223.945312 138.429688 C 225.746094 136.875 227.53125 135.304688 229.390625 133.675781 C 229.324219 132.378906 228.589844 131.371094 227.5625 130.523438 C 226.671875 129.785156 225.75 129.082031 224.894531 128.308594 C 222.476562 126.121094 221.515625 123.386719 222.175781 120.203125 C 222.5625 118.351562 223.164062 116.539062 223.761719 114.738281 C 224.148438 113.582031 224.671875 112.464844 225.1875 111.355469 C 227.152344 107.136719 226.511719 103.144531 224.128906 99.324219 C 223.15625 97.765625 222.101562 96.257812 221.09375 94.722656 C 220.308594 93.527344 219.5 92.347656 218.773438 91.121094 C 216.273438 86.90625 215.910156 82.550781 218.003906 78.054688 C 218.222656 77.585938 218.421875 77.109375 218.382812 76.511719 C 218.207031 76.757812 217.996094 76.988281 217.851562 77.253906 C 214.347656 83.644531 213.355469 90.449219 214.609375 97.589844 C 214.90625 99.28125 215.507812 100.894531 217.152344 101.816406 C 218.007812 102.296875 218.878906 102.671875 219.8125 101.972656 C 220.640625 101.355469 220.980469 100.171875 220.609375 99.019531 C 220.4375 98.480469 219.78125 98.011719 220.492188 97.351562 C 220.644531 97.359375 220.90625 97.296875 221.015625 97.394531 C 222.328125 98.570312 222.546875 100.386719 221.605469 102.023438 C 220.773438 103.457031 219.167969 104.082031 217.558594 103.53125 C 215.617188 102.867188 214.390625 101.484375 213.742188 99.5625 C 212.929688 97.148438 212.632812 94.648438 212.667969 92.121094 C 212.777344 84.519531 215.105469 77.6875 219.90625 71.753906 C 220.714844 70.753906 221.601562 69.824219 222.484375 68.828125 C 222.292969 68.5625 222.164062 68.332031 221.988281 68.136719 C 215.550781 60.992188 214.375 52.703125 216.933594 43.742188 C 219.269531 35.5625 224.257812 29.101562 230.617188 23.605469 C 233.957031 20.722656 237.710938 18.589844 241.914062 17.234375 C 243.59375 16.691406 245.261719 16.082031 246.875 15.371094 C 247.585938 15.058594 248.210938 14.476562 248.769531 13.910156 C 253.125 9.488281 258.054688 5.945312 263.960938 3.878906 C 275.054688 0.00390625 285.964844 3.332031 293.015625 12.738281 C 295.871094 16.550781 297.71875 20.835938 298.949219 25.414062 C 299.070312 25.867188 299.203125 26.320312 299.347656 26.835938 C 303.707031 28.007812 307.46875 30.269531 310.957031 33.050781 C 316.316406 37.328125 319.175781 43.085938 320.726562 49.589844 C 321.707031 53.699219 321.390625 57.847656 320.644531 61.953125 C 320.425781 63.164062 320.589844 64.171875 320.996094 65.292969 C 322.242188 68.734375 322.757812 72.296875 321.984375 75.921875 C 321.734375 77.09375 321.292969 78.296875 320.652344 79.296875 C 320.226562 79.960938 319.335938 80.4375 318.554688 80.726562 C 317.78125 81.015625 317.078125 80.570312 316.777344 79.757812 C 316.542969 79.132812 316.597656 78.492188 317.304688 78.207031 C 318 77.925781 318.277344 78.386719 318.40625 79.003906 C 318.421875 79.082031 318.613281 79.125 318.722656 79.183594 C 321.222656 77.09375 321.757812 70.359375 319.835938 66.65625 C 317.265625 72.113281 314.640625 77.6875 311.921875 83.460938 C 312.582031 83.710938 313.113281 83.941406 313.660156 84.117188 C 318.742188 85.75 322.953125 88.621094 326.035156 93.007812 C 333.871094 104.152344 329.09375 118.910156 316.160156 123.574219 C 315.332031 123.871094 314.480469 124.109375 313.664062 124.363281 C 313.1875 126.339844 313.921875 127.648438 315.738281 128.007812 C 316.402344 128.136719 317.09375 128.09375 317.773438 128.140625 C 318.789062 128.214844 319.894531 128.066406 320.800781 128.421875 C 322.578125 129.117188 324.226562 128.742188 325.972656 128.417969 C 327.96875 128.046875 330.019531 127.738281 332.035156 127.785156 C 338.117188 127.925781 343.753906 132.671875 345.054688 138.59375 C 345.46875 140.476562 345.519531 142.394531 344.851562 144.238281 C 343.917969 146.816406 342.125 148.425781 339.339844 148.765625 C 337.445312 148.996094 335.660156 148.089844 334.976562 146.429688 C 334.71875 145.792969 334.644531 144.941406 334.847656 144.300781 C 334.980469 143.886719 335.738281 143.589844 336.273438 143.4375 C 336.476562 143.378906 336.832031 143.875 337.121094 144.121094 C 336.785156 144.484375 336.449219 144.847656 336.027344 145.304688 Z M 87.492188 358.6875 C 87.75 358.613281 88.007812 358.492188 88.269531 358.472656 C 91.855469 358.195312 95.445312 357.976562 99.023438 357.648438 C 101.835938 357.386719 104.570312 356.859375 106.417969 354.371094 C 107.027344 353.554688 107.476562 354.179688 108.199219 354.542969 C 108.148438 353.679688 108.097656 352.816406 108.027344 351.621094 C 107.195312 352.195312 106.679688 352.503906 106.21875 352.878906 C 103.953125 354.707031 101.378906 355.9375 98.5625 356.542969 C 95.582031 357.183594 92.546875 357.574219 89.542969 358.109375 C 88.847656 358.234375 88.179688 358.492188 87.496094 358.691406 C 86.164062 358.691406 84.835938 358.691406 83.507812 358.6875 C 84.832031 358.6875 86.164062 358.6875 87.492188 358.6875 Z M 79.113281 359.078125 C 73.699219 359.460938 68.289062 360.007812 62.867188 360.167969 C 58.734375 360.296875 54.585938 360 50.449219 359.765625 C 48.441406 359.652344 46.449219 359.253906 44.453125 358.984375 C 45.085938 359.429688 45.765625 359.726562 46.464844 359.9375 C 50 361.015625 53.636719 361.519531 57.308594 361.707031 C 64.425781 362.0625 71.421875 361.113281 78.363281 359.648438 C 78.632812 359.59375 78.847656 359.265625 79.109375 359.074219 C 79.894531 359.144531 80.683594 359.210938 81.46875 359.277344 C 81.472656 359.210938 81.480469 359.144531 81.484375 359.078125 C 80.695312 359.078125 79.90625 359.078125 79.113281 359.078125 Z M 122.71875 350.378906 C 124.117188 349.921875 125.28125 349.585938 126.414062 349.167969 C 146.707031 341.695312 167.082031 334.4375 187.25 326.648438 C 198.914062 322.144531 210.332031 316.976562 221.6875 311.722656 C 226.84375 309.339844 231.710938 306.230469 236.464844 303.082031 C 242.589844 299.015625 247.710938 293.828125 251.46875 287.449219 C 253.476562 284.046875 255.21875 280.496094 255.164062 276.359375 C 255.15625 275.839844 255.632812 275.320312 255.886719 274.796875 C 256.050781 274.84375 256.214844 274.890625 256.375 274.9375 C 256.429688 275.863281 256.660156 276.824219 256.496094 277.714844 C 256.167969 279.507812 255.78125 281.324219 255.136719 283.027344 C 252.53125 289.964844 247.855469 295.429688 242.378906 300.234375 C 235.828125 305.976562 228.316406 310.289062 220.445312 313.890625 C 210.492188 318.449219 200.382812 322.664062 190.339844 327.027344 C 189.699219 327.304688 189.066406 327.597656 187.898438 328.121094 C 188.914062 328.921875 189.613281 329.371094 190.1875 329.941406 C 195.140625 334.835938 201.046875 338.386719 207.226562 341.367188 C 224.628906 349.761719 242.949219 352 261.921875 348.585938 C 271.121094 346.933594 279.730469 343.628906 287.425781 338.199219 C 294.019531 333.546875 299.226562 327.734375 302.214844 320.140625 C 303.949219 315.726562 304.746094 311.140625 304.355469 306.367188 C 304.015625 306.234375 303.777344 306.101562 303.519531 306.050781 C 299.265625 305.230469 295.667969 303.085938 292.265625 300.527344 C 290.363281 299.097656 288.410156 297.730469 286.472656 296.347656 C 286.089844 296.078125 285.65625 295.695312 285.25 295.699219 C 284.585938 295.703125 284.296875 295.394531 283.964844 294.929688 C 283.695312 294.554688 283.339844 294.214844 282.960938 293.957031 C 279.691406 291.746094 276.3125 289.726562 272.59375 288.347656 C 270.5 287.570312 268.328125 287.113281 265.941406 286.949219 C 265.761719 288.476562 265.648438 289.886719 265.421875 291.28125 C 264.625 296.152344 262.816406 300.695312 260.902344 305.214844 C 258.492188 310.890625 254.339844 315.167969 249.882812 319.207031 C 249.628906 319.4375 249.082031 319.34375 248.667969 319.398438 C 248.722656 319.035156 248.65625 318.570312 248.859375 318.328125 C 249.375 317.699219 250.003906 317.167969 250.59375 316.605469 C 252.964844 314.359375 255.355469 312.136719 257.09375 309.3125 C 260.113281 304.398438 262.101562 299.066406 263.609375 293.53125 C 264.585938 289.953125 264.570312 286.269531 264.746094 282.613281 C 264.914062 279.132812 264.101562 275.890625 261.953125 273.042969 C 261.683594 272.691406 261.753906 272.082031 261.738281 272 C 257.898438 269.78125 254.285156 267.757812 250.738281 265.621094 C 248.878906 264.5 247.113281 263.207031 245.34375 261.945312 C 242.742188 260.089844 239.769531 259.160156 236.6875 259.449219 C 233.46875 259.75 230.339844 259.648438 227.160156 259.242188 C 225.613281 259.046875 224.089844 258.984375 223.039062 257.617188 C 185.710938 278.769531 148.511719 299.84375 111.179688 320.996094 C 115.640625 324.648438 117.703125 329.550781 119.710938 334.476562 C 121.757812 339.488281 122.683594 344.742188 122.71875 350.378906 Z M 239.015625 131.878906 C 237.105469 132.257812 235.074219 131.960938 233.296875 133.050781 C 226.75 137.066406 221.023438 141.847656 218.125 149.28125 C 214.492188 158.601562 210.5625 167.785156 205.929688 176.660156 C 204.832031 178.765625 203.917969 180.976562 203.070312 183.199219 C 201.082031 188.4375 200.722656 193.660156 203.59375 198.757812 C 203.660156 198.875 203.714844 199 203.769531 199.125 C 205.523438 203.175781 206.015625 207.328125 205.023438 211.679688 C 204.101562 215.722656 203.207031 219.78125 202.589844 223.878906 C 202.085938 227.214844 201.691406 230.613281 202.421875 234.070312 C 202.902344 234.171875 203.355469 234.3125 203.816406 234.359375 C 210.023438 235 216.226562 235.625 222.476562 236.253906 C 223.605469 233.28125 227.085938 232.035156 229.871094 235.082031 C 230.09375 234.835938 230.296875 234.582031 230.53125 234.359375 C 232.136719 232.839844 233.652344 232.851562 235.089844 234.558594 C 235.773438 235.371094 236.183594 236.414062 236.707031 237.359375 C 236.9375 237.78125 237.144531 238.222656 237.363281 238.652344 C 237.523438 238.609375 237.679688 238.566406 237.835938 238.523438 C 237.738281 237.34375 237.675781 236.160156 237.523438 234.984375 C 237.425781 234.210938 237.324219 233.453125 238.050781 232.945312 C 240.277344 231.390625 242.429688 229.789062 245.414062 229.871094 C 252.949219 230.078125 260.316406 228.792969 267.597656 226.992188 C 269.667969 226.480469 271.660156 225.933594 273.625 227.074219 C 275.203125 224.21875 275.65625 224.1875 278.414062 226.609375 C 280.109375 224.929688 281.222656 224.875 283.050781 226.523438 C 283.75 227.152344 284.359375 227.914062 284.882812 228.695312 C 285.714844 229.9375 286.417969 231.265625 287.214844 232.53125 C 287.757812 233.390625 288.320312 234.25 288.957031 235.039062 C 289.507812 235.722656 290.191406 236.285156 291.402344 236.050781 C 291.339844 235.425781 291.386719 234.808594 291.207031 234.269531 C 289.4375 229.070312 287.285156 224.078125 282.703125 220.65625 C 280.554688 219.050781 279.816406 216.929688 280.066406 214.40625 C 280.304688 212.039062 280.574219 209.667969 281.023438 207.335938 C 281.535156 204.679688 282.261719 202.066406 282.894531 199.433594 C 279.863281 197.445312 279.042969 196.589844 278.265625 194.285156 C 277.089844 190.773438 277.136719 187.300781 278.988281 184.023438 C 279.789062 182.613281 280.71875 181.234375 281.808594 180.039062 C 289.640625 171.46875 299.171875 165.710938 310.496094 163.023438 C 315.527344 161.828125 320.589844 161.683594 325.65625 162.925781 C 328.976562 163.738281 331.4375 165.585938 332.78125 168.769531 C 333.601562 170.707031 334.316406 172.6875 335.085938 174.644531 C 335.226562 175.007812 335.40625 175.355469 335.710938 176.027344 C 336.503906 173.074219 337.0625 170.433594 337.148438 167.714844 C 337.3125 162.585938 335.664062 157.929688 333.238281 153.53125 C 328.386719 144.746094 321.453125 138.152344 312.3125 133.917969 C 307.195312 131.546875 301.972656 129.371094 297.40625 126.113281 C 296.394531 127.421875 295.582031 128.78125 294.480469 129.851562 C 288.574219 135.578125 281.421875 139.136719 273.550781 141.195312 C 268.625 142.480469 263.527344 142.984375 258.425781 142.359375 C 254.1875 141.839844 250.03125 140.929688 246.273438 138.753906 C 243.773438 137.308594 241.515625 135.589844 239.953125 133.089844 C 239.707031 132.691406 239.378906 132.347656 239.015625 131.878906 Z M 33.371094 183.539062 C 41.878906 205.964844 50.257812 228.058594 58.644531 250.175781 C 59.617188 250.175781 60.363281 250.175781 61.105469 250.171875 C 86.96875 250.085938 112.832031 250 138.695312 249.910156 C 142.710938 249.894531 146.726562 249.890625 150.742188 249.847656 C 153.039062 249.824219 153.613281 249.164062 153.101562 246.988281 C 152.652344 245.074219 152.105469 243.179688 151.480469 241.316406 C 145.285156 222.953125 139.066406 204.597656 132.847656 186.242188 C 131.851562 183.292969 130.820312 180.351562 129.761719 177.273438 C 97.65625 179.363281 65.671875 181.441406 33.371094 183.539062 Z M 239.871094 248.007812 C 240.007812 247.972656 240.144531 247.933594 240.277344 247.894531 C 240.546875 248.140625 240.96875 248.339844 241.054688 248.636719 C 241.28125 249.414062 241.460938 250.226562 241.480469 251.03125 C 241.53125 253.070312 241.480469 255.113281 241.476562 257.152344 C 241.472656 257.839844 241.5 258.414062 242.265625 258.851562 C 244.914062 260.367188 247.546875 261.921875 250.097656 263.597656 C 253.910156 266.105469 257.753906 268.554688 262.023438 270.21875 C 269.597656 273.160156 277.402344 273.394531 285.332031 272.117188 C 291.890625 271.058594 297.160156 268.042969 301.03125 262.492188 C 304.433594 257.621094 308.742188 253.539062 313.117188 249.523438 C 316.070312 246.816406 318.886719 243.941406 321.589844 240.984375 C 324.535156 237.765625 326.589844 233.992188 327.226562 229.628906 C 327.640625 226.8125 327.777344 223.949219 327.910156 221.101562 C 328.097656 217.164062 327.847656 213.179688 328.351562 209.285156 C 329.179688 202.886719 330.296875 196.511719 331.621094 190.199219 C 332.464844 186.164062 333.902344 182.253906 335.0625 178.324219 C 334.691406 177.417969 334.273438 176.4375 333.882812 175.445312 C 333.039062 173.296875 332.277344 171.113281 331.355469 169.003906 C 330.308594 166.617188 328.433594 165.148438 325.917969 164.445312 C 321.917969 163.332031 317.875 163.089844 313.792969 163.796875 C 301.46875 165.921875 291.21875 171.839844 282.808594 181.003906 C 281.589844 182.332031 280.585938 183.941406 279.796875 185.574219 C 278.34375 188.5625 278.554688 191.671875 279.921875 194.648438 C 280.707031 196.359375 281.84375 197.746094 283.996094 197.878906 C 284.546875 197.914062 285.0625 198.445312 285.539062 198.714844 C 284.898438 199.558594 284.222656 200.097656 284 200.785156 C 282.484375 205.535156 281.523438 210.390625 281.460938 215.402344 C 281.445312 216.929688 281.820312 218.265625 283.109375 219.152344 C 287.039062 221.859375 289.1875 225.878906 291.117188 230.027344 C 291.832031 231.554688 292.238281 233.226562 292.742188 234.847656 C 293.023438 235.757812 292.882812 236.628906 292.0625 237.226562 C 291.25 237.816406 290.332031 237.730469 289.570312 237.207031 C 288.742188 236.636719 287.941406 235.96875 287.3125 235.195312 C 286.59375 234.304688 286.089844 233.238281 285.46875 232.261719 C 284.632812 230.945312 283.824219 229.601562 282.90625 228.339844 C 282.277344 227.480469 281.480469 226.753906 279.9375 226.722656 C 280.121094 227.527344 280.160156 228.191406 280.425781 228.742188 C 280.960938 229.839844 281.601562 230.890625 282.242188 231.933594 C 283.390625 233.8125 284.171875 235.824219 284.546875 237.996094 C 284.695312 238.851562 285.101562 239.78125 284.164062 240.414062 C 283.5625 240.824219 282.789062 240.324219 282.136719 238.871094 C 281.078125 236.519531 280.199219 234.085938 279.160156 231.726562 C 278.484375 230.179688 277.707031 228.671875 276.882812 227.199219 C 276.667969 226.820312 276.109375 226.636719 275.402344 226.15625 C 275.402344 227.453125 275.390625 228.324219 275.40625 229.191406 C 275.414062 229.734375 275.542969 230.292969 275.460938 230.816406 C 275.410156 231.144531 275.117188 231.519531 274.828125 231.679688 C 274.683594 231.757812 274.234375 231.441406 274.042969 231.207031 C 273.839844 230.957031 273.773438 230.589844 273.65625 230.273438 C 272.714844 227.792969 271.832031 227.277344 269.347656 227.929688 C 261.6875 229.941406 253.953125 231.339844 245.988281 231.195312 C 243.980469 231.15625 242.121094 231.675781 240.460938 232.941406 C 239.386719 233.757812 238.855469 234.628906 238.980469 236.019531 C 239.078125 237.15625 238.992188 238.335938 238.773438 239.457031 C 238.679688 239.945312 238.082031 240.617188 237.640625 240.675781 C 237.21875 240.730469 236.582031 240.1875 236.265625 239.746094 C 235.878906 239.210938 235.777344 238.480469 235.472656 237.878906 C 235.046875 237.035156 234.65625 236.136719 234.050781 235.429688 C 233.089844 234.304688 231.933594 234.4375 231.257812 235.753906 C 230.480469 237.273438 230.074219 238.886719 230.617188 240.632812 C 231.492188 243.433594 232.097656 246.296875 232.101562 249.246094 C 232.101562 252.273438 231.996094 255.300781 231.933594 258.402344 C 234.476562 258.273438 237.164062 258.136719 240.054688 257.988281 C 240.410156 254.6875 240.445312 251.359375 239.871094 248.007812 Z M 141.984375 301.980469 C 140.96875 300.859375 140.164062 299.941406 139.328125 299.058594 C 134.761719 294.257812 129.628906 290.117188 124.316406 286.1875 C 117.921875 281.453125 111.523438 276.722656 105.101562 272.023438 C 104.652344 271.695312 104 271.5 103.4375 271.503906 C 98.746094 271.507812 94.046875 271.464844 89.355469 271.652344 C 83.5625 271.886719 77.792969 271.765625 72.042969 271.046875 C 68.664062 270.625 65.320312 270.039062 62.265625 268.378906 C 60.03125 267.167969 58.597656 265.414062 58.105469 262.894531 C 57.527344 259.929688 57.5625 256.953125 57.84375 253.960938 C 57.949219 252.832031 58.292969 251.585938 57.011719 251.210938 C 56.820312 250.140625 56.792969 249.269531 56.507812 248.492188 C 55.011719 244.402344 53.453125 240.339844 51.902344 236.273438 C 51.664062 235.65625 51.359375 235.0625 51.117188 234.527344 C 48.949219 234.5 48.945312 234.496094 47.558594 235.484375 C 41.84375 239.558594 37.917969 245.019531 35.3125 251.460938 C 34.390625 253.742188 33.742188 256.132812 34.21875 258.632812 C 34.769531 261.515625 35.605469 264.320312 37.023438 266.910156 C 39.316406 271.109375 42.601562 274.464844 46.359375 277.324219 C 51.230469 281.03125 56.230469 284.570312 61.179688 288.171875 C 67.945312 293.097656 74.71875 298.007812 81.480469 302.9375 C 88.769531 308.25 95.265625 314.433594 101.433594 320.984375 C 102.21875 321.816406 103.066406 322.589844 103.9375 323.441406 C 116.597656 316.296875 129.144531 309.222656 141.984375 301.980469 Z M 59.210938 254.015625 C 58.738281 257.628906 58.59375 260.957031 59.925781 264.097656 C 60.390625 265.195312 61.441406 266.265625 62.5 266.847656 C 64.203125 267.785156 66.082031 268.542969 67.980469 268.957031 C 72.167969 269.875 76.429688 270.355469 80.734375 270.332031 C 89.304688 270.289062 97.875 270.140625 106.445312 270.214844 C 112.703125 270.269531 118.972656 270.390625 125.203125 270.886719 C 132.039062 271.433594 138.839844 272.46875 145.65625 273.257812 C 154.898438 274.332031 164.113281 273.96875 173.3125 272.707031 C 180.871094 271.671875 187.332031 268.441406 192.546875 262.890625 C 194.015625 261.328125 195.125 259.417969 196.300781 257.601562 C 196.808594 256.808594 197.09375 255.855469 196.207031 254.683594 C 150.753906 254.460938 105.121094 254.238281 59.210938 254.015625 Z M 230.867188 55.808594 C 230.773438 56.21875 230.597656 56.796875 230.511719 57.390625 C 230.148438 59.949219 229.695312 62.5 229.484375 65.074219 C 228.859375 72.769531 228.964844 80.4375 230.921875 87.972656 C 232.058594 92.351562 233.695312 96.511719 236.425781 100.171875 C 239.292969 104.019531 242.945312 106.722656 247.757812 107.574219 C 251.703125 108.269531 255.476562 107.503906 259.101562 105.925781 C 263.988281 103.796875 268.0625 100.542969 271.734375 96.746094 C 272.097656 96.375 272.390625 95.933594 272.664062 95.585938 C 272.578125 95.378906 272.566406 95.304688 272.527344 95.257812 C 272.335938 95.066406 272.148438 94.871094 271.945312 94.691406 C 269.160156 92.234375 267.910156 89.144531 268.066406 85.4375 C 268.175781 82.75 268.765625 80.191406 269.917969 77.761719 C 270.992188 75.488281 272.203125 73.265625 273.125 70.929688 C 273.964844 68.792969 274.53125 66.546875 275.152344 64.328125 C 275.613281 62.699219 275.039062 61.300781 273.695312 60.390625 C 271.210938 58.714844 269.242188 56.632812 268.089844 53.964844 C 266.171875 53.496094 264.535156 53.535156 262.882812 54.574219 C 262.097656 55.066406 260.917969 55.105469 259.929688 55.054688 C 257.90625 54.960938 255.890625 54.664062 253.808594 54.445312 C 250.523438 57.753906 246.351562 57.234375 242.035156 56.804688 C 243.597656 59.875 243.773438 62.859375 242.820312 65.910156 C 242.394531 67.269531 241.992188 68.648438 241.449219 69.960938 C 240.46875 72.328125 239.390625 74.65625 238.328125 77.050781 C 239.398438 78.195312 240.429688 79.300781 241.472656 80.417969 C 240.695312 81.214844 240.144531 80.867188 239.640625 80.34375 C 239.027344 79.707031 238.4375 79.042969 237.84375 78.390625 C 236.617188 77.035156 236.667969 77.058594 237.449219 75.382812 C 238.601562 72.921875 239.746094 70.453125 240.753906 67.933594 C 241.640625 65.714844 242.195312 63.402344 241.988281 60.964844 C 241.679688 57.378906 239.53125 55.359375 235.957031 55.4375 C 234.875 55.460938 233.804688 55.699219 232.722656 55.796875 C 232.15625 55.847656 231.582031 55.808594 230.867188 55.808594 Z M 135.949219 373.386719 C 139.753906 372.851562 143.667969 372.394531 147.546875 371.734375 C 152.289062 370.933594 156.628906 368.945312 160.910156 366.839844 C 165.015625 364.824219 169.234375 363.089844 173.789062 362.417969 C 178.496094 361.722656 183.222656 361.175781 187.941406 360.574219 C 191.855469 360.074219 195.761719 359.5625 199.679688 359.109375 C 203.34375 358.691406 205.535156 356.496094 206.890625 353.269531 C 207.257812 352.394531 207.574219 351.492188 207.832031 350.578125 C 208.742188 347.371094 207.886719 344.574219 205.425781 342.453125 C 203.472656 340.773438 201.210938 339.472656 198.652344 338.824219 C 196.164062 338.195312 193.625 338.191406 191.160156 338.730469 C 186.914062 339.65625 182.6875 340.714844 178.503906 341.886719 C 172.011719 343.707031 165.484375 345.316406 158.75 345.941406 C 154.753906 346.3125 150.746094 346.5625 146.769531 347.0625 C 139.382812 347.988281 132.628906 350.398438 127.230469 355.832031 C 124.371094 358.707031 121.957031 361.890625 120.359375 365.628906 C 119.304688 368.097656 120.261719 370.234375 122.75 371.257812 C 123.496094 371.566406 124.285156 371.851562 125.082031 371.964844 C 128.644531 372.46875 132.214844 372.902344 135.949219 373.386719 Z M 219.988281 142.132812 C 219.320312 142.6875 218.648438 143.136719 218.109375 143.714844 C 215.925781 146.046875 213.664062 148.316406 211.65625 150.792969 C 206.835938 156.746094 203.144531 163.410156 199.859375 170.296875 C 197.488281 175.265625 195.382812 180.363281 192.925781 185.285156 C 191.050781 189.050781 188.988281 192.75 186.6875 196.265625 C 183.335938 201.394531 178.648438 204.402344 172.28125 204.511719 C 168.15625 204.585938 165.027344 206.558594 163.03125 210.222656 C 162.480469 211.238281 161.996094 212.292969 161.40625 213.285156 C 159.980469 215.679688 157.917969 216.835938 155.082031 216.390625 C 154.207031 216.253906 153.335938 216.089844 152.460938 215.996094 C 150.007812 215.734375 148.277344 216.671875 147.105469 218.863281 C 146.761719 219.507812 146.433594 220.167969 146.039062 220.933594 C 146.722656 222.933594 147.445312 225.039062 148.242188 227.371094 C 149.988281 226.90625 151.617188 226.496094 153.234375 226.042969 C 157.546875 224.832031 161.820312 223.441406 166.179688 222.417969 C 171.246094 221.230469 175.882812 222.378906 179.90625 225.765625 C 181.46875 227.082031 183.035156 228.386719 184.609375 229.683594 C 189.402344 233.632812 195.085938 233.953125 200.878906 233.855469 C 200.878906 231.367188 200.777344 229.054688 200.898438 226.753906 C 201.175781 221.429688 202.582031 216.292969 203.730469 211.125 C 204.5625 207.386719 204.152344 203.84375 202.777344 200.347656 C 202.453125 199.527344 202.082031 198.722656 201.695312 197.925781 C 200.050781 194.546875 199.886719 191.007812 200.511719 187.371094 C 201.265625 182.945312 203.179688 178.953125 205.191406 175.023438 C 209.128906 167.328125 212.636719 159.453125 215.789062 151.410156 C 217 148.324219 218.515625 145.359375 219.988281 142.132812 Z M 223.980469 254.609375 C 224.105469 253.476562 224.324219 252.671875 224.261719 251.886719 C 223.929688 247.6875 223.503906 243.496094 223.164062 239.296875 C 223.082031 238.28125 222.527344 237.824219 221.648438 237.6875 C 219.644531 237.367188 217.636719 237.058594 215.621094 236.832031 C 214.070312 236.65625 212.5 236.644531 210.945312 236.503906 C 206.007812 236.050781 201.078125 235.480469 196.132812 235.132812 C 191.394531 234.796875 187.035156 233.625 183.367188 230.445312 C 181.875 229.148438 180.351562 227.894531 178.820312 226.652344 C 175.339844 223.828125 171.339844 222.609375 166.988281 223.675781 C 160.890625 225.167969 154.878906 227.011719 148.695312 228.746094 C 149.117188 229.953125 149.445312 230.894531 149.800781 231.914062 C 152.046875 231.285156 154.121094 230.640625 156.226562 230.125 C 158.734375 229.511719 161.265625 229.003906 163.789062 228.449219 C 164.429688 228.308594 164.976562 228.34375 165.289062 229.40625 C 160.140625 230.3125 155.199219 231.582031 150.242188 233.359375 C 150.828125 235.046875 151.351562 236.558594 151.925781 238.210938 C 154.464844 237.519531 156.8125 236.867188 159.167969 236.25 C 160.351562 235.9375 161.546875 235.667969 162.746094 235.429688 C 163.4375 235.292969 164.097656 235.34375 164.28125 236.25 C 160.335938 237.3125 156.445312 238.363281 152.472656 239.429688 C 152.695312 240.855469 152.988281 241.996094 154.269531 242.773438 C 155.347656 242.449219 156.507812 242.070312 157.683594 241.757812 C 158.789062 241.460938 159.78125 240.464844 161.054688 241.054688 C 161.054688 241.300781 161.09375 241.527344 161.050781 241.550781 C 158.773438 242.5 156.488281 243.4375 154.042969 244.4375 C 154.28125 245.136719 154.53125 245.875 154.761719 246.542969 C 157.09375 247.035156 159.148438 246.390625 161.207031 246.03125 C 162.808594 245.75 164.324219 245.808594 165.800781 246.4375 C 168.046875 247.398438 170.328125 248.304688 172.492188 249.429688 C 176.472656 251.507812 180.574219 252.054688 184.941406 251.007812 C 189.5 249.914062 194.109375 249.949219 198.714844 250.738281 C 201.996094 251.300781 205.257812 252.015625 208.546875 252.511719 C 213.578125 253.265625 218.628906 253.886719 223.980469 254.609375 Z M 196.925781 251.8125 C 197.148438 252.632812 197.179688 253.140625 197.410156 253.527344 C 198.875 255.984375 197.816406 258.085938 196.539062 260.164062 C 196.289062 260.566406 196.023438 260.964844 195.726562 261.335938 C 191.039062 267.1875 185.210938 271.308594 177.863281 273.152344 C 173.152344 274.332031 168.359375 274.914062 163.53125 275.015625 C 158.4375 275.121094 153.324219 275.152344 148.246094 274.824219 C 143.304688 274.507812 138.382812 273.761719 133.46875 273.074219 C 125.097656 271.902344 116.660156 271.867188 108.238281 271.542969 C 107.894531 271.53125 107.542969 271.65625 106.929688 271.765625 C 113.433594 276.523438 119.691406 281.078125 125.921875 285.667969 C 132.171875 290.269531 138.03125 295.324219 143.21875 301.25 C 165.085938 288.859375 186.824219 276.542969 208.648438 264.175781 C 207.191406 262.382812 205.664062 261.148438 203.773438 260.457031 C 201.125 259.484375 199.941406 257.59375 199.933594 254.84375 C 199.929688 254.039062 199.835938 253.238281 199.78125 252.390625 C 198.859375 252.203125 198.078125 252.042969 196.925781 251.8125 Z M 104.785156 337.839844 C 103.117188 338.519531 101.605469 339.09375 100.128906 339.75 C 90.667969 343.980469 80.941406 343.523438 71.117188 341.433594 C 70.5625 341.3125 70.046875 341.132812 70.230469 340.097656 C 70.894531 340.132812 71.601562 340.105469 72.285156 340.214844 C 73.960938 340.484375 75.621094 340.859375 77.300781 341.117188 C 84.851562 342.269531 92.210938 341.644531 99.320312 338.707031 C 100.929688 338.039062 102.574219 337.449219 104.363281 336.757812 C 103.757812 335.402344 103.183594 334.039062 102.542969 332.703125 C 101.886719 331.324219 101.167969 329.96875 100.5625 328.773438 C 98.464844 329.570312 96.617188 330.519531 94.660156 330.953125 C 91.75 331.597656 88.769531 332 85.796875 332.285156 C 78.941406 332.945312 72.066406 332.472656 65.203125 332.371094 C 63.503906 332.347656 61.808594 332.121094 60.113281 332.078125 C 58.050781 332.023438 55.992188 332.0625 53.925781 332.0625 C 53.925781 332.191406 53.902344 332.269531 53.929688 332.308594 C 54.046875 332.476562 54.167969 332.644531 54.308594 332.789062 C 57.90625 336.449219 59.757812 340.902344 59.984375 345.972656 C 60.191406 350.488281 59.09375 354.613281 55.636719 357.832031 C 55.417969 358.03125 55.273438 358.304688 54.941406 358.746094 C 55.675781 358.8125 56.128906 358.890625 56.582031 358.886719 C 60.253906 358.859375 63.941406 359.019531 67.59375 358.730469 C 75.65625 358.097656 83.707031 357.289062 91.753906 356.449219 C 97.71875 355.828125 103.394531 354.371094 107.921875 349.867188 C 107.4375 345.796875 106.324219 341.773438 104.785156 337.839844 Z M 306.496094 299.824219 C 312.097656 296.753906 315.363281 291.828125 316.683594 285.5 C 317.84375 279.953125 317.5 274.40625 316.5 268.890625 C 315.476562 263.25 314.835938 257.597656 315.324219 251.855469 C 315.375 251.234375 315.285156 250.597656 315.242188 249.515625 C 313.574219 251.027344 312.253906 252.1875 310.976562 253.390625 C 307.253906 256.894531 303.964844 260.78125 300.875 264.851562 C 298.664062 267.769531 295.96875 270.152344 292.507812 271.476562 C 285.023438 274.339844 277.292969 274.832031 269.433594 273.632812 C 267.445312 273.328125 265.496094 272.765625 263.3125 272.273438 C 263.886719 273.519531 264.421875 274.523438 264.8125 275.582031 C 265.230469 276.714844 265.511719 277.894531 265.878906 279.140625 C 281.726562 281.257812 295.058594 288.355469 306.496094 299.824219 Z M 291.007812 119.003906 C 290.140625 117.976562 289.234375 117.367188 289.019531 116.570312 C 288.320312 113.9375 286.796875 112.746094 284.066406 112.308594 C 280.960938 111.8125 279.761719 109.40625 280.628906 106.328125 C 280.921875 105.292969 281.425781 104.3125 281.875 103.328125 C 282.640625 101.625 282.582031 101.011719 281.316406 99.664062 C 279.839844 98.09375 278.027344 97.09375 275.96875 96.445312 C 274.757812 96.0625 273.964844 96.320312 273.121094 97.253906 C 270.652344 99.984375 267.867188 102.378906 264.785156 104.402344 C 260.566406 107.171875 256.035156 109.046875 250.898438 109.160156 C 250.507812 109.171875 250.121094 109.238281 249.558594 109.296875 C 249.804688 111.882812 249.957031 114.378906 250.308594 116.84375 C 250.539062 118.464844 250.695312 120.046875 250.296875 121.644531 C 250 122.828125 249.71875 124.023438 249.316406 125.175781 C 248.933594 126.277344 249.265625 127.074219 250.21875 127.554688 C 251.242188 128.074219 252.308594 128.546875 253.414062 128.847656 C 257.171875 129.863281 261.015625 130.347656 264.90625 130.230469 C 273.867188 129.957031 282.328125 128.21875 289.097656 121.703125 C 289.972656 120.859375 290.972656 120.113281 291.007812 119.003906 Z M 58.632812 346.839844 C 58.605469 341.367188 56.183594 336.039062 52.332031 332.863281 C 51.546875 332.214844 50.765625 331.59375 49.628906 331.625 C 45.734375 331.734375 41.894531 332.097656 38.371094 333.960938 C 33.949219 336.304688 30.792969 339.492188 31.1875 344.984375 C 31.199219 345.117188 31.238281 345.28125 31.179688 345.386719 C 30.496094 346.703125 31.339844 347.742188 31.84375 348.804688 C 32.347656 349.855469 32.652344 351.175781 34.257812 351.164062 C 34.449219 351.164062 34.628906 351.53125 34.832031 351.703125 C 36.175781 352.828125 37.433594 354.082031 38.886719 355.039062 C 42.203125 357.222656 46.042969 357.832031 49.882812 358.433594 C 51.488281 358.6875 52.796875 358.238281 54.042969 357.324219 C 55.503906 356.25 56.570312 354.863281 57.316406 353.230469 C 58.265625 351.164062 58.726562 348.984375 58.632812 346.839844 Z M 101.105469 326.765625 C 105.75 335.496094 109.425781 344.296875 109.636719 354.378906 C 113.371094 353.25 116.925781 352.171875 120.484375 351.101562 C 121.21875 350.878906 121.378906 350.339844 121.328125 349.675781 C 121.175781 347.710938 121.132812 345.726562 120.839844 343.785156 C 119.953125 337.859375 117.699219 332.402344 114.777344 327.226562 C 113.921875 325.707031 112.734375 324.34375 111.542969 323.054688 C 110.484375 321.898438 109.296875 321.746094 108.050781 322.480469 C 105.773438 323.820312 103.550781 325.25 101.105469 326.765625 Z M 154.683594 248.21875 C 154.746094 249.503906 154.148438 250.511719 152.84375 250.949219 C 152.285156 251.140625 151.648438 251.171875 151.046875 251.175781 C 134.71875 251.269531 118.390625 251.367188 102.058594 251.425781 C 88.722656 251.472656 75.386719 251.464844 62.054688 251.484375 C 61.195312 251.484375 60.339844 251.484375 58.992188 251.484375 C 59.59375 252.128906 59.789062 252.511719 60.078125 252.601562 C 60.515625 252.738281 61.019531 252.683594 61.492188 252.6875 C 99.527344 252.855469 137.5625 253.019531 175.59375 253.175781 C 176.6875 253.179688 177.777344 253.082031 178.871094 253.035156 C 176.171875 252.664062 173.785156 251.507812 171.382812 250.390625 C 169.289062 249.417969 167.199219 248.417969 165.035156 247.625 C 164.066406 247.269531 162.90625 247.238281 161.859375 247.328125 C 159.5625 247.519531 157.285156 247.882812 154.683594 248.21875 Z M 292.171875 24.515625 C 291.125 20.714844 289.800781 17.101562 287.046875 14.285156 C 284.191406 11.363281 280.628906 9.46875 276.824219 8.164062 C 275.070312 7.566406 273.078125 7.394531 271.210938 7.453125 C 264.4375 7.667969 258.617188 10.457031 253.316406 14.492188 C 253.066406 14.6875 252.882812 14.964844 252.347656 15.554688 C 253.625 15.269531 254.457031 15.003906 255.308594 14.902344 C 258.132812 14.558594 260.976562 13.902344 263.78125 14.035156 C 272.5 14.445312 280.480469 17.421875 287.96875 21.785156 C 289.410156 22.625 290.773438 23.601562 292.171875 24.515625 Z M 249.054688 15.992188 C 249.710938 15.765625 250.074219 15.753906 250.246094 15.566406 C 252.449219 13.183594 255.191406 11.535156 257.941406 9.910156 C 262.695312 7.105469 267.871094 5.878906 273.363281 6.125 C 278.433594 6.355469 282.492188 9.019531 286.40625 11.878906 C 287.644531 12.78125 288.820312 13.945312 289.636719 15.234375 C 291.96875 18.925781 293.8125 22.855469 294.605469 27.207031 C 295.914062 34.382812 295.699219 41.542969 294.417969 48.695312 C 294.304688 49.328125 294.230469 49.964844 294.097656 50.910156 C 294.820312 50.503906 295.226562 50.277344 295.632812 50.054688 C 296.046875 49.828125 296.445312 49.546875 296.886719 49.386719 C 297.828125 49.042969 298.191406 48.402344 298.351562 47.417969 C 299.351562 41.261719 299.496094 35.105469 298.320312 28.960938 C 296.953125 21.800781 294.261719 15.257812 288.867188 10.148438 C 282.910156 4.503906 275.835938 2.554688 267.796875 4.257812 C 260.621094 5.78125 254.847656 9.71875 249.796875 14.859375 C 249.582031 15.078125 249.449219 15.375 249.054688 15.992188 Z M 183.046875 339.085938 C 182.246094 338.363281 181.746094 337.828125 181.160156 337.402344 C 179.679688 336.316406 178.101562 335.359375 176.679688 334.199219 C 175.308594 333.078125 174.03125 332.988281 172.375 333.613281 C 160.542969 338.085938 148.679688 342.464844 136.828125 346.882812 C 136.488281 347.007812 136.191406 347.246094 135.910156 347.410156 C 136.21875 348.390625 136.769531 348.039062 137.277344 347.894531 C 139.308594 347.332031 141.304688 346.550781 143.375 346.265625 C 148.152344 345.605469 152.953125 345.117188 157.757812 344.6875 C 166.28125 343.925781 174.464844 341.703125 183.046875 339.085938 Z M 283.007812 74.148438 C 283.019531 77.035156 283.132812 79.003906 284.089844 80.808594 C 285.25 82.992188 287.308594 84.050781 289.714844 83.488281 C 290.953125 83.199219 292.238281 82.761719 293.28125 82.0625 C 294.964844 80.933594 296.628906 79.691406 298.015625 78.226562 C 302.175781 73.847656 304.910156 68.632812 306.335938 62.765625 C 307.03125 59.902344 307.3125 56.984375 306.523438 54.082031 C 305.449219 50.132812 302.5 48.601562 298.679688 50.125 C 297.25 50.695312 295.824219 51.484375 294.652344 52.472656 C 287.648438 58.367188 283.867188 65.964844 283.007812 74.148438 Z M 196.457031 337.042969 C 192.96875 334.09375 189.777344 331.390625 186.417969 328.550781 C 183.261719 329.726562 179.925781 330.96875 176.476562 332.253906 C 176.753906 332.609375 176.839844 332.796875 176.988281 332.90625 C 179.324219 334.652344 181.640625 336.425781 184.03125 338.09375 C 184.503906 338.421875 185.332031 338.535156 185.898438 338.386719 C 189.253906 337.488281 192.660156 336.996094 196.457031 337.042969 Z M 222.585938 256.238281 C 222.53125 256.113281 222.476562 255.988281 222.421875 255.859375 C 215.367188 254.851562 208.316406 253.84375 201.039062 252.804688 C 201.171875 254.046875 201.230469 255.121094 201.414062 256.171875 C 201.746094 258.097656 203.324219 259.324219 205.3125 259.230469 C 206.9375 259.15625 208.558594 258.992188 210.183594 258.929688 C 212.414062 258.839844 214.648438 258.394531 216.875 259.003906 C 217.171875 259.085938 217.582031 259.058594 217.847656 258.914062 C 219.441406 258.050781 221.007812 257.136719 222.585938 256.238281 Z M 299.726562 28.535156 C 299.789062 28.929688 299.753906 29.207031 299.871094 29.3125 C 300.101562 29.515625 300.410156 29.636719 300.699219 29.765625 C 301.742188 30.242188 302.894531 30.5625 303.824219 31.203125 C 310.425781 35.726562 314.941406 41.773438 316.683594 49.652344 C 317.308594 52.492188 317.523438 55.429688 317.824219 58.332031 C 317.945312 59.472656 318.304688 60.351562 319.277344 61.070312 C 322.644531 46.777344 312.90625 31.847656 299.726562 28.535156 Z M 223.796875 67.648438 C 224.011719 65.125 223.210938 63.117188 222.191406 61.1875 C 219.425781 55.964844 218.566406 50.421875 219.386719 44.601562 C 219.621094 42.941406 219.933594 41.289062 220.230469 39.496094 C 214.722656 49.363281 216.800781 61.890625 223.796875 67.648438 Z M 292.464844 50.441406 C 290.058594 50.980469 288.433594 52.488281 287.113281 54.308594 C 282.699219 60.375 280.359375 67.121094 280.703125 74.683594 C 280.746094 75.597656 281.007812 76.496094 281.167969 77.402344 C 281.34375 77.390625 281.519531 77.378906 281.691406 77.363281 C 281.691406 76.113281 281.5625 74.84375 281.714844 73.605469 C 282.644531 66.007812 285.855469 59.457031 291.050781 53.882812 C 291.992188 52.875 292.480469 51.84375 292.464844 50.441406 Z M 315.570312 118.984375 C 315.441406 118.453125 315.417969 118.183594 315.308594 117.960938 C 315.175781 117.707031 314.960938 117.492188 314.78125 117.261719 C 314.570312 117.542969 314.210938 117.8125 314.179688 118.117188 C 314.0625 119.226562 314.644531 120.003906 315.753906 120.066406 C 316.535156 120.109375 317.476562 120.078125 318.101562 119.683594 C 319.511719 118.792969 320.933594 117.808594 322.054688 116.59375 C 324.253906 114.214844 325.019531 111.160156 325.488281 108.035156 C 326.265625 102.878906 325.566406 98.023438 322.46875 93.6875 C 321.132812 91.816406 319.621094 90.121094 317.3125 88.632812 C 318.886719 90.546875 320.320312 92.011719 321.4375 93.691406 C 325.664062 100.058594 325.3125 106.75 322.46875 113.492188 C 321.609375 115.53125 320.074219 117.121094 318.089844 118.160156 C 317.351562 118.546875 316.488281 118.695312 315.570312 118.984375 Z M 250.007812 129.171875 C 249.566406 128.808594 249.042969 128.382812 248.527344 127.945312 C 247.519531 127.097656 247.042969 127.011719 246.433594 128.113281 C 245.394531 130 244.535156 132 243.773438 134.019531 C 243.59375 134.5 243.929688 135.433594 244.34375 135.824219 C 245.238281 136.679688 246.308594 137.375 247.519531 137.777344 C 248.363281 134.859375 249.152344 132.132812 250.007812 129.171875 Z M 231.523438 54.792969 C 231.726562 54.746094 231.929688 54.699219 232.128906 54.652344 C 228.039062 39.105469 232.554688 26.84375 245.988281 17.9375 C 245.308594 18.113281 244.667969 18.3125 244.113281 18.652344 C 240.65625 20.769531 237.640625 23.386719 235.324219 26.734375 C 231.503906 32.261719 229.707031 38.425781 229.597656 45.121094 C 229.554688 47.785156 229.695312 50.421875 230.574219 52.960938 C 230.796875 53.601562 231.203125 54.183594 231.523438 54.792969 Z M 257.707031 140.707031 C 258.398438 137.664062 259.089844 134.609375 259.796875 131.503906 C 259.203125 131.40625 258.738281 131.328125 258.277344 131.253906 C 256.582031 130.984375 256.375 130.972656 255.777344 132.5 C 255.167969 134.0625 254.746094 135.722656 254.433594 137.371094 C 253.863281 140.371094 255.007812 140.617188 257.015625 140.796875 C 257.207031 140.8125 257.40625 140.746094 257.707031 140.707031 Z M 252.910156 139.90625 C 252.996094 136.5 253.726562 133.582031 255.136719 130.6875 C 253.78125 130.359375 252.566406 130.0625 251.171875 129.71875 C 250.574219 131.792969 250.003906 133.660156 249.503906 135.546875 C 249.261719 136.445312 249.148438 137.378906 248.949219 138.441406 C 250.273438 138.929688 251.457031 139.367188 252.910156 139.90625 Z M 274.296875 139.660156 C 275.101562 136.492188 275.195312 133.585938 274.324219 130.574219 C 273.28125 130.792969 272.378906 130.980469 271.441406 131.171875 C 271.441406 134.230469 271.441406 137.171875 271.441406 140.277344 C 272.488281 140.050781 273.402344 139.855469 274.296875 139.660156 Z M 279.542969 129.253906 C 280.140625 131.847656 280.703125 134.265625 281.304688 136.878906 C 282.597656 136.285156 283.804688 135.734375 285.125 135.128906 C 284.394531 132.621094 284.296875 130.0625 282.40625 128.089844 C 281.367188 128.511719 280.382812 128.910156 279.542969 129.253906 Z M 283.335938 285.417969 C 282.609375 287.460938 281.960938 289.289062 281.289062 291.183594 C 282.496094 291.972656 283.554688 292.664062 284.8125 293.488281 C 285.839844 291.425781 286.757812 289.570312 287.757812 287.5625 C 286.246094 286.832031 284.914062 286.183594 283.335938 285.417969 Z M 286.457031 125.726562 C 285.441406 126.351562 284.597656 126.871094 284.007812 127.238281 C 284.855469 129.703125 285.617188 131.914062 286.4375 134.304688 C 287.546875 133.570312 288.59375 132.878906 289.671875 132.164062 C 289.324219 129.628906 288.574219 127.464844 286.457031 125.726562 Z M 264.050781 131.632812 C 263.773438 134.867188 263.511719 137.925781 263.242188 141.105469 C 264.335938 141.085938 265.425781 141.527344 265.808594 140.253906 C 266.640625 137.476562 267.117188 134.644531 266.785156 131.632812 C 265.851562 131.632812 265.066406 131.632812 264.050781 131.632812 Z M 279.945312 137.53125 C 279.378906 134.773438 279.460938 132.109375 277.972656 129.714844 C 277.191406 129.933594 276.496094 130.125 275.972656 130.273438 C 275.972656 133.269531 275.972656 136.117188 275.972656 139.183594 C 277.363281 138.605469 278.53125 138.117188 279.945312 137.53125 Z M 242.246094 133.769531 C 242.917969 132.15625 243.398438 130.660156 244.144531 129.3125 C 244.875 127.988281 245.875 126.816406 246.742188 125.601562 C 245.074219 123.59375 244.515625 123.585938 243.230469 125.542969 C 242.5625 126.5625 241.886719 127.585938 241.324219 128.664062 C 239.605469 131.949219 239.917969 131.128906 242.246094 133.769531 Z M 287.9375 124.816406 C 289.011719 126.789062 290.105469 128.800781 291.378906 131.132812 C 291.972656 130.199219 292.839844 129.457031 292.863281 128.691406 C 292.9375 126.257812 292.136719 124.011719 290.714844 121.929688 C 289.652344 123.035156 288.738281 123.984375 287.9375 124.816406 Z M 310.359375 82.003906 C 310.496094 82.046875 310.636719 82.09375 310.773438 82.136719 C 311.84375 80.121094 312.925781 78.113281 313.980469 76.09375 C 315.832031 72.542969 317.433594 68.886719 318.519531 65.015625 C 318.804688 63.996094 318.917969 63.09375 317.777344 62.34375 C 317.675781 62.714844 317.59375 62.960938 317.542969 63.214844 C 316.808594 67.105469 315.597656 70.796875 313.46875 74.191406 C 312.433594 75.84375 311.703125 77.695312 310.941406 79.5 C 310.613281 80.277344 310.546875 81.164062 310.359375 82.003906 Z M 288.75 296.265625 C 289.871094 294.046875 290.863281 292.085938 291.933594 289.96875 C 290.785156 289.351562 289.871094 288.859375 288.824219 288.292969 C 287.824219 290.347656 286.910156 292.214844 285.933594 294.21875 C 286.785156 294.839844 287.589844 295.421875 288.75 296.265625 Z M 291.113281 120.234375 C 293.015625 122.601562 293.890625 125.203125 293.933594 128.242188 C 295.527344 126.625 296 125.527344 296.171875 123.339844 C 296.40625 120.28125 294.390625 118.886719 291.113281 120.234375 Z M 292.261719 298.695312 C 293.808594 296.585938 294.769531 294.433594 295.5 292.074219 C 294.613281 291.550781 293.878906 291.113281 293.054688 290.628906 C 291.960938 292.804688 290.9375 294.835938 289.84375 297.015625 C 290.605469 297.546875 291.355469 298.066406 292.261719 298.695312 Z M 261.578125 141.15625 C 262.53125 137.960938 262.8125 132.757812 261.929688 131.238281 C 259.757812 134.253906 259.96875 137.699219 259.007812 141.042969 C 260.074219 141.089844 260.847656 141.125 261.578125 141.15625 Z M 267.378906 140.609375 C 269.476562 140.742188 269.800781 140.675781 269.960938 139.554688 C 270.335938 136.886719 270.285156 134.203125 270.042969 131.394531 C 269.335938 131.453125 268.835938 131.492188 268.359375 131.535156 C 268.023438 134.652344 267.699219 137.628906 267.378906 140.609375 Z M 299.039062 294.984375 C 298.113281 294.160156 297.59375 293.359375 296.628906 293.195312 C 295.566406 295.40625 294.554688 297.503906 293.554688 299.582031 C 295.066406 300.890625 295.929688 300.875 296.816406 299.378906 C 297.632812 298.003906 298.269531 296.523438 299.039062 294.984375 Z M 254.0625 34.484375 C 253 35.988281 252.636719 37.703125 252.351562 39.429688 C 251.65625 43.636719 252.207031 47.652344 254.375 51.382812 C 254.855469 52.207031 255.371094 53.023438 256.765625 53.4375 C 255.484375 50.09375 253.640625 47.398438 253.230469 44.074219 C 252.824219 40.761719 253.425781 37.660156 254.0625 34.484375 Z M 274.917969 282.25 C 273.824219 282.027344 272.78125 281.820312 271.699219 281.605469 C 271.03125 283.128906 270.414062 284.539062 269.746094 286.070312 C 270.96875 286.40625 272.054688 286.703125 273.113281 286.992188 C 274.257812 285.542969 274.867188 284.082031 274.917969 282.25 Z M 230.421875 245.738281 C 230.15625 244.574219 229.894531 243.4375 229.597656 242.132812 C 227.988281 242.328125 226.609375 242.496094 225.089844 242.679688 C 225.191406 243.792969 225.273438 244.699219 225.367188 245.738281 C 227.121094 245.738281 228.660156 245.738281 230.421875 245.738281 Z M 302.558594 304.417969 C 303.015625 303.421875 303.457031 302.585938 303.785156 301.710938 C 304.570312 299.628906 304.511719 299.507812 302.484375 298.101562 C 301.660156 299.867188 300.839844 301.617188 299.941406 303.550781 C 300.835938 303.847656 301.640625 304.113281 302.558594 304.417969 Z M 276.46875 282.707031 C 275.835938 284.390625 275.253906 285.949219 274.613281 287.65625 C 275.371094 288.003906 276.136719 288.347656 277.140625 288.804688 C 277.804688 287.003906 278.398438 285.398438 279.050781 283.621094 C 278.054688 283.269531 277.261719 282.988281 276.46875 282.707031 Z M 225.605469 249.703125 C 227.425781 249.933594 229 250.136719 230.570312 250.335938 C 230.929688 247.839844 230.472656 247.1875 228.257812 247.003906 C 227.402344 246.933594 226.535156 246.992188 225.605469 246.992188 C 225.605469 247.945312 225.605469 248.722656 225.605469 249.703125 Z M 266.214844 285.414062 C 266.863281 285.542969 267.613281 285.691406 268.410156 285.847656 C 269.109375 284.269531 269.71875 282.882812 270.355469 281.441406 C 266.125 280.78125 265.710938 281.148438 266.0625 285.050781 C 266.070312 285.113281 266.113281 285.175781 266.214844 285.414062 Z M 194.546875 253.113281 C 194.339844 251.78125 193.554688 251.53125 192.5 251.527344 C 189.039062 251.515625 185.675781 252.15625 182.34375 253.113281 C 186.382812 253.113281 190.421875 253.113281 194.546875 253.113281 Z M 298.707031 303 C 299.5625 301.171875 300.347656 299.601562 301.039062 297.992188 C 301.457031 297.023438 301.160156 296.316406 300.023438 296.070312 C 298.980469 298.042969 297.972656 299.949219 296.914062 301.949219 C 297.433594 302.253906 297.949219 302.554688 298.707031 303 Z M 225.636719 252.871094 C 227.398438 253.347656 228.984375 253.777344 230.597656 254.214844 C 230.859375 252.160156 230.671875 251.8125 229.035156 251.46875 C 228.113281 251.273438 227.164062 251.203125 226.226562 251.109375 C 226.050781 251.09375 225.863281 251.230469 225.636719 251.308594 C 225.636719 251.792969 225.636719 252.253906 225.636719 252.871094 Z M 280.15625 290.394531 C 280.886719 288.4375 281.515625 286.753906 282.179688 284.964844 C 281.578125 284.71875 281.171875 284.550781 280.703125 284.359375 C 279.851562 286.035156 279.042969 287.628906 278.1875 289.316406 C 278.90625 289.710938 279.417969 289.992188 280.15625 290.394531 Z M 224.890625 241.390625 C 226.378906 241.207031 227.691406 241.046875 229.019531 240.882812 C 228.300781 238.070312 226.84375 237.535156 224.519531 239.136719 C 224.625 239.777344 224.734375 240.441406 224.890625 241.390625 Z M 225.863281 254.167969 C 225.023438 255.320312 225.183594 256.003906 226.199219 256.308594 C 227.519531 256.707031 228.871094 257 230.21875 257.335938 C 230.515625 255.765625 230.535156 255.703125 229.886719 255.472656 C 228.574219 255.003906 227.230469 254.605469 225.863281 254.167969 Z M 228.632812 236.71875 C 227.664062 234.503906 225.730469 234.109375 224.453125 235.636719 C 224.257812 235.867188 224.078125 236.335938 224.183594 236.53125 C 224.34375 236.824219 224.777344 237.171875 225.078125 237.152344 C 226.238281 237.085938 227.394531 236.882812 228.632812 236.71875 Z M 206.90625 260.53125 C 208.109375 261.597656 208.949219 262.335938 210.035156 263.296875 C 209.855469 262.066406 209.734375 261.234375 209.605469 260.347656 C 208.757812 260.40625 208.046875 260.453125 206.90625 260.53125 Z M 242.480469 50.144531 C 242.476562 52.40625 243.605469 54.476562 245.058594 54.792969 C 244.1875 53.222656 243.269531 51.566406 242.480469 50.144531 Z M 306.128906 302.121094 C 304.433594 302.300781 304.59375 303.519531 304.1875 304.554688 C 304.707031 304.652344 305.078125 304.722656 305.566406 304.816406 C 305.625 304.339844 305.648438 303.949219 305.726562 303.574219 C 305.820312 303.144531 305.960938 302.726562 306.128906 302.121094 Z M 211.617188 262.308594 C 212.722656 261.578125 212.257812 260.894531 211.632812 260.101562 C 210.535156 260.875 211.34375 261.605469 211.617188 262.308594 Z M 213.375 260.148438 C 213.949219 261.183594 213.949219 261.183594 215.132812 260.148438 C 214.507812 260.148438 213.976562 260.148438 213.375 260.148438 Z M 86.898438 213.808594 C 85.363281 213.351562 83.71875 213.101562 82.3125 212.382812 C 80.160156 211.285156 80.128906 209.136719 82.234375 207.949219 C 85.46875 206.125 88.875 206.117188 92.140625 207.851562 C 94.164062 208.925781 94.136719 210.9375 92.226562 212.230469 C 90.648438 213.300781 88.835938 213.515625 86.898438 213.808594 Z M 87.347656 207.8125 C 85.929688 208.207031 84.445312 208.453125 83.109375 209.046875 C 81.832031 209.613281 81.855469 210.6875 83.121094 211.296875 C 85.859375 212.613281 88.660156 212.5625 91.347656 211.136719 C 92.496094 210.527344 92.503906 209.523438 91.335938 208.992188 C 90.128906 208.441406 88.773438 208.21875 87.347656 207.8125 Z M 290.058594 198.320312 C 289.636719 197.085938 289.9375 196.347656 290.75 195.773438 C 294.277344 193.28125 298.09375 191.390625 302.269531 190.277344 C 303.789062 189.875 305.746094 190.78125 306.300781 191.984375 C 306.875 193.234375 306.472656 195.03125 305.101562 195.976562 C 303.949219 196.765625 302.625 197.476562 301.28125 197.769531 C 297.617188 198.570312 293.878906 198.371094 290.058594 198.320312 Z M 292.125 196.636719 C 295.25 197.074219 298.308594 197.085938 301.289062 196.375 C 302.484375 196.089844 303.609375 195.320312 304.640625 194.589844 C 305.242188 194.164062 305.507812 193.328125 305.101562 192.5625 C 304.683594 191.769531 303.914062 191.351562 303.054688 191.539062 C 299.039062 192.402344 295.417969 194.152344 292.125 196.636719 Z M 280.832031 259.597656 C 279.269531 259.300781 279.503906 258.417969 279.445312 257.75 C 279.265625 255.859375 279.296875 253.9375 278.953125 252.082031 C 278.449219 249.363281 277.699219 246.6875 277.03125 244 C 276.875 243.375 276.355469 242.738281 277.5 242.105469 C 280.222656 247.617188 280.617188 253.460938 280.832031 259.597656 Z M 315.976562 184.109375 C 317.433594 182.792969 319.191406 181.914062 321.042969 181.355469 C 324.039062 180.457031 327.078125 180.425781 330.027344 181.640625 C 330.855469 181.980469 331.8125 182.308594 331.769531 183.730469 C 331.34375 183.632812 331.007812 183.636719 330.765625 183.488281 C 327.316406 181.398438 323.785156 181.640625 320.226562 183.117188 C 319.230469 183.535156 318.328125 184.175781 317.34375 184.628906 C 317.003906 184.785156 316.550781 184.691406 316.148438 184.714844 C 316.089844 184.511719 316.035156 184.3125 315.976562 184.109375 Z M 257.617188 84.320312 C 257.503906 84.953125 257.519531 85.648438 257.25 86.210938 C 256.484375 87.792969 255.699219 89.386719 254.738281 90.855469 C 252.890625 93.671875 250.15625 94.984375 246.824219 95.089844 C 245.1875 95.140625 243.75 94.578125 242.546875 93.492188 C 241.492188 92.542969 240.464844 91.554688 239.511719 90.503906 C 239.289062 90.261719 239.425781 89.695312 239.398438 89.277344 C 239.757812 89.289062 240.246094 89.152344 240.449219 89.335938 C 242.722656 91.382812 245.332031 91.050781 247.941406 90.394531 C 250.621094 89.722656 252.953125 88.332031 255.007812 86.507812 C 255.492188 86.078125 255.773438 85.417969 256.183594 84.894531 C 256.433594 84.570312 256.757812 84.304688 257.046875 84.011719 C 257.238281 84.113281 257.429688 84.214844 257.617188 84.320312 Z M 243.722656 92.390625 C 245.871094 95.214844 251.933594 93.582031 253.683594 89.515625 C 252.03125 90.222656 250.492188 91.070312 248.847656 91.542969 C 247.175781 92.019531 245.398438 92.128906 243.722656 92.390625 Z M 240.351562 60.621094 C 239.40625 61.789062 238.535156 62.863281 237.644531 63.960938 C 237.972656 64.195312 238.394531 64.488281 238.859375 64.8125 C 238.691406 65.070312 238.621094 65.273438 238.476562 65.371094 C 238.324219 65.476562 238.101562 65.511719 237.910156 65.515625 C 236.730469 65.527344 235.546875 65.523438 234.332031 65.523438 C 233.738281 64.667969 234.691406 64.410156 234.914062 64.0625 C 234.53125 62.867188 234.1875 61.800781 233.796875 60.578125 C 233.109375 60.949219 232.386719 61.335938 231.242188 61.949219 C 231.480469 61.148438 231.476562 60.632812 231.730469 60.40625 C 233.328125 58.960938 235.183594 58.171875 237.320312 58.960938 C 238.386719 59.355469 239.652344 59.546875 240.351562 60.621094 Z M 265.632812 62.785156 C 264.738281 63.03125 264.738281 63.03125 262.21875 62.011719 C 262.589844 63.4375 261.003906 64.722656 262.847656 66.398438 C 260.792969 66.296875 259.316406 66.226562 257.503906 66.136719 C 258.746094 64.714844 257.882812 63.539062 257.539062 62.257812 C 257.019531 62.226562 256.488281 62.195312 255.894531 62.160156 C 257.230469 59.257812 262.960938 59.632812 265.632812 62.785156 Z M 255.789062 58.304688 C 259.613281 56.667969 263.40625 55.429688 266.753906 59.265625 C 266.796875 59.316406 266.859375 59.390625 266.910156 59.386719 C 267.25 59.375 267.589844 59.34375 268.289062 59.296875 C 266.933594 57.148438 265.332031 55.859375 263.160156 55.554688 C 260.394531 55.167969 257.769531 55.886719 255.304688 57.144531 C 254.730469 57.4375 254.09375 57.78125 254.351562 58.988281 C 254.96875 58.691406 255.371094 58.480469 255.789062 58.304688 Z M 180.847656 204.140625 C 181.410156 203.074219 182.035156 203.261719 182.5 203.691406 C 183.09375 204.234375 183.644531 204.867188 184.046875 205.558594 C 186.183594 209.253906 187.214844 213.347656 188.148438 217.460938 C 188.210938 217.738281 187.859375 218.105469 187.703125 218.433594 C 187.398438 218.242188 186.949219 218.121094 186.816406 217.847656 C 186.582031 217.371094 186.519531 216.808594 186.429688 216.273438 C 185.941406 213.371094 185.039062 210.597656 183.816406 207.925781 C 183.140625 206.453125 182.539062 204.929688 180.847656 204.140625 Z M 306.160156 57.464844 C 306.101562 60.882812 304.953125 63.945312 303.636719 66.929688 C 301.757812 71.191406 299.261719 75.09375 295.957031 78.390625 C 294.683594 79.664062 293.167969 80.796875 291.570312 81.628906 C 289.34375 82.789062 287.210938 82.140625 285.738281 80.304688 C 285.007812 79.398438 284.855469 78.351562 284.835938 77.246094 C 284.765625 73.507812 285.652344 69.9375 287.074219 66.542969 C 288.195312 63.859375 289.578125 61.265625 291.074219 58.765625 C 292.707031 56.035156 295.175781 54.109375 297.90625 52.480469 C 299.984375 51.242188 302.101562 51.089844 304.0625 52.304688 C 305.886719 53.441406 306.277344 55.464844 306.160156 57.464844 Z M 286.152344 76.070312 C 286.152344 76.574219 286.148438 76.710938 286.152344 76.847656 C 286.199219 80.304688 288.65625 81.8125 291.632812 80.121094 C 292.742188 79.488281 293.785156 78.667969 294.675781 77.753906 C 299.300781 72.992188 302.546875 67.402344 304.273438 60.980469 C 304.640625 59.617188 304.878906 58.160156 304.828125 56.761719 C 304.703125 53.238281 301.722656 51.824219 299.03125 53.339844 C 296.933594 54.519531 294.957031 55.863281 293.496094 57.757812 C 289.246094 63.257812 286.820312 69.511719 286.152344 76.070312 Z M 286.152344 76.070312 "/></g></g></svg>