<svg xmlns="http://www.w3.org/2000/svg" xmlns:xlink="http://www.w3.org/1999/xlink" width="500" zoomAndPan="magnify" viewBox="0 0 375 374.999991" height="500" preserveAspectRatio="xMidYMid meet" version="1.2"><defs><clipPath id="86e5cae1d1"><path d="M 0 6.796875 L 375 6.796875 L 375 367 L 0 367 Z M 0 6.796875 "/></clipPath></defs><g id="d4dd25ccfa"><g clip-rule="nonzero" clip-path="url(#86e5cae1d1)"><path style=" stroke:none;fill-rule:nonzero;fill:#000000;fill-opacity:1;" d="M 62.886719 366.214844 C 62.765625 366.09375 62.761719 346.085938 62.878906 321.753906 C 62.992188 297.421875 62.957031 267.011719 62.796875 254.175781 L 62.503906 230.84375 L 3.839844 230.84375 L 3.839844 228.980469 L 75.941406 228.964844 C 115.59375 228.957031 152.011719 228.839844 156.871094 228.707031 C 164.625 228.488281 167.0625 228.582031 176.839844 229.464844 C 182.964844 230.019531 190.308594 230.730469 193.160156 231.046875 C 196.011719 231.359375 202.578125 232.042969 207.753906 232.566406 C 212.929688 233.085938 218.632812 233.6875 220.425781 233.898438 C 228.105469 234.808594 241.835938 236.21875 242.988281 236.21875 C 244.488281 236.21875 244.535156 235.851562 243.265625 233.992188 C 241.535156 231.460938 240.691406 228.03125 240.722656 223.65625 C 240.742188 221.246094 240.59375 219.632812 240.339844 219.476562 C 240.113281 219.335938 237.730469 218.816406 235.042969 218.320312 C 228.742188 217.15625 222.164062 215.25 215.117188 212.546875 C 205.285156 208.777344 204.582031 208.53125 201.890625 207.964844 C 200.441406 207.660156 197.3125 207.410156 194.941406 207.410156 L 190.628906 207.410156 L 190.148438 208.738281 C 189.882812 209.464844 189.136719 210.511719 188.480469 211.0625 L 187.296875 212.058594 L 141.554688 211.808594 C 89.183594 211.519531 93.785156 211.871094 91.472656 208.003906 L 90.203125 205.882812 L 81.105469 205.941406 C 72.417969 206.003906 71.921875 206.046875 70.230469 206.894531 C 66.84375 208.59375 63.710938 209.355469 58.945312 209.636719 L 54.339844 209.90625 L 58.371094 210.148438 C 60.589844 210.28125 64.605469 210.410156 67.300781 210.4375 L 72.195312 210.484375 L 72.195312 212.378906 L 42.050781 212.382812 L 11.90625 212.390625 L 11.90625 210.484375 L 21.449219 210.484375 C 26.699219 210.484375 32.070312 210.371094 33.390625 210.234375 L 35.789062 209.984375 L 33.160156 209.3125 C 31.710938 208.941406 29.117188 208.019531 27.394531 207.257812 L 24.261719 205.875 L 14.050781 205.875 C 4.304688 205.875 3.839844 205.84375 3.839844 205.152344 C 3.839844 204.183594 6.410156 203.867188 13.570312 203.960938 C 23.027344 204.082031 22.65625 204.128906 22.65625 202.847656 C 22.65625 201.765625 22.71875 201.734375 25.554688 201.3125 C 27.144531 201.074219 29.910156 200.882812 31.695312 200.882812 C 33.484375 200.882812 34.945312 200.78125 34.945312 200.664062 C 34.945312 200.542969 34.449219 199.722656 33.84375 198.839844 C 30.996094 194.683594 29.585938 190.386719 29.574219 185.847656 C 29.566406 181.214844 30.207031 181.003906 45.3125 180.65625 C 55.195312 180.429688 63.992188 180.894531 65.851562 181.742188 C 66.761719 182.15625 67.1875 183.074219 67.199219 184.644531 C 67.203125 185.402344 67.3125 185.457031 68.1875 185.121094 C 68.730469 184.917969 69.925781 184.75 70.847656 184.75 C 72.195312 184.75 72.746094 184.972656 73.671875 185.902344 C 77.527344 189.757812 75.210938 197.1875 69.269531 200.019531 C 68.554688 200.359375 67.972656 200.78125 67.972656 200.953125 C 67.972656 201.125 69.050781 201.269531 70.371094 201.269531 C 73.191406 201.277344 74.726562 201.925781 74.609375 203.058594 C 74.53125 203.8125 74.789062 203.851562 81.660156 204.113281 C 85.582031 204.261719 88.894531 204.28125 89.019531 204.15625 C 89.144531 204.027344 89.023438 203.371094 88.75 202.691406 C 87.125 198.6875 79.941406 177.613281 76.804688 167.65625 C 76.203125 165.753906 73.109375 156.105469 69.921875 146.214844 C 66.738281 136.328125 64.132812 127.804688 64.132812 127.28125 C 64.132812 126.757812 64.554688 125.902344 65.074219 125.386719 C 65.917969 124.539062 66.34375 124.441406 69.203125 124.425781 C 70.953125 124.414062 74.203125 124.246094 76.417969 124.050781 C 78.636719 123.855469 83.097656 123.507812 86.332031 123.28125 C 95.933594 122.605469 95.488281 122.085938 101.203125 140.574219 C 105.007812 152.871094 109.101562 165.964844 112.921875 178.027344 C 114.796875 183.941406 116.792969 190.433594 117.359375 192.449219 L 118.386719 196.117188 L 120.347656 195.441406 C 122.082031 194.84375 123.296875 194.792969 130.769531 195 C 135.421875 195.132812 139.867188 195.117188 140.648438 194.96875 C 141.886719 194.738281 142.4375 194.21875 144.886719 190.972656 C 149.15625 185.320312 149.898438 184.964844 158.40625 184.480469 C 168.96875 183.875 169.167969 183.902344 175.496094 186.757812 C 185.953125 191.480469 189.046875 192.210938 207.5625 194.347656 C 214.542969 195.152344 236.976562 197.40625 238.148438 197.417969 C 238.726562 197.425781 238.734375 197.261719 238.246094 195.632812 C 237.503906 193.175781 237.570312 190.398438 238.449219 186.960938 C 239.414062 183.1875 240.828125 180.441406 242.878906 178.363281 C 244.457031 176.757812 244.539062 176.5625 244.792969 173.707031 C 245.386719 166.960938 248.773438 140.886719 250.152344 132.402344 C 251.128906 126.402344 252.632812 124.09375 263.84375 111.382812 C 266.855469 107.96875 269.707031 104.917969 270.179688 104.609375 C 271.542969 103.714844 273.464844 103.582031 275.734375 104.21875 C 276.890625 104.542969 279.191406 105.003906 280.84375 105.246094 C 284.804688 105.820312 288.0625 106.921875 290.578125 108.527344 C 291.703125 109.246094 292.621094 109.742188 292.621094 109.628906 C 292.621094 108.597656 289.671875 95.367188 289.097656 93.824219 C 288.277344 91.617188 286.527344 89.871094 285.128906 89.871094 C 284.632812 89.871094 282.183594 90.402344 279.6875 91.050781 C 274.101562 92.5 269.253906 92.554688 267.398438 91.183594 C 265.625 89.867188 264.503906 87.429688 264.289062 84.417969 C 264.125 82.128906 263.976562 81.699219 263.269531 81.429688 C 261.566406 80.785156 261.195312 79.585938 262.0625 77.535156 C 262.253906 77.085938 261.949219 76.6875 260.960938 76.105469 C 259.378906 75.171875 259.324219 74.835938 260.367188 72.480469 C 260.789062 71.523438 261.035156 70.472656 260.910156 70.144531 C 260.785156 69.820312 259.835938 69.269531 258.800781 68.925781 C 256.878906 68.289062 255.371094 66.859375 255.371094 65.675781 C 255.371094 65.316406 256.207031 63.914062 257.226562 62.558594 C 258.246094 61.207031 259.582031 59.238281 260.203125 58.183594 C 261.296875 56.308594 261.320312 56.148438 261.222656 51.546875 C 261.027344 42.621094 262.914062 34.195312 265.992188 30.238281 C 266.980469 28.96875 267.488281 28.027344 267.191406 28.027344 C 266.015625 28.027344 260.542969 32.179688 257.492188 35.382812 C 252.46875 40.664062 249.726562 45.085938 248.65625 49.628906 C 247.574219 54.203125 247.953125 56.144531 250.769531 60.457031 C 254.011719 65.429688 254.710938 67.074219 254.519531 69.292969 C 254.425781 70.378906 253.714844 72.6875 252.914062 74.507812 C 249.679688 81.859375 250.796875 85.648438 257.550781 90.246094 C 261.949219 93.238281 264.453125 95.792969 265.207031 98.066406 C 265.972656 100.371094 265.730469 103.121094 264.566406 105.382812 C 262.761719 108.878906 260.847656 110.003906 255.292969 110.835938 C 250.488281 111.554688 249.035156 111.464844 249.035156 110.457031 C 249.035156 109.886719 249.570312 109.574219 251.457031 109.039062 C 256.613281 107.585938 259.980469 104.5 259.980469 101.230469 C 259.980469 99.707031 258.523438 98.398438 254.582031 96.371094 C 249.925781 93.976562 247.457031 91.820312 245.78125 88.679688 C 243.609375 84.605469 243.730469 80.386719 246.191406 73.980469 C 247.980469 69.324219 247.851562 68.03125 245.050781 62.410156 C 241.207031 54.703125 240.816406 51.121094 243.128906 44.757812 C 247.5625 32.546875 263.6875 16.550781 277.089844 11.070312 C 279.785156 9.964844 280.65625 9.804688 284.558594 9.667969 C 286.984375 9.585938 289.578125 9.679688 290.316406 9.878906 C 291.460938 10.1875 291.992188 10.078125 293.878906 9.136719 C 297.277344 7.445312 300.414062 6.769531 303.5625 7.046875 C 311.191406 7.714844 322.90625 17.027344 331.664062 29.371094 C 334.113281 32.832031 335.832031 35.804688 340.429688 44.546875 C 342.484375 48.453125 345.808594 54.378906 347.8125 57.707031 C 352.144531 64.910156 353.507812 68.003906 354.488281 72.871094 C 355.433594 77.574219 355.792969 78.269531 359.429688 82.3125 C 364.820312 88.3125 366.570312 91.609375 366.980469 96.519531 C 367.269531 99.996094 366.425781 104.671875 364.566406 109.902344 C 363.359375 113.296875 363.234375 114.003906 363.476562 115.925781 C 364.121094 121.023438 363.632812 124.992188 361.550781 131.53125 C 359.839844 136.921875 359.519531 139.839844 360.363281 142.382812 C 361.074219 144.519531 362.554688 146.148438 364.148438 146.542969 C 365.460938 146.867188 365.789062 147.355469 365.1875 148.082031 C 364.496094 148.914062 362.976562 148.761719 361.121094 147.675781 L 359.472656 146.707031 L 360.992188 149.34375 C 361.828125 150.796875 362.511719 152.09375 362.511719 152.230469 C 362.511719 152.367188 363.285156 153.71875 364.226562 155.230469 C 366.351562 158.644531 366.726562 160.621094 365.652344 162.703125 C 364.136719 165.644531 362.316406 166.972656 356.753906 169.183594 C 354.746094 169.980469 352.613281 170.882812 352.015625 171.1875 C 350.496094 171.960938 349.296875 174.761719 349.617188 176.773438 C 350.1875 180.335938 352.074219 181.9375 356.144531 182.320312 C 358.195312 182.511719 358.671875 182.679688 358.671875 183.21875 C 358.671875 184.09375 357.902344 184.703125 356.523438 184.921875 C 355.910156 185.019531 354.742188 185.203125 353.929688 185.332031 C 352.5625 185.546875 352.496094 185.613281 353.050781 186.226562 C 353.382812 186.589844 353.921875 187.539062 354.253906 188.332031 C 354.839844 189.730469 354.894531 189.765625 356.285156 189.46875 C 357.070312 189.300781 359.09375 189.171875 360.785156 189.179688 C 363.324219 189.195312 364.230469 189.378906 366.015625 190.242188 C 368.863281 191.621094 371.515625 193.675781 372.882812 195.570312 L 373.992188 197.097656 L 374.984375 198.933594 L 374.984375 203.269531 C 374.984375 207.929688 374.644531 209.488281 369.824219 227 C 367.839844 234.210938 366.734375 238.972656 365.761719 244.480469 C 362.519531 262.882812 355.96875 294.25 354.460938 298.613281 C 354.027344 299.867188 353.078125 301.96875 352.355469 303.285156 L 351.042969 305.675781 L 353.476562 320.597656 C 354.8125 328.800781 357.058594 342.234375 358.460938 350.449219 C 359.867188 358.664062 360.925781 365.621094 360.816406 365.910156 C 360.589844 366.496094 359.597656 366.617188 359.273438 366.097656 C 359.160156 365.914062 358.539062 362.671875 357.894531 358.894531 C 357.25 355.121094 356.042969 348.054688 355.214844 343.195312 C 353.242188 331.648438 349.453125 309.136719 349.453125 308.957031 C 349.453125 308.390625 348.511719 309.167969 346.660156 311.265625 L 344.5 313.714844 L 346.582031 326.34375 C 349.496094 343.984375 352.910156 365.34375 352.910156 365.9375 C 352.910156 366.511719 351.53125 366.617188 351.191406 366.070312 C 351.066406 365.867188 350.097656 360.378906 349.039062 353.875 C 345.175781 330.144531 342.878906 316.300781 342.746094 315.882812 C 342.65625 315.609375 341.789062 315.839844 340.367188 316.515625 C 330.964844 320.976562 316.707031 321.972656 288.585938 320.136719 C 283.730469 319.816406 271.199219 319.449219 260.746094 319.316406 C 243.386719 319.097656 241.539062 319.132812 239.449219 319.742188 C 236.507812 320.601562 234.175781 322.289062 232.554688 324.734375 C 230.421875 327.960938 229.898438 330.066406 226.941406 347.421875 C 223.566406 367.238281 223.785156 366.238281 222.824219 366.289062 C 221.765625 366.339844 221.730469 365.691406 222.554688 361.058594 C 222.871094 359.261719 223.738281 354.25 224.476562 349.917969 C 227.832031 330.277344 228.609375 326.972656 230.605469 323.800781 C 232.082031 321.453125 234.601562 319.257812 236.867188 318.34375 C 238.976562 317.488281 239.433594 317.460938 250.839844 317.460938 C 257.324219 317.460938 262.507812 317.355469 262.359375 317.226562 C 262.210938 317.097656 260.015625 316.78125 257.480469 316.523438 C 251.308594 315.898438 243.777344 314.765625 236.550781 313.378906 C 228.460938 311.828125 227.71875 311.726562 227.71875 312.171875 C 227.71875 312.617188 225.378906 326.027344 224.28125 331.867188 C 223.863281 334.082031 222.472656 341.601562 221.191406 348.574219 C 217.570312 368.246094 218.0625 366.226562 216.859375 366.367188 C 216.285156 366.433594 215.816406 366.332031 215.816406 366.144531 C 215.816406 365.957031 216.671875 361.324219 217.722656 355.84375 C 222.703125 329.824219 227 305.609375 226.785156 304.785156 C 226.351562 303.136719 221.8125 301.253906 220.921875 302.355469 C 220.695312 302.636719 220.210938 304.246094 219.851562 305.9375 C 219.058594 309.636719 206.730469 363.464844 206.308594 365.0625 C 205.976562 366.3125 205.527344 366.59375 204.695312 366.070312 C 204.042969 365.65625 204.257812 364.675781 215.089844 318.113281 C 216.382812 312.558594 217.378906 307.964844 217.300781 307.914062 C 216.847656 307.59375 212.09375 305.742188 211.734375 305.746094 C 211.132812 305.746094 210.585938 307.304688 209.851562 311.121094 C 209.160156 314.707031 206.851562 325.125 204.101562 337.050781 C 203.125 341.277344 201.730469 347.390625 201 350.636719 C 197.570312 365.875 197.390625 366.488281 196.484375 366.210938 C 196.027344 366.070312 195.621094 365.929688 195.582031 365.898438 C 195.539062 365.867188 195.847656 364.289062 196.265625 362.394531 C 197.027344 358.941406 197.6875 356.054688 201.953125 337.433594 C 207.167969 314.6875 208.5625 308.050781 208.128906 308.050781 C 207.148438 308.050781 200.964844 312.859375 198.023438 315.90625 C 193.6875 320.402344 193.15625 321.53125 191.988281 328.757812 C 190.289062 339.28125 188.253906 346.09375 183.21875 358.136719 C 180.238281 365.253906 179.601562 366.4375 178.738281 366.4375 C 177.570312 366.4375 177.828125 365.335938 180.308594 359.699219 C 183.199219 353.140625 186.59375 343.820312 187.734375 339.335938 C 188.160156 337.65625 189.210938 332.523438 190.074219 327.925781 C 192.289062 316.082031 193.722656 312.597656 198.34375 307.84375 C 202.929688 303.117188 206.972656 301.269531 215.90625 299.800781 C 220.726562 299.007812 223.066406 298.835938 229.0625 298.84375 C 233.078125 298.847656 238.429688 299.007812 240.957031 299.207031 C 243.484375 299.402344 245.597656 299.515625 245.652344 299.460938 C 245.707031 299.40625 243.3125 298.632812 240.328125 297.742188 C 233.3125 295.644531 228.136719 293.628906 220.941406 290.183594 C 215.53125 287.59375 213.335938 286.414062 205.265625 281.773438 L 202.203125 280.007812 L 195.085938 280.023438 C 184.148438 280.042969 180.574219 280.957031 177.308594 284.574219 C 174.558594 287.617188 173.464844 290.785156 172.226562 299.261719 C 171.136719 306.738281 169.835938 311.09375 163.882812 327.253906 C 159.78125 338.390625 155.722656 350.398438 152.785156 360.097656 C 150.84375 366.507812 150.644531 366.863281 149.445312 366.097656 C 149.027344 365.835938 149.085938 365.253906 149.769531 362.9375 C 151.832031 355.925781 157.289062 339.367188 160.136719 331.480469 C 169.324219 306.019531 168.832031 307.613281 170.117188 299.214844 C 171.453125 290.5 173.023438 286.03125 175.824219 282.992188 C 179.03125 279.511719 182.667969 278.347656 191.8125 277.867188 L 197.191406 277.585938 L 195.269531 276.703125 C 187.128906 272.96875 179.695312 274.238281 171.703125 280.734375 C 170.78125 281.484375 167.839844 284.609375 165.164062 287.679688 C 160.960938 292.511719 157.800781 296.308594 146.308594 310.351562 C 137.890625 320.636719 128.792969 332.175781 122.710938 340.277344 C 118.78125 345.507812 112.988281 354.476562 112.378906 356.265625 C 111.632812 358.457031 111.574219 361.011719 112.203125 363.746094 C 112.578125 365.363281 112.566406 365.78125 112.140625 366.042969 C 111.226562 366.609375 110.667969 366.039062 110.195312 364.066406 C 109.460938 361.011719 109.882812 356.675781 111.179688 353.953125 C 114.785156 346.363281 131.636719 324.378906 159.257812 291.246094 C 169.863281 278.523438 174.394531 274.84375 181.636719 273.074219 C 188.296875 271.445312 195.253906 273.511719 208.136719 280.953125 C 219.554688 287.550781 226.953125 291.027344 235.976562 294.039062 C 244.035156 296.726562 255.367188 299.960938 256.789062 299.976562 C 257.042969 299.980469 256.457031 298.644531 255.484375 297.007812 C 251.058594 289.542969 245.835938 274.652344 240.429688 254.082031 C 236.5 239.128906 236.027344 237.964844 233.753906 237.574219 C 232.085938 237.289062 217.511719 235.699219 203.597656 234.285156 C 193.582031 233.269531 187.734375 232.722656 166.199219 230.804688 C 162.59375 230.480469 160.371094 230.480469 157.6875 230.796875 C 148.746094 231.851562 147.246094 233.804688 137.324219 257.347656 C 133.1875 267.15625 127.761719 279.65625 119.238281 299.023438 C 110.171875 319.628906 101.953125 336.566406 98.050781 342.71875 C 96.605469 344.988281 93.699219 349.296875 91.585938 352.292969 C 89.472656 355.292969 86.394531 359.65625 84.746094 361.992188 C 83.09375 364.332031 81.539062 366.285156 81.289062 366.339844 C 81.039062 366.390625 80.597656 366.285156 80.3125 366.101562 C 79.589844 365.632812 79.816406 365.257812 86.199219 356.257812 C 98.46875 338.949219 102.039062 332.582031 112.058594 310.140625 C 113.089844 307.828125 114.292969 305.160156 114.726562 304.207031 C 115.160156 303.257812 117.371094 298.246094 119.632812 293.070312 C 121.898438 287.894531 125.304688 280.113281 127.199219 275.785156 C 129.097656 271.453125 133.070312 262.207031 136.03125 255.234375 C 142.972656 238.878906 144.261719 236.335938 147.027344 233.488281 C 148.246094 232.238281 149.15625 231.128906 149.054688 231.027344 C 148.953125 230.925781 129.886719 230.84375 106.691406 230.84375 L 64.515625 230.84375 L 64.515625 298.640625 C 64.515625 364.125 64.492188 366.4375 63.8125 366.4375 C 63.425781 366.4375 63.007812 366.335938 62.886719 366.214844 Z M 324.046875 318.410156 C 331.214844 317.785156 338.097656 315.851562 341.988281 313.371094 C 344.320312 311.882812 343.695312 311.488281 341.09375 312.808594 C 339.007812 313.867188 333.703125 315.4375 329.976562 316.105469 C 325.78125 316.851562 315.59375 317.976562 310.070312 318.300781 C 305.464844 318.570312 305.066406 318.640625 307.214844 318.808594 C 310.722656 319.082031 318.460938 318.898438 324.046875 318.410156 Z M 302.605469 316.691406 C 333.164062 315.042969 342.902344 312.449219 347.96875 304.613281 C 348.933594 303.117188 349.414062 301.519531 348.898438 301.519531 C 348.800781 301.519531 348.105469 301.9375 347.351562 302.449219 C 342.613281 305.667969 327.597656 309.132812 313.03125 310.375 C 307.789062 310.824219 282.882812 310.691406 278.414062 310.191406 C 277.460938 310.085938 274.179688 309.8125 271.117188 309.582031 C 256.167969 308.460938 233.394531 305.097656 229.308594 303.40625 C 228.515625 303.078125 228.4375 303.117188 228.691406 303.714844 C 229.054688 304.566406 229.058594 305.054688 228.699219 307.496094 L 228.410156 309.441406 L 229.890625 309.878906 C 236.226562 311.742188 253.617188 314.292969 275.148438 316.507812 C 283.476562 317.367188 289.417969 317.40625 302.605469 316.691406 Z M 203.722656 308.410156 C 205.199219 307.449219 207.417969 306.097656 208.652344 305.410156 C 209.886719 304.722656 211.617188 303.636719 212.492188 302.992188 L 214.089844 301.820312 L 212.746094 302.097656 C 209.925781 302.675781 205.363281 304.714844 203.128906 306.394531 C 200.546875 308.335938 197.683594 311.472656 196.25 313.925781 C 195.34375 315.484375 195.410156 315.445312 198.171875 312.851562 C 199.746094 311.371094 202.242188 309.375 203.722656 308.410156 Z M 319.503906 307.695312 C 333.605469 305.738281 344.183594 302.765625 347.898438 299.707031 C 348.8125 298.953125 348.824219 298.886719 348.335938 296.675781 C 348.058594 295.429688 347.171875 292.320312 346.363281 289.757812 C 343.550781 280.855469 342.808594 273.773438 343.863281 265.925781 C 347.25 240.800781 350.878906 224.964844 357.136719 207.945312 C 359.9375 200.339844 361.589844 197.191406 364.109375 194.683594 L 366.285156 192.515625 L 364.695312 191.800781 C 362.429688 190.78125 357.726562 190.84375 354.449219 191.9375 C 350.8125 193.152344 350.058594 193.1875 349.910156 192.148438 C 349.816406 191.488281 350.101562 191.140625 351.160156 190.636719 C 352.773438 189.867188 352.867188 189.277344 351.578125 187.988281 C 350.523438 186.933594 350.015625 186.960938 346.574219 188.285156 C 343.535156 189.457031 341.523438 190.78125 340.65625 192.183594 C 339.976562 193.285156 339.859375 194.082031 339.867188 197.46875 C 339.878906 201.464844 340.476562 205.53125 342.320312 214.132812 C 342.863281 216.667969 343.304688 219.691406 343.300781 220.855469 C 343.292969 223.355469 342.3125 225.753906 340.8125 226.933594 C 339.644531 227.855469 336.976562 228.703125 336.390625 228.339844 C 335.878906 228.023438 335.917969 228.550781 336.539062 230.3125 C 337.335938 232.582031 340.121094 245.410156 340.988281 250.816406 C 342.429688 259.785156 342.921875 265.511719 342.921875 273.289062 C 342.925781 284.902344 341.917969 289.789062 338.433594 295.082031 C 335.851562 299.007812 331.917969 301.84375 325.789062 304.203125 C 317.480469 307.40625 311.484375 307.992188 296.105469 307.121094 C 290.492188 306.800781 281.667969 306.351562 276.492188 306.121094 C 265.140625 305.613281 263.488281 305.355469 260.742188 303.660156 C 257.800781 301.84375 255.707031 301.632812 234.058594 300.949219 C 230.203125 300.828125 228.136719 300.890625 228.507812 301.113281 C 229.96875 301.992188 245.875 304.722656 257.484375 306.085938 C 265.753906 307.054688 266.628906 307.140625 275.917969 307.851562 C 286.953125 308.703125 287.707031 308.726562 301.261719 308.617188 C 311.335938 308.535156 314.621094 308.371094 319.503906 307.695312 Z M 218.398438 303.824219 C 218.851562 301.546875 218.75 301.515625 215.832031 303.027344 L 213.734375 304.113281 L 215.449219 304.914062 C 216.390625 305.355469 217.355469 305.722656 217.589844 305.730469 C 217.828125 305.738281 218.191406 304.882812 218.398438 303.824219 Z M 319.3125 304.246094 C 331.992188 300.714844 338.308594 295.015625 340.089844 285.496094 C 341.953125 275.554688 340.710938 257.148438 337.121094 241.546875 L 336.355469 238.230469 L 334.230469 237.417969 C 333.0625 236.96875 331.976562 236.605469 331.816406 236.605469 C 331.65625 236.605469 331.417969 239.414062 331.289062 242.847656 C 330.859375 254.175781 328.074219 269.226562 324.234375 280.96875 C 322.414062 286.53125 321.304688 288.6875 319.886719 289.417969 C 316.984375 290.921875 315.550781 289.28125 309.726562 277.753906 C 304.914062 268.230469 301.609375 262.6875 298.691406 259.222656 C 297.140625 257.386719 297.101562 257.363281 296.667969 258.210938 C 296.324219 258.882812 295.917969 259.066406 294.824219 259.03125 C 293.394531 258.988281 291.542969 257.902344 277.835938 249.070312 C 275.089844 247.300781 271.601562 245.234375 270.078125 244.480469 L 267.3125 243.109375 L 265 244.082031 C 260.710938 245.890625 256.054688 246.023438 252.980469 244.433594 C 252.289062 244.078125 250.6875 242.796875 249.421875 241.589844 C 248.152344 240.382812 246.738281 239.199219 246.277344 238.960938 C 245.816406 238.71875 243.851562 238.523438 241.910156 238.523438 C 238.738281 238.523438 238.40625 238.589844 238.574219 239.195312 C 238.679688 239.566406 240.160156 245.054688 241.867188 251.390625 C 251.144531 285.875 257.796875 301.285156 264.179688 303.054688 C 265.878906 303.527344 268.082031 303.679688 284.171875 304.445312 C 291.25 304.78125 297.125 305.140625 297.230469 305.242188 C 297.335938 305.34375 301.65625 305.355469 306.828125 305.265625 C 315.070312 305.121094 316.621094 304.996094 319.3125 304.246094 Z M 351.964844 294.914062 C 352.9375 293.121094 353.625 289.777344 354.269531 283.738281 C 355.511719 272.074219 356.976562 265.964844 369.164062 221.589844 C 371.800781 211.992188 373.265625 205.460938 373.265625 203.3125 C 373.265625 201.199219 372.3125 199.34375 371.226562 199.34375 C 370.203125 199.34375 367.78125 200.847656 366.699219 202.15625 C 365.410156 203.710938 363.589844 207.835938 361.355469 214.28125 C 358.085938 223.699219 355.207031 234.003906 351.953125 247.9375 C 349.609375 257.972656 348.304688 267.328125 348.304688 274.078125 C 348.304688 277.9375 349.527344 290.296875 350.445312 295.730469 C 350.683594 297.128906 350.800781 297.066406 351.964844 294.914062 Z M 319.898438 286.441406 C 320.667969 285.199219 323.367188 277.027344 324.8125 271.558594 C 327.554688 261.214844 329.511719 246.949219 329.410156 238.070312 L 329.371094 234.730469 L 326.835938 234.417969 C 324.070312 234.078125 305.003906 234.195312 290.703125 234.640625 L 281.675781 234.921875 L 271.863281 241.015625 L 274.660156 241.449219 C 278.292969 242.015625 281.703125 242.972656 285.558594 244.515625 C 294.574219 248.121094 304.910156 253.75 304.910156 255.050781 C 304.910156 256.378906 303.828125 256.089844 299.707031 253.660156 C 297.414062 252.308594 295.375 251.199219 295.183594 251.199219 C 294.734375 251.199219 295.210938 251.84375 298.933594 256.242188 C 303.269531 261.363281 305.847656 265.523438 310.929688 275.59375 C 317.316406 288.246094 318.160156 289.261719 319.898438 286.445312 Z M 346.597656 274.152344 C 346.621094 264.566406 346.929688 261.996094 349.488281 249.855469 C 352.363281 236.238281 359.214844 213.09375 362.675781 205.316406 C 364.734375 200.691406 368.140625 197.425781 370.910156 197.425781 C 371.75 197.425781 371.75 197.40625 371.074219 196.496094 C 370.339844 195.507812 368.632812 194.351562 367.910156 194.351562 C 367.667969 194.351562 366.628906 195.140625 365.59375 196.109375 C 362.914062 198.617188 360.789062 203.210938 356.976562 214.753906 C 352.683594 227.757812 350.65625 236.128906 348.15625 251.199219 C 345.179688 269.144531 344.878906 272.621094 345.769531 278.523438 C 346.105469 280.769531 346.382812 282.710938 346.382812 282.84375 C 346.382812 282.976562 346.425781 283.082031 346.480469 283.082031 C 346.53125 283.082031 346.585938 279.0625 346.597656 274.152344 Z M 356.632812 280.496094 C 356.539062 280.125 356.449219 280.335938 356.441406 280.96875 C 356.4375 281.601562 356.515625 281.910156 356.621094 281.648438 C 356.726562 281.390625 356.730469 280.871094 356.632812 280.496094 Z M 359 269.402344 C 360.140625 263.929688 360.425781 261.992188 360.042969 262.378906 C 359.746094 262.675781 356.75 277.894531 356.796875 278.867188 C 356.824219 279.390625 357.058594 278.78125 357.316406 277.511719 C 357.578125 276.246094 358.335938 272.59375 359 269.402344 Z M 294.925781 256.78125 C 294.925781 256.128906 292.984375 253.660156 290.496094 251.140625 C 287.371094 247.980469 284.332031 246.136719 279.949219 244.738281 C 277.886719 244.082031 273.53125 243.121094 272.679688 243.136719 C 272.558594 243.140625 274.015625 244.097656 275.917969 245.265625 C 277.816406 246.433594 282.65625 249.539062 286.667969 252.164062 C 293.167969 256.417969 294.925781 257.398438 294.925781 256.78125 Z M 263.125 242.511719 C 266.3125 241.503906 270.347656 239.855469 270.347656 239.5625 C 270.347656 239.476562 269.460938 239.546875 268.371094 239.71875 C 266.515625 240.011719 264.214844 239.875 255.371094 238.929688 C 250.910156 238.449219 249.996094 238.433594 249.996094 238.835938 C 249.996094 239.53125 252.613281 241.769531 254.410156 242.613281 C 256.925781 243.789062 259.167969 243.761719 263.125 242.511719 Z M 263.59375 237.523438 C 262.726562 237.214844 260.882812 236.027344 259.492188 234.878906 C 257.351562 233.113281 256.699219 232.261719 255.207031 229.28125 C 254.242188 227.347656 253.199219 224.875 252.890625 223.789062 C 251.832031 220.050781 251.148438 213.683594 251.144531 207.554688 L 251.144531 201.457031 L 249.554688 199.601562 C 247.851562 197.617188 246.511719 196.875 245.308594 197.257812 C 244.597656 197.484375 244.570312 197.851562 244.6875 205.148438 L 244.8125 212.808594 L 248.507812 220 C 252.375 227.519531 254.355469 232.347656 253.976562 233.335938 C 253.394531 234.851562 252.414062 233.761719 249.625 228.480469 C 246.574219 222.703125 244.046875 219.398438 242.988281 219.804688 C 242.46875 220.003906 242.402344 220.5625 242.554688 223.425781 C 242.78125 227.542969 243.550781 230.464844 245.027344 232.785156 C 247.167969 236.148438 247.40625 236.265625 253.140625 236.667969 C 255.953125 236.867188 259.546875 237.261719 261.132812 237.542969 C 264.886719 238.210938 265.523438 238.207031 263.59375 237.523438 Z M 273.0625 236.378906 C 276.09375 235.496094 280.378906 233.089844 284.144531 230.15625 C 288.855469 226.488281 295.40625 220.351562 298.839844 216.390625 C 304.890625 209.410156 305.6875 208.414062 308.246094 204.636719 C 309.683594 202.515625 311.628906 199.8125 312.566406 198.632812 L 314.273438 196.488281 L 314.183594 193.402344 C 314.023438 187.902344 315.578125 181.675781 320.082031 169.769531 C 327.882812 149.128906 329.707031 137.46875 326.21875 130.574219 C 325.121094 128.414062 322.773438 126.230469 320.863281 125.601562 C 318.636719 124.863281 314.308594 125.253906 311.824219 126.410156 C 307.917969 128.226562 306.113281 130.875 301.265625 141.917969 C 296.457031 152.871094 283.886719 176.996094 279.714844 183.277344 C 276.078125 188.753906 270.984375 192.816406 267.75 192.816406 C 265.980469 192.816406 261.828125 195.796875 260.542969 197.988281 C 259.582031 199.625 259.582031 199.636719 260.019531 204.382812 C 260.484375 209.433594 260.28125 216.261719 259.59375 218.640625 C 259.363281 219.433594 258.832031 220.261719 258.414062 220.488281 C 255.765625 221.902344 254.164062 217.347656 254.078125 208.179688 C 254.023438 202.523438 254.109375 202.242188 256.96875 198.535156 C 258.152344 197 258.0625 196.65625 256.476562 196.65625 C 255.117188 196.65625 253.949219 197.890625 253.398438 199.90625 C 252.824219 202.003906 253.246094 215.554688 254 219.246094 C 255.859375 228.347656 259.652344 233.914062 265.546875 236.203125 C 267.914062 237.121094 270.328125 237.175781 273.0625 236.378906 Z M 335.253906 233.175781 C 335.023438 232.3125 334.453125 231.363281 333.984375 231.0625 C 331.777344 229.640625 323.324219 228.277344 314.511719 227.917969 C 309.65625 227.71875 294.609375 228.203125 290.230469 228.695312 C 289.332031 228.796875 288.246094 229.542969 284.964844 232.308594 C 284.46875 232.726562 285.738281 232.777344 292.429688 232.597656 C 325.570312 231.714844 327.25 231.78125 332.367188 234.238281 C 335.738281 235.855469 335.957031 235.777344 335.253906 233.175781 Z M 327.949219 226.699219 C 327.949219 226.300781 321.46875 223.761719 318.542969 223.019531 C 314.171875 221.902344 310.113281 221.609375 304.964844 222.035156 C 296.980469 222.695312 295.835938 222.949219 293.925781 224.515625 C 293 225.277344 292.238281 226.054688 292.238281 226.246094 C 292.238281 226.441406 293.542969 226.5 295.214844 226.375 C 305.976562 225.59375 318.890625 225.6875 324.304688 226.589844 C 326.917969 227.027344 327.949219 227.058594 327.949219 226.699219 Z M 339.242188 225.445312 C 341.875 223.132812 341.917969 221.578125 339.59375 211.578125 C 338.195312 205.542969 338.136719 205.027344 338.136719 198.382812 C 338.132812 190.488281 338.363281 189.277344 341.976562 177.972656 L 344.078125 171.390625 L 344.078125 165.296875 C 344.074219 148.714844 340.796875 132.429688 335.238281 121.367188 C 333.265625 117.4375 329.640625 112.011719 327.289062 109.460938 L 325.34375 107.347656 L 322.882812 107.355469 C 319.449219 107.363281 316.558594 108.875 308.941406 114.632812 C 305.5625 117.1875 301.414062 120.25 299.726562 121.4375 C 293.589844 125.75 292.191406 127.5 285.53125 139.230469 C 278.707031 151.242188 271.554688 161.527344 268.917969 163.121094 C 268.121094 163.605469 267.046875 163.960938 266.527344 163.90625 C 265.730469 163.828125 265.472656 164.105469 264.804688 165.734375 C 264.105469 167.4375 264.019531 168.4375 264.050781 174.570312 C 264.082031 181.539062 264.585938 186.039062 265.632812 188.679688 C 266.117188 189.898438 266.308594 190.054688 266.914062 189.730469 C 270.382812 187.871094 283.226562 163.449219 292.054688 141.917969 C 297.515625 128.597656 300.714844 123.199219 306.175781 118.097656 C 313.367188 111.371094 319.878906 109.851562 326.457031 113.355469 C 331.878906 116.246094 335.617188 123.125 337.960938 134.515625 C 338.691406 138.074219 338.753906 139.351562 338.585938 147.488281 C 338.328125 160.058594 336.546875 170.121094 333.046875 178.769531 C 329.25 188.167969 324.8125 193.574219 318.488281 196.515625 C 315.539062 197.890625 315.359375 198.089844 309.683594 206.257812 C 308.4375 208.054688 306.339844 210.847656 305.023438 212.464844 L 302.636719 215.40625 L 304.015625 215.027344 C 305.972656 214.484375 307.972656 215.082031 313.484375 217.84375 C 316.050781 219.132812 320.914062 221.3125 324.296875 222.6875 C 335.25 227.148438 336.949219 227.460938 339.242188 225.445312 Z M 303.566406 220.09375 C 305.46875 219.878906 308.316406 219.695312 309.902344 219.6875 L 312.78125 219.667969 L 310.351562 218.542969 C 306.828125 216.914062 305.480469 216.605469 304.027344 217.105469 C 302.835938 217.511719 297.996094 220.386719 297.996094 220.6875 C 297.996094 220.769531 298.472656 220.757812 299.054688 220.660156 C 299.632812 220.5625 301.664062 220.308594 303.566406 220.09375 Z M 258.15625 210.484375 C 258.144531 207.210938 257.972656 203.753906 257.769531 202.800781 L 257.402344 201.074219 L 256.6875 202.609375 C 255.59375 204.953125 255.863281 213.167969 257.175781 217.585938 C 257.71875 219.421875 258.167969 216.179688 258.15625 210.484375 Z M 241.441406 216.34375 C 241.601562 215.761719 241.734375 212.519531 241.734375 209.140625 C 241.738281 203.515625 241.667969 202.859375 240.882812 201.394531 C 239.914062 199.582031 239.71875 199.515625 234.441406 199.152344 C 224.835938 198.496094 202.003906 195.957031 192.585938 194.503906 C 185.730469 193.445312 182.75 192.464844 173.886719 188.363281 C 168.324219 185.789062 167.363281 185.738281 162.40625 187.757812 C 160.414062 188.566406 157.269531 189.714844 155.414062 190.304688 C 152.503906 191.230469 151.863281 191.597656 150.765625 192.960938 C 149.175781 194.9375 144 202.375 143.734375 203.0625 C 143.203125 204.445312 144.933594 203.136719 149.335938 198.8125 C 154.089844 194.152344 154.242188 194.039062 157.0625 193.222656 C 158.648438 192.765625 160.445312 192.226562 161.058594 192.027344 C 163.757812 191.144531 167.414062 191.882812 169.957031 193.824219 C 172.425781 195.707031 173.066406 198.355469 171.148438 198.742188 C 170.6875 198.835938 168.582031 199.015625 166.472656 199.140625 C 160.773438 199.476562 156.847656 200.753906 157.628906 202.015625 C 157.78125 202.261719 159.777344 202.417969 162.75 202.414062 C 165.457031 202.414062 170.101562 202.75 173.191406 203.167969 C 179.851562 204.066406 191.035156 205.113281 196.617188 205.355469 C 201.996094 205.585938 204.882812 206.261719 211.316406 208.796875 C 214.285156 209.96875 217.796875 211.332031 219.117188 211.828125 C 222.75 213.195312 230.496094 215.328125 235.019531 216.203125 C 237.238281 216.632812 239.398438 217.058594 239.820312 217.148438 C 240.242188 217.234375 240.714844 217.328125 240.867188 217.355469 C 241.023438 217.378906 241.28125 216.921875 241.441406 216.34375 Z M 186.941406 209.640625 C 187.191406 209.386719 187.402344 209.058594 187.402344 208.910156 C 187.402344 208.765625 169.039062 208.539062 146.597656 208.410156 C 124.15625 208.277344 103.246094 208.070312 100.132812 207.949219 C 96.089844 207.789062 94.46875 207.847656 94.46875 208.152344 C 94.46875 208.386719 94.855469 208.746094 95.332031 208.945312 C 96.222656 209.320312 136.3125 209.917969 168.601562 210.035156 C 182.066406 210.082031 186.59375 209.984375 186.941406 209.640625 Z M 60.117188 207.375 C 63.929688 206.992188 65.695312 206.515625 70.179688 204.679688 C 71.628906 204.085938 71.800781 203.582031 70.5625 203.546875 C 64.863281 203.382812 58.652344 202.851562 58.292969 202.496094 C 57.964844 202.164062 58.484375 201.109375 60.382812 198.257812 C 61.773438 196.167969 63.1875 193.648438 63.523438 192.664062 C 64.203125 190.65625 64.34375 186.078125 63.738281 185.703125 C 63.523438 185.570312 62.097656 185.65625 60.570312 185.894531 C 55.140625 186.746094 36.035156 186.339844 32.59375 185.300781 C 31.664062 185.019531 31.441406 186.882812 32.058594 189.828125 C 32.664062 192.722656 33.785156 195.089844 36.289062 198.746094 C 38.785156 202.394531 38.683594 202.558594 33.789062 202.851562 C 31.574219 202.984375 28.855469 203.113281 27.746094 203.140625 C 26.636719 203.164062 25.730469 203.335938 25.730469 203.515625 C 25.730469 203.699219 26.742188 204.386719 27.980469 205.046875 C 30.058594 206.15625 32.785156 206.773438 38.976562 207.539062 C 41.691406 207.875 56.28125 207.761719 60.117188 207.375 Z M 127.492188 204.910156 C 128.445312 204.222656 130.5 203.023438 132.0625 202.238281 C 135.363281 200.582031 139.015625 198.230469 139.015625 197.753906 C 139.015625 197.0625 137.980469 197.515625 132.851562 200.453125 C 129.945312 202.121094 125.90625 204.125 123.882812 204.910156 C 121.855469 205.695312 120.199219 206.417969 120.199219 206.515625 C 120.199219 206.609375 121.449219 206.570312 122.980469 206.421875 C 125.269531 206.207031 126.074219 205.933594 127.492188 204.910156 Z M 133.175781 205.917969 C 133.257812 205.667969 133.757812 204.949219 134.285156 204.324219 C 134.8125 203.699219 135.097656 203.1875 134.917969 203.1875 C 134.445312 203.1875 128.644531 206.269531 128.644531 206.523438 C 128.644531 206.949219 133.027344 206.363281 133.175781 205.917969 Z M 179.570312 206.367188 C 181.230469 206.121094 180.851562 206.035156 176.265625 205.625 C 173.414062 205.367188 167.882812 204.960938 163.976562 204.722656 C 158.160156 204.367188 156.800781 204.175781 156.488281 203.667969 C 156.277344 203.324219 155.542969 202.464844 154.855469 201.757812 C 152.886719 199.730469 153.28125 198.671875 156.828125 196.429688 C 159.410156 194.796875 158.992188 194.480469 156.207031 195.960938 C 154.632812 196.796875 152.621094 198.445312 150.335938 200.769531 C 146.125 205.054688 143.914062 206.269531 142.035156 205.328125 C 140.792969 204.710938 139.980469 204.902344 139.03125 206.046875 C 138.585938 206.585938 140.449219 206.644531 158.113281 206.644531 C 168.882812 206.644531 178.539062 206.519531 179.570312 206.367188 Z M 109.742188 205.15625 C 110.953125 204.546875 115.085938 202.714844 118.933594 201.085938 C 122.777344 199.453125 126.109375 197.898438 126.335938 197.625 C 126.65625 197.238281 126.386719 197.078125 125.101562 196.886719 C 123.1875 196.605469 121.492188 197.027344 119.542969 198.265625 C 118.773438 198.753906 115.46875 200.539062 112.191406 202.238281 C 108.917969 203.933594 106.167969 205.53125 106.082031 205.789062 C 105.8125 206.59375 107.441406 206.3125 109.742188 205.15625 Z M 119.8125 204.359375 C 126.160156 201.527344 131.960938 198.648438 132.871094 197.878906 C 134.730469 196.304688 132.675781 197.003906 125.917969 200.246094 C 122.242188 202.007812 118.027344 203.925781 116.550781 204.507812 C 115.070312 205.089844 113.726562 205.695312 113.5625 205.847656 C 112.796875 206.5625 117.25 205.503906 119.8125 204.359375 Z M 105.941406 203.308594 C 108.183594 202.105469 111.480469 200.40625 113.261719 199.53125 C 117.222656 197.585938 116.808594 196.910156 112.671875 198.566406 C 109.339844 199.902344 100.042969 204.238281 98.894531 204.992188 C 98.21875 205.4375 98.339844 205.492188 99.996094 205.492188 C 101.527344 205.492188 102.589844 205.101562 105.941406 203.308594 Z M 139.117188 203.917969 C 140.570312 203.054688 141.675781 202.265625 141.574219 202.164062 C 141.355469 201.941406 139.675781 202.785156 137.199219 204.355469 C 134.480469 206.078125 136.101562 205.710938 139.117188 203.917969 Z M 101.585938 201.421875 C 105.378906 199.5 110.082031 197.273438 112.039062 196.46875 C 114.578125 195.425781 115.589844 194.820312 115.589844 194.347656 C 115.589844 193.742188 112.574219 183.890625 106.773438 165.542969 C 105.535156 161.632812 103.882812 156.363281 103.101562 153.828125 C 98.226562 138.027344 94.78125 127.601562 94.15625 126.757812 C 92.738281 124.839844 92.234375 124.785156 83.496094 125.597656 C 79.074219 126.007812 74.558594 126.425781 73.457031 126.523438 C 71 126.746094 69.753906 127.355469 70 128.21875 C 70.097656 128.570312 72.175781 135.082031 74.621094 142.6875 C 82.5 167.230469 86.707031 180.640625 90.070312 191.9375 C 93.648438 203.945312 94.0625 205.191406 94.4375 205.023438 C 94.574219 204.964844 97.789062 203.34375 101.585938 201.421875 Z M 64.15625 199.878906 C 68.257812 198.660156 71.503906 196.4375 72.753906 193.992188 C 74.511719 190.546875 73.246094 186.667969 70.363281 186.667969 C 68.972656 186.667969 67.890625 188.078125 66.082031 192.238281 C 65.164062 194.351562 63.867188 196.859375 63.195312 197.808594 C 60.992188 200.9375 60.945312 200.832031 64.15625 199.878906 Z M 144.484375 197.679688 C 145.277344 196.800781 146.75 194.972656 147.757812 193.621094 C 150.417969 190.046875 151.710938 189.148438 155.910156 187.96875 C 159.710938 186.902344 161.386719 186.0625 158.984375 186.429688 C 158.242188 186.542969 156.429688 186.75 154.949219 186.882812 C 150.316406 187.308594 149.832031 187.699219 143.6875 195.996094 C 141.082031 199.511719 140.972656 199.738281 141.976562 199.515625 C 142.5625 199.386719 143.695312 198.5625 144.484375 197.679688 Z M 254.246094 195.324219 C 255.132812 194.804688 256.191406 194.578125 257.660156 194.601562 C 259.339844 194.625 260.207031 194.394531 261.773438 193.511719 C 264.617188 191.90625 264.730469 191.695312 263.828125 189.660156 C 262.433594 186.503906 262.191406 183.179688 262.007812 164.835938 C 261.828125 147.023438 262.140625 138.964844 263.136719 135.792969 C 263.789062 133.710938 265.386719 132.304688 269.003906 130.632812 C 275.351562 127.703125 280.601562 124.785156 282.925781 122.898438 C 285.355469 120.925781 285.816406 119.953125 284.746094 119.0625 C 284.277344 118.671875 283.5 118.804688 280.550781 119.785156 C 275.929688 121.316406 273.027344 121.359375 272.464844 119.902344 C 272.125 119.011719 273.28125 118.261719 274.363281 118.671875 L 275.226562 119 L 274.515625 117.605469 C 273.601562 115.816406 273.617188 114.796875 274.574219 113.578125 C 275.546875 112.339844 278.410156 111.679688 281.410156 111.996094 L 283.597656 112.226562 L 282.445312 111.257812 C 281.8125 110.726562 279.273438 109.230469 276.800781 107.9375 L 272.308594 105.585938 L 270.753906 106.988281 C 268.53125 109 257.011719 122.519531 255.125 125.332031 C 252.464844 129.300781 252.875 127.066406 247.691406 165.734375 C 247.027344 170.6875 246.207031 180 245.949219 185.550781 C 245.816406 188.382812 245.648438 190.90625 245.570312 191.152344 C 245.492188 191.414062 245.078125 191.507812 244.589844 191.382812 C 243.761719 191.164062 243.75 191.074219 243.941406 185.828125 C 244.078125 182 244.011719 180.53125 243.703125 180.632812 C 243.46875 180.707031 242.710938 181.882812 242.019531 183.238281 C 239.667969 187.851562 239.175781 194.546875 240.984375 197.304688 C 241.757812 198.484375 242.125 198.425781 242.707031 197.027344 C 242.972656 196.382812 243.5 195.691406 243.878906 195.488281 C 245.617188 194.558594 248.824219 195.53125 250.722656 197.566406 L 251.640625 198.550781 L 252.300781 197.316406 C 252.664062 196.636719 253.539062 195.738281 254.246094 195.324219 Z M 165.414062 197.15625 C 167.792969 197.03125 169.734375 196.800781 169.734375 196.636719 C 169.734375 196.191406 166.546875 194.734375 165.574219 194.734375 C 165.105469 194.734375 163.519531 195.34375 162.046875 196.085938 C 159.398438 197.417969 158.550781 198.144531 160.230469 197.636719 C 160.707031 197.496094 163.039062 197.277344 165.414062 197.15625 Z M 87.550781 190.65625 C 86.6875 187.511719 84.335938 179.753906 82.328125 173.417969 C 80.316406 167.078125 77.71875 158.867188 76.558594 155.171875 C 75.398438 151.472656 72.972656 143.902344 71.167969 138.347656 C 69.214844 132.335938 67.960938 127.863281 68.070312 127.304688 C 68.253906 126.328125 67.8125 126.109375 66.859375 126.714844 C 66.09375 127.199219 66.230469 127.714844 71.65625 144.800781 C 82.113281 177.726562 88.542969 196.949219 88.960938 196.53125 C 89.046875 196.441406 88.414062 193.800781 87.550781 190.65625 Z M 318.925781 194.007812 C 326.242188 189.792969 331.839844 179.761719 334.667969 165.789062 C 336.316406 157.640625 336.890625 151.210938 336.675781 143.261719 C 336.5 136.878906 336.363281 135.71875 335.304688 131.839844 C 331.859375 119.214844 326.792969 113.480469 319.234375 113.640625 C 315.144531 113.726562 310.527344 116.359375 305.738281 121.335938 C 301.421875 125.820312 299.84375 128.824219 291.671875 148.140625 C 285.367188 163.046875 278.265625 177.007812 272.417969 185.996094 C 271.015625 188.152344 270.199219 189.742188 270.492188 189.742188 C 271.496094 189.742188 276.132812 185.019531 278.175781 181.917969 C 282.214844 175.78125 293.578125 154.132812 298.410156 143.371094 C 304.980469 128.722656 306.378906 126.589844 310.664062 124.667969 C 318.550781 121.128906 325.871094 123.648438 328.800781 130.914062 C 329.585938 132.863281 329.671875 133.6875 329.640625 139.039062 C 329.59375 147.441406 328.34375 153.0625 323.6875 165.851562 C 320.222656 175.355469 317.65625 182.898438 317.21875 184.847656 C 316.617188 187.542969 316.003906 193.609375 316.253906 194.402344 C 316.550781 195.332031 316.652344 195.316406 318.925781 194.007812 Z M 345.832031 186.457031 L 348.730469 185.398438 L 347.40625 184.015625 C 345.773438 182.3125 344.949219 180.710938 344.609375 178.59375 L 344.347656 176.964844 L 343.632812 179.222656 C 342.488281 182.835938 341.007812 188.125 341.007812 188.597656 C 341.007812 188.835938 341.441406 188.6875 341.972656 188.269531 C 342.503906 187.851562 344.238281 187.035156 345.832031 186.457031 Z M 61.058594 183.699219 C 63.617188 183.042969 53.425781 182.292969 45.945312 182.585938 C 38.6875 182.871094 34.441406 183.21875 34.730469 183.507812 C 35.539062 184.316406 58.003906 184.480469 61.058594 183.699219 Z M 350.878906 182.761719 C 348.605469 180.90625 347.738281 178.921875 347.777344 175.660156 C 347.816406 171.933594 348.671875 170.582031 354.332031 165.28125 C 358.980469 160.929688 360.664062 158.613281 361.171875 155.875 C 361.40625 154.625 361.183594 154.023438 359.273438 150.6875 C 354.363281 142.105469 354.308594 137.527344 358.953125 123.480469 C 360.320312 119.347656 360.730469 117.527344 360.738281 115.605469 C 360.765625 109.949219 357.035156 105.160156 346 96.679688 C 339.167969 91.429688 336.144531 88.742188 333.914062 85.941406 C 331.40625 82.792969 329.066406 78.082031 328.175781 74.375 C 327.515625 71.644531 326.609375 61.679688 326.96875 61.097656 C 327.082031 60.917969 327.183594 56.296875 327.195312 50.832031 C 327.210938 43.25 327.074219 40.226562 326.621094 38.066406 C 324.449219 27.773438 315.992188 17.351562 307.214844 14.152344 C 304.605469 13.199219 301.699219 13.0625 293.390625 13.503906 C 290.175781 13.675781 290.070312 13.714844 286.550781 15.957031 C 280.652344 19.710938 270.777344 27.523438 270.492188 28.660156 C 270.15625 29.996094 270.933594 33.269531 272.175781 35.769531 C 273.394531 38.214844 278.417969 43.390625 281.574219 45.445312 C 282.78125 46.234375 286.289062 48.195312 289.367188 49.808594 C 295.746094 53.144531 297.972656 55.15625 299.546875 59 C 300.433594 61.167969 300.472656 61.621094 300.492188 70.859375 C 300.507812 79.902344 300.5625 80.605469 301.402344 82.957031 C 301.890625 84.332031 303.066406 86.617188 304.007812 88.035156 C 306.507812 91.800781 309.445312 94.113281 318.542969 99.476562 C 322.703125 101.933594 324.429688 103.285156 327.628906 106.605469 C 333.664062 112.863281 339.128906 123.238281 342.320312 134.484375 C 344.617188 142.578125 346.226562 156.683594 346.34375 169.769531 C 346.410156 177.109375 346.675781 179.25 347.785156 181.402344 C 348.417969 182.625 350.421875 183.984375 351.566406 183.964844 C 352.191406 183.957031 352.0625 183.730469 350.878906 182.761719 Z M 360.496094 165.179688 C 363.640625 163.246094 364.796875 160.601562 363.515625 158.289062 C 362.953125 157.273438 362.828125 157.386719 362.136719 159.535156 C 361.828125 160.484375 360.566406 162.144531 358.628906 164.144531 C 356.964844 165.863281 355.601562 167.304688 355.601562 167.351562 C 355.597656 167.632812 358.851562 166.191406 360.496094 165.179688 Z M 267.625 153.441406 C 268.101562 152.386719 269.839844 148.066406 271.484375 143.839844 C 273.132812 139.613281 275.207031 134.546875 276.097656 132.574219 C 276.984375 130.605469 277.628906 128.90625 277.523438 128.800781 C 277.417969 128.695312 276.648438 129.046875 275.808594 129.574219 C 274.96875 130.105469 272.664062 131.300781 270.683594 132.234375 C 266.828125 134.050781 265.730469 134.996094 265 137.117188 C 264.574219 138.347656 263.847656 153.25 263.855469 160.550781 L 263.859375 163.429688 L 265.308594 159.398438 C 266.105469 157.179688 267.144531 154.5 267.621094 153.441406 Z M 268.746094 160.738281 C 269.46875 159.820312 274.957031 147.230469 278.042969 139.421875 C 279.859375 134.824219 282.433594 126.796875 282.175781 126.539062 C 281.21875 125.582031 279.792969 128.542969 273.011719 145.566406 C 270.949219 150.746094 268.839844 155.929688 268.320312 157.09375 C 266.992188 160.058594 266.667969 161.703125 267.410156 161.703125 C 267.726562 161.703125 268.328125 161.265625 268.746094 160.738281 Z M 281.585938 142.015625 C 288.074219 130.691406 291.101562 126.015625 293.257812 124 C 294.652344 122.695312 309.390625 111.625 313.085938 109.109375 C 316.132812 107.03125 318.695312 105.804688 320.839844 105.402344 C 322.011719 105.183594 322.140625 105.0625 321.726562 104.5625 C 320.820312 103.46875 317.847656 102.519531 312.304688 101.550781 C 299.882812 99.378906 295.421875 96.882812 292.335938 90.378906 C 291.042969 87.65625 290.925781 87.113281 290.773438 83.136719 L 290.609375 78.839844 L 286.910156 81.316406 C 280.828125 85.386719 273 88.707031 269.433594 88.726562 L 267.851562 88.734375 L 268.8125 89.515625 C 269.644531 90.191406 270.15625 90.273438 272.652344 90.105469 C 274.238281 90 277.316406 89.472656 279.492188 88.933594 C 288.976562 86.582031 290.199219 87.746094 293.167969 101.976562 C 294.089844 106.410156 294.972656 111.03125 295.121094 112.246094 C 295.300781 113.671875 295.578125 114.453125 295.902344 114.453125 C 296.570312 114.453125 297.996094 112.609375 297.996094 111.746094 C 297.996094 109.988281 298.976562 109.289062 299.894531 110.390625 C 301.015625 111.746094 298.792969 115.394531 295.972656 116.824219 C 295.386719 117.125 294.609375 117.964844 294.246094 118.695312 C 293.761719 119.664062 293.289062 120.058594 292.503906 120.148438 C 291.214844 120.296875 290.835938 120.867188 287.425781 127.816406 C 285.078125 132.59375 280.332031 143.066406 280.332031 143.46875 C 280.332031 143.964844 280.738281 143.492188 281.585938 142.015625 Z M 358.628906 134.621094 C 358.84375 133.777344 359.523438 131.355469 360.136719 129.242188 C 361.308594 125.199219 361.878906 122.007812 361.367188 122.324219 C 361.203125 122.425781 360.984375 122.988281 360.886719 123.574219 C 360.789062 124.15625 360.070312 126.792969 359.289062 129.433594 C 358.347656 132.609375 357.8125 135.277344 357.707031 137.308594 C 357.5625 140.160156 357.574219 140.230469 357.894531 138.269531 C 358.085938 137.109375 358.414062 135.464844 358.628906 134.621094 Z M 286.519531 125.074219 C 287.578125 122.992188 288.355469 121.199219 288.246094 121.089844 C 287.886719 120.730469 286.859375 121.332031 286.859375 121.90625 C 286.859375 122.210938 286.171875 123.894531 285.324219 125.640625 C 283.878906 128.636719 283.210938 130.871094 284.195312 129.433594 C 284.414062 129.117188 285.457031 127.15625 286.519531 125.074219 Z M 288.398438 117.945312 C 286.195312 116.027344 282.804688 113.949219 282.210938 114.148438 C 281.957031 114.234375 282.683594 114.976562 283.824219 115.800781 C 284.96875 116.621094 286.46875 117.78125 287.164062 118.371094 C 287.855469 118.964844 288.808594 119.449219 289.273438 119.449219 C 290.003906 119.449219 289.878906 119.230469 288.398438 117.945312 Z M 281.777344 117.046875 C 281.574219 116.4375 279.179688 116.167969 279.179688 116.757812 C 279.179688 116.996094 279.355469 117.082031 279.566406 116.953125 C 279.777344 116.820312 279.949219 116.898438 279.949219 117.121094 C 279.949219 117.34375 280.394531 117.527344 280.941406 117.527344 C 281.5625 117.527344 281.875 117.347656 281.777344 117.046875 Z M 276.488281 114.71875 C 276.488281 114.550781 276.320312 114.515625 276.109375 114.648438 C 275.898438 114.777344 275.726562 115.175781 275.730469 115.535156 C 275.734375 116.09375 275.789062 116.105469 276.109375 115.605469 C 276.3125 115.289062 276.484375 114.890625 276.488281 114.71875 Z M 292.648438 112.972656 C 291.992188 111.742188 287.636719 109.117188 284.824219 108.253906 C 283.386719 107.8125 282.117188 107.546875 282 107.664062 C 281.886719 107.78125 282.890625 108.425781 284.230469 109.101562 C 285.570312 109.777344 287.429688 110.871094 288.359375 111.527344 C 289.285156 112.1875 290.667969 113.171875 291.429688 113.710938 C 292.890625 114.753906 293.429688 114.425781 292.648438 112.972656 Z M 287.246094 113.496094 C 286.75 112.964844 286.15625 112.539062 285.929688 112.546875 C 285.507812 112.558594 287.476562 114.453125 287.910156 114.453125 C 288.039062 114.453125 287.742188 114.023438 287.246094 113.496094 Z M 361.320312 107.144531 C 360.78125 104.707031 358.578125 100.519531 356.375 97.753906 C 355.339844 96.449219 351.453125 92.566406 347.738281 89.121094 C 340.496094 82.40625 338.464844 80.210938 336.214844 76.671875 C 333.207031 71.933594 331.957031 67.765625 330.578125 57.878906 C 330.128906 54.664062 329.628906 51.257812 329.464844 50.308594 C 329.304688 49.355469 329.210938 53.589844 329.265625 59.71875 C 329.351562 69.769531 329.441406 71.152344 330.191406 73.894531 C 332.410156 81.996094 335.726562 86.121094 346.769531 94.488281 C 353.453125 99.558594 358.832031 104.640625 360.46875 107.429688 C 361.011719 108.355469 361.507812 109.054688 361.578125 108.988281 C 361.644531 108.921875 361.53125 108.089844 361.320312 107.144531 Z M 260.566406 107.152344 C 263.113281 105.574219 264.238281 100.632812 262.722656 97.664062 C 261.875 95.996094 260.542969 94.84375 256.414062 92.203125 C 249.203125 87.585938 247.441406 81.789062 250.929688 74.148438 C 252.007812 71.785156 252.414062 70.363281 252.4375 68.914062 C 252.464844 67.09375 252.257812 66.609375 250.058594 63.273438 C 248.738281 61.265625 247.316406 58.738281 246.90625 57.652344 C 245.636719 54.308594 246.082031 49.535156 248.09375 44.988281 C 250.632812 39.25 258.253906 30.746094 263.246094 28.082031 C 264.628906 27.34375 264.664062 27.285156 263.628906 27.507812 C 261.953125 27.867188 259.832031 28.992188 256.140625 31.492188 C 254.34375 32.707031 252.488281 33.898438 252.019531 34.140625 C 251.171875 34.574219 247.742188 39.511719 246.238281 42.460938 C 244.660156 45.554688 243.757812 49.390625 243.917969 52.335938 C 244.046875 54.792969 244.367188 55.765625 246.710938 60.863281 C 250.113281 68.257812 250.164062 68.777344 248.074219 74.710938 C 245.964844 80.707031 245.796875 83.929688 247.429688 87.265625 C 248.816406 90.105469 251.160156 92.136719 255.765625 94.503906 C 260.421875 96.898438 261.566406 98.042969 261.808594 100.5625 C 262.03125 102.90625 261.402344 104.902344 259.898438 106.613281 C 258.585938 108.109375 258.769531 108.261719 260.566406 107.152344 Z M 364.277344 103.796875 C 364.65625 102.160156 364.964844 99.421875 364.964844 97.714844 C 364.964844 94.960938 364.8125 94.292969 363.609375 91.761719 C 362.113281 88.605469 360.390625 86.414062 354.292969 79.917969 C 345.175781 70.191406 342.382812 65.398438 335.449219 47.585938 C 331.839844 38.3125 327.460938 28.964844 324.84375 24.957031 C 321.460938 19.773438 313.632812 13.058594 307.707031 10.25 C 305.449219 9.179688 304.691406 9.015625 302.03125 9.015625 C 299.355469 9.015625 298.613281 9.179688 296.308594 10.269531 C 294.851562 10.960938 293.746094 11.613281 293.851562 11.71875 C 293.957031 11.824219 295.148438 11.625 296.5 11.28125 C 301.296875 10.050781 307.105469 11.175781 312.605469 14.402344 C 318.179688 17.671875 322.574219 22.785156 326.011719 30.003906 C 328.929688 36.125 330.539062 42.445312 331.964844 53.378906 C 332.773438 59.578125 333.96875 66.121094 334.738281 68.554688 C 335.707031 71.632812 338.179688 76.105469 340.378906 78.777344 C 341.5 80.136719 344.910156 83.539062 347.953125 86.339844 C 355.808594 93.5625 359.089844 97.324219 361.175781 101.488281 C 362.121094 103.382812 362.898438 105.230469 362.898438 105.59375 C 362.898438 106.167969 363.207031 106.773438 363.5 106.773438 C 363.546875 106.773438 363.898438 105.433594 364.277344 103.796875 Z M 314.601562 99.460938 C 313.308594 98.941406 307.636719 95.128906 305.792969 93.539062 C 303.46875 91.535156 300.472656 86.847656 299.449219 83.617188 C 298.640625 81.050781 298.574219 80.15625 298.574219 71.625 C 298.574219 60.351562 298.355469 59.460938 294.699219 55.878906 C 292.753906 53.96875 287.628906 50.597656 287.628906 51.226562 C 287.628906 51.324219 288.652344 52.378906 289.898438 53.570312 C 295.503906 58.917969 296.914062 66.179688 293.90625 74.234375 C 292.011719 79.316406 292.316406 86.023438 294.636719 90.378906 C 296.5 93.875 299.707031 96.257812 304.527344 97.730469 C 307.152344 98.53125 313.222656 99.792969 314.511719 99.800781 C 315.464844 99.808594 315.464844 99.808594 314.601562 99.460938 Z M 274.628906 85.3125 C 278.976562 83.605469 282.839844 81.617188 285.496094 79.722656 C 287.3125 78.425781 288.109375 77.527344 288.988281 75.792969 C 290.078125 73.632812 290.125 73.34375 290.125 68.359375 C 290.125 63.5625 290.046875 62.992188 289.074219 60.71875 C 287.355469 56.707031 285.394531 54.546875 280.296875 51.050781 C 272.511719 45.710938 269.824219 41.796875 268.035156 33.167969 L 267.585938 31.003906 L 266.847656 32.109375 C 265.171875 34.628906 263.339844 42.898438 263.375 47.8125 C 263.386719 49.5 263.421875 52.035156 263.453125 53.4375 C 263.5 55.589844 263.316406 56.398438 262.292969 58.550781 C 261.621094 59.957031 260.292969 62.0625 259.34375 63.226562 C 258.394531 64.394531 257.703125 65.578125 257.8125 65.855469 C 257.917969 66.132812 258.964844 66.800781 260.140625 67.335938 C 262.96875 68.632812 263.457031 69.644531 262.523438 72.273438 C 261.765625 74.414062 261.734375 74.332031 263.5 75.210938 C 265.082031 76.003906 265.304688 76.984375 264.171875 78.1875 C 263.695312 78.699219 263.378906 79.15625 263.464844 79.210938 C 263.554688 79.265625 264.148438 79.574219 264.78125 79.898438 C 265.84375 80.441406 265.949219 80.6875 266.152344 83.042969 C 266.273438 84.449219 266.613281 85.886719 266.910156 86.242188 C 267.671875 87.164062 270.914062 86.773438 274.628906 85.3125 Z M 351.757812 69.976562 C 350.855469 67.15625 349.613281 64.773438 345.417969 57.796875 C 343.894531 55.261719 340.726562 49.519531 338.378906 45.035156 C 334.175781 36.996094 332.351562 33.789062 331.972656 33.789062 C 331.867188 33.789062 332.363281 34.957031 333.074219 36.382812 C 334.210938 38.664062 335.78125 42.558594 340.316406 54.339844 C 342.878906 60.988281 346.179688 66.84375 350.382812 72.191406 C 352.253906 74.570312 352.339844 74.628906 352.460938 73.613281 C 352.527344 73.027344 352.210938 71.390625 351.757812 69.976562 Z M 293.171875 66.632812 C 293.195312 62.847656 293.09375 62.1875 292.199219 60.292969 C 291.648438 59.132812 290.816406 57.75 290.355469 57.222656 L 289.511719 56.261719 L 290.066406 57.414062 C 291.601562 60.605469 292.390625 64.332031 292.398438 68.464844 C 292.40625 71.472656 292.507812 72.363281 292.777344 71.730469 C 292.980469 71.25 293.160156 68.957031 293.171875 66.632812 Z M 282.789062 49.828125 C 282.507812 49.167969 278.410156 45.957031 278.164062 46.203125 C 278.015625 46.351562 282.515625 50.234375 282.914062 50.292969 C 282.960938 50.300781 282.90625 50.089844 282.789062 49.828125 Z M 263.777344 25.347656 C 264.914062 25.132812 267.03125 24.957031 268.480469 24.957031 L 271.117188 24.957031 L 274.476562 22.226562 C 276.324219 20.726562 278.007812 19.320312 278.222656 19.105469 C 278.480469 18.839844 277.367188 18.785156 274.765625 18.925781 C 268.855469 19.253906 265.675781 20.578125 260.175781 25 C 256.234375 28.175781 255.757812 29.179688 259.121094 27.234375 C 260.542969 26.414062 262.640625 25.5625 263.777344 25.347656 Z M 285.199219 14.472656 C 287.351562 13.175781 289.023438 11.980469 288.921875 11.8125 C 288.601562 11.292969 282.898438 11.484375 280.546875 12.097656 C 278.21875 12.703125 272.730469 15.242188 271.214844 16.414062 C 270.386719 17.054688 270.566406 17.078125 275.820312 16.957031 L 281.292969 16.832031 Z M 0 224.121094 L 0 223.160156 L 106.851562 223.066406 L 213.707031 222.96875 L 213.941406 219.320312 L 3.839844 219.320312 L 3.839844 217.398438 L 109.734375 217.492188 L 215.625 217.589844 L 215.734375 221.335938 L 215.847656 225.082031 L 0 225.082031 Z M 50.167969 177.15625 C 49.171875 176.929688 49.480469 175.710938 51.832031 170.554688 C 55.964844 161.507812 55.890625 159.003906 51.28125 151.824219 C 45.347656 142.585938 45.496094 139.320312 52.328125 128.742188 C 53.917969 126.28125 54.808594 125.234375 55.191406 125.382812 C 55.496094 125.5 55.816406 125.59375 55.90625 125.59375 C 56.40625 125.59375 55.789062 126.878906 53.402344 130.824219 C 48.074219 139.621094 47.882812 142.167969 52.050781 148.878906 C 53.214844 150.753906 54.722656 153.414062 55.40625 154.789062 C 56.535156 157.0625 56.640625 157.589844 56.613281 160.742188 C 56.582031 164.429688 56.140625 165.921875 52.785156 173.609375 C 51.15625 177.339844 51.128906 177.375 50.167969 177.15625 Z M 45.601562 175.839844 C 45.503906 175.5625 45.59375 174.90625 45.796875 174.378906 C 46.003906 173.847656 46.257812 171.429688 46.367188 169 C 46.589844 163.949219 46.15625 161.699219 43.921875 156.335938 C 40.265625 147.550781 40.171875 147.214844 40.164062 142.878906 C 40.160156 139.460938 40.324219 138.378906 41.222656 135.773438 C 42.765625 131.3125 46.769531 124.058594 47.683594 124.058594 C 48.988281 124.058594 48.859375 125.113281 47.210938 127.941406 C 43.871094 133.65625 41.859375 139.3125 41.859375 142.96875 C 41.859375 145.046875 42.875 148.371094 45.097656 153.566406 C 47.96875 160.277344 48.488281 162.5 48.453125 167.847656 C 48.414062 173.234375 47.789062 176.054688 46.601562 176.222656 C 46.148438 176.289062 45.695312 176.113281 45.601562 175.839844 Z M 45.601562 175.839844 "/></g></g></svg>