<svg xmlns="http://www.w3.org/2000/svg" xmlns:xlink="http://www.w3.org/1999/xlink" width="500" zoomAndPan="magnify" viewBox="0 0 375 374.999991" height="500" preserveAspectRatio="xMidYMid meet" version="1.2"><defs><clipPath id="7ef6302c8a"><path d="M 0 6.796875 L 375 6.796875 L 375 367 L 0 367 Z M 0 6.796875 "/></clipPath></defs><g id="1e58376fc7"><g clip-rule="nonzero" clip-path="url(#7ef6302c8a)"><path style=" stroke:none;fill-rule:nonzero;fill:#ffffff;fill-opacity:1;" d="M 62.886719 366.121094 C 62.765625 366 62.761719 346 62.878906 321.671875 C 62.992188 297.347656 62.957031 266.945312 62.796875 254.113281 L 62.503906 230.785156 L 3.839844 230.785156 L 3.839844 228.921875 L 75.941406 228.90625 C 115.59375 228.902344 152.011719 228.785156 156.871094 228.648438 C 164.625 228.429688 167.0625 228.523438 176.839844 229.40625 C 182.964844 229.960938 190.308594 230.671875 193.160156 230.988281 C 196.011719 231.300781 202.578125 231.984375 207.753906 232.507812 C 212.929688 233.027344 218.632812 233.628906 220.425781 233.839844 C 228.105469 234.746094 241.835938 236.160156 242.988281 236.160156 C 244.488281 236.160156 244.535156 235.792969 243.265625 233.933594 C 241.535156 231.402344 240.691406 227.972656 240.722656 223.597656 C 240.742188 221.191406 240.59375 219.578125 240.339844 219.421875 C 240.113281 219.28125 237.730469 218.761719 235.042969 218.265625 C 228.742188 217.101562 222.164062 215.199219 215.117188 212.496094 C 205.285156 208.722656 204.582031 208.480469 201.890625 207.914062 C 200.441406 207.609375 197.3125 207.359375 194.941406 207.359375 L 190.628906 207.359375 L 190.148438 208.683594 C 189.882812 209.414062 189.136719 210.457031 188.480469 211.007812 L 187.296875 212.007812 L 141.554688 211.753906 C 89.183594 211.46875 93.785156 211.816406 91.472656 207.949219 L 90.203125 205.828125 L 81.105469 205.890625 C 72.417969 205.949219 71.921875 205.996094 70.230469 206.84375 C 66.84375 208.542969 63.710938 209.304688 58.945312 209.582031 L 54.339844 209.851562 L 58.371094 210.09375 C 60.589844 210.226562 64.605469 210.359375 67.300781 210.382812 L 72.195312 210.429688 L 72.195312 212.324219 L 42.050781 212.332031 L 11.90625 212.335938 L 11.90625 210.433594 L 21.449219 210.433594 C 26.699219 210.433594 32.070312 210.320312 33.390625 210.179688 L 35.789062 209.929688 L 33.160156 209.257812 C 31.710938 208.890625 29.117188 207.964844 27.394531 207.207031 L 24.261719 205.824219 L 14.050781 205.824219 C 4.304688 205.824219 3.839844 205.789062 3.839844 205.097656 C 3.839844 204.132812 6.410156 203.816406 13.570312 203.910156 C 23.027344 204.03125 22.65625 204.078125 22.65625 202.796875 C 22.65625 201.714844 22.71875 201.683594 25.554688 201.261719 C 27.144531 201.023438 29.910156 200.832031 31.695312 200.832031 C 33.484375 200.832031 34.945312 200.734375 34.945312 200.613281 C 34.945312 200.492188 34.449219 199.671875 33.84375 198.789062 C 30.996094 194.632812 29.585938 190.339844 29.574219 185.800781 C 29.566406 181.167969 30.207031 180.957031 45.3125 180.609375 C 55.195312 180.382812 63.992188 180.847656 65.851562 181.695312 C 66.761719 182.113281 67.1875 183.027344 67.199219 184.597656 C 67.203125 185.355469 67.3125 185.410156 68.1875 185.078125 C 68.730469 184.871094 69.925781 184.703125 70.847656 184.703125 C 72.195312 184.703125 72.746094 184.925781 73.671875 185.855469 C 77.527344 189.707031 75.210938 197.136719 69.269531 199.96875 C 68.554688 200.308594 67.972656 200.730469 67.972656 200.902344 C 67.972656 201.074219 69.050781 201.21875 70.371094 201.222656 C 73.191406 201.226562 74.726562 201.875 74.609375 203.007812 C 74.53125 203.761719 74.789062 203.800781 81.660156 204.0625 C 85.582031 204.210938 88.894531 204.230469 89.019531 204.105469 C 89.144531 203.976562 89.023438 203.320312 88.75 202.640625 C 87.125 198.636719 79.941406 177.570312 76.804688 167.613281 C 76.203125 165.710938 73.109375 156.066406 69.921875 146.179688 C 66.738281 136.292969 64.132812 127.773438 64.132812 127.25 C 64.132812 126.726562 64.554688 125.871094 65.074219 125.355469 C 65.917969 124.507812 66.34375 124.410156 69.203125 124.394531 C 70.953125 124.386719 74.203125 124.21875 76.417969 124.019531 C 78.636719 123.824219 83.097656 123.476562 86.332031 123.25 C 95.933594 122.574219 95.488281 122.054688 101.203125 140.539062 C 105.007812 152.832031 109.101562 165.921875 112.921875 177.980469 C 114.796875 183.894531 116.792969 190.382812 117.359375 192.402344 L 118.386719 196.066406 L 120.347656 195.390625 C 122.082031 194.796875 123.296875 194.746094 130.769531 194.953125 C 135.421875 195.082031 139.867188 195.066406 140.648438 194.921875 C 141.886719 194.6875 142.4375 194.171875 144.886719 190.925781 C 149.15625 185.273438 149.898438 184.917969 158.40625 184.433594 C 168.96875 183.832031 169.167969 183.855469 175.496094 186.710938 C 185.953125 191.429688 189.046875 192.164062 207.5625 194.296875 C 214.542969 195.105469 236.976562 197.355469 238.148438 197.367188 C 238.726562 197.375 238.734375 197.210938 238.246094 195.585938 C 237.503906 193.125 237.570312 190.347656 238.449219 186.914062 C 239.414062 183.140625 240.828125 180.398438 242.878906 178.316406 C 244.457031 176.714844 244.539062 176.519531 244.792969 173.664062 C 245.386719 166.921875 248.773438 140.851562 250.152344 132.367188 C 251.128906 126.371094 252.632812 124.0625 263.84375 111.355469 C 266.855469 107.941406 269.707031 104.894531 270.179688 104.585938 C 271.542969 103.691406 273.464844 103.554688 275.734375 104.191406 C 276.890625 104.519531 279.191406 104.980469 280.84375 105.21875 C 284.804688 105.792969 288.0625 106.894531 290.578125 108.5 C 291.703125 109.21875 292.621094 109.714844 292.621094 109.601562 C 292.621094 108.574219 289.671875 95.34375 289.097656 93.800781 C 288.277344 91.59375 286.527344 89.851562 285.128906 89.851562 C 284.632812 89.851562 282.183594 90.378906 279.6875 91.027344 C 274.101562 92.480469 269.253906 92.53125 267.398438 91.160156 C 265.625 89.847656 264.503906 87.40625 264.289062 84.398438 C 264.125 82.109375 263.976562 81.679688 263.269531 81.410156 C 261.566406 80.765625 261.195312 79.566406 262.0625 77.515625 C 262.253906 77.066406 261.949219 76.671875 260.960938 76.089844 C 259.378906 75.15625 259.324219 74.816406 260.367188 72.460938 C 260.789062 71.503906 261.035156 70.453125 260.910156 70.128906 C 260.785156 69.804688 259.835938 69.253906 258.800781 68.910156 C 256.878906 68.273438 255.371094 66.84375 255.371094 65.664062 C 255.371094 65.300781 256.207031 63.898438 257.226562 62.546875 C 258.246094 61.195312 259.582031 59.222656 260.203125 58.167969 C 261.296875 56.292969 261.320312 56.136719 261.222656 51.535156 C 261.027344 42.613281 262.914062 34.1875 265.992188 30.230469 C 266.980469 28.964844 267.488281 28.023438 267.191406 28.023438 C 266.015625 28.023438 260.542969 32.171875 257.492188 35.375 C 252.46875 40.65625 249.726562 45.074219 248.65625 49.617188 C 247.574219 54.191406 247.953125 56.132812 250.769531 60.445312 C 254.011719 65.414062 254.710938 67.058594 254.519531 69.277344 C 254.425781 70.363281 253.714844 72.671875 252.914062 74.488281 C 249.679688 81.839844 250.796875 85.628906 257.550781 90.222656 C 261.949219 93.214844 264.453125 95.769531 265.207031 98.042969 C 265.972656 100.347656 265.730469 103.097656 264.566406 105.359375 C 262.761719 108.851562 260.847656 109.976562 255.292969 110.808594 C 250.488281 111.527344 249.035156 111.441406 249.035156 110.429688 C 249.035156 109.859375 249.570312 109.546875 251.457031 109.015625 C 256.613281 107.558594 259.980469 104.472656 259.980469 101.207031 C 259.980469 99.683594 258.523438 98.375 254.582031 96.347656 C 249.925781 93.957031 247.457031 91.796875 245.78125 88.660156 C 243.609375 84.585938 243.730469 80.371094 246.191406 73.964844 C 247.980469 69.308594 247.851562 68.015625 245.050781 62.394531 C 241.207031 54.6875 240.816406 51.109375 243.128906 44.75 C 247.5625 32.539062 263.6875 16.546875 277.089844 11.066406 C 279.785156 9.964844 280.65625 9.800781 284.558594 9.667969 C 286.984375 9.585938 289.578125 9.679688 290.316406 9.878906 C 291.460938 10.1875 291.992188 10.078125 293.878906 9.136719 C 297.277344 7.445312 300.414062 6.769531 303.5625 7.046875 C 311.191406 7.714844 322.90625 17.023438 331.664062 29.367188 C 334.113281 32.824219 335.832031 35.800781 340.429688 44.535156 C 342.484375 48.441406 345.808594 54.363281 347.8125 57.695312 C 352.144531 64.894531 353.507812 67.988281 354.488281 72.855469 C 355.433594 77.558594 355.792969 78.25 359.429688 82.292969 C 364.820312 88.289062 366.570312 91.585938 366.980469 96.496094 C 367.269531 99.972656 366.425781 104.644531 364.566406 109.875 C 363.359375 113.269531 363.234375 113.976562 363.476562 115.898438 C 364.121094 120.992188 363.632812 124.960938 361.550781 131.5 C 359.839844 136.890625 359.519531 139.804688 360.363281 142.347656 C 361.074219 144.484375 362.554688 146.113281 364.148438 146.507812 C 365.460938 146.832031 365.789062 147.316406 365.1875 148.046875 C 364.496094 148.878906 362.976562 148.726562 361.121094 147.636719 L 359.472656 146.671875 L 360.992188 149.308594 C 361.828125 150.757812 362.511719 152.058594 362.511719 152.191406 C 362.511719 152.328125 363.285156 153.679688 364.226562 155.195312 C 366.351562 158.605469 366.726562 160.578125 365.652344 162.664062 C 364.136719 165.605469 362.316406 166.929688 356.753906 169.140625 C 354.746094 169.9375 352.613281 170.839844 352.015625 171.144531 C 350.496094 171.917969 349.296875 174.714844 349.617188 176.730469 C 350.1875 180.292969 352.074219 181.894531 356.144531 182.273438 C 358.195312 182.464844 358.671875 182.632812 358.671875 183.175781 C 358.671875 184.046875 357.902344 184.65625 356.523438 184.875 C 355.910156 184.972656 354.742188 185.160156 353.929688 185.285156 C 352.5625 185.503906 352.496094 185.566406 353.050781 186.179688 C 353.382812 186.542969 353.921875 187.492188 354.253906 188.285156 C 354.839844 189.683594 354.894531 189.714844 356.285156 189.421875 C 357.070312 189.253906 359.09375 189.125 360.785156 189.132812 C 363.324219 189.148438 364.230469 189.332031 366.015625 190.195312 C 368.863281 191.574219 371.515625 193.628906 372.882812 195.519531 L 373.992188 197.050781 L 374.984375 198.882812 L 374.984375 203.21875 C 374.984375 207.878906 374.644531 209.4375 369.824219 226.945312 C 367.839844 234.152344 366.734375 238.910156 365.761719 244.417969 C 362.519531 262.816406 355.96875 294.171875 354.460938 298.539062 C 354.027344 299.792969 353.078125 301.894531 352.355469 303.207031 L 351.042969 305.601562 L 353.476562 320.515625 C 354.8125 328.71875 357.058594 342.148438 358.460938 350.359375 C 359.867188 358.570312 360.925781 365.527344 360.816406 365.816406 C 360.589844 366.402344 359.597656 366.527344 359.273438 366.003906 C 359.160156 365.820312 358.539062 362.578125 357.894531 358.804688 C 357.25 355.03125 356.042969 347.96875 355.214844 343.109375 C 353.242188 331.5625 349.453125 309.058594 349.453125 308.878906 C 349.453125 308.3125 348.511719 309.089844 346.660156 311.1875 L 344.5 313.632812 L 346.582031 326.261719 C 349.496094 343.898438 352.910156 365.25 352.910156 365.84375 C 352.910156 366.417969 351.53125 366.523438 351.191406 365.976562 C 351.066406 365.773438 350.097656 360.289062 349.039062 353.785156 C 345.175781 330.058594 342.878906 316.21875 342.746094 315.800781 C 342.65625 315.527344 341.789062 315.761719 340.367188 316.4375 C 330.964844 320.898438 316.707031 321.894531 288.585938 320.054688 C 283.730469 319.734375 271.199219 319.367188 260.746094 319.234375 C 243.386719 319.015625 241.539062 319.050781 239.449219 319.660156 C 236.507812 320.519531 234.175781 322.210938 232.554688 324.652344 C 230.421875 327.875 229.898438 329.980469 226.941406 347.332031 C 223.566406 367.144531 223.785156 366.144531 222.824219 366.195312 C 221.765625 366.246094 221.730469 365.597656 222.554688 360.964844 C 222.871094 359.171875 223.738281 354.160156 224.476562 349.828125 C 227.832031 330.191406 228.609375 326.890625 230.605469 323.714844 C 232.082031 321.371094 234.601562 319.179688 236.867188 318.261719 C 238.976562 317.410156 239.433594 317.378906 250.839844 317.378906 C 257.324219 317.378906 262.507812 317.273438 262.359375 317.144531 C 262.210938 317.015625 260.015625 316.699219 257.480469 316.445312 C 251.308594 315.816406 243.777344 314.6875 236.550781 313.300781 C 228.460938 311.75 227.71875 311.648438 227.71875 312.09375 C 227.71875 312.539062 225.378906 325.945312 224.28125 331.78125 C 223.863281 334 222.472656 341.515625 221.191406 348.484375 C 217.570312 368.152344 218.0625 366.132812 216.859375 366.273438 C 216.285156 366.339844 215.816406 366.242188 215.816406 366.054688 C 215.816406 365.867188 216.671875 361.230469 217.722656 355.753906 C 222.703125 329.738281 227 305.53125 226.785156 304.707031 C 226.351562 303.058594 221.8125 301.179688 220.921875 302.277344 C 220.695312 302.558594 220.210938 304.171875 219.851562 305.859375 C 219.058594 309.558594 206.730469 363.371094 206.308594 364.96875 C 205.976562 366.222656 205.527344 366.503906 204.695312 365.976562 C 204.042969 365.566406 204.257812 364.582031 215.089844 318.03125 C 216.382812 312.476562 217.378906 307.886719 217.300781 307.835938 C 216.847656 307.515625 212.09375 305.664062 211.734375 305.667969 C 211.132812 305.667969 210.585938 307.226562 209.851562 311.042969 C 209.160156 314.625 206.851562 325.042969 204.101562 336.964844 C 203.125 341.191406 201.730469 347.300781 201 350.546875 C 197.570312 365.785156 197.390625 366.394531 196.484375 366.117188 C 196.027344 365.976562 195.621094 365.835938 195.582031 365.804688 C 195.539062 365.773438 195.847656 364.195312 196.265625 362.300781 C 197.027344 358.847656 197.6875 355.964844 201.953125 337.347656 C 207.167969 314.609375 208.5625 307.972656 208.128906 307.972656 C 207.148438 307.972656 200.964844 312.78125 198.023438 315.828125 C 193.6875 320.320312 193.15625 321.449219 191.988281 328.675781 C 190.289062 339.195312 188.253906 346.007812 183.21875 358.042969 C 180.238281 365.160156 179.601562 366.34375 178.738281 366.34375 C 177.570312 366.34375 177.828125 365.242188 180.308594 359.609375 C 183.199219 353.050781 186.59375 343.734375 187.734375 339.25 C 188.160156 337.570312 189.210938 332.4375 190.074219 327.84375 C 192.289062 316 193.722656 312.519531 198.34375 307.765625 C 202.929688 303.042969 206.972656 301.191406 215.90625 299.722656 C 220.726562 298.929688 223.066406 298.761719 229.0625 298.765625 C 233.078125 298.773438 238.429688 298.933594 240.957031 299.128906 C 243.484375 299.324219 245.597656 299.441406 245.652344 299.382812 C 245.707031 299.328125 243.3125 298.554688 240.328125 297.664062 C 233.3125 295.570312 228.136719 293.554688 220.941406 290.109375 C 215.53125 287.523438 213.335938 286.34375 205.265625 281.699219 L 202.203125 279.9375 L 195.085938 279.953125 C 184.148438 279.972656 180.574219 280.886719 177.308594 284.503906 C 174.558594 287.546875 173.464844 290.710938 172.226562 299.1875 C 171.136719 306.660156 169.835938 311.015625 163.882812 327.171875 C 159.78125 338.304688 155.722656 350.308594 152.785156 360.007812 C 150.84375 366.417969 150.644531 366.769531 149.445312 366.007812 C 149.027344 365.742188 149.085938 365.160156 149.769531 362.84375 C 151.832031 355.835938 157.289062 339.28125 160.136719 331.398438 C 169.324219 305.941406 168.832031 307.535156 170.117188 299.140625 C 171.453125 290.425781 173.023438 285.960938 175.824219 282.921875 C 179.03125 279.441406 182.667969 278.277344 191.8125 277.796875 L 197.191406 277.515625 L 195.269531 276.632812 C 187.128906 272.898438 179.695312 274.167969 171.703125 280.664062 C 170.78125 281.414062 167.839844 284.539062 165.164062 287.605469 C 160.960938 292.4375 157.800781 296.234375 146.308594 310.273438 C 137.890625 320.554688 128.792969 332.089844 122.710938 340.191406 C 118.78125 345.421875 112.988281 354.386719 112.378906 356.175781 C 111.632812 358.367188 111.574219 360.921875 112.203125 363.652344 C 112.578125 365.269531 112.566406 365.691406 112.140625 365.953125 C 111.226562 366.515625 110.667969 365.945312 110.195312 363.972656 C 109.460938 360.921875 109.882812 356.585938 111.179688 353.863281 C 114.785156 346.273438 131.636719 324.296875 159.257812 291.171875 C 169.863281 278.449219 174.394531 274.773438 181.636719 273.003906 C 188.296875 271.375 195.253906 273.441406 208.136719 280.882812 C 219.554688 287.476562 226.953125 290.953125 235.976562 293.964844 C 244.035156 296.652344 255.367188 299.882812 256.789062 299.902344 C 257.042969 299.90625 256.457031 298.566406 255.484375 296.929688 C 251.058594 289.46875 245.835938 274.582031 240.429688 254.015625 C 236.5 239.066406 236.027344 237.902344 233.753906 237.515625 C 232.085938 237.230469 217.511719 235.640625 203.597656 234.226562 C 193.582031 233.210938 187.734375 232.664062 166.199219 230.746094 C 162.59375 230.425781 160.371094 230.421875 157.6875 230.738281 C 148.746094 231.792969 147.246094 233.746094 137.324219 257.28125 C 133.1875 267.089844 127.761719 279.585938 119.238281 298.949219 C 110.171875 319.546875 101.953125 336.480469 98.050781 342.628906 C 96.605469 344.902344 93.699219 349.210938 91.585938 352.207031 C 89.472656 355.199219 86.394531 359.5625 84.746094 361.902344 C 83.09375 364.238281 81.539062 366.195312 81.289062 366.246094 C 81.039062 366.296875 80.597656 366.191406 80.3125 366.007812 C 79.589844 365.542969 79.816406 365.164062 86.199219 356.167969 C 98.46875 338.863281 102.039062 332.5 112.058594 310.0625 C 113.089844 307.75 114.292969 305.082031 114.726562 304.132812 C 115.160156 303.179688 117.371094 298.167969 119.632812 292.996094 C 121.898438 287.820312 125.304688 280.042969 127.199219 275.714844 C 129.097656 271.382812 133.070312 262.140625 136.03125 255.167969 C 142.972656 238.816406 144.261719 236.273438 147.027344 233.429688 C 148.246094 232.179688 149.15625 231.070312 149.054688 230.96875 C 148.953125 230.867188 129.886719 230.785156 106.691406 230.785156 L 64.515625 230.785156 L 64.515625 298.5625 C 64.515625 364.03125 64.492188 366.34375 63.8125 366.34375 C 63.425781 366.34375 63.007812 366.242188 62.886719 366.121094 Z M 324.046875 318.328125 C 331.214844 317.703125 338.097656 315.769531 341.988281 313.289062 C 344.320312 311.804688 343.695312 311.410156 341.09375 312.730469 C 339.007812 313.785156 333.703125 315.359375 329.976562 316.023438 C 325.78125 316.773438 315.59375 317.898438 310.070312 318.21875 C 305.464844 318.488281 305.066406 318.558594 307.214844 318.726562 C 310.722656 319 318.460938 318.816406 324.046875 318.328125 Z M 302.605469 316.613281 C 333.164062 314.960938 342.902344 312.371094 347.96875 304.535156 C 348.933594 303.042969 349.414062 301.445312 348.898438 301.445312 C 348.800781 301.445312 348.105469 301.863281 347.351562 302.375 C 342.613281 305.589844 327.597656 309.054688 313.03125 310.296875 C 307.789062 310.746094 282.882812 310.613281 278.414062 310.113281 C 277.460938 310.007812 274.179688 309.730469 271.117188 309.503906 C 256.167969 308.382812 233.394531 305.019531 229.308594 303.332031 C 228.515625 303.003906 228.4375 303.042969 228.691406 303.640625 C 229.054688 304.488281 229.058594 304.976562 228.699219 307.417969 L 228.410156 309.363281 L 229.890625 309.796875 C 236.226562 311.664062 253.617188 314.210938 275.148438 316.429688 C 283.476562 317.285156 289.417969 317.324219 302.605469 316.613281 Z M 203.722656 308.332031 C 205.199219 307.371094 207.417969 306.019531 208.652344 305.335938 C 209.886719 304.648438 211.617188 303.558594 212.492188 302.914062 L 214.089844 301.742188 L 212.746094 302.019531 C 209.925781 302.601562 205.363281 304.640625 203.128906 306.316406 C 200.546875 308.257812 197.683594 311.390625 196.25 313.847656 C 195.34375 315.40625 195.410156 315.367188 198.171875 312.773438 C 199.746094 311.292969 202.242188 309.296875 203.722656 308.332031 Z M 319.503906 307.617188 C 333.605469 305.660156 344.183594 302.6875 347.898438 299.632812 C 348.8125 298.878906 348.824219 298.8125 348.335938 296.601562 C 348.058594 295.355469 347.171875 292.246094 346.363281 289.683594 C 343.550781 280.785156 342.808594 273.703125 343.863281 265.859375 C 347.25 240.742188 350.878906 224.90625 357.136719 207.894531 C 359.9375 200.289062 361.589844 197.140625 364.109375 194.632812 L 366.285156 192.46875 L 364.695312 191.753906 C 362.429688 190.734375 357.726562 190.796875 354.449219 191.890625 C 350.8125 193.105469 350.058594 193.140625 349.910156 192.101562 C 349.816406 191.441406 350.101562 191.09375 351.160156 190.589844 C 352.773438 189.820312 352.867188 189.230469 351.578125 187.941406 C 350.523438 186.886719 350.015625 186.914062 346.574219 188.238281 C 343.535156 189.410156 341.523438 190.734375 340.65625 192.136719 C 339.976562 193.238281 339.859375 194.035156 339.867188 197.421875 C 339.878906 201.417969 340.476562 205.480469 342.320312 214.078125 C 342.863281 216.613281 343.304688 219.636719 343.300781 220.800781 C 343.292969 223.296875 342.3125 225.699219 340.8125 226.878906 C 339.644531 227.796875 336.976562 228.644531 336.390625 228.28125 C 335.878906 227.96875 335.917969 228.492188 336.539062 230.257812 C 337.335938 232.523438 340.121094 245.351562 340.988281 250.753906 C 342.429688 259.722656 342.921875 265.445312 342.921875 273.21875 C 342.925781 284.832031 341.917969 289.714844 338.433594 295.007812 C 335.851562 298.929688 331.917969 301.765625 325.789062 304.125 C 317.480469 307.328125 311.484375 307.914062 296.105469 307.042969 C 290.492188 306.722656 281.667969 306.273438 276.492188 306.042969 C 265.140625 305.535156 263.488281 305.277344 260.742188 303.582031 C 257.800781 301.769531 255.707031 301.554688 234.058594 300.875 C 230.203125 300.753906 228.136719 300.8125 228.507812 301.035156 C 229.96875 301.917969 245.875 304.644531 257.484375 306.007812 C 265.753906 306.976562 266.628906 307.0625 275.917969 307.773438 C 286.953125 308.625 287.707031 308.648438 301.261719 308.539062 C 311.335938 308.457031 314.621094 308.292969 319.503906 307.617188 Z M 218.398438 303.746094 C 218.851562 301.46875 218.75 301.4375 215.832031 302.949219 L 213.734375 304.035156 L 215.449219 304.835938 C 216.390625 305.277344 217.355469 305.644531 217.589844 305.652344 C 217.828125 305.660156 218.191406 304.804688 218.398438 303.746094 Z M 319.3125 304.167969 C 331.992188 300.636719 338.308594 294.9375 340.089844 285.425781 C 341.953125 275.484375 340.710938 257.082031 337.121094 241.484375 L 336.355469 238.171875 L 334.230469 237.359375 C 333.0625 236.910156 331.976562 236.542969 331.816406 236.542969 C 331.65625 236.542969 331.417969 239.351562 331.289062 242.785156 C 330.859375 254.109375 328.074219 269.160156 324.234375 280.898438 C 322.414062 286.457031 321.304688 288.613281 319.886719 289.347656 C 316.984375 290.847656 315.550781 289.207031 309.726562 277.683594 C 304.914062 268.164062 301.609375 262.621094 298.691406 259.15625 C 297.140625 257.320312 297.101562 257.296875 296.667969 258.144531 C 296.324219 258.820312 295.917969 259 294.824219 258.96875 C 293.394531 258.925781 291.542969 257.835938 277.835938 249.003906 C 275.089844 247.238281 271.601562 245.171875 270.078125 244.417969 L 267.3125 243.046875 L 265 244.019531 C 260.710938 245.828125 256.054688 245.960938 252.980469 244.371094 C 252.289062 244.015625 250.6875 242.734375 249.421875 241.53125 C 248.152344 240.324219 246.738281 239.140625 246.277344 238.898438 C 245.816406 238.660156 243.851562 238.464844 241.910156 238.464844 C 238.738281 238.464844 238.40625 238.53125 238.574219 239.136719 C 238.679688 239.507812 240.160156 244.992188 241.867188 251.328125 C 251.144531 285.804688 257.796875 301.207031 264.179688 302.976562 C 265.878906 303.449219 268.082031 303.601562 284.171875 304.367188 C 291.25 304.703125 297.125 305.0625 297.230469 305.164062 C 297.335938 305.265625 301.65625 305.277344 306.828125 305.1875 C 315.070312 305.046875 316.621094 304.917969 319.3125 304.167969 Z M 351.964844 294.839844 C 352.9375 293.046875 353.625 289.703125 354.269531 283.664062 C 355.511719 272.007812 356.976562 265.898438 369.164062 221.535156 C 371.800781 211.9375 373.265625 205.410156 373.265625 203.261719 C 373.265625 201.148438 372.3125 199.292969 371.226562 199.292969 C 370.203125 199.292969 367.78125 200.796875 366.699219 202.105469 C 365.410156 203.660156 363.589844 207.785156 361.355469 214.226562 C 358.085938 223.640625 355.207031 233.945312 351.953125 247.871094 C 349.609375 257.90625 348.304688 267.261719 348.304688 274.011719 C 348.304688 277.867188 349.527344 290.226562 350.445312 295.65625 C 350.683594 297.054688 350.800781 296.992188 351.964844 294.839844 Z M 319.898438 286.371094 C 320.667969 285.125 323.367188 276.957031 324.8125 271.488281 C 327.554688 261.148438 329.511719 246.886719 329.410156 238.007812 L 329.371094 234.671875 L 326.835938 234.359375 C 324.070312 234.019531 305.003906 234.136719 290.703125 234.582031 L 281.675781 234.863281 L 276.769531 237.910156 L 271.863281 240.953125 L 274.660156 241.390625 C 278.292969 241.953125 281.703125 242.910156 285.558594 244.453125 C 294.574219 248.058594 304.910156 253.6875 304.910156 254.988281 C 304.910156 256.3125 303.828125 256.023438 299.707031 253.597656 C 297.414062 252.246094 295.375 251.136719 295.183594 251.136719 C 294.734375 251.136719 295.210938 251.78125 298.933594 256.175781 C 303.269531 261.296875 305.847656 265.457031 310.929688 275.523438 C 317.316406 288.171875 318.160156 289.191406 319.898438 286.371094 Z M 346.597656 274.082031 C 346.621094 264.5 346.929688 261.929688 349.488281 249.792969 C 352.363281 236.179688 359.214844 213.039062 362.675781 205.261719 C 364.734375 200.640625 368.140625 197.375 370.910156 197.375 C 371.75 197.375 371.75 197.355469 371.074219 196.445312 C 370.339844 195.457031 368.632812 194.300781 367.910156 194.300781 C 367.667969 194.300781 366.628906 195.09375 365.59375 196.058594 C 362.914062 198.566406 360.789062 203.160156 356.976562 214.703125 C 352.683594 227.703125 350.65625 236.070312 348.15625 251.136719 C 345.179688 269.078125 344.878906 272.550781 345.769531 278.453125 C 346.105469 280.695312 346.382812 282.640625 346.382812 282.773438 C 346.382812 282.902344 346.425781 283.011719 346.480469 283.011719 C 346.53125 283.011719 346.585938 278.992188 346.597656 274.082031 Z M 356.632812 280.425781 C 356.539062 280.050781 356.449219 280.265625 356.441406 280.898438 C 356.4375 281.53125 356.515625 281.839844 356.621094 281.578125 C 356.726562 281.316406 356.730469 280.800781 356.632812 280.425781 Z M 359 269.335938 C 360.140625 263.863281 360.425781 261.929688 360.042969 262.3125 C 359.746094 262.609375 356.75 277.824219 356.796875 278.796875 C 356.824219 279.320312 357.058594 278.710938 357.316406 277.441406 C 357.578125 276.175781 358.335938 272.527344 359 269.335938 Z M 294.925781 256.714844 C 294.925781 256.066406 292.984375 253.597656 290.496094 251.078125 C 287.371094 247.917969 284.332031 246.074219 279.949219 244.675781 C 277.886719 244.019531 273.53125 243.0625 272.679688 243.078125 C 272.558594 243.078125 274.015625 244.035156 275.917969 245.203125 C 277.816406 246.371094 282.65625 249.472656 286.667969 252.101562 C 293.167969 256.351562 294.925781 257.335938 294.925781 256.714844 Z M 263.125 242.449219 C 266.3125 241.445312 270.347656 239.796875 270.347656 239.503906 C 270.347656 239.417969 269.460938 239.488281 268.371094 239.660156 C 266.515625 239.953125 264.214844 239.8125 255.371094 238.867188 C 250.910156 238.390625 249.996094 238.375 249.996094 238.777344 C 249.996094 239.472656 252.613281 241.710938 254.410156 242.550781 C 256.925781 243.726562 259.167969 243.703125 263.125 242.449219 Z M 263.59375 237.460938 C 262.726562 237.15625 260.882812 235.96875 259.492188 234.820312 C 257.351562 233.054688 256.699219 232.203125 255.207031 229.222656 C 254.242188 227.289062 253.199219 224.820312 252.890625 223.734375 C 251.832031 219.996094 251.148438 213.632812 251.144531 207.5 L 251.144531 201.40625 L 249.554688 199.550781 C 247.851562 197.566406 246.511719 196.828125 245.308594 197.207031 C 244.597656 197.433594 244.570312 197.800781 244.6875 205.097656 L 244.8125 212.753906 L 248.507812 219.945312 C 252.375 227.460938 254.355469 232.289062 253.976562 233.273438 C 253.394531 234.792969 252.414062 233.699219 249.625 228.421875 C 246.574219 222.648438 244.046875 219.34375 242.988281 219.75 C 242.46875 219.949219 242.402344 220.507812 242.554688 223.367188 C 242.78125 227.488281 243.550781 230.40625 245.027344 232.726562 C 247.167969 236.089844 247.40625 236.207031 253.140625 236.609375 C 255.953125 236.808594 259.546875 237.203125 261.132812 237.484375 C 264.886719 238.152344 265.523438 238.148438 263.59375 237.460938 Z M 273.0625 236.320312 C 276.09375 235.4375 280.378906 233.03125 284.144531 230.101562 C 288.855469 226.429688 295.40625 220.296875 298.839844 216.335938 C 304.890625 209.359375 305.6875 208.363281 308.246094 204.585938 C 309.683594 202.464844 311.628906 199.761719 312.566406 198.582031 L 314.273438 196.4375 L 314.183594 193.355469 C 314.023438 187.855469 315.578125 181.632812 320.082031 169.726562 C 327.882812 149.089844 329.707031 137.433594 326.21875 130.542969 C 325.121094 128.378906 322.773438 126.199219 320.863281 125.570312 C 318.636719 124.835938 314.308594 125.222656 311.824219 126.378906 C 307.917969 128.195312 306.113281 130.84375 301.265625 141.882812 C 296.457031 152.835938 283.886719 176.949219 279.714844 183.234375 C 276.078125 188.707031 270.984375 192.765625 267.75 192.765625 C 265.980469 192.765625 261.828125 195.75 260.542969 197.9375 C 259.582031 199.578125 259.582031 199.585938 260.019531 204.332031 C 260.484375 209.382812 260.28125 216.207031 259.59375 218.585938 C 259.363281 219.375 258.832031 220.207031 258.414062 220.433594 C 255.765625 221.847656 254.164062 217.292969 254.078125 208.128906 C 254.023438 202.472656 254.109375 202.191406 256.96875 198.484375 C 258.152344 196.949219 258.0625 196.605469 256.476562 196.605469 C 255.117188 196.605469 253.949219 197.839844 253.398438 199.855469 C 252.824219 201.953125 253.246094 215.5 254 219.191406 C 255.859375 228.289062 259.652344 233.855469 265.546875 236.144531 C 267.914062 237.0625 270.328125 237.117188 273.0625 236.320312 Z M 335.253906 233.117188 C 335.023438 232.253906 334.453125 231.304688 333.984375 231.003906 C 331.777344 229.582031 323.324219 228.21875 314.511719 227.859375 C 309.65625 227.660156 294.609375 228.144531 290.230469 228.636719 C 289.332031 228.738281 288.246094 229.484375 284.964844 232.25 C 284.46875 232.667969 285.738281 232.71875 292.429688 232.539062 C 325.570312 231.65625 327.25 231.722656 332.367188 234.179688 C 335.738281 235.796875 335.957031 235.71875 335.253906 233.117188 Z M 327.949219 226.640625 C 327.949219 226.242188 321.46875 223.707031 318.542969 222.960938 C 314.171875 221.847656 310.113281 221.554688 304.964844 221.980469 C 296.980469 222.636719 295.835938 222.894531 293.925781 224.457031 C 293 225.21875 292.238281 226 292.238281 226.191406 C 292.238281 226.382812 293.542969 226.441406 295.214844 226.320312 C 305.976562 225.535156 318.890625 225.632812 324.304688 226.535156 C 326.917969 226.96875 327.949219 227 327.949219 226.640625 Z M 339.242188 225.390625 C 341.875 223.074219 341.917969 221.523438 339.59375 211.527344 C 338.195312 205.492188 338.136719 204.976562 338.136719 198.335938 C 338.132812 190.441406 338.363281 189.230469 341.976562 177.929688 L 344.078125 171.347656 L 344.078125 165.257812 C 344.074219 148.679688 340.796875 132.398438 335.238281 121.339844 C 333.265625 117.410156 329.640625 111.984375 327.289062 109.433594 L 325.34375 107.324219 L 322.882812 107.328125 C 319.449219 107.335938 316.558594 108.847656 308.941406 114.605469 C 305.5625 117.160156 301.414062 120.21875 299.726562 121.40625 C 293.589844 125.71875 292.191406 127.46875 285.53125 139.195312 C 278.707031 151.203125 271.554688 161.488281 268.917969 163.082031 C 268.121094 163.566406 267.046875 163.917969 266.527344 163.867188 C 265.730469 163.789062 265.472656 164.0625 264.804688 165.695312 C 264.105469 167.394531 264.019531 168.398438 264.050781 174.527344 C 264.082031 181.496094 264.585938 185.996094 265.632812 188.632812 C 266.117188 189.851562 266.308594 190.007812 266.914062 189.683594 C 270.382812 187.824219 283.226562 163.410156 292.054688 141.882812 C 297.515625 128.566406 300.714844 123.171875 306.175781 118.066406 C 313.367188 111.34375 319.878906 109.824219 326.457031 113.328125 C 331.878906 116.21875 335.617188 123.09375 337.960938 134.484375 C 338.691406 138.039062 338.753906 139.316406 338.585938 147.453125 C 338.328125 160.019531 336.546875 170.078125 333.046875 178.726562 C 329.25 188.121094 324.8125 193.527344 318.488281 196.46875 C 315.539062 197.839844 315.359375 198.039062 309.683594 206.207031 C 308.4375 208.003906 306.339844 210.796875 305.023438 212.414062 L 302.636719 215.355469 L 304.015625 214.972656 C 305.972656 214.433594 307.972656 215.027344 313.484375 217.789062 C 316.050781 219.078125 320.914062 221.253906 324.296875 222.632812 C 335.25 227.089844 336.949219 227.402344 339.242188 225.390625 Z M 303.566406 220.039062 C 305.46875 219.824219 308.316406 219.640625 309.902344 219.632812 L 312.78125 219.613281 L 310.351562 218.488281 C 306.828125 216.859375 305.480469 216.550781 304.027344 217.050781 C 302.835938 217.457031 297.996094 220.332031 297.996094 220.632812 C 297.996094 220.714844 298.472656 220.703125 299.054688 220.605469 C 299.632812 220.507812 301.664062 220.253906 303.566406 220.039062 Z M 258.15625 210.429688 C 258.144531 207.15625 257.972656 203.703125 257.769531 202.75 L 257.402344 201.023438 L 256.6875 202.558594 C 255.59375 204.902344 255.863281 213.113281 257.175781 217.53125 C 257.71875 219.367188 258.167969 216.125 258.15625 210.429688 Z M 241.441406 216.289062 C 241.601562 215.707031 241.734375 212.464844 241.734375 209.085938 C 241.738281 203.464844 241.667969 202.808594 240.882812 201.34375 C 239.914062 199.53125 239.71875 199.464844 234.441406 199.101562 C 224.835938 198.445312 202.003906 195.910156 192.585938 194.453125 C 185.730469 193.394531 182.75 192.417969 173.886719 188.316406 C 168.324219 185.742188 167.363281 185.691406 162.40625 187.710938 C 160.414062 188.519531 157.269531 189.664062 155.414062 190.257812 C 152.503906 191.183594 151.863281 191.546875 150.765625 192.914062 C 149.175781 194.890625 144 202.324219 143.734375 203.011719 C 143.203125 204.394531 144.933594 203.085938 149.335938 198.761719 C 154.089844 194.101562 154.242188 193.992188 157.0625 193.175781 C 158.648438 192.714844 160.445312 192.175781 161.058594 191.976562 C 163.757812 191.097656 167.414062 191.835938 169.957031 193.773438 C 172.425781 195.65625 173.066406 198.308594 171.148438 198.695312 C 170.6875 198.785156 168.582031 198.964844 166.472656 199.089844 C 160.773438 199.425781 156.847656 200.703125 157.628906 201.964844 C 157.78125 202.210938 159.777344 202.367188 162.75 202.363281 C 165.457031 202.363281 170.101562 202.699219 173.191406 203.117188 C 179.851562 204.015625 191.035156 205.0625 196.617188 205.304688 C 201.996094 205.535156 204.882812 206.210938 211.316406 208.746094 C 214.285156 209.914062 217.796875 211.277344 219.117188 211.773438 C 222.75 213.140625 230.496094 215.273438 235.019531 216.148438 C 237.238281 216.578125 239.398438 217.003906 239.820312 217.09375 C 240.242188 217.183594 240.714844 217.273438 240.867188 217.300781 C 241.023438 217.324219 241.28125 216.867188 241.441406 216.289062 Z M 186.941406 209.585938 C 187.191406 209.332031 187.402344 209.003906 187.402344 208.859375 C 187.402344 208.710938 169.039062 208.488281 146.597656 208.355469 C 124.15625 208.226562 103.246094 208.019531 100.132812 207.894531 C 96.089844 207.734375 94.46875 207.792969 94.46875 208.097656 C 94.46875 208.335938 94.855469 208.691406 95.332031 208.894531 C 96.222656 209.269531 136.3125 209.863281 168.601562 209.980469 C 182.066406 210.03125 186.59375 209.933594 186.941406 209.585938 Z M 60.117188 207.320312 C 63.929688 206.9375 65.695312 206.464844 70.179688 204.628906 C 71.628906 204.035156 71.800781 203.53125 70.5625 203.496094 C 64.863281 203.332031 58.652344 202.800781 58.292969 202.445312 C 57.964844 202.113281 58.484375 201.058594 60.382812 198.207031 C 61.773438 196.117188 63.1875 193.601562 63.523438 192.613281 C 64.203125 190.609375 64.34375 186.03125 63.738281 185.65625 C 63.523438 185.523438 62.097656 185.609375 60.570312 185.847656 C 55.140625 186.699219 36.035156 186.292969 32.59375 185.253906 C 31.664062 184.972656 31.441406 186.835938 32.058594 189.78125 C 32.664062 192.671875 33.785156 195.042969 36.289062 198.695312 C 38.785156 202.34375 38.683594 202.507812 33.789062 202.800781 C 31.574219 202.933594 28.855469 203.0625 27.746094 203.089844 C 26.636719 203.113281 25.730469 203.285156 25.730469 203.464844 C 25.730469 203.648438 26.742188 204.335938 27.980469 204.996094 C 30.058594 206.101562 32.785156 206.722656 38.976562 207.484375 C 41.691406 207.820312 56.28125 207.707031 60.117188 207.320312 Z M 127.492188 204.859375 C 128.445312 204.171875 130.5 202.972656 132.0625 202.1875 C 135.363281 200.53125 139.015625 198.179688 139.015625 197.703125 C 139.015625 197.011719 137.980469 197.464844 132.851562 200.402344 C 129.945312 202.070312 125.90625 204.074219 123.882812 204.859375 C 121.855469 205.644531 120.199219 206.367188 120.199219 206.460938 C 120.199219 206.558594 121.449219 206.519531 122.980469 206.371094 C 125.269531 206.152344 126.074219 205.882812 127.492188 204.859375 Z M 133.175781 205.867188 C 133.257812 205.617188 133.757812 204.898438 134.285156 204.273438 C 134.8125 203.648438 135.097656 203.136719 134.917969 203.136719 C 134.445312 203.136719 128.644531 206.214844 128.644531 206.46875 C 128.644531 206.898438 133.027344 206.3125 133.175781 205.867188 Z M 179.570312 206.3125 C 181.230469 206.070312 180.851562 205.984375 176.265625 205.570312 C 173.414062 205.316406 167.882812 204.910156 163.976562 204.671875 C 158.160156 204.316406 156.800781 204.125 156.488281 203.617188 C 156.277344 203.273438 155.542969 202.414062 154.855469 201.707031 C 152.886719 199.679688 153.28125 198.621094 156.828125 196.382812 C 159.410156 194.75 158.992188 194.433594 156.207031 195.914062 C 154.632812 196.746094 152.621094 198.394531 150.335938 200.722656 C 146.125 205.003906 143.914062 206.214844 142.035156 205.277344 C 140.792969 204.660156 139.980469 204.851562 139.03125 205.996094 C 138.585938 206.53125 140.449219 206.589844 158.113281 206.589844 C 168.882812 206.589844 178.539062 206.464844 179.570312 206.3125 Z M 109.742188 205.101562 C 110.953125 204.496094 115.085938 202.664062 118.933594 201.035156 C 122.777344 199.402344 126.109375 197.847656 126.335938 197.574219 C 126.65625 197.1875 126.386719 197.027344 125.101562 196.839844 C 123.1875 196.554688 121.492188 196.976562 119.542969 198.214844 C 118.773438 198.703125 115.46875 200.492188 112.191406 202.1875 C 108.917969 203.882812 106.167969 205.480469 106.082031 205.738281 C 105.8125 206.542969 107.441406 206.257812 109.742188 205.101562 Z M 119.8125 204.308594 C 126.160156 201.476562 131.960938 198.597656 132.871094 197.828125 C 134.730469 196.253906 132.675781 196.953125 125.917969 200.195312 C 122.242188 201.957031 118.027344 203.875 116.550781 204.457031 C 115.070312 205.039062 113.726562 205.640625 113.5625 205.792969 C 112.796875 206.511719 117.25 205.453125 119.8125 204.308594 Z M 105.941406 203.257812 C 108.183594 202.054688 111.480469 200.355469 113.261719 199.484375 C 117.222656 197.539062 116.808594 196.859375 112.671875 198.519531 C 109.339844 199.851562 100.042969 204.1875 98.894531 204.941406 C 98.21875 205.386719 98.339844 205.4375 99.996094 205.4375 C 101.527344 205.4375 102.589844 205.046875 105.941406 203.257812 Z M 139.117188 203.867188 C 140.570312 203.003906 141.675781 202.214844 141.574219 202.113281 C 141.355469 201.890625 139.675781 202.734375 137.199219 204.304688 C 134.480469 206.027344 136.101562 205.660156 139.117188 203.867188 Z M 101.585938 201.371094 C 105.378906 199.453125 110.082031 197.222656 112.039062 196.421875 C 114.578125 195.375 115.589844 194.773438 115.589844 194.300781 C 115.589844 193.695312 112.574219 183.847656 106.773438 165.5 C 105.535156 161.59375 103.882812 156.324219 103.101562 153.789062 C 98.226562 137.996094 94.78125 127.570312 94.15625 126.726562 C 92.738281 124.808594 92.234375 124.753906 83.496094 125.566406 C 79.074219 125.976562 74.558594 126.394531 73.457031 126.496094 C 71 126.714844 69.753906 127.324219 70 128.1875 C 70.097656 128.539062 72.175781 135.046875 74.621094 142.652344 C 82.5 167.191406 86.707031 180.597656 90.070312 191.886719 C 93.648438 203.894531 94.0625 205.140625 94.4375 204.972656 C 94.574219 204.914062 97.789062 203.292969 101.585938 201.371094 Z M 64.15625 199.828125 C 68.257812 198.609375 71.503906 196.390625 72.753906 193.941406 C 74.511719 190.5 73.246094 186.621094 70.363281 186.621094 C 68.972656 186.621094 67.890625 188.03125 66.082031 192.191406 C 65.164062 194.300781 63.867188 196.808594 63.195312 197.757812 C 60.992188 200.886719 60.945312 200.78125 64.15625 199.828125 Z M 144.484375 197.632812 C 145.277344 196.75 146.75 194.925781 147.757812 193.570312 C 150.417969 190 151.710938 189.101562 155.910156 187.921875 C 159.710938 186.855469 161.386719 186.015625 158.984375 186.386719 C 158.242188 186.5 156.429688 186.703125 154.949219 186.835938 C 150.316406 187.261719 149.832031 187.652344 143.6875 195.945312 C 141.082031 199.460938 140.972656 199.6875 141.976562 199.46875 C 142.5625 199.339844 143.695312 198.511719 144.484375 197.632812 Z M 254.246094 195.277344 C 255.132812 194.753906 256.191406 194.53125 257.660156 194.554688 C 259.339844 194.578125 260.207031 194.347656 261.773438 193.464844 C 264.617188 191.859375 264.730469 191.648438 263.828125 189.609375 C 262.433594 186.457031 262.191406 183.132812 262.007812 164.796875 C 261.828125 146.988281 262.140625 138.933594 263.136719 135.757812 C 263.789062 133.675781 265.386719 132.269531 269.003906 130.601562 C 275.351562 127.671875 280.601562 124.753906 282.925781 122.867188 C 285.355469 120.894531 285.816406 119.921875 284.746094 119.035156 C 284.277344 118.644531 283.5 118.777344 280.550781 119.753906 C 275.929688 121.289062 273.027344 121.328125 272.464844 119.871094 C 272.125 118.980469 273.28125 118.234375 274.363281 118.644531 L 275.226562 118.972656 L 274.515625 117.578125 C 273.601562 115.789062 273.617188 114.769531 274.574219 113.550781 C 275.546875 112.3125 278.410156 111.652344 281.410156 111.96875 L 283.597656 112.199219 L 282.445312 111.230469 C 281.8125 110.699219 279.273438 109.203125 276.800781 107.910156 L 272.308594 105.558594 L 270.753906 106.964844 C 268.53125 108.972656 257.011719 122.488281 255.125 125.300781 C 252.464844 129.269531 252.875 127.035156 247.691406 165.691406 C 247.027344 170.648438 246.207031 179.957031 245.949219 185.503906 C 245.816406 188.335938 245.648438 190.855469 245.570312 191.105469 C 245.492188 191.363281 245.078125 191.460938 244.589844 191.335938 C 243.761719 191.117188 243.75 191.023438 243.941406 185.78125 C 244.078125 181.957031 244.011719 180.488281 243.703125 180.585938 C 243.46875 180.664062 242.710938 181.835938 242.019531 183.195312 C 239.667969 187.804688 239.175781 194.5 240.984375 197.257812 C 241.757812 198.433594 242.125 198.375 242.707031 196.976562 C 242.972656 196.335938 243.5 195.644531 243.878906 195.441406 C 245.617188 194.511719 248.824219 195.484375 250.722656 197.515625 L 251.640625 198.5 L 252.300781 197.265625 C 252.664062 196.585938 253.539062 195.691406 254.246094 195.277344 Z M 165.414062 197.105469 C 167.792969 196.984375 169.734375 196.75 169.734375 196.585938 C 169.734375 196.144531 166.546875 194.6875 165.574219 194.6875 C 165.105469 194.6875 163.519531 195.292969 162.046875 196.035156 C 159.398438 197.367188 158.550781 198.09375 160.230469 197.589844 C 160.707031 197.445312 163.039062 197.226562 165.414062 197.105469 Z M 87.550781 190.609375 C 86.6875 187.464844 84.335938 179.710938 82.328125 173.375 C 80.316406 167.039062 77.71875 158.828125 76.558594 155.132812 C 75.398438 151.4375 72.972656 143.867188 71.167969 138.3125 C 69.214844 132.304688 67.960938 127.832031 68.070312 127.273438 C 68.253906 126.296875 67.8125 126.078125 66.859375 126.683594 C 66.09375 127.167969 66.230469 127.683594 71.65625 144.761719 C 82.113281 177.683594 88.542969 196.898438 88.960938 196.480469 C 89.046875 196.394531 88.414062 193.75 87.550781 190.609375 Z M 318.925781 193.957031 C 326.242188 189.742188 331.839844 179.714844 334.667969 165.75 C 336.316406 157.601562 336.890625 151.171875 336.675781 143.226562 C 336.5 136.84375 336.363281 135.6875 335.304688 131.808594 C 331.859375 119.1875 326.792969 113.453125 319.234375 113.613281 C 315.144531 113.699219 310.527344 116.332031 305.738281 121.304688 C 301.421875 125.789062 299.84375 128.792969 291.671875 148.101562 C 285.367188 163.007812 278.265625 176.964844 272.417969 185.949219 C 271.015625 188.105469 270.199219 189.695312 270.492188 189.695312 C 271.496094 189.695312 276.132812 184.972656 278.175781 181.871094 C 282.214844 175.738281 293.578125 154.09375 298.410156 143.335938 C 304.980469 128.691406 306.378906 126.558594 310.664062 124.636719 C 318.550781 121.097656 325.871094 123.621094 328.800781 130.882812 C 329.585938 132.832031 329.671875 133.652344 329.640625 139.003906 C 329.59375 147.40625 328.34375 153.023438 323.6875 165.8125 C 320.222656 175.3125 317.65625 182.851562 317.21875 184.800781 C 316.617188 187.496094 316.003906 193.558594 316.253906 194.355469 C 316.550781 195.28125 316.652344 195.265625 318.925781 193.957031 Z M 345.832031 186.410156 L 348.730469 185.351562 L 347.40625 183.972656 C 345.773438 182.265625 344.949219 180.664062 344.609375 178.546875 L 344.347656 176.921875 L 343.632812 179.179688 C 342.488281 182.792969 341.007812 188.078125 341.007812 188.550781 C 341.007812 188.789062 341.441406 188.640625 341.972656 188.222656 C 342.503906 187.804688 344.238281 186.988281 345.832031 186.410156 Z M 61.058594 183.652344 C 63.617188 182.996094 53.425781 182.25 45.945312 182.542969 C 38.6875 182.824219 34.441406 183.175781 34.730469 183.460938 C 35.539062 184.269531 58.003906 184.433594 61.058594 183.652344 Z M 350.878906 182.714844 C 348.605469 180.863281 347.738281 178.878906 347.777344 175.617188 C 347.816406 171.890625 348.671875 170.539062 354.332031 165.242188 C 358.980469 160.890625 360.664062 158.574219 361.171875 155.835938 C 361.40625 154.589844 361.183594 153.984375 359.273438 150.648438 C 354.363281 142.070312 354.308594 137.492188 358.953125 123.453125 C 360.320312 119.316406 360.730469 117.5 360.738281 115.578125 C 360.765625 109.921875 357.035156 105.136719 346 96.65625 C 339.167969 91.40625 336.144531 88.722656 333.914062 85.921875 C 331.40625 82.773438 329.066406 78.066406 328.175781 74.359375 C 327.515625 71.625 326.609375 61.664062 326.96875 61.085938 C 327.082031 60.902344 327.183594 56.285156 327.195312 50.820312 C 327.210938 43.242188 327.074219 40.21875 326.621094 38.058594 C 324.449219 27.769531 315.992188 17.351562 307.214844 14.148438 C 304.605469 13.195312 301.699219 13.0625 293.390625 13.503906 C 290.175781 13.675781 290.070312 13.714844 286.550781 15.953125 C 280.652344 19.707031 270.777344 27.519531 270.492188 28.652344 C 270.15625 29.988281 270.933594 33.261719 272.175781 35.761719 C 273.394531 38.207031 278.417969 43.382812 281.574219 45.4375 C 282.78125 46.226562 286.289062 48.1875 289.367188 49.796875 C 295.746094 53.132812 297.972656 55.144531 299.546875 58.984375 C 300.433594 61.15625 300.472656 61.605469 300.492188 70.839844 C 300.507812 79.882812 300.5625 80.585938 301.402344 82.9375 C 301.890625 84.308594 303.066406 86.59375 304.007812 88.015625 C 306.507812 91.78125 309.445312 94.089844 318.542969 99.453125 C 322.703125 101.90625 324.429688 103.257812 327.628906 106.578125 C 333.664062 112.835938 339.128906 123.207031 342.320312 134.453125 C 344.617188 142.542969 346.226562 156.644531 346.34375 169.726562 C 346.410156 177.066406 346.675781 179.207031 347.785156 181.359375 C 348.417969 182.578125 350.421875 183.9375 351.566406 183.917969 C 352.191406 183.910156 352.0625 183.683594 350.878906 182.714844 Z M 360.496094 165.140625 C 363.640625 163.207031 364.796875 160.5625 363.515625 158.25 C 362.953125 157.234375 362.828125 157.347656 362.136719 159.496094 C 361.828125 160.441406 360.566406 162.105469 358.628906 164.101562 C 356.964844 165.824219 355.601562 167.265625 355.601562 167.308594 C 355.597656 167.59375 358.851562 166.152344 360.496094 165.140625 Z M 267.625 153.40625 C 268.101562 152.347656 269.839844 148.027344 271.484375 143.804688 C 273.132812 139.582031 275.207031 134.511719 276.097656 132.542969 C 276.984375 130.570312 277.628906 128.875 277.523438 128.769531 C 277.417969 128.664062 276.648438 129.011719 275.808594 129.542969 C 274.96875 130.074219 272.664062 131.269531 270.683594 132.203125 C 266.828125 134.019531 265.730469 134.960938 265 137.082031 C 264.574219 138.3125 263.847656 153.210938 263.855469 160.507812 L 263.859375 163.390625 L 265.308594 159.355469 C 266.105469 157.140625 267.144531 154.460938 267.621094 153.40625 Z M 268.746094 160.695312 C 269.46875 159.78125 274.957031 147.191406 278.042969 139.386719 C 279.859375 134.789062 282.433594 126.765625 282.175781 126.507812 C 281.21875 125.554688 279.792969 128.511719 273.011719 145.53125 C 270.949219 150.707031 268.839844 155.890625 268.320312 157.054688 C 266.992188 160.019531 266.667969 161.660156 267.410156 161.660156 C 267.726562 161.660156 268.328125 161.226562 268.746094 160.695312 Z M 281.585938 141.980469 C 288.074219 130.660156 291.101562 125.984375 293.257812 123.96875 C 294.652344 122.664062 309.390625 111.597656 313.085938 109.082031 C 316.132812 107.003906 318.695312 105.78125 320.839844 105.378906 C 322.011719 105.160156 322.140625 105.035156 321.726562 104.539062 C 320.820312 103.445312 317.847656 102.496094 312.304688 101.527344 C 299.882812 99.355469 295.421875 96.859375 292.335938 90.359375 C 291.042969 87.632812 290.925781 87.09375 290.773438 83.117188 L 290.609375 78.824219 L 286.910156 81.296875 C 280.828125 85.367188 273 88.6875 269.433594 88.707031 L 267.851562 88.714844 L 268.8125 89.496094 C 269.644531 90.171875 270.15625 90.25 272.652344 90.085938 C 274.238281 89.980469 277.316406 89.449219 279.492188 88.910156 C 288.976562 86.5625 290.199219 87.726562 293.167969 101.953125 C 294.089844 106.382812 294.972656 111.003906 295.121094 112.21875 C 295.300781 113.644531 295.578125 114.425781 295.902344 114.425781 C 296.570312 114.425781 297.996094 112.582031 297.996094 111.71875 C 297.996094 109.960938 298.976562 109.261719 299.894531 110.367188 C 301.015625 111.71875 298.792969 115.367188 295.972656 116.796875 C 295.386719 117.09375 294.609375 117.9375 294.246094 118.667969 C 293.761719 119.632812 293.289062 120.027344 292.503906 120.117188 C 291.214844 120.265625 290.835938 120.839844 287.425781 127.785156 C 285.078125 132.5625 280.332031 143.03125 280.332031 143.433594 C 280.332031 143.929688 280.738281 143.457031 281.585938 141.980469 Z M 358.628906 134.585938 C 358.84375 133.742188 359.523438 131.324219 360.136719 129.210938 C 361.308594 125.167969 361.878906 121.980469 361.367188 122.292969 C 361.203125 122.398438 360.984375 122.960938 360.886719 123.542969 C 360.789062 124.125 360.070312 126.761719 359.289062 129.402344 C 358.347656 132.578125 357.8125 135.242188 357.707031 137.277344 C 357.5625 140.125 357.574219 140.195312 357.894531 138.234375 C 358.085938 137.074219 358.414062 135.433594 358.628906 134.585938 Z M 286.519531 125.042969 C 287.578125 122.960938 288.355469 121.167969 288.246094 121.058594 C 287.886719 120.699219 286.859375 121.304688 286.859375 121.875 C 286.859375 122.183594 286.171875 123.863281 285.324219 125.609375 C 283.878906 128.605469 283.210938 130.839844 284.195312 129.402344 C 284.414062 129.085938 285.457031 127.125 286.519531 125.042969 Z M 288.398438 117.914062 C 286.195312 116 282.804688 113.921875 282.210938 114.121094 C 281.957031 114.207031 282.683594 114.949219 283.824219 115.769531 C 284.96875 116.59375 286.46875 117.75 287.164062 118.34375 C 287.855469 118.933594 288.808594 119.417969 289.273438 119.417969 C 290.003906 119.417969 289.878906 119.203125 288.398438 117.914062 Z M 281.777344 117.019531 C 281.574219 116.40625 279.179688 116.140625 279.179688 116.730469 C 279.179688 116.964844 279.355469 117.054688 279.566406 116.921875 C 279.777344 116.792969 279.949219 116.867188 279.949219 117.09375 C 279.949219 117.316406 280.394531 117.5 280.941406 117.5 C 281.5625 117.5 281.875 117.320312 281.777344 117.019531 Z M 276.488281 114.691406 C 276.488281 114.519531 276.320312 114.488281 276.109375 114.617188 C 275.898438 114.75 275.726562 115.148438 275.730469 115.503906 C 275.734375 116.066406 275.789062 116.074219 276.109375 115.578125 C 276.3125 115.261719 276.484375 114.863281 276.488281 114.691406 Z M 292.648438 112.945312 C 291.992188 111.714844 287.636719 109.089844 284.824219 108.226562 C 283.386719 107.789062 282.117188 107.523438 282 107.636719 C 281.886719 107.753906 282.890625 108.402344 284.230469 109.078125 C 285.570312 109.753906 287.429688 110.84375 288.359375 111.5 C 289.285156 112.160156 290.667969 113.140625 291.429688 113.683594 C 292.890625 114.726562 293.429688 114.398438 292.648438 112.945312 Z M 287.246094 113.46875 C 286.75 112.9375 286.15625 112.511719 285.929688 112.519531 C 285.507812 112.53125 287.476562 114.425781 287.910156 114.425781 C 288.039062 114.425781 287.742188 113.996094 287.246094 113.46875 Z M 361.320312 107.121094 C 360.78125 104.683594 358.578125 100.496094 356.375 97.730469 C 355.339844 96.425781 351.453125 92.542969 347.738281 89.101562 C 340.496094 82.386719 338.464844 80.191406 336.214844 76.652344 C 333.207031 71.917969 331.957031 67.75 330.578125 57.867188 C 330.128906 54.652344 329.628906 51.246094 329.464844 50.296875 C 329.304688 49.34375 329.210938 53.578125 329.265625 59.703125 C 329.351562 69.753906 329.441406 71.136719 330.191406 73.878906 C 332.410156 81.976562 335.726562 86.097656 346.769531 94.46875 C 353.453125 99.53125 358.832031 104.613281 360.46875 107.40625 C 361.011719 108.328125 361.507812 109.03125 361.578125 108.960938 C 361.644531 108.894531 361.53125 108.066406 361.320312 107.121094 Z M 260.566406 107.125 C 263.113281 105.550781 264.238281 100.609375 262.722656 97.640625 C 261.875 95.972656 260.542969 94.820312 256.414062 92.179688 C 249.203125 87.5625 247.441406 81.769531 250.929688 74.128906 C 252.007812 71.769531 252.414062 70.347656 252.4375 68.898438 C 252.464844 67.078125 252.257812 66.59375 250.058594 63.257812 C 248.738281 61.253906 247.316406 58.722656 246.90625 57.636719 C 245.636719 54.296875 246.082031 49.523438 248.09375 44.976562 C 250.632812 39.242188 258.253906 30.742188 263.246094 28.078125 C 264.628906 27.335938 264.664062 27.28125 263.628906 27.503906 C 261.953125 27.859375 259.832031 28.988281 256.140625 31.484375 C 254.34375 32.699219 252.488281 33.890625 252.019531 34.132812 C 251.171875 34.566406 247.742188 39.5 246.238281 42.453125 C 244.660156 45.546875 243.757812 49.378906 243.917969 52.324219 C 244.046875 54.78125 244.367188 55.75 246.710938 60.847656 C 250.113281 68.242188 250.164062 68.761719 248.074219 74.691406 C 245.964844 80.6875 245.796875 83.910156 247.429688 87.246094 C 248.816406 90.082031 251.160156 92.117188 255.765625 94.480469 C 260.421875 96.875 261.566406 98.019531 261.808594 100.539062 C 262.03125 102.882812 261.402344 104.875 259.898438 106.585938 C 258.585938 108.085938 258.769531 108.234375 260.566406 107.125 Z M 364.277344 103.769531 C 364.65625 102.132812 364.964844 99.398438 364.964844 97.691406 C 364.964844 94.9375 364.8125 94.269531 363.609375 91.738281 C 362.113281 88.585938 360.390625 86.394531 354.292969 79.898438 C 345.175781 70.175781 342.382812 65.382812 335.449219 47.574219 C 331.839844 38.304688 327.460938 28.960938 324.84375 24.949219 C 321.460938 19.769531 313.632812 13.054688 307.707031 10.25 C 305.449219 9.179688 304.691406 9.015625 302.03125 9.015625 C 299.355469 9.015625 298.613281 9.175781 296.308594 10.269531 C 294.851562 10.960938 293.746094 11.609375 293.851562 11.714844 C 293.957031 11.820312 295.148438 11.625 296.5 11.277344 C 301.296875 10.050781 307.105469 11.175781 312.605469 14.398438 C 318.179688 17.667969 322.574219 22.78125 326.011719 29.996094 C 328.929688 36.117188 330.539062 42.4375 331.964844 53.367188 C 332.773438 59.5625 333.96875 66.105469 334.738281 68.539062 C 335.707031 71.617188 338.179688 76.089844 340.378906 78.757812 C 341.5 80.117188 344.910156 83.519531 347.953125 86.320312 C 355.808594 93.539062 359.089844 97.300781 361.175781 101.464844 C 362.121094 103.355469 362.898438 105.203125 362.898438 105.570312 C 362.898438 106.140625 363.207031 106.746094 363.5 106.746094 C 363.546875 106.746094 363.898438 105.40625 364.277344 103.769531 Z M 314.601562 99.4375 C 313.308594 98.917969 307.636719 95.105469 305.792969 93.515625 C 303.46875 91.511719 300.472656 86.828125 299.449219 83.59375 C 298.640625 81.03125 298.574219 80.140625 298.574219 71.609375 C 298.574219 60.335938 298.355469 59.445312 294.699219 55.863281 C 292.753906 53.957031 287.628906 50.585938 287.628906 51.214844 C 287.628906 51.3125 288.652344 52.367188 289.898438 53.558594 C 295.503906 58.90625 296.914062 66.164062 293.90625 74.21875 C 292.011719 79.296875 292.316406 86 294.636719 90.355469 C 296.5 93.851562 299.707031 96.234375 304.527344 97.707031 C 307.152344 98.507812 313.222656 99.765625 314.511719 99.777344 C 315.464844 99.785156 315.464844 99.785156 314.601562 99.4375 Z M 274.628906 85.292969 C 278.976562 83.585938 282.839844 81.597656 285.496094 79.703125 C 287.3125 78.40625 288.109375 77.511719 288.988281 75.777344 C 290.078125 73.617188 290.125 73.328125 290.125 68.34375 C 290.125 63.546875 290.046875 62.976562 289.074219 60.707031 C 287.355469 56.695312 285.394531 54.535156 280.296875 51.039062 C 272.511719 45.699219 269.824219 41.785156 268.035156 33.160156 L 267.585938 31 L 266.847656 32.101562 C 265.171875 34.621094 263.339844 42.890625 263.375 47.800781 C 263.386719 49.488281 263.421875 52.023438 263.453125 53.425781 C 263.5 55.578125 263.316406 56.386719 262.292969 58.539062 C 261.621094 59.941406 260.292969 62.046875 259.34375 63.214844 C 258.394531 64.378906 257.703125 65.5625 257.8125 65.839844 C 257.917969 66.117188 258.964844 66.785156 260.140625 67.320312 C 262.96875 68.617188 263.457031 69.628906 262.523438 72.257812 C 261.765625 74.398438 261.734375 74.3125 263.5 75.195312 C 265.082031 75.984375 265.304688 76.964844 264.171875 78.171875 C 263.695312 78.679688 263.378906 79.136719 263.464844 79.191406 C 263.554688 79.246094 264.148438 79.554688 264.78125 79.878906 C 265.84375 80.421875 265.949219 80.667969 266.152344 83.023438 C 266.273438 84.425781 266.613281 85.867188 266.910156 86.222656 C 267.671875 87.140625 270.914062 86.75 274.628906 85.292969 Z M 351.757812 69.957031 C 350.855469 67.140625 349.613281 64.757812 345.417969 57.785156 C 343.894531 55.25 340.726562 49.507812 338.378906 45.023438 C 334.175781 36.988281 332.351562 33.785156 331.972656 33.785156 C 331.867188 33.785156 332.363281 34.949219 333.074219 36.375 C 334.210938 38.652344 335.78125 42.546875 340.316406 54.328125 C 342.878906 60.972656 346.179688 66.828125 350.382812 72.171875 C 352.253906 74.550781 352.339844 74.613281 352.460938 73.59375 C 352.527344 73.011719 352.210938 71.375 351.757812 69.957031 Z M 293.171875 66.617188 C 293.195312 62.832031 293.09375 62.171875 292.199219 60.28125 C 291.648438 59.121094 290.816406 57.738281 290.355469 57.207031 L 289.511719 56.25 L 290.066406 57.402344 C 291.601562 60.589844 292.390625 64.316406 292.398438 68.449219 C 292.40625 71.457031 292.507812 72.347656 292.777344 71.714844 C 292.980469 71.234375 293.160156 68.941406 293.171875 66.617188 Z M 282.789062 49.816406 C 282.507812 49.15625 278.410156 45.945312 278.164062 46.191406 C 278.015625 46.34375 282.515625 50.222656 282.914062 50.285156 C 282.960938 50.289062 282.90625 50.082031 282.789062 49.816406 Z M 263.777344 25.34375 C 264.914062 25.125 267.03125 24.949219 268.480469 24.949219 L 271.117188 24.949219 L 274.476562 22.222656 C 276.324219 20.722656 278.007812 19.316406 278.222656 19.101562 C 278.480469 18.839844 277.367188 18.78125 274.765625 18.921875 C 268.855469 19.25 265.675781 20.574219 260.175781 24.996094 C 256.234375 28.167969 255.757812 29.175781 259.121094 27.230469 C 260.542969 26.40625 262.640625 25.558594 263.777344 25.34375 Z M 285.199219 14.472656 C 287.351562 13.175781 289.023438 11.976562 288.921875 11.8125 C 288.601562 11.289062 282.898438 11.484375 280.546875 12.097656 C 278.21875 12.703125 272.730469 15.242188 271.214844 16.414062 C 270.386719 17.050781 270.566406 17.074219 275.820312 16.953125 L 281.292969 16.828125 Z M 0 224.066406 L 0 223.105469 L 106.851562 223.007812 L 213.707031 222.910156 L 213.824219 221.085938 L 213.941406 219.265625 L 3.839844 219.265625 L 3.839844 217.34375 L 109.734375 217.4375 L 215.625 217.535156 L 215.734375 221.28125 L 215.847656 225.023438 L 0 225.023438 Z M 50.167969 177.113281 C 49.171875 176.886719 49.480469 175.667969 51.832031 170.511719 C 55.964844 161.46875 55.890625 158.964844 51.28125 151.785156 C 45.347656 142.550781 45.496094 139.289062 52.328125 128.710938 C 53.917969 126.25 54.808594 125.203125 55.191406 125.351562 C 55.496094 125.46875 55.816406 125.5625 55.90625 125.5625 C 56.40625 125.5625 55.789062 126.847656 53.402344 130.789062 C 48.074219 139.585938 47.882812 142.132812 52.050781 148.84375 C 53.214844 150.71875 54.722656 153.375 55.40625 154.75 C 56.535156 157.023438 56.640625 157.550781 56.613281 160.699219 C 56.582031 164.386719 56.140625 165.878906 52.785156 173.566406 C 51.15625 177.292969 51.128906 177.328125 50.167969 177.113281 Z M 45.601562 175.796875 C 45.503906 175.519531 45.59375 174.863281 45.796875 174.332031 C 46.003906 173.804688 46.257812 171.386719 46.367188 168.957031 C 46.589844 163.910156 46.15625 161.660156 43.921875 156.296875 C 40.265625 147.511719 40.171875 147.179688 40.164062 142.84375 C 40.160156 139.429688 40.324219 138.34375 41.222656 135.738281 C 42.765625 131.28125 46.769531 124.027344 47.683594 124.027344 C 48.988281 124.027344 48.859375 125.085938 47.210938 127.910156 C 43.871094 133.625 41.859375 139.277344 41.859375 142.933594 C 41.859375 145.007812 42.875 148.335938 45.097656 153.53125 C 47.96875 160.234375 48.488281 162.457031 48.453125 167.804688 C 48.414062 173.191406 47.789062 176.011719 46.601562 176.179688 C 46.148438 176.242188 45.695312 176.070312 45.601562 175.796875 Z M 45.601562 175.796875 "/></g></g></svg>