<svg xmlns="http://www.w3.org/2000/svg" xmlns:xlink="http://www.w3.org/1999/xlink" width="500" zoomAndPan="magnify" viewBox="0 0 375 374.999991" height="500" preserveAspectRatio="xMidYMid meet" version="1.2"><g id="e01813aaf7"><path style=" stroke:none;fill-rule:nonzero;fill:#000000;fill-opacity:1;" d="M 132.257812 367.394531 C 132.484375 367.109375 132.765625 364.964844 132.890625 362.632812 C 133.078125 359.054688 133.308594 357.96875 134.367188 355.703125 C 135.535156 353.203125 138.609375 349.6875 139.601562 349.714844 C 140.308594 349.734375 142.679688 353.289062 145.621094 358.746094 C 147.175781 361.621094 148.722656 364.484375 149.0625 365.101562 C 149.402344 365.71875 150.199219 366.355469 150.832031 366.515625 C 151.832031 366.765625 152.160156 366.585938 153.3125 365.183594 C 154.039062 364.292969 157.453125 360.074219 160.898438 355.8125 C 167.601562 347.507812 173.453125 341.371094 175.792969 340.179688 C 177.890625 339.113281 180.34375 338.675781 190.839844 337.488281 C 203.945312 336.007812 218.023438 333.535156 231.015625 330.4375 C 238.855469 328.566406 240.953125 328.089844 244.25 327.433594 C 247.160156 326.851562 255.246094 326.742188 311.257812 326.535156 C 374.601562 326.300781 374.957031 326.292969 374.957031 325.46875 C 374.957031 324.648438 374.613281 324.640625 318.082031 324.433594 L 261.210938 324.226562 L 263.535156 323.136719 C 267.886719 321.09375 271.925781 316.351562 273.050781 311.964844 L 273.585938 309.867188 L 279.601562 310.214844 C 282.90625 310.40625 291.847656 310.546875 299.46875 310.527344 C 312.980469 310.492188 313.382812 310.464844 315.515625 309.535156 C 322.695312 306.410156 326.355469 293.859375 325.847656 274.078125 C 325.640625 265.976562 325.265625 264.398438 323.160156 262.742188 C 322.335938 262.089844 321.652344 261.894531 320.71875 262.046875 C 319.667969 262.21875 319.347656 262.082031 319 261.320312 C 317.886719 258.875 313.019531 258.207031 296.160156 258.183594 C 289.675781 258.175781 283.1875 257.996094 281.738281 257.785156 C 279.167969 257.414062 275.800781 256.023438 273.925781 254.558594 C 273.003906 253.839844 273.011719 253.832031 274.921875 253.984375 C 278.015625 254.230469 285.78125 253.226562 288.976562 252.164062 C 294.335938 250.382812 299.261719 247.144531 303.839844 242.382812 C 308.464844 237.574219 311.105469 233.109375 312.484375 227.769531 C 313.804688 222.644531 313.277344 211.398438 310.8125 192.140625 C 310.226562 187.585938 309.484375 181.625 309.160156 178.890625 C 307.804688 167.503906 303.226562 143.613281 300.679688 134.644531 C 297.078125 121.949219 292.53125 114.59375 286.339844 111.453125 C 284.667969 110.605469 278.742188 108.710938 277.761719 108.710938 C 277.644531 108.710938 277.546875 107.730469 277.542969 106.535156 C 277.527344 99.167969 273.125 92.847656 262.039062 84.273438 C 250.566406 75.402344 248.019531 71.640625 245.902344 60.441406 C 244.082031 50.828125 242.808594 46.183594 240.964844 42.441406 C 234.769531 29.871094 220.308594 14.613281 210.375 10.167969 C 208.988281 9.546875 206.082031 8.589844 203.921875 8.046875 C 198.558594 6.695312 188.847656 6.671875 184.007812 7.996094 C 171.238281 11.496094 161.375 22.023438 151.332031 42.875 C 146.664062 52.570312 144.460938 59.921875 144.082031 67.097656 C 143.78125 72.742188 144.34375 76.566406 146.273438 82.003906 C 149.683594 91.621094 149.855469 92.382812 149.878906 97.945312 C 149.898438 102.394531 149.773438 103.429688 148.976562 105.347656 C 147.222656 109.5625 144.386719 113.261719 137.566406 120.21875 C 133.832031 124.027344 130.050781 128.074219 129.15625 129.210938 C 125.765625 133.527344 124.148438 137.792969 123.796875 143.332031 C 123.367188 150.179688 125.308594 154.324219 132.589844 162.121094 C 136.910156 166.75 137.824219 168.175781 137.824219 170.289062 C 137.824219 173.164062 133.847656 175.707031 128.757812 176.09375 C 125.4375 176.34375 124.085938 177.0625 124.953125 178.109375 C 125.261719 178.476562 126.277344 178.683594 127.789062 178.683594 C 134.324219 178.683594 140.3125 174.691406 140.375 170.285156 C 140.410156 167.667969 139.320312 165.890625 134.140625 160.128906 C 128.226562 153.550781 126.523438 150.425781 126.246094 145.636719 C 126.011719 141.554688 126.625 138.621094 128.46875 135.015625 C 130.488281 131.070312 131.5 129.855469 139.816406 121.339844 C 149.664062 111.257812 152.078125 107.117188 152.527344 99.539062 C 152.84375 94.1875 152.3125 91.824219 148.113281 79.933594 C 146.992188 76.761719 146.761719 75.429688 146.566406 71.03125 C 146.300781 64.949219 147.167969 59.820312 149.578125 53.242188 C 151.691406 47.488281 156.140625 38.558594 157.832031 36.683594 C 159.683594 34.632812 162.800781 32.621094 165.34375 31.839844 C 167.726562 31.105469 171.226562 31.417969 172.542969 32.484375 L 173.445312 33.21875 L 172.449219 34.882812 C 170.253906 38.546875 166.96875 43.167969 165.453125 44.738281 C 162.804688 47.472656 161.09375 50.753906 160.269531 54.679688 C 159.035156 60.578125 160.175781 66.898438 164.417969 77.65625 C 171.347656 95.222656 169.757812 102.578125 155.230469 120.097656 C 143.90625 133.75 140.871094 138.867188 140.34375 145.167969 C 140.035156 148.816406 140.90625 151.648438 143.597656 155.746094 C 145.390625 158.476562 145.773438 159.394531 145.914062 161.292969 C 146.0625 163.382812 145.886719 163.960938 143.753906 168.292969 C 138.257812 179.441406 138.386719 185.214844 144.230469 190.140625 C 148.574219 193.796875 151.261719 196.710938 151.800781 198.34375 C 152.261719 199.746094 152.210938 200.285156 151.359375 203 C 150.535156 205.628906 150.484375 206.125 150.996094 206.457031 C 152.167969 207.207031 152.84375 206.601562 153.789062 203.9375 C 154.316406 202.460938 154.894531 201.101562 155.074219 200.917969 C 155.257812 200.734375 156.597656 200.308594 158.050781 199.96875 C 163.027344 198.8125 165.453125 196.066406 165.453125 191.585938 C 165.453125 188.8125 164.878906 187.492188 161.578125 182.648438 C 157.714844 176.984375 157.566406 175.164062 160.519531 169.648438 C 162.296875 166.328125 162.425781 165.769531 161.574219 165.066406 C 160.566406 164.226562 159.78125 165.007812 158.226562 168.417969 C 155.125 175.214844 155.355469 178.125 159.460938 183.851562 C 162.550781 188.160156 163.066406 189.261719 163.066406 191.550781 C 163.066406 195.148438 160.792969 197.273438 156.304688 197.863281 L 154.398438 198.113281 L 154.179688 195.71875 C 153.917969 192.8125 152.882812 190.691406 149.617188 186.34375 C 146.042969 181.59375 145.195312 179.574219 145.1875 175.816406 C 145.1875 173.113281 145.367188 172.378906 146.691406 169.695312 C 148.511719 166.007812 150.542969 164.199219 160.375 157.515625 C 168.867188 151.742188 172.816406 148.117188 174.636719 144.417969 C 177.09375 139.421875 176.679688 134.640625 173.121094 126.929688 C 170.277344 120.761719 169.996094 119.917969 169.746094 116.808594 C 169.542969 114.269531 169.734375 113.023438 171.207031 107.355469 C 173.214844 99.601562 173.429688 95.683594 172.054688 91.824219 C 171.589844 90.523438 170.539062 87.5 169.722656 85.109375 C 168.90625 82.714844 167.324219 78.476562 166.207031 75.683594 C 161.5625 64.078125 160.996094 56.503906 164.300781 50.246094 C 164.984375 48.949219 165.867188 47.59375 166.265625 47.234375 C 166.945312 46.617188 166.964844 46.714844 166.613281 48.972656 C 166.410156 50.285156 165.972656 52.539062 165.640625 53.976562 C 164.816406 57.5625 164.886719 61.605469 165.84375 65.347656 C 166.972656 69.769531 167.601562 70.820312 171.226562 74.34375 C 174.515625 77.535156 174.816406 78.066406 176.472656 83.644531 C 177.457031 86.964844 180.0625 90.726562 182.785156 92.757812 C 184.015625 93.671875 187.457031 96.871094 190.4375 99.859375 C 193.417969 102.847656 196.507812 105.625 197.304688 106.03125 C 198.121094 106.449219 200.050781 106.855469 201.734375 106.964844 C 205.738281 107.226562 206.195312 107.738281 206.195312 111.960938 C 206.195312 116.089844 205.308594 117.832031 200.414062 123.34375 C 198.359375 125.65625 196.097656 128.292969 195.390625 129.207031 C 192.605469 132.789062 191.113281 136.984375 191.101562 141.242188 C 191.097656 144.355469 190.246094 147.273438 188.644531 149.675781 C 187.96875 150.6875 183.4375 155.53125 178.578125 160.441406 C 168.074219 171.046875 167.648438 171.707031 167.878906 177.027344 C 167.964844 178.964844 168.050781 182.503906 168.070312 184.894531 C 168.105469 189.621094 167.882812 190.570312 163.402344 204.5625 C 162.308594 207.980469 161.28125 211.570312 161.121094 212.539062 L 160.828125 214.304688 L 159.929688 212.953125 C 158.507812 210.816406 156.441406 210.046875 151.632812 209.867188 C 143.660156 209.570312 111.015625 208.066406 103.613281 207.660156 C 99.519531 207.433594 90.863281 206.953125 84.382812 206.59375 C 77.898438 206.234375 72.527344 205.875 72.445312 205.792969 C 72.011719 205.363281 77.886719 198.558594 78.691406 198.558594 C 78.878906 198.558594 79.628906 199.242188 80.359375 200.074219 C 83.820312 204.023438 89.230469 204.078125 93.628906 200.214844 C 95.765625 198.335938 96.144531 197.511719 95.542969 196.054688 C 94.890625 194.488281 92.054688 193.382812 88.671875 193.382812 L 86.132812 193.382812 L 87.179688 192.347656 C 89.503906 190.042969 90.53125 185.753906 88.957031 184.910156 C 86.984375 183.851562 83.5 184.824219 81.140625 187.089844 C 79.273438 188.882812 78.246094 191.007812 77.921875 193.738281 C 77.707031 195.582031 77.394531 196.269531 76.296875 197.335938 L 74.933594 198.65625 L 74.09375 197.003906 C 71.847656 192.601562 66.46875 191.070312 61.609375 193.457031 C 58.878906 194.796875 53.585938 200.011719 52.117188 202.804688 C 51.140625 204.664062 50.992188 204.769531 49.386719 204.769531 L 47.691406 204.769531 L 47.410156 200.78125 C 47.066406 195.886719 47.117188 195.808594 52.0625 194.027344 C 56.886719 192.285156 59.402344 190.789062 62.691406 187.710938 C 65.78125 184.816406 67.828125 181.605469 67.832031 179.644531 C 67.835938 177.886719 67.269531 177.757812 61.800781 178.246094 C 56.710938 178.699219 54.203125 179.355469 51.519531 180.925781 L 49.675781 182.011719 L 50.09375 180.8125 C 50.71875 179.011719 51.855469 178.160156 57.289062 175.429688 C 64.355469 171.878906 69.34375 167.609375 68 166.261719 C 66.558594 164.820312 61.3125 165.554688 57.753906 167.699219 L 55.441406 169.09375 L 56.007812 167.988281 C 57.605469 164.878906 58.324219 161.21875 58.324219 156.167969 C 58.324219 150.8125 57.867188 149.289062 56.273438 149.289062 C 54.222656 149.289062 48.039062 158.308594 47.941406 161.453125 C 47.917969 162.164062 47.769531 163.203125 47.613281 163.765625 C 47.332031 164.785156 47.328125 164.785156 46.773438 163.449219 C 46.171875 161.992188 44.132812 160.050781 43.203125 160.050781 C 42.882812 160.050781 42.3125 160.527344 41.933594 161.105469 C 40.890625 162.699219 41.421875 168.289062 43.003906 172.363281 L 44.21875 175.496094 L 42.894531 174.269531 C 40.398438 171.964844 35.871094 169.160156 34.636719 169.160156 C 33.128906 169.160156 33.066406 170.222656 34.40625 172.929688 C 35.414062 174.96875 36.921875 176.777344 40.953125 180.789062 C 45.644531 185.453125 46.152344 186.097656 45.832031 186.96875 C 45.632812 187.503906 45.335938 188.886719 45.171875 190.039062 L 44.867188 192.136719 L 43.738281 190.207031 C 40.964844 185.464844 34.578125 182.09375 28 181.898438 C 24.230469 181.789062 23.917969 182.183594 25.390625 185.210938 C 28.703125 192.007812 33.496094 195.765625 40.535156 197.074219 C 43.035156 197.539062 43.289062 197.6875 44.148438 199.207031 C 44.886719 200.511719 45.074219 201.496094 45.078125 204.128906 L 45.085938 207.421875 L 43.535156 205.925781 C 39.164062 201.703125 28.125 198.667969 28.125 201.6875 C 28.125 202.855469 30.972656 206.691406 33.839844 209.398438 C 35.617188 211.070312 38.191406 212.871094 40.957031 214.375 C 43.34375 215.671875 45.523438 216.933594 45.808594 217.183594 C 46.195312 217.523438 46.320312 219.933594 46.308594 226.628906 L 46.285156 235.617188 L 45.015625 233.132812 C 44.320312 231.769531 43.117188 229.871094 42.347656 228.921875 C 41.132812 227.425781 41 227.046875 41.363281 226.101562 C 42.5 223.101562 41.527344 220.46875 38.292969 217.820312 C 36.597656 216.425781 36.257812 216.296875 35.359375 216.707031 C 34.617188 217.046875 34.273438 217.613281 34.078125 218.835938 C 33.933594 219.753906 33.730469 220.503906 33.628906 220.503906 C 32.949219 220.503906 24.597656 214.007812 24.625 213.5 C 24.632812 213.367188 24.789062 212.472656 24.96875 211.507812 C 25.546875 208.464844 24.078125 205.460938 22.558594 206.574219 C 21.902344 207.050781 21.871094 207.300781 22.3125 208.636719 C 22.589844 209.472656 22.691406 210.710938 22.542969 211.390625 L 22.273438 212.625 L 20.566406 211.75 C 18.472656 210.683594 14.613281 209.328125 14.363281 209.578125 C 14.265625 209.675781 13.871094 208.960938 13.492188 207.988281 C 12.144531 204.550781 9.699219 202.703125 6.484375 202.703125 C 4.828125 202.703125 4.28125 202.90625 3.277344 203.910156 C 1.886719 205.304688 1.65625 207.492188 2.691406 209.476562 C 3.457031 210.945312 3.46875 211.394531 2.75 211.394531 C 1.691406 211.394531 0 213.378906 0 214.617188 C 0 217.550781 6.164062 220.160156 10.054688 218.875 C 11.914062 218.261719 13.871094 216.070312 14.53125 213.859375 C 14.988281 212.335938 15.140625 212.195312 16.101562 212.425781 C 17.816406 212.832031 21.109375 214.558594 23.882812 216.511719 L 26.464844 218.328125 L 24.503906 219.058594 C 16.867188 221.90625 15.957031 228.488281 22.984375 230.082031 C 26.765625 230.941406 34.023438 230.820312 36.984375 229.847656 L 39.429688 229.046875 L 40.601562 230.453125 C 41.246094 231.226562 42.515625 233.28125 43.417969 235.019531 L 45.058594 238.179688 L 41.539062 238.703125 C 33.097656 239.960938 30.253906 244.257812 35.984375 247.09375 C 41.582031 249.863281 54.320312 249.726562 59.894531 246.839844 C 62.496094 245.492188 62.554688 242.121094 60 240.628906 C 58.390625 239.6875 54.605469 238.738281 52.429688 238.730469 C 51.058594 238.726562 50.875 238.605469 50.875 237.707031 C 50.875 236.027344 52.777344 231.3125 54.417969 228.929688 L 55.953125 226.699219 L 59.441406 233.230469 C 64.570312 242.835938 74.277344 261.476562 79.300781 271.382812 C 80.617188 273.972656 82.34375 276.796875 83.140625 277.65625 C 84.394531 279.011719 84.917969 279.257812 87.070312 279.523438 C 88.433594 279.691406 89.777344 279.859375 90.054688 279.898438 C 91.097656 280.042969 90.984375 280.449219 89.761719 280.957031 C 87.726562 281.800781 84.808594 285.410156 82.894531 289.445312 C 80.839844 293.789062 77.832031 302.792969 74.25 315.324219 L 71.703125 324.226562 L 18.671875 324.332031 L 18.554688 326.503906 C 18.472656 328.003906 71.1875 326.542969 70.980469 327.230469 C 70.632812 328.363281 63.066406 355.625 61.816406 360.25 C 60.394531 365.507812 60.273438 367.703125 61.40625 367.703125 C 62.308594 367.703125 62.691406 366.664062 65.144531 357.558594 C 65.910156 354.710938 67.296875 349.683594 68.21875 346.378906 C 69.144531 343.078125 71.101562 335.902344 72.570312 330.4375 C 77.902344 310.566406 82.617188 295.636719 85.289062 290.15625 C 88.105469 284.382812 92.53125 280.855469 96.996094 280.820312 C 99.28125 280.804688 106.035156 281.3125 107.335938 281.597656 C 108.117188 281.769531 121.832031 282.988281 123.800781 283.0625 C 124.683594 283.09375 123.714844 283.3125 114.609375 285.128906 C 109.050781 286.242188 106.441406 287.238281 104.296875 289.078125 C 101.40625 291.554688 101.011719 292.757812 99.664062 303.234375 C 98.660156 311.046875 97.386719 318.765625 96.542969 322.15625 C 94.167969 331.710938 86.253906 353.867188 81.53125 364.183594 C 80.433594 366.578125 80.398438 367.910156 81.433594 367.910156 C 81.863281 367.910156 82.402344 367.679688 82.640625 367.394531 C 83.9375 365.824219 91.527344 346.4375 94.847656 336.207031 C 98.726562 324.265625 100.785156 314.761719 102.164062 302.488281 C 102.40625 300.324219 102.902344 297.289062 103.261719 295.742188 C 104.523438 290.347656 107.300781 288.855469 120.753906 286.335938 C 123.351562 285.851562 126.257812 285.039062 127.210938 284.53125 C 128.914062 283.621094 129.027344 283.617188 134.683594 284.144531 C 141.300781 284.765625 157.011719 286.296875 159.453125 286.5625 C 161.285156 286.761719 173.304688 287.78125 183.238281 288.585938 C 189.601562 289.097656 192.339844 288.894531 192.339844 287.90625 C 192.339844 287.648438 192.769531 287.84375 193.296875 288.339844 C 194.96875 289.910156 197.589844 289.589844 214.847656 285.691406 C 224.667969 283.476562 249.332031 277.402344 250.824219 276.832031 C 252.722656 276.113281 253.554688 274.90625 253.554688 272.882812 C 253.554688 269.855469 253.144531 269.660156 244.640625 268.617188 C 240.558594 268.117188 236.667969 267.707031 235.996094 267.707031 C 235.257812 267.707031 234.933594 267.5625 235.171875 267.335938 C 235.582031 266.945312 249.953125 262.199219 252.117188 261.738281 L 253.371094 261.472656 L 254.933594 267.085938 C 259.527344 283.539062 260.726562 293.425781 258.921875 299.941406 C 257.171875 306.269531 254.742188 310.042969 247.964844 316.980469 C 245.179688 319.828125 242.519531 322.921875 242.050781 323.851562 L 241.195312 325.550781 L 234.195312 327.253906 C 218.074219 331.179688 202.152344 333.988281 186.757812 335.621094 C 182.660156 336.054688 178.371094 336.691406 177.222656 337.039062 C 174.128906 337.96875 171.632812 339.816406 167.757812 344.042969 C 164.75 347.320312 155.152344 358.78125 152.285156 362.519531 C 151.753906 363.210938 151.15625 363.675781 150.953125 363.550781 C 150.753906 363.425781 149.636719 361.421875 148.476562 359.097656 C 147.316406 356.769531 145.441406 353.5 144.3125 351.828125 C 142.945312 349.808594 142.339844 348.535156 142.5 348.023438 C 142.894531 346.777344 149.089844 341.203125 152.789062 338.765625 C 156.984375 335.996094 162.859375 332.839844 167.464844 330.871094 C 171.960938 328.949219 175.980469 327.96875 192.753906 324.683594 C 205.378906 322.210938 213.066406 320.371094 219.226562 318.351562 C 220.992188 317.769531 221.53125 317.394531 221.632812 316.667969 C 221.707031 316.132812 221.507812 315.636719 221.160156 315.503906 C 220.828125 315.375 218.164062 316.019531 215.238281 316.933594 C 207.742188 319.273438 206.386719 319.589844 189.101562 323.019531 C 172.066406 326.402344 168.375 327.464844 161.222656 331.074219 C 152.710938 335.367188 148.097656 338.550781 143.339844 343.429688 L 140.460938 346.382812 L 138.789062 344.785156 C 135.886719 342.015625 134.078125 340.882812 126.820312 337.269531 C 119.25 333.503906 118.660156 332.96875 119.300781 330.421875 C 119.460938 329.78125 120.925781 327.933594 122.566406 326.304688 C 124.804688 324.078125 126.402344 322.933594 129.054688 321.648438 C 136.597656 317.988281 143.730469 316.390625 169.175781 312.667969 C 220.535156 305.148438 233.453125 302.175781 240.734375 296.199219 C 243.863281 293.628906 245.050781 291.191406 244.753906 287.933594 C 244.507812 285.203125 243.59375 283.441406 242.421875 283.441406 C 241.375 283.441406 241.117188 284.304688 241.796875 285.535156 C 242.539062 286.871094 242.535156 289.820312 241.792969 291.257812 C 239.546875 295.609375 229.929688 299.972656 217.15625 302.4375 C 206.5 304.496094 192.820312 306.746094 175.378906 309.308594 C 144.511719 313.847656 136.324219 315.554688 128.910156 319.011719 C 124.914062 320.875 122.0625 322.976562 119.320312 326.089844 C 118.214844 327.34375 117.164062 328.367188 116.988281 328.367188 C 116.808594 328.367188 115.914062 327.375 115.003906 326.160156 C 113.464844 324.109375 111.96875 321.253906 109.578125 315.804688 C 108.019531 312.253906 105.773438 311.390625 103.738281 313.566406 C 101.527344 315.933594 100.75 318.617188 99.503906 328.160156 C 98.394531 336.648438 95.984375 353.277344 95.105469 358.507812 C 94.652344 361.195312 94.390625 363.570312 94.527344 363.789062 C 94.660156 364.007812 95.117188 364.183594 95.539062 364.183594 C 96.472656 364.183594 97.144531 361.519531 98.421875 352.796875 C 98.890625 349.609375 99.640625 344.484375 100.089844 341.410156 C 100.539062 338.335938 101.375 332.375 101.949219 328.160156 C 102.519531 323.949219 103.175781 319.847656 103.402344 319.050781 C 103.960938 317.085938 105.339844 314.910156 106.023438 314.910156 C 106.339844 314.910156 107.355469 316.722656 108.359375 319.070312 C 110.171875 323.320312 112.554688 327.378906 114.210938 329.035156 L 115.136719 329.964844 L 114.132812 330.589844 C 112.085938 331.863281 108.0625 336.332031 106.597656 338.949219 C 104.632812 342.464844 102.757812 348.335938 100.285156 358.703125 C 98.714844 365.292969 98.394531 367.199219 98.789062 367.59375 C 99.953125 368.757812 100.597656 367.253906 102.992188 357.761719 C 106.878906 342.363281 108.761719 338.328125 114.246094 333.640625 L 116.34375 331.847656 L 117.058594 333.421875 C 118.042969 335.601562 118.675781 336.070312 124.089844 338.617188 C 129.578125 341.199219 133.597656 343.570312 136.246094 345.789062 L 138.105469 347.34375 L 135.644531 349.71875 C 132.921875 352.34375 131.460938 355.113281 130.738281 359.023438 C 130.253906 361.65625 130.144531 366.214844 130.546875 367.257812 C 130.847656 368.042969 131.691406 368.109375 132.257812 367.394531 Z M 244.457031 324.519531 C 244.457031 324.339844 246.660156 321.9375 249.355469 319.183594 C 256.136719 312.257812 259.503906 306.96875 261.296875 300.417969 C 262.585938 295.71875 262.292969 288.445312 260.457031 279.667969 C 259.621094 275.652344 258.171875 269.722656 257.242188 266.488281 C 256.3125 263.253906 255.613281 260.5625 255.691406 260.515625 C 256.007812 260.3125 260.34375 259.042969 260.429688 259.128906 C 260.585938 259.289062 263.375 272.804688 265.140625 281.992188 C 266.0625 286.777344 267.6875 293.761719 268.753906 297.519531 C 270.394531 303.3125 270.691406 304.921875 270.707031 308.078125 C 270.71875 311.203125 270.5625 312.128906 269.730469 313.808594 C 266.914062 319.484375 260.761719 322.84375 250.664062 324.226562 C 245.867188 324.882812 244.457031 324.949219 244.457031 324.519531 Z M 276.304688 307.710938 C 275.738281 307.628906 274.878906 307.539062 274.394531 307.511719 C 273.664062 307.46875 273.472656 307.109375 273.242188 305.367188 C 273.089844 304.21875 272.308594 301.191406 271.507812 298.640625 C 269.652344 292.730469 269.339844 291.359375 266.792969 277.851562 C 265.632812 271.703125 264.222656 264.738281 263.65625 262.375 C 263.089844 260.011719 262.679688 258.050781 262.746094 258.019531 C 262.808594 257.992188 263.933594 257.457031 265.242188 256.839844 L 267.621094 255.710938 L 267.644531 260.984375 C 267.671875 267.027344 268.125 268.808594 269.894531 269.835938 C 271.546875 270.796875 275.632812 271.421875 280.441406 271.453125 C 282.605469 271.46875 285.863281 271.667969 287.679688 271.902344 C 292.542969 272.523438 293.71875 272.410156 294.917969 271.210938 C 295.871094 270.261719 295.972656 269.796875 296.160156 265.527344 L 296.367188 260.875 L 304.898438 260.929688 C 312.867188 260.980469 316.429688 261.398438 316.429688 262.28125 C 316.429688 262.449219 315.878906 263.113281 315.207031 263.757812 C 312.769531 266.09375 312.707031 266.722656 312.707031 288.25 L 312.707031 307.816406 L 311.777344 308.023438 C 310.789062 308.246094 278.0625 307.957031 276.304688 307.710938 Z M 314.984375 300.5625 C 314.820312 297.226562 314.816406 288.609375 314.976562 281.414062 C 315.285156 267.839844 315.476562 266.433594 317.152344 265.382812 C 317.832031 264.957031 317.867188 265.382812 317.75 272.667969 C 317.640625 279.246094 317.714844 280.480469 318.261719 280.933594 C 318.613281 281.226562 319.179688 281.355469 319.527344 281.226562 C 320.050781 281.023438 320.152344 279.871094 320.152344 274.191406 C 320.152344 270.453125 320.265625 266.828125 320.40625 266.128906 C 320.816406 264.0625 321.742188 264.140625 322.707031 266.328125 C 323.511719 268.152344 323.546875 268.800781 323.34375 278.847656 C 323.105469 290.570312 322.414062 295.269531 320.179688 300.351562 C 319.070312 302.871094 316.347656 306.628906 315.628906 306.628906 C 315.441406 306.628906 315.152344 303.898438 314.984375 300.5625 Z M 195.234375 286.148438 C 195.234375 285.816406 195.601562 285.347656 196.046875 285.105469 C 196.804688 284.699219 207.984375 281.96875 216.535156 280.101562 C 221.0625 279.113281 232.113281 276.519531 242.230469 274.074219 C 250.671875 272.035156 251.613281 271.921875 251.410156 272.988281 C 251.207031 274.039062 249.078125 274.902344 243.007812 276.386719 C 225.648438 280.640625 219.675781 282.0625 210.746094 284.054688 C 199.050781 286.664062 199.246094 286.625 196.992188 286.699219 C 195.699219 286.742188 195.234375 286.59375 195.234375 286.148438 Z M 182 285.9375 C 179.382812 285.707031 175.753906 285.417969 173.933594 285.292969 C 172.113281 285.171875 169.785156 284.984375 168.761719 284.882812 C 167.738281 284.777344 164.667969 284.503906 161.9375 284.277344 C 157.007812 283.863281 148.171875 283.003906 140.636719 282.207031 C 136.34375 281.753906 128.742188 281.070312 124.503906 280.757812 C 123.023438 280.648438 119.859375 280.367188 117.472656 280.136719 C 115.082031 279.902344 110.988281 279.523438 108.371094 279.289062 C 105.753906 279.054688 103.148438 278.78125 102.582031 278.675781 C 102.011719 278.574219 99.128906 278.296875 96.167969 278.0625 C 93.210938 277.832031 89.527344 277.421875 87.976562 277.160156 L 85.164062 276.675781 L 83.582031 273.953125 C 82.714844 272.453125 80 267.316406 77.550781 262.53125 C 75.101562 257.75 71.5625 250.949219 69.6875 247.417969 C 67.8125 243.890625 63.113281 234.945312 59.25 227.542969 C 55.386719 220.144531 51.636719 213.0625 50.917969 211.808594 C 49.039062 208.546875 48.644531 207.695312 48.898438 207.445312 C 49.019531 207.320312 52.816406 207.421875 57.339844 207.671875 C 61.863281 207.917969 70.957031 208.390625 77.554688 208.71875 C 121.296875 210.894531 132.6875 211.460938 143.675781 211.996094 C 153.695312 212.484375 156.222656 212.726562 157.058594 213.277344 C 157.628906 213.652344 158.652344 215.195312 159.335938 216.714844 C 160.019531 218.230469 162.683594 223.941406 165.257812 229.40625 C 179.824219 260.363281 184.484375 270.367188 187.695312 277.59375 C 191.136719 285.34375 191.230469 285.632812 190.453125 286.203125 C 189.949219 286.574219 189.109375 286.710938 188.203125 286.578125 C 187.40625 286.457031 184.613281 286.171875 182 285.9375 Z M 191.890625 281.132812 L 190.820312 279.078125 L 196.441406 279.070312 C 201.394531 279.058594 202.671875 278.902344 207.230469 277.730469 C 214.808594 275.785156 223.957031 272.925781 225.1875 272.117188 C 226.539062 271.230469 226.609375 269.605469 225.328125 268.789062 C 223.785156 267.808594 215.015625 266.441406 209.917969 266.390625 L 207.851562 266.367188 L 210.746094 265.574219 C 212.835938 265 214.621094 264.820312 217.15625 264.917969 C 220.429688 265.046875 220.875 265.179688 223.574219 266.785156 C 226.449219 268.496094 226.558594 268.527344 235.984375 269.871094 C 241.210938 270.617188 245.027344 271.289062 244.457031 271.363281 C 243.523438 271.484375 234.085938 273.570312 216.949219 277.4375 C 206.074219 279.894531 196.726562 282.207031 195.234375 282.808594 C 194.4375 283.132812 193.601562 283.347656 193.375 283.292969 C 193.144531 283.234375 192.476562 282.261719 191.890625 281.132812 Z M 191.75 276.472656 C 190.632812 276.320312 189.644531 275.972656 189.554688 275.699219 C 189.4375 275.355469 189.804688 275.269531 190.761719 275.421875 C 191.515625 275.542969 194.179688 275.882812 196.683594 276.183594 L 201.230469 276.726562 L 197.507812 276.738281 C 195.460938 276.742188 192.871094 276.621094 191.75 276.472656 Z M 194.691406 273.46875 C 190.609375 273.046875 189.898438 272.875 190.359375 272.410156 C 190.664062 272.105469 191.375 271.867188 191.9375 271.886719 C 195.984375 272.007812 196.582031 271.882812 199.800781 270.234375 C 202.796875 268.703125 203.417969 268.535156 206.15625 268.535156 C 209.800781 268.535156 220.933594 269.664062 222.230469 270.167969 C 223.332031 270.589844 223.707031 270.425781 216.535156 272.671875 L 211.160156 274.355469 L 205.367188 274.160156 C 202.183594 274.054688 197.378906 273.742188 194.691406 273.46875 Z M 188.023438 269.675781 C 188.519531 268.082031 194.332031 260.40625 196.644531 258.292969 C 199.136719 256.011719 200.410156 255.546875 206.09375 254.851562 C 209.925781 254.382812 210.125 254.308594 210.125 253.371094 C 210.125 252.433594 210 252.386719 207.332031 252.394531 C 204.128906 252.402344 199.613281 253.269531 197.757812 254.230469 C 195.53125 255.382812 193.53125 257.441406 189.996094 262.222656 C 188.101562 264.785156 186.367188 266.878906 186.136719 266.878906 C 184.09375 266.878906 189.554688 258.730469 194.117188 254.972656 C 196.996094 252.605469 204.890625 248.636719 207.242188 248.375 C 208.625 248.222656 210.347656 248.558594 214.054688 249.695312 C 218.527344 251.066406 219.367188 251.199219 222.535156 251.03125 C 227.835938 250.757812 230.035156 249.835938 244.410156 241.890625 C 252.742188 237.285156 254.851562 235.679688 257.292969 232.078125 C 260.199219 227.796875 262.558594 226.84375 271.425781 226.375 C 277.804688 226.039062 279.617188 225.480469 279.617188 223.839844 C 279.617188 221.78125 276.851562 220.949219 273.191406 221.90625 C 271.851562 222.253906 270.667969 222.453125 270.5625 222.34375 C 270.277344 222.058594 272.996094 219.335938 274.445312 218.457031 C 275.128906 218.042969 276.582031 217.578125 277.675781 217.417969 C 279.898438 217.101562 280.636719 216.179688 279.398438 215.269531 C 278.296875 214.464844 277.042969 214.574219 274.558594 215.695312 C 272.535156 216.609375 270.515625 218.304688 269.078125 220.296875 C 268.546875 221.039062 268.535156 220.949219 268.960938 219.46875 C 269.328125 218.207031 270.574219 216.683594 274.226562 213.050781 C 279.738281 207.570312 281.476562 205.25 281.066406 203.949219 C 280.636719 202.597656 279.601562 203.09375 277.800781 205.507812 C 276.910156 206.703125 276.097656 207.597656 275.996094 207.496094 C 275.675781 207.175781 277.378906 166.128906 277.789062 164.191406 C 278.25 162.027344 275.90625 160.957031 275.246094 163.03125 C 275.101562 163.488281 274.652344 172.835938 274.246094 183.800781 C 273.84375 194.765625 273.460938 203.828125 273.398438 203.941406 C 272.964844 204.746094 272.15625 189.484375 271.929688 176.199219 C 271.640625 159.140625 271.800781 156.734375 273.890625 146.507812 C 274.816406 141.976562 274.734375 141.003906 273.441406 141.003906 C 272.835938 141.003906 272.503906 141.421875 272.203125 142.558594 C 271.300781 145.972656 270.09375 153.777344 269.644531 159.144531 C 268.984375 167.027344 269.394531 185.851562 270.539062 200.09375 L 271.476562 211.773438 L 269.492188 214.171875 C 266.859375 217.355469 266.253906 218.882812 266.464844 221.796875 L 266.632812 224.152344 L 265.027344 224.410156 C 264.144531 224.550781 262.257812 225.195312 260.832031 225.84375 L 258.238281 227.019531 L 254.347656 226.472656 C 252.207031 226.171875 246.917969 225.542969 242.59375 225.070312 C 238.273438 224.601562 233.246094 224.035156 231.425781 223.816406 C 229.609375 223.597656 223.152344 223.195312 217.082031 222.917969 C 204.886719 222.367188 199.574219 222.6875 196.53125 224.15625 L 194.824219 224.984375 L 193.96875 223.785156 C 190.660156 219.132812 182.4375 196.046875 181.179688 187.875 C 180.875 185.914062 180.765625 183.433594 180.921875 182.101562 C 181.566406 176.628906 185.367188 164.3125 187.253906 161.585938 C 187.871094 160.695312 189.496094 158.949219 190.867188 157.707031 L 193.359375 155.449219 L 193.960938 156.820312 C 200.199219 171.023438 206.4375 178.398438 212.234375 178.421875 C 215.867188 178.4375 220.15625 175.667969 229.015625 167.574219 C 241.328125 156.328125 251.621094 144.390625 258.722656 133.117188 C 261.515625 128.683594 267.539062 117.023438 269.257812 112.71875 C 270.214844 110.320312 270.222656 110.3125 271.710938 110.535156 C 272.53125 110.65625 274.320312 110.871094 275.6875 111.011719 C 291.972656 112.703125 297.066406 122.058594 304.410156 163.777344 C 306.675781 176.644531 310.289062 205.414062 310.886719 215.375 C 311.195312 220.492188 310.601562 226.078125 309.375 229.570312 C 306.953125 236.472656 299.554688 244.351562 291.847656 248.25 C 286.980469 250.707031 284.867188 251.167969 276.914062 251.5 C 270.785156 251.753906 269.683594 251.90625 268.433594 252.667969 C 265.925781 254.199219 259.34375 256.800781 252.9375 258.789062 C 249.523438 259.847656 243.171875 261.917969 238.824219 263.382812 C 229.242188 266.617188 227.898438 266.730469 224.589844 264.59375 C 221.511719 262.605469 219.683594 262.179688 215.710938 262.519531 C 209.515625 263.050781 206.914062 263.808594 201.148438 266.753906 C 198.148438 268.289062 195.550781 269.40625 195.382812 269.238281 C 194.925781 268.777344 198.378906 265.445312 201.429688 263.402344 C 202.914062 262.410156 205.429688 261.132812 207.023438 260.5625 C 209.203125 259.78125 209.917969 259.332031 209.917969 258.75 C 209.917969 258.214844 209.566406 257.9375 208.769531 257.847656 C 205.890625 257.515625 200.207031 260.707031 194.570312 265.816406 C 192.121094 268.039062 188.566406 270.574219 187.863281 270.601562 C 187.792969 270.605469 187.863281 270.1875 188.023438 269.675781 Z M 291.855469 268.433594 C 290.550781 266.414062 290.59375 265.320312 292.035156 263.96875 C 292.773438 263.28125 293.453125 262.789062 293.542969 262.878906 C 293.820312 263.15625 293.769531 268.472656 293.484375 268.933594 C 293.0625 269.613281 292.507812 269.441406 291.855469 268.433594 Z M 271.648438 268.050781 C 270.289062 267.519531 270.011719 266.636719 270.183594 263.34375 C 270.289062 261.230469 270.429688 260.859375 271.148438 260.757812 C 271.890625 260.648438 271.96875 260.824219 271.835938 262.253906 C 271.597656 264.757812 272.585938 266.214844 275.453125 267.574219 C 276.808594 268.21875 277.929688 268.851562 277.941406 268.988281 C 277.96875 269.328125 273.039062 268.59375 271.648438 268.050781 Z M 281.246094 267.292969 C 276.339844 265.785156 274.484375 264.613281 274.335938 262.933594 C 274.214844 261.527344 274.585938 260.792969 275.480469 260.660156 C 277.3125 260.394531 292.527344 260.769531 291.816406 261.0625 C 289.410156 262.0625 288.089844 265.003906 288.941406 267.480469 L 289.480469 269.046875 L 287.339844 268.777344 C 286.164062 268.628906 283.421875 267.960938 281.246094 267.292969 Z M 183.058594 261.304688 L 182.355469 259.453125 L 185.617188 255.609375 C 189.257812 251.324219 192.238281 248.839844 194.40625 248.277344 C 195.203125 248.070312 197.078125 247.832031 198.574219 247.75 L 201.292969 247.597656 L 196.921875 250.203125 C 192.105469 253.066406 188.679688 256.296875 185.929688 260.554688 C 185.019531 261.964844 184.160156 263.125 184.019531 263.136719 C 183.878906 263.144531 183.449219 262.320312 183.058594 261.304688 Z M 270.101562 256.527344 C 270.101562 255.617188 270.1875 254.871094 270.289062 254.871094 C 270.394531 254.871094 271.542969 255.617188 272.839844 256.527344 L 275.203125 258.183594 L 270.101562 258.183594 Z M 180.757812 256.1875 C 180.757812 255.207031 183.386719 252.140625 184.46875 251.855469 C 185.449219 251.601562 185.390625 251.722656 183.113281 254.769531 C 181.402344 257.050781 180.757812 257.441406 180.757812 256.1875 Z M 175.03125 244.589844 C 172.949219 240.074219 171.242188 236.074219 171.242188 235.703125 C 171.242188 234.707031 172.453125 234.222656 175.574219 233.964844 C 180.265625 233.582031 182.300781 231.894531 181.878906 228.746094 C 181.398438 225.152344 179.21875 224.140625 171.414062 223.898438 C 164.773438 223.691406 165.273438 223.976562 163.546875 219.390625 C 162.902344 217.679688 162.644531 216.347656 162.8125 215.621094 C 163.425781 212.992188 165.140625 207.183594 166.351562 203.628906 C 167.648438 199.828125 167.675781 199.789062 169.347656 199.335938 C 173.222656 198.28125 173.734375 198.03125 175.089844 196.53125 C 177.875 193.445312 177.5 189.386719 173.960938 184.296875 C 171.828125 181.230469 171.769531 181.066406 172.144531 179.386719 C 172.726562 176.777344 174.117188 174.714844 177.992188 170.714844 C 179.921875 168.722656 181.589844 167.089844 181.695312 167.089844 C 181.800781 167.089844 181.164062 170.011719 180.289062 173.582031 C 177.660156 184.25 178.035156 188.671875 182.757812 202.960938 C 185.957031 212.648438 189.667969 221.707031 191.710938 224.820312 C 193.582031 227.671875 193.585938 227.675781 193.183594 229.992188 C 190.976562 242.746094 190.636719 243.777344 187.679688 246.648438 C 186.730469 247.570312 184.921875 248.851562 183.664062 249.488281 C 182.40625 250.125 180.925781 251.132812 180.375 251.726562 C 179.824219 252.316406 179.246094 252.800781 179.09375 252.800781 C 178.941406 252.800781 177.113281 249.105469 175.03125 244.589844 Z M 214.726562 247.335938 C 212.59375 246.640625 209.894531 245.957031 208.730469 245.8125 L 206.609375 245.550781 L 206.609375 242.824219 C 206.609375 238.144531 208.980469 235.753906 214.402344 234.96875 C 215.804688 234.765625 224.246094 234.597656 233.164062 234.59375 C 247.859375 234.585938 249.414062 234.519531 249.765625 233.894531 C 250.285156 232.964844 249.707031 231.105469 248.351562 229.324219 L 247.246094 227.875 L 249.144531 228.132812 C 252.742188 228.621094 254.871094 229.109375 255.304688 229.539062 C 255.824219 230.0625 254.058594 232.625 251.953125 234.398438 C 250.445312 235.667969 237.488281 242.972656 231.425781 245.972656 C 224.496094 249.398438 221.757812 249.625 214.726562 247.335938 Z M 191.414062 245.867188 C 192.625 244.117188 193.476562 241.636719 194.371094 237.257812 C 194.820312 235.054688 195.246094 233.203125 195.3125 233.144531 C 195.382812 233.082031 196.808594 232.90625 198.476562 232.746094 C 201.285156 232.476562 201.496094 232.511719 201.308594 233.210938 C 201.195312 233.625 200.496094 236.507812 199.757812 239.613281 L 198.410156 245.265625 L 195.890625 245.542969 C 194.507812 245.695312 192.90625 246.078125 192.339844 246.398438 C 190.785156 247.265625 190.542969 247.128906 191.414062 245.867188 Z M 49.878906 244.679688 C 50.195312 243.625 50.34375 242.316406 50.203125 241.769531 C 49.957031 240.785156 49.976562 240.777344 52.382812 241.035156 C 56.679688 241.488281 59.5625 242.546875 59.5625 243.667969 C 59.5625 244.617188 53.902344 246.484375 50.8125 246.558594 L 49.304688 246.589844 Z M 40.234375 246.007812 C 35.980469 245.09375 34.394531 243.535156 36.667969 242.496094 C 38.300781 241.753906 42.59375 240.808594 44.371094 240.800781 C 46.195312 240.792969 46.742188 241.703125 46.742188 244.753906 L 46.742188 246.589844 L 44.777344 246.578125 C 43.695312 246.570312 41.652344 246.3125 40.234375 246.007812 Z M 201.179688 244.003906 C 201.320312 243.261719 202.011719 240.199219 202.710938 237.199219 L 203.980469 231.738281 L 206.742188 231.109375 C 212.054688 229.902344 231.558594 227.570312 236.472656 227.554688 C 237.886719 227.546875 240.023438 227.746094 241.230469 227.992188 C 243.480469 228.453125 247.351562 230.695312 247.351562 231.535156 C 247.351562 231.875 242.679688 232.058594 230.496094 232.207031 C 212.320312 232.425781 210.675781 232.605469 207.964844 234.675781 C 205.894531 236.253906 204.273438 239.558594 204.019531 242.703125 L 203.808594 245.347656 L 202.363281 245.347656 C 200.960938 245.347656 200.929688 245.3125 201.179688 244.003906 Z M 48.648438 226.921875 L 48.382812 219.46875 L 49.820312 218.566406 L 51.261719 217.664062 L 52.433594 219.808594 C 53.078125 220.988281 53.863281 222.355469 54.179688 222.847656 C 54.695312 223.65625 54.59375 223.980469 53.042969 226.367188 C 51.183594 229.230469 49.234375 233.203125 49.226562 234.136719 C 49.222656 234.457031 49.152344 234.644531 49.066406 234.550781 C 48.984375 234.453125 48.792969 231.023438 48.648438 226.921875 Z M 168.546875 230.789062 C 168.28125 229.699219 168.300781 229.6875 170.070312 229.890625 C 173.25 230.253906 175.671875 231.65625 173.207031 231.703125 C 172.695312 231.714844 171.71875 231.96875 171.039062 232.273438 C 169.597656 232.910156 168.976562 232.539062 168.546875 230.789062 Z M 173.5 228.132812 C 172.773438 227.828125 170.945312 227.453125 169.4375 227.296875 C 165.140625 226.855469 166.21875 226.300781 171.347656 226.3125 C 175.046875 226.320312 176.359375 226.484375 177.757812 227.121094 C 179.261719 227.800781 179.515625 228.097656 179.515625 229.167969 C 179.515625 230.109375 179.238281 230.5625 178.378906 231.015625 C 177.285156 231.589844 177.195312 231.558594 176.03125 230.148438 C 175.367188 229.34375 174.226562 228.433594 173.5 228.132812 Z M 195.808594 229.847656 C 195.402344 228.785156 196.640625 226.945312 198.335938 226.09375 C 199.832031 225.347656 200.820312 225.265625 208.679688 225.265625 C 218.664062 225.265625 225.011719 225.542969 225.285156 225.992188 C 225.390625 226.164062 224.835938 226.300781 224.054688 226.300781 C 221.539062 226.300781 210.503906 227.953125 204.75 229.191406 C 198.371094 230.558594 196.144531 230.722656 195.808594 229.847656 Z M 26.058594 228.175781 C 26.058594 227.621094 33.050781 224.652344 34.332031 224.667969 C 34.894531 224.671875 37.226562 226.433594 37.226562 226.851562 C 37.226562 227.0625 35.292969 227.835938 34.125 228.09375 C 32.976562 228.347656 26.058594 228.417969 26.058594 228.175781 Z M 20.835938 226.03125 C 20.492188 224.660156 20.945312 223.917969 22.996094 222.472656 C 25.179688 220.933594 28.039062 220.566406 30.207031 221.546875 C 31.109375 221.953125 31.851562 222.402344 31.851562 222.542969 C 31.851562 222.679688 30.9375 223.121094 29.820312 223.515625 C 28.703125 223.914062 26.703125 224.875 25.371094 225.648438 C 22.335938 227.417969 21.207031 227.515625 20.835938 226.03125 Z M 37.285156 223.371094 C 36.070312 221.957031 35.929688 221.5625 36.171875 220.261719 C 36.445312 218.804688 36.472656 218.789062 37.265625 219.507812 C 38.761719 220.859375 39.808594 222.949219 39.535156 224.039062 C 39.199219 225.378906 38.941406 225.300781 37.285156 223.371094 Z M 273.921875 223.949219 C 274.320312 223.84375 275.0625 223.839844 275.578125 223.9375 C 276.09375 224.039062 275.769531 224.121094 274.859375 224.128906 C 273.949219 224.132812 273.527344 224.050781 273.921875 223.945312 Z M 4.265625 215.914062 C 3.285156 215.4375 2.480469 214.875 2.480469 214.664062 C 2.480469 214.453125 3.085938 213.914062 3.828125 213.460938 C 4.894531 212.808594 5.910156 212.640625 8.789062 212.640625 C 11.078125 212.640625 12.410156 212.800781 12.410156 213.078125 C 12.410156 214.761719 9.722656 216.773438 7.472656 216.777344 C 6.691406 216.777344 5.25 216.390625 4.265625 215.914062 Z M 35.078125 207.1875 C 33.074219 205.210938 31.4375 203.410156 31.4375 203.1875 C 31.4375 202.933594 32.253906 202.992188 33.554688 203.335938 C 39.648438 204.945312 44.65625 209.113281 46.097656 213.785156 C 46.363281 214.648438 46.066406 214.5625 42.554688 212.75 C 39.542969 211.199219 37.9375 210.003906 35.078125 207.1875 Z M 5.125 209.015625 C 4.4375 208.105469 4.394531 206.335938 5.046875 205.683594 C 5.320312 205.410156 6.230469 205.183594 7.066406 205.183594 C 8.324219 205.183594 8.855469 205.480469 10.117188 206.878906 C 10.957031 207.808594 11.5625 208.652344 11.464844 208.753906 C 11.226562 208.992188 7.933594 209.636719 6.664062 209.695312 C 6.121094 209.71875 5.429688 209.414062 5.125 209.015625 Z M 273.550781 205.910156 C 273.664062 205.625 273.757812 205.859375 273.757812 206.425781 C 273.757812 206.996094 273.664062 207.230469 273.550781 206.945312 C 273.4375 206.660156 273.4375 206.195312 273.550781 205.910156 Z M 65.195312 203.839844 C 65.542969 202.871094 65.933594 200.359375 66.0625 198.257812 L 66.300781 194.433594 L 67.378906 194.691406 C 70.046875 195.328125 71.816406 196.863281 72.40625 199.050781 C 72.804688 200.53125 72.726562 200.78125 71.144531 203.113281 L 69.460938 205.597656 L 64.5625 205.597656 Z M 60.390625 204.75 C 62.578125 202.992188 63.632812 202.824219 62.355469 204.4375 C 61.804688 205.132812 60.984375 205.519531 59.976562 205.558594 C 59.574219 205.574219 59.722656 205.289062 60.390625 204.75 Z M 54.558594 203.21875 C 55.789062 200.835938 61.992188 195.246094 63.402344 195.246094 C 63.585938 195.246094 63.683594 196.378906 63.617188 197.765625 L 63.492188 200.285156 L 61.296875 201.054688 C 60.089844 201.480469 58.230469 202.484375 57.164062 203.285156 C 56.09375 204.089844 54.890625 204.75 54.488281 204.757812 C 53.800781 204.769531 53.804688 204.675781 54.558594 203.21875 Z M 83.128906 199.585938 C 80.742188 197.824219 80.800781 197.523438 83.695312 196.542969 C 86.753906 195.507812 90.011719 195.410156 92.113281 196.289062 L 93.613281 196.917969 L 92.660156 197.929688 C 90.097656 200.660156 85.632812 201.4375 83.128906 199.585938 Z M 168.761719 195.941406 C 168.761719 195.640625 169.226562 193.835938 169.796875 191.933594 C 170.363281 190.03125 170.832031 187.460938 170.832031 186.214844 L 170.832031 183.953125 L 172.046875 185.488281 C 176.066406 190.546875 174.929688 196.347656 169.898438 196.464844 C 169.21875 196.480469 168.761719 196.269531 168.761719 195.941406 Z M 33.585938 191.984375 C 32.1875 190.976562 30.15625 188.777344 29.207031 187.25 C 28.667969 186.378906 29.53125 186.886719 32.570312 189.222656 C 34.816406 190.949219 37.292969 192.921875 38.078125 193.601562 L 39.503906 194.84375 L 37.105469 193.816406 C 35.785156 193.253906 34.203125 192.429688 33.589844 191.984375 Z M 80.617188 192.300781 C 80.910156 190.972656 81.484375 190.070312 82.757812 188.929688 C 84.257812 187.589844 86.742188 186.40625 87.226562 186.804688 C 87.3125 186.875 86.9375 187.824219 86.398438 188.917969 C 85.683594 190.359375 84.738281 191.363281 82.933594 192.601562 C 81.570312 193.539062 80.398438 194.261719 80.332031 194.207031 C 80.269531 194.15625 80.398438 193.296875 80.617188 192.300781 Z M 39.484375 191.714844 C 37.675781 190.226562 34.925781 188.0625 33.378906 186.90625 C 31.832031 185.746094 30.632812 184.734375 30.714844 184.652344 C 30.988281 184.378906 34.109375 185.371094 36.296875 186.429688 C 37.492188 187.007812 39.101562 188.132812 39.878906 188.933594 C 41.390625 190.488281 43.71875 194.417969 43.128906 194.417969 C 42.933594 194.417969 41.292969 193.203125 39.484375 191.714844 Z M 145.253906 188.015625 C 142.851562 185.828125 141.667969 182.652344 142.242188 179.925781 L 142.550781 178.476562 L 143.089844 180.132812 C 143.773438 182.226562 144.75 183.859375 147.773438 187.957031 C 151.234375 192.648438 151.414062 193.171875 148.855469 191.085938 C 147.632812 190.085938 146.011719 188.707031 145.253906 188.015625 Z M 51.222656 190.589844 C 52.75 188.375 56.742188 184.554688 59.050781 183.09375 C 61.355469 181.640625 64.941406 180.230469 64.941406 180.78125 C 64.941406 182.351562 60.875 186.761719 57.503906 188.847656 C 56.105469 189.714844 51.148438 192.046875 50.132812 192.316406 C 50.066406 192.335938 50.554688 191.558594 51.222656 190.589844 Z M 47.410156 190.589844 C 47.921875 187.660156 48.53125 186.507812 50.511719 184.726562 C 52.296875 183.117188 53.738281 182.359375 57.703125 180.945312 C 58.15625 180.785156 57.601562 181.253906 56.46875 181.996094 C 53.925781 183.660156 49.933594 187.757812 48.535156 190.144531 C 47.960938 191.128906 47.417969 191.933594 47.332031 191.933594 C 47.246094 191.933594 47.28125 191.328125 47.410156 190.589844 Z M 41.023438 177.660156 C 39.632812 176.175781 38.285156 174.558594 38.023438 174.070312 C 37.554688 173.195312 37.574219 173.195312 38.9375 174.148438 C 43.074219 177.035156 46.742188 180.863281 46.742188 182.300781 C 46.742188 183.121094 44.191406 181.050781 41.023438 177.660156 Z M 170.144531 175.578125 C 170.285156 174.554688 170.765625 173.015625 171.207031 172.164062 C 171.652344 171.308594 175.390625 167.257812 179.515625 163.15625 C 187.375 155.347656 190.4375 151.84375 191.8125 149.078125 C 192.890625 146.914062 193.085938 146.011719 193.605469 140.925781 C 194.25 134.582031 195.183594 132.941406 203.667969 123.292969 C 207.476562 118.960938 208.632812 116.394531 208.65625 112.230469 C 208.671875 109.644531 208.488281 108.554688 207.8125 107.265625 L 206.949219 105.617188 L 208.90625 104.058594 C 209.984375 103.199219 211.050781 102.5 211.273438 102.5 C 211.5 102.5 212.007812 103.175781 212.398438 104.003906 C 212.964844 105.191406 213.078125 106.316406 212.949219 109.296875 C 212.796875 112.753906 212.632812 113.386719 211.035156 116.589844 C 210.058594 118.546875 207.800781 121.925781 205.925781 124.238281 C 204.078125 126.511719 201.996094 129.585938 201.296875 131.0625 C 200.167969 133.457031 200 134.3125 199.765625 138.929688 C 199.585938 142.433594 199.269531 144.628906 198.789062 145.710938 C 198.316406 146.777344 193.941406 151.402344 185.683594 159.558594 C 174.152344 170.949219 170.417969 175.164062 170.417969 176.789062 C 170.417969 177.148438 170.296875 177.441406 170.152344 177.441406 C 170.007812 177.441406 170.003906 176.605469 170.144531 175.578125 Z M 45.820312 173.507812 C 44.488281 170.449219 43.644531 166.277344 44.046875 164.730469 C 44.332031 163.613281 44.386719 163.660156 45.484375 166.054688 C 46.753906 168.828125 47.410156 171.492188 47.722656 175.121094 C 47.96875 177.953125 47.625 177.664062 45.820312 173.507812 Z M 209.917969 175.421875 C 207.921875 174.503906 204.238281 170.695312 202.066406 167.296875 C 200.066406 164.167969 195.652344 155.121094 195.648438 154.140625 C 195.648438 153.734375 196.582031 152.445312 197.722656 151.273438 C 198.863281 150.101562 200.296875 148.117188 200.90625 146.863281 C 201.875 144.882812 202.050781 143.917969 202.25 139.382812 C 202.519531 133.316406 203.058594 131.953125 207.386719 126.371094 C 211.691406 120.824219 213.023438 118.738281 214.121094 115.847656 C 216.046875 110.765625 215.839844 103.203125 213.71875 101.226562 L 212.863281 100.425781 L 214.285156 98.882812 C 215.070312 98.035156 215.820312 97.242188 215.953125 97.125 C 216.769531 96.40625 219.523438 92.003906 220.71875 89.511719 L 222.121094 86.582031 L 222.121094 88.5 C 222.121094 92.765625 224.933594 98.488281 228.449219 101.371094 C 232.503906 104.699219 238.300781 107.285156 243.421875 108.050781 C 244.332031 108.1875 245.542969 108.390625 246.113281 108.5 C 247.125 108.699219 264.855469 109.945312 266.691406 109.949219 C 267.203125 109.949219 267.621094 110.144531 267.621094 110.378906 C 267.621094 110.613281 265.945312 114.222656 263.894531 118.402344 C 260.496094 125.328125 255.0625 134.648438 252.65625 137.675781 C 252.128906 138.339844 251.050781 139.78125 250.261719 140.875 C 244.226562 149.253906 230.375 163.769531 222.121094 170.363281 C 218.0625 173.605469 213.625 176.210938 212.195312 176.191406 C 211.851562 176.1875 210.828125 175.839844 209.917969 175.421875 Z M 55.597656 172.511719 C 57.800781 170.273438 60.644531 168.578125 62.871094 168.183594 L 64.320312 167.925781 L 63.285156 168.777344 C 61.542969 170.210938 54.558594 174.433594 53.789062 174.523438 C 53.683594 174.535156 54.496094 173.628906 55.597656 172.511719 Z M 50.117188 166.46875 C 50.25 161.917969 50.371094 161.277344 51.550781 158.808594 C 52.261719 157.332031 53.457031 155.28125 54.207031 154.257812 L 55.578125 152.398438 L 55.933594 153.636719 C 56.4375 155.382812 55.921875 160.960938 54.976562 163.949219 C 54.539062 165.335938 53.511719 167.683594 52.6875 169.160156 C 51.863281 170.640625 50.980469 172.269531 50.722656 172.78125 C 50.261719 173.699219 50.253906 173.699219 50.113281 172.574219 C 50.035156 171.949219 50.039062 169.203125 50.117188 166.46875 Z M 148.496094 162.269531 C 148.496094 161.898438 150.136719 160.042969 152.140625 158.148438 C 156.300781 154.222656 157.734375 151.910156 158.464844 147.9375 C 159.140625 144.265625 158.539062 140.941406 156.292969 135.949219 C 154.777344 132.582031 154.625 131.949219 154.773438 129.597656 C 154.984375 126.3125 156.894531 122.394531 160.832031 117.171875 C 166.269531 109.96875 169.179688 104.398438 170.207031 99.246094 C 170.507812 97.730469 170.765625 96.960938 170.78125 97.53125 C 170.816406 98.726562 170.199219 101.542969 168.394531 108.441406 C 166.414062 115.996094 166.707031 118.875 170.210938 126.332031 C 172.945312 132.144531 173.726562 134.746094 173.726562 138.011719 C 173.726562 143.945312 170.707031 147.605469 159.871094 154.800781 C 153.789062 158.839844 150.179688 161.40625 149.4375 162.226562 C 148.625 163.125 148.496094 163.128906 148.496094 162.269531 Z M 146.070312 155.167969 C 143.296875 150.945312 142.539062 148.675781 142.800781 145.40625 C 143.082031 141.886719 144.882812 137.839844 148.511719 132.550781 C 150.183594 130.113281 151.6875 128.035156 151.855469 127.929688 C 152.019531 127.828125 152.15625 128.753906 152.15625 129.988281 C 152.15625 131.558594 152.554688 133.203125 153.484375 135.480469 C 156.480469 142.835938 156.449219 142.714844 156.257812 145.765625 C 155.996094 149.910156 154.855469 152.164062 151.304688 155.550781 C 149.664062 157.117188 148.292969 158.394531 148.253906 158.394531 C 148.214844 158.394531 147.234375 156.945312 146.070312 155.167969 Z M 271.394531 108.035156 C 270.171875 107.792969 270.101562 107.671875 270.101562 105.890625 C 270.101562 103.414062 268.800781 100.796875 266.652344 98.949219 C 265.707031 98.136719 261.511719 95.324219 257.332031 92.703125 C 244.300781 84.53125 239.808594 80.722656 236.019531 74.636719 C 233.382812 70.402344 232.621094 67.746094 232.253906 61.507812 C 232.082031 58.660156 231.683594 55.320312 231.363281 54.085938 C 230.0625 49.070312 225.421875 43.640625 217.128906 37.414062 C 203.058594 26.855469 192.445312 22.253906 184.914062 23.445312 C 183.675781 23.640625 182.585938 23.726562 182.492188 23.628906 C 182.148438 23.289062 185.574219 19.492188 188.148438 17.363281 C 192.957031 13.382812 198.828125 10.90625 203.457031 10.90625 C 210.976562 10.90625 222.828125 20.308594 233.316406 34.59375 C 238.804688 42.070312 240.660156 46.421875 242.574219 56.332031 C 244.253906 65.011719 245.203125 68.449219 246.804688 71.652344 C 249.25 76.535156 251.542969 78.984375 260.183594 85.941406 C 269.828125 93.707031 272.847656 97.09375 274.300781 101.769531 C 274.722656 103.121094 275.066406 105.144531 275.066406 106.261719 C 275.066406 108.226562 275.023438 108.296875 273.875 108.296875 C 273.222656 108.296875 272.105469 108.179688 271.394531 108.035156 Z M 259.464844 106.679688 C 247.332031 104.320312 234.847656 97.273438 229.796875 89.929688 C 227.109375 86.027344 226.195312 82.804688 225.949219 76.390625 L 225.734375 70.78125 L 226.824219 70.066406 C 227.421875 69.675781 228.421875 68.582031 229.042969 67.640625 L 230.175781 65.929688 L 230.457031 67.546875 C 231.328125 72.609375 234.84375 78.386719 240.039062 83.300781 C 243.632812 86.703125 247.789062 89.648438 257.488281 95.660156 C 265.449219 100.597656 268.035156 103.234375 268.035156 106.417969 C 268.035156 107.414062 267.917969 107.46875 265.773438 107.46875 C 264.53125 107.46875 261.691406 107.113281 259.464844 106.679688 Z M 241.972656 105.214844 C 234.902344 103.410156 230.855469 101.074219 227.824219 97.042969 C 225.347656 93.75 224.601562 91.613281 224.390625 87.179688 C 224.296875 85.242188 224.320312 84.03125 224.441406 84.488281 C 225.101562 86.957031 227.964844 91.785156 230.171875 94.148438 C 234.226562 98.488281 240.433594 102.699219 246.523438 105.242188 C 248.757812 106.171875 248.773438 106.191406 247.351562 106.203125 C 246.554688 106.210938 244.136719 105.765625 241.972656 105.214844 Z M 198.511719 103.722656 C 196.714844 102.808594 195.035156 101.230469 191.535156 97.1875 C 190.292969 95.757812 187.867188 93.59375 186.144531 92.382812 C 181.679688 89.253906 179.488281 86.042969 178.0625 80.53125 C 177.128906 76.925781 177 76.722656 172.945312 72.480469 C 170.402344 69.820312 169.164062 68.160156 168.613281 66.683594 C 167.632812 64.035156 167.234375 57.289062 167.902344 54.628906 C 168.382812 52.726562 171.738281 47.007812 172.375 47.019531 C 172.546875 47.023438 173.785156 48.421875 175.125 50.128906 C 180.734375 57.292969 187.921875 60.675781 197.507812 60.65625 C 201.5625 60.648438 202.648438 60.484375 211.273438 58.574219 L 215.519531 57.632812 L 216.648438 58.472656 C 218.089844 59.550781 219.074219 62.210938 220.140625 67.925781 C 221.28125 74.015625 221.355469 81.113281 220.320312 84.484375 C 218.839844 89.300781 213.871094 96.472656 209.003906 100.8125 C 204.796875 104.566406 201.792969 105.398438 198.511719 103.722656 Z M 221.863281 65.089844 C 221.292969 62.390625 220.542969 59.589844 220.199219 58.863281 C 219.570312 57.542969 219.570312 57.542969 221.503906 55.609375 C 222.566406 54.542969 223.304688 53.992188 223.140625 54.378906 C 222.574219 55.730469 222.433594 61.46875 222.886719 64.6875 C 223.136719 66.46875 223.429688 69.414062 223.539062 71.238281 C 223.726562 74.425781 223.71875 74.464844 223.316406 72.273438 C 223.085938 71.019531 222.433594 67.785156 221.863281 65.089844 Z M 225.207031 63.734375 C 225.042969 61.542969 225.015625 58.746094 225.140625 57.511719 C 225.375 55.242188 226.53125 52.339844 227.292969 52.109375 C 228.726562 51.671875 229.691406 58.363281 228.753906 62.265625 C 228.28125 64.242188 226.390625 67.71875 225.789062 67.71875 C 225.632812 67.71875 225.371094 65.925781 225.207031 63.734375 Z M 193.785156 58.179688 C 192.195312 57.953125 189.960938 57.496094 188.824219 57.167969 C 184.375 55.886719 178.535156 51.308594 175.257812 46.539062 L 173.738281 44.324219 L 174.699219 41.464844 L 175.664062 38.605469 L 175.925781 40.222656 C 176.414062 43.214844 178.640625 46.859375 181.847656 49.910156 C 186.148438 54.003906 190.410156 56.011719 196.742188 56.9375 C 198.53125 57.199219 200.644531 57.53125 201.4375 57.679688 L 202.886719 57.945312 L 201.027344 58.214844 C 198.148438 58.628906 196.914062 58.625 193.785156 58.179688 Z M 197.472656 54.703125 C 183.71875 52.28125 176.039062 43.351562 178.320312 32.4375 C 178.953125 29.414062 180.066406 27.757812 182.117188 26.789062 C 187.253906 24.367188 193.957031 25.796875 203.789062 31.410156 C 209.121094 34.457031 217.386719 40.390625 221.03125 43.785156 C 223.496094 46.082031 223.535156 46.148438 222.382812 46.167969 C 219.960938 46.203125 217.167969 50.246094 217.160156 53.726562 L 217.15625 54.851562 L 213.332031 54.988281 C 204.054688 55.316406 200.605469 55.257812 197.472656 54.703125 Z M 219.808594 51.773438 C 220.269531 49.933594 222.070312 48.257812 223.582031 48.257812 C 225.527344 48.257812 225.679688 48.863281 224 49.902344 C 223.210938 50.390625 221.953125 51.5625 221.207031 52.503906 C 220.140625 53.851562 219.820312 54.0625 219.707031 53.484375 C 219.628906 53.078125 219.675781 52.308594 219.808594 51.773438 Z M 169.539062 46.074219 C 169.945312 45.667969 169.996094 45.71875 169.769531 46.308594 C 169.613281 46.714844 169.382812 46.945312 169.253906 46.816406 C 169.128906 46.691406 169.253906 46.355469 169.539062 46.074219 Z M 171.089844 41.199219 C 171.914062 40.050781 172.667969 39.191406 172.765625 39.292969 C 173.117188 39.640625 171.722656 42.382812 170.972656 42.820312 C 169.558594 43.640625 169.585938 43.296875 171.089844 41.199219 Z M 160.84375 30.445312 C 162.640625 27.492188 167.773438 21.011719 169.429688 19.613281 C 171.484375 17.875 175.214844 16.832031 177.023438 17.484375 C 178.007812 17.839844 178.0625 18.011719 177.976562 20.535156 C 177.894531 22.910156 176.34375 28.894531 175.417969 30.386719 C 175.140625 30.839844 174.820312 30.804688 173.675781 30.179688 C 172.582031 29.582031 171.378906 29.417969 168.140625 29.417969 C 164.410156 29.417969 163.824219 29.523438 162.144531 30.515625 C 161.121094 31.117188 160.238281 31.628906 160.183594 31.652344 C 160.132812 31.675781 160.429688 31.132812 160.84375 30.445312 Z M 180.660156 19.746094 C 180.828125 17.964844 180.710938 17.578125 179.640625 16.375 C 178.636719 15.25 178.128906 15.019531 176.695312 15.019531 C 175.746094 15.019531 174.964844 14.960938 174.964844 14.886719 C 174.964844 14.449219 180.914062 11.550781 183.484375 10.730469 C 187.457031 9.46875 193.644531 8.738281 195.855469 9.269531 C 196.765625 9.488281 197.171875 9.683594 196.761719 9.707031 C 195.894531 9.753906 192.121094 11.582031 189.445312 13.25 C 188.421875 13.886719 186 16.050781 184.066406 18.050781 C 182.132812 20.054688 180.53125 21.707031 180.507812 21.726562 C 180.484375 21.742188 180.550781 20.851562 180.660156 19.746094 Z M 180.660156 19.746094 "/><path style=" stroke:none;fill-rule:nonzero;fill:#000000;fill-opacity:1;" d="M 56.039062 305.039062 C 61.671875 304.21875 63.832031 301.757812 66.914062 292.625 C 70.132812 283.09375 71.863281 272.476562 71.398438 265.132812 C 70.953125 258.078125 69.253906 254.222656 64.097656 248.570312 C 62.226562 246.519531 60.554688 244.789062 60.378906 244.71875 C 60.03125 244.585938 58.722656 245.773438 58.734375 246.21875 C 58.734375 246.371094 60.234375 248.078125 62.066406 250.011719 C 68.078125 256.359375 69.289062 259.746094 68.945312 269.273438 C 68.644531 277.519531 66.726562 286.59375 63.601562 294.53125 C 61.726562 299.292969 60.625 300.890625 58.59375 301.769531 C 53.625 303.929688 40.628906 303.566406 36.960938 301.160156 C 33.164062 298.671875 27.734375 278.472656 27.710938 266.765625 C 27.703125 261.378906 28.632812 258.5625 32.128906 253.402344 C 34.824219 249.417969 37.609375 245.519531 35.882812 245.519531 C 34.84375 245.519531 27.617188 255.1875 26.40625 258.582031 C 23.929688 265.527344 25.925781 281.703125 30.941406 295.316406 C 31.832031 297.734375 33.066406 300.441406 33.679688 301.328125 C 34.949219 303.164062 37.328125 304.355469 41.121094 305.050781 C 43.960938 305.574219 52.417969 305.566406 56.039062 305.039062 Z M 56.039062 305.039062 "/><path style=" stroke:none;fill-rule:nonzero;fill:#000000;fill-opacity:1;" d="M 355.554688 311.179688 C 360.425781 310.742188 363.636719 309.6875 364.289062 308.3125 C 364.558594 307.742188 365.261719 302.710938 365.84375 297.132812 C 366.429688 291.554688 367.179688 286.058594 367.511719 284.921875 C 368.097656 282.925781 368.332031 281.300781 368.753906 276.433594 C 368.859375 275.179688 369.222656 271.265625 369.558594 267.738281 C 369.890625 264.207031 370.285156 259.984375 370.433594 258.351562 C 370.648438 255.960938 370.894531 255.207031 371.695312 254.449219 C 372.875 253.34375 373.066406 250.648438 372.066406 249.222656 C 370.617188 247.152344 362.183594 244.550781 356.925781 244.550781 C 355.378906 244.550781 355.371094 244.542969 355.933594 243.460938 C 357.238281 240.941406 355.28125 239.65625 346.570312 237.316406 C 340.007812 235.554688 338.695312 235.066406 338.894531 234.453125 C 339.191406 233.542969 342.40625 232.882812 349.527344 232.265625 C 357.847656 231.546875 359.457031 231.042969 359.457031 229.15625 C 359.457031 228.484375 359.265625 227.574219 359.027344 227.132812 C 358.1875 225.5625 353.15625 223.359375 344.878906 220.941406 C 341.636719 219.996094 338.8125 219.058594 338.609375 218.859375 C 338.171875 218.441406 339.246094 217.949219 342.625 217.015625 C 344.710938 216.441406 345.015625 216.234375 344.902344 215.441406 C 344.789062 214.636719 344.542969 214.539062 342.824219 214.597656 C 341.75 214.632812 339.855469 215.128906 338.597656 215.703125 C 335.886719 216.945312 335.265625 218.273438 336.574219 220.027344 C 337.390625 221.121094 337.996094 221.355469 347.460938 224.261719 C 351.710938 225.566406 356.257812 227.578125 356.742188 228.363281 C 357.175781 229.066406 356.277344 229.257812 349.667969 229.863281 C 341.464844 230.617188 338.527344 231.195312 337.222656 232.320312 C 335.835938 233.515625 335.847656 235.308594 337.257812 236.523438 C 338.339844 237.453125 338.820312 237.613281 347.582031 240.007812 C 350.265625 240.742188 352.871094 241.679688 353.375 242.089844 L 354.285156 242.835938 L 352.699219 243.507812 C 351.605469 243.96875 348.769531 244.308594 343.597656 244.601562 C 335.34375 245.066406 331.027344 245.90625 327.914062 247.65625 C 325.484375 249.023438 324.710938 250.085938 324.710938 252.066406 C 324.710938 253.179688 324.976562 253.808594 325.683594 254.363281 C 326.574219 255.066406 326.695312 255.628906 327.148438 261.121094 C 328.371094 275.890625 329.257812 283.542969 329.867188 284.628906 C 330.277344 285.351562 330.925781 289.589844 331.691406 296.546875 C 332.34375 302.484375 333.105469 307.765625 333.378906 308.277344 C 334.757812 310.859375 344.644531 312.152344 355.554688 311.179688 Z M 338.773438 308.292969 C 336.707031 307.851562 335.050781 306.949219 335.050781 306.265625 C 335.050781 306.117188 336.585938 306.230469 338.464844 306.511719 C 344.308594 307.394531 358.203125 307.09375 361.609375 306.011719 C 362.707031 305.660156 362.507812 306.535156 361.3125 307.320312 C 358.792969 308.976562 344.777344 309.582031 338.773438 308.292969 Z M 337.386719 303.867188 C 336.285156 303.644531 335.242188 303.238281 335.070312 302.964844 C 334.808594 302.535156 334.339844 298.992188 333.121094 288.183594 L 332.882812 286.066406 L 335.3125 286.480469 C 338.679688 287.058594 359.058594 287.074219 362.144531 286.5 C 363.507812 286.246094 364.65625 286.066406 364.695312 286.101562 C 364.734375 286.136719 364.597656 287.652344 364.390625 289.476562 C 363.085938 300.992188 362.769531 303.089844 362.273438 303.394531 C 361.980469 303.578125 360.714844 303.839844 359.460938 303.976562 C 358.207031 304.113281 356.902344 304.292969 356.5625 304.375 C 355.296875 304.675781 339.324219 304.253906 337.386719 303.867188 Z M 338.429688 284.269531 C 336.230469 284.023438 333.832031 283.636719 333.101562 283.414062 C 331.53125 282.929688 331.605469 283.25 330.695312 273.328125 C 330.339844 269.457031 329.945312 265.941406 329.820312 265.519531 C 329.625 264.867188 329.761719 264.789062 330.769531 265.003906 C 334.515625 265.789062 338.746094 266.0625 347.046875 266.066406 C 355.511719 266.066406 359.464844 265.84375 365.46875 265.035156 L 367.554688 264.753906 L 366.632812 272.765625 C 366.125 277.175781 365.699219 281.273438 365.683594 281.875 C 365.671875 282.5 365.351562 283.105469 364.9375 283.289062 C 362.121094 284.539062 346.152344 285.128906 338.429688 284.269531 Z M 331.691406 262.78125 C 329.828125 262.320312 329.773438 262.265625 329.519531 260.410156 C 329.378906 259.367188 329.261719 257.910156 329.261719 257.171875 L 329.261719 255.828125 L 331.019531 256.195312 C 337.164062 257.472656 358.3125 257.585938 364.625 256.378906 C 366.445312 256.03125 368.007812 255.742188 368.097656 255.738281 C 368.3125 255.726562 367.769531 260.941406 367.476562 261.707031 C 367.230469 262.34375 364.363281 263.050781 360.902344 263.328125 C 356.558594 263.675781 333.566406 263.246094 331.691406 262.78125 Z M 334.636719 254.261719 C 330.375 253.742188 326.765625 252.753906 326.792969 252.117188 C 326.800781 251.941406 327.074219 251.441406 327.402344 251.007812 C 327.984375 250.238281 328.050781 250.238281 330.683594 251.105469 C 334.5 252.359375 343.480469 252.996094 352.664062 252.664062 C 360.742188 252.371094 364.367188 251.929688 367.378906 250.863281 C 368.988281 250.292969 369.414062 250.269531 369.964844 250.726562 C 372.007812 252.425781 368.898438 253.554688 359.664062 254.476562 C 355.960938 254.847656 338.195312 254.691406 334.636719 254.261719 Z M 336.863281 249.773438 C 334.5625 249.46875 332.421875 249.0625 332.109375 248.867188 C 330.21875 247.699219 350.625 246.164062 357.242188 246.976562 C 362.101562 247.574219 365.246094 248.246094 365.246094 248.6875 C 365.246094 249.042969 361.039062 249.820312 357.800781 250.0625 C 352.773438 250.4375 340.625 250.273438 336.863281 249.773438 Z M 336.863281 249.773438 "/></g></svg>