<svg xmlns="http://www.w3.org/2000/svg" xmlns:xlink="http://www.w3.org/1999/xlink" width="500" zoomAndPan="magnify" viewBox="0 0 375 374.999991" height="500" preserveAspectRatio="xMidYMid meet" version="1.2"><g id="6a3cc34e64"><path style=" stroke:none;fill-rule:nonzero;fill:#ffffff;fill-opacity:1;" d="M 132.257812 367.019531 C 132.484375 366.734375 132.765625 364.59375 132.890625 362.261719 C 133.078125 358.6875 133.308594 357.601562 134.367188 355.339844 C 135.535156 352.84375 138.609375 349.332031 139.601562 349.359375 C 140.308594 349.378906 142.679688 352.929688 145.621094 358.378906 C 147.175781 361.253906 148.722656 364.113281 149.0625 364.730469 C 149.402344 365.347656 150.199219 365.984375 150.832031 366.140625 C 151.832031 366.394531 152.160156 366.214844 153.3125 364.8125 C 154.039062 363.921875 157.453125 359.710938 160.898438 355.453125 C 167.601562 347.15625 173.453125 341.027344 175.792969 339.835938 C 177.890625 338.769531 180.34375 338.332031 190.839844 337.144531 C 203.945312 335.664062 218.023438 333.199219 231.015625 330.101562 C 238.855469 328.234375 240.953125 327.757812 244.25 327.101562 C 247.160156 326.519531 255.246094 326.410156 311.257812 326.203125 C 374.601562 325.96875 374.957031 325.960938 374.957031 325.140625 C 374.957031 324.316406 374.613281 324.3125 318.082031 324.105469 L 261.210938 323.898438 L 263.535156 322.808594 C 267.886719 320.769531 271.925781 316.027344 273.050781 311.648438 L 273.585938 309.550781 L 279.601562 309.898438 C 282.90625 310.09375 291.847656 310.230469 299.46875 310.210938 C 312.980469 310.175781 313.382812 310.152344 315.515625 309.222656 C 322.695312 306.101562 326.355469 293.558594 325.847656 273.800781 C 325.640625 265.707031 325.265625 264.132812 323.160156 262.476562 C 322.335938 261.824219 321.652344 261.632812 320.71875 261.78125 C 319.667969 261.953125 319.347656 261.820312 319 261.058594 C 317.886719 258.613281 313.019531 257.945312 296.160156 257.921875 C 289.675781 257.914062 283.1875 257.738281 281.738281 257.527344 C 279.167969 257.15625 275.800781 255.765625 273.925781 254.304688 C 273.003906 253.582031 273.011719 253.578125 274.921875 253.726562 C 278.015625 253.976562 285.78125 252.972656 288.976562 251.910156 C 294.335938 250.132812 299.261719 246.894531 303.839844 242.140625 C 308.464844 237.335938 311.105469 232.875 312.484375 227.539062 C 313.804688 222.421875 313.277344 211.1875 310.8125 191.949219 C 310.226562 187.398438 309.484375 181.445312 309.160156 178.714844 C 307.804688 167.335938 303.226562 143.472656 300.679688 134.511719 C 297.078125 121.828125 292.53125 114.484375 286.339844 111.347656 C 284.667969 110.496094 278.742188 108.601562 277.761719 108.601562 C 277.644531 108.601562 277.546875 107.625 277.542969 106.433594 C 277.527344 99.070312 273.125 92.757812 262.039062 84.195312 C 250.566406 75.332031 248.019531 71.574219 245.902344 60.386719 C 244.082031 50.78125 242.808594 46.144531 240.964844 42.40625 C 234.769531 29.847656 220.308594 14.605469 210.375 10.164062 C 208.988281 9.542969 206.082031 8.589844 203.921875 8.046875 C 198.558594 6.695312 188.847656 6.671875 184.007812 7.996094 C 171.238281 11.492188 161.375 22.007812 151.332031 42.835938 C 146.664062 52.523438 144.460938 59.867188 144.082031 67.035156 C 143.78125 72.675781 144.34375 76.492188 146.273438 81.925781 C 149.683594 91.53125 149.855469 92.292969 149.878906 97.847656 C 149.898438 102.296875 149.773438 103.332031 148.976562 105.246094 C 147.222656 109.457031 144.386719 113.148438 137.566406 120.101562 C 133.832031 123.90625 130.050781 127.949219 129.15625 129.082031 C 125.765625 133.398438 124.148438 137.660156 123.796875 143.1875 C 123.367188 150.03125 125.308594 154.171875 132.589844 161.960938 C 136.910156 166.582031 137.824219 168.007812 137.824219 170.121094 C 137.824219 172.992188 133.847656 175.53125 128.757812 175.917969 C 125.4375 176.167969 124.085938 176.882812 124.953125 177.929688 C 125.261719 178.300781 126.277344 178.507812 127.789062 178.507812 C 134.324219 178.507812 140.3125 174.515625 140.375 170.117188 C 140.410156 167.5 139.320312 165.726562 134.140625 159.96875 C 128.226562 153.398438 126.523438 150.277344 126.246094 145.492188 C 126.011719 141.414062 126.625 138.484375 128.46875 134.882812 C 130.488281 130.941406 131.5 129.726562 139.816406 121.21875 C 149.664062 111.148438 152.078125 107.011719 152.527344 99.441406 C 152.84375 94.097656 152.3125 91.738281 148.113281 79.855469 C 146.992188 76.691406 146.761719 75.359375 146.566406 70.960938 C 146.300781 64.890625 147.167969 59.765625 149.578125 53.195312 C 151.691406 47.449219 156.140625 38.523438 157.832031 36.652344 C 159.683594 34.601562 162.800781 32.59375 165.34375 31.8125 C 167.726562 31.082031 171.226562 31.394531 172.542969 32.457031 L 173.445312 33.191406 L 172.449219 34.855469 C 170.253906 38.511719 166.96875 43.132812 165.453125 44.695312 C 162.804688 47.429688 161.09375 50.710938 160.269531 54.632812 C 159.035156 60.519531 160.175781 66.835938 164.417969 77.582031 C 171.347656 95.128906 169.757812 102.480469 155.230469 119.980469 C 143.90625 133.617188 140.871094 138.730469 140.34375 145.023438 C 140.035156 148.671875 140.90625 151.5 143.597656 155.589844 C 145.390625 158.320312 145.773438 159.234375 145.914062 161.132812 C 146.0625 163.222656 145.886719 163.796875 143.753906 168.125 C 138.257812 179.261719 138.386719 185.03125 144.230469 189.949219 C 148.574219 193.601562 151.261719 196.515625 151.800781 198.144531 C 152.261719 199.546875 152.210938 200.082031 151.359375 202.796875 C 150.535156 205.425781 150.484375 205.917969 150.996094 206.25 C 152.167969 207 152.84375 206.394531 153.789062 203.734375 C 154.316406 202.257812 154.894531 200.898438 155.074219 200.71875 C 155.257812 200.535156 156.597656 200.109375 158.050781 199.769531 C 163.027344 198.613281 165.453125 195.871094 165.453125 191.394531 C 165.453125 188.625 164.878906 187.304688 161.578125 182.46875 C 157.714844 176.808594 157.566406 174.992188 160.519531 169.480469 C 162.296875 166.164062 162.425781 165.605469 161.574219 164.902344 C 160.566406 164.0625 159.78125 164.84375 158.226562 168.25 C 155.125 175.039062 155.355469 177.945312 159.460938 183.667969 C 162.550781 187.972656 163.066406 189.074219 163.066406 191.359375 C 163.066406 194.953125 160.792969 197.078125 156.304688 197.664062 L 154.398438 197.917969 L 154.179688 195.523438 C 153.917969 192.621094 152.882812 190.5 149.617188 186.160156 C 146.042969 181.410156 145.195312 179.394531 145.1875 175.644531 C 145.1875 172.941406 145.367188 172.207031 146.691406 169.523438 C 148.511719 165.84375 150.542969 164.035156 160.375 157.359375 C 168.867188 151.59375 172.816406 147.96875 174.636719 144.277344 C 177.09375 139.285156 176.679688 134.507812 173.121094 126.804688 C 170.277344 120.644531 169.996094 119.800781 169.746094 116.695312 C 169.542969 114.15625 169.734375 112.914062 171.207031 107.25 C 173.214844 99.507812 173.429688 95.589844 172.054688 91.738281 C 171.589844 90.433594 170.539062 87.414062 169.722656 85.027344 C 168.90625 82.636719 167.324219 78.402344 166.207031 75.613281 C 161.5625 64.019531 160.996094 56.453125 164.300781 50.199219 C 164.984375 48.90625 165.867188 47.550781 166.265625 47.195312 C 166.945312 46.578125 166.964844 46.671875 166.613281 48.929688 C 166.410156 50.242188 165.972656 52.492188 165.640625 53.925781 C 164.816406 57.507812 164.886719 61.550781 165.84375 65.289062 C 166.972656 69.703125 167.601562 70.753906 171.226562 74.273438 C 174.515625 77.460938 174.816406 77.992188 176.472656 83.566406 C 177.457031 86.882812 180.0625 90.640625 182.785156 92.667969 C 184.015625 93.582031 187.457031 96.777344 190.4375 99.761719 C 193.417969 102.75 196.507812 105.523438 197.304688 105.929688 C 198.121094 106.347656 200.050781 106.753906 201.734375 106.863281 C 205.738281 107.121094 206.195312 107.632812 206.195312 111.851562 C 206.195312 115.976562 205.308594 117.71875 200.414062 123.222656 C 198.359375 125.535156 196.097656 128.167969 195.390625 129.078125 C 192.605469 132.660156 191.113281 136.847656 191.101562 141.101562 C 191.097656 144.214844 190.246094 147.128906 188.644531 149.527344 C 187.96875 150.539062 183.4375 155.378906 178.578125 160.28125 C 168.074219 170.875 167.648438 171.535156 167.878906 176.851562 C 167.964844 178.785156 168.050781 182.324219 168.070312 184.710938 C 168.105469 189.429688 167.882812 190.382812 163.402344 204.359375 C 162.308594 207.773438 161.28125 211.355469 161.121094 212.328125 L 160.828125 214.089844 L 159.929688 212.742188 C 158.507812 210.601562 156.441406 209.835938 151.632812 209.65625 C 143.660156 209.359375 111.015625 207.859375 103.613281 207.449219 C 99.519531 207.222656 90.863281 206.746094 84.382812 206.386719 C 77.898438 206.027344 72.527344 205.667969 72.445312 205.589844 C 72.011719 205.15625 77.886719 198.363281 78.691406 198.363281 C 78.878906 198.363281 79.628906 199.042969 80.359375 199.875 C 83.820312 203.816406 89.230469 203.875 93.628906 200.015625 C 95.765625 198.136719 96.144531 197.316406 95.542969 195.859375 C 94.890625 194.292969 92.054688 193.191406 88.671875 193.191406 L 86.132812 193.191406 L 87.179688 192.15625 C 89.503906 189.855469 90.53125 185.566406 88.957031 184.726562 C 86.984375 183.667969 83.5 184.640625 81.140625 186.902344 C 79.273438 188.695312 78.246094 190.816406 77.921875 193.546875 C 77.707031 195.386719 77.394531 196.074219 76.296875 197.140625 L 74.933594 198.460938 L 74.09375 196.808594 C 71.847656 192.40625 66.46875 190.878906 61.609375 193.261719 C 58.878906 194.601562 53.585938 199.8125 52.117188 202.601562 C 51.140625 204.457031 50.992188 204.566406 49.386719 204.566406 L 47.691406 204.566406 L 47.410156 200.578125 C 47.066406 195.691406 47.117188 195.613281 52.0625 193.832031 C 56.886719 192.09375 59.402344 190.597656 62.691406 187.523438 C 65.78125 184.632812 67.828125 181.425781 67.832031 179.464844 C 67.835938 177.710938 67.269531 177.578125 61.800781 178.066406 C 56.710938 178.523438 54.203125 179.175781 51.519531 180.746094 L 49.675781 181.828125 L 50.09375 180.632812 C 50.71875 178.832031 51.855469 177.984375 57.289062 175.257812 C 64.355469 171.707031 69.34375 167.441406 68 166.097656 C 66.558594 164.65625 61.3125 165.390625 57.753906 167.53125 L 55.441406 168.925781 L 56.007812 167.820312 C 57.605469 164.714844 58.324219 161.058594 58.324219 156.011719 C 58.324219 150.664062 57.867188 149.140625 56.273438 149.140625 C 54.222656 149.140625 48.039062 158.152344 47.941406 161.292969 C 47.917969 162.003906 47.769531 163.042969 47.613281 163.605469 C 47.332031 164.621094 47.328125 164.621094 46.773438 163.285156 C 46.171875 161.832031 44.132812 159.894531 43.203125 159.894531 C 42.882812 159.894531 42.3125 160.367188 41.933594 160.945312 C 40.890625 162.535156 41.421875 168.121094 43.003906 172.191406 L 44.21875 175.320312 L 42.894531 174.097656 C 40.398438 171.792969 35.871094 168.992188 34.636719 168.992188 C 33.128906 168.992188 33.066406 170.050781 34.40625 172.757812 C 35.414062 174.796875 36.921875 176.601562 40.953125 180.605469 C 45.644531 185.269531 46.152344 185.910156 45.832031 186.78125 C 45.632812 187.316406 45.335938 188.699219 45.171875 189.851562 L 44.867188 191.945312 L 43.738281 190.015625 C 40.964844 185.28125 34.578125 181.914062 28 181.71875 C 24.230469 181.605469 23.917969 182 25.390625 185.023438 C 28.703125 191.816406 33.496094 195.570312 40.535156 196.875 C 43.035156 197.339844 43.289062 197.492188 44.148438 199.007812 C 44.886719 200.3125 45.074219 201.292969 45.078125 203.925781 L 45.085938 207.214844 L 43.535156 205.71875 C 39.164062 201.5 28.125 198.46875 28.125 201.488281 C 28.125 202.652344 30.972656 206.484375 33.839844 209.1875 C 35.617188 210.859375 38.191406 212.65625 40.957031 214.160156 C 43.34375 215.453125 45.523438 216.71875 45.808594 216.96875 C 46.195312 217.304688 46.320312 219.714844 46.308594 226.402344 L 46.285156 235.382812 L 45.015625 232.898438 C 44.320312 231.535156 43.117188 229.640625 42.347656 228.691406 C 41.132812 227.195312 41 226.820312 41.363281 225.871094 C 42.5 222.875 41.527344 220.25 38.292969 217.601562 C 36.597656 216.210938 36.257812 216.082031 35.359375 216.488281 C 34.617188 216.828125 34.273438 217.394531 34.078125 218.617188 C 33.933594 219.535156 33.730469 220.285156 33.628906 220.285156 C 32.949219 220.285156 24.597656 213.792969 24.625 213.289062 C 24.632812 213.15625 24.789062 212.257812 24.96875 211.296875 C 25.546875 208.253906 24.078125 205.253906 22.558594 206.367188 C 21.902344 206.84375 21.871094 207.09375 22.3125 208.429688 C 22.589844 209.261719 22.691406 210.5 22.542969 211.179688 L 22.273438 212.410156 L 20.566406 211.539062 C 18.472656 210.472656 14.613281 209.117188 14.363281 209.367188 C 14.265625 209.464844 13.871094 208.753906 13.492188 207.78125 C 12.144531 204.347656 9.699219 202.5 6.484375 202.5 C 4.828125 202.5 4.28125 202.703125 3.277344 203.707031 C 1.886719 205.097656 1.65625 207.28125 2.691406 209.265625 C 3.457031 210.734375 3.46875 211.183594 2.75 211.183594 C 1.691406 211.183594 0 213.164062 0 214.402344 C 0 217.332031 6.164062 219.9375 10.054688 218.65625 C 11.914062 218.042969 13.871094 215.851562 14.53125 213.644531 C 14.988281 212.125 15.140625 211.984375 16.101562 212.210938 C 17.816406 212.617188 21.109375 214.34375 23.882812 216.292969 L 26.464844 218.105469 L 24.503906 218.835938 C 16.867188 221.683594 15.957031 228.257812 22.984375 229.851562 C 26.765625 230.707031 34.023438 230.585938 36.984375 229.617188 L 39.429688 228.816406 L 40.601562 230.21875 C 41.246094 230.992188 42.515625 233.046875 43.417969 234.78125 L 45.058594 237.941406 L 41.539062 238.464844 C 33.097656 239.722656 30.253906 244.011719 35.984375 246.847656 C 41.582031 249.609375 54.320312 249.476562 59.894531 246.59375 C 62.496094 245.246094 62.554688 241.878906 60 240.386719 C 58.390625 239.449219 54.605469 238.5 52.429688 238.492188 C 51.058594 238.484375 50.875 238.363281 50.875 237.46875 C 50.875 235.789062 52.777344 231.078125 54.417969 228.699219 L 55.953125 226.46875 L 59.441406 232.996094 C 64.570312 242.589844 74.277344 261.214844 79.300781 271.109375 C 80.617188 273.695312 82.34375 276.515625 83.140625 277.375 C 84.394531 278.730469 84.917969 278.976562 87.070312 279.242188 C 88.433594 279.410156 89.777344 279.578125 90.054688 279.617188 C 91.097656 279.757812 90.984375 280.167969 89.761719 280.671875 C 87.726562 281.515625 84.808594 285.121094 82.894531 289.152344 C 80.839844 293.492188 77.832031 302.484375 74.25 315.003906 L 71.703125 323.898438 L 18.671875 324.003906 L 18.554688 326.175781 C 18.472656 327.671875 71.1875 326.210938 70.980469 326.898438 C 70.632812 328.027344 63.066406 355.265625 61.816406 359.886719 C 60.394531 365.136719 60.273438 367.332031 61.40625 367.332031 C 62.308594 367.332031 62.691406 366.292969 65.144531 357.195312 C 65.910156 354.351562 67.296875 349.328125 68.21875 346.027344 C 69.144531 342.730469 71.101562 335.5625 72.570312 330.101562 C 77.902344 310.25 82.617188 295.335938 85.289062 289.863281 C 88.105469 284.097656 92.53125 280.570312 96.996094 280.535156 C 99.28125 280.519531 106.035156 281.027344 107.335938 281.3125 C 108.117188 281.484375 121.832031 282.703125 123.800781 282.777344 C 124.683594 282.808594 123.714844 283.027344 114.609375 284.84375 C 109.050781 285.949219 106.441406 286.949219 104.296875 288.785156 C 101.40625 291.257812 101.011719 292.460938 99.664062 302.929688 C 98.660156 310.730469 97.386719 318.445312 96.542969 321.832031 C 94.167969 331.375 86.253906 353.507812 81.53125 363.8125 C 80.433594 366.203125 80.398438 367.535156 81.433594 367.535156 C 81.863281 367.535156 82.402344 367.304688 82.640625 367.019531 C 83.9375 365.453125 91.527344 346.085938 94.847656 335.867188 C 98.726562 323.9375 100.785156 314.445312 102.164062 302.183594 C 102.40625 300.023438 102.902344 296.988281 103.261719 295.445312 C 104.523438 290.054688 107.300781 288.5625 120.753906 286.046875 C 123.351562 285.5625 126.257812 284.75 127.210938 284.242188 C 128.914062 283.335938 129.027344 283.328125 134.683594 283.859375 C 141.300781 284.476562 157.011719 286.007812 159.453125 286.273438 C 161.285156 286.46875 173.304688 287.492188 183.238281 288.292969 C 189.601562 288.804688 192.339844 288.601562 192.339844 287.613281 C 192.339844 287.359375 192.769531 287.554688 193.296875 288.046875 C 194.96875 289.617188 197.589844 289.296875 214.847656 285.402344 C 224.667969 283.1875 249.332031 277.121094 250.824219 276.554688 C 252.722656 275.832031 253.554688 274.628906 253.554688 272.609375 C 253.554688 269.582031 253.144531 269.386719 244.640625 268.34375 C 240.558594 267.84375 236.667969 267.4375 235.996094 267.4375 C 235.257812 267.4375 234.933594 267.292969 235.171875 267.066406 C 235.582031 266.675781 249.953125 261.933594 252.117188 261.476562 L 253.371094 261.207031 L 254.933594 266.816406 C 259.527344 283.253906 260.726562 293.128906 258.921875 299.640625 C 257.171875 305.960938 254.742188 309.730469 247.964844 316.660156 C 245.179688 319.503906 242.519531 322.59375 242.050781 323.523438 L 241.195312 325.21875 L 234.195312 326.921875 C 218.074219 330.84375 202.152344 333.648438 186.757812 335.28125 C 182.660156 335.714844 178.371094 336.351562 177.222656 336.695312 C 174.128906 337.625 171.632812 339.472656 167.757812 343.695312 C 164.75 346.96875 155.152344 358.417969 152.285156 362.152344 C 151.753906 362.84375 151.15625 363.304688 150.953125 363.179688 C 150.753906 363.054688 149.636719 361.054688 148.476562 358.730469 C 147.316406 356.40625 145.441406 353.140625 144.3125 351.472656 C 142.945312 349.453125 142.339844 348.179688 142.5 347.671875 C 142.894531 346.425781 149.089844 340.855469 152.789062 338.421875 C 156.984375 335.65625 162.859375 332.5 167.464844 330.535156 C 171.960938 328.617188 175.980469 327.636719 192.753906 324.355469 C 205.378906 321.882812 213.066406 320.046875 219.226562 318.027344 C 220.992188 317.449219 221.53125 317.070312 221.632812 316.347656 C 221.707031 315.8125 221.507812 315.316406 221.160156 315.183594 C 220.828125 315.054688 218.164062 315.699219 215.238281 316.613281 C 207.742188 318.949219 206.386719 319.265625 189.101562 322.691406 C 172.066406 326.070312 168.375 327.132812 161.222656 330.738281 C 152.710938 335.023438 148.097656 338.207031 143.339844 343.082031 L 140.460938 346.03125 L 138.789062 344.4375 C 135.886719 341.667969 134.078125 340.535156 126.820312 336.929688 C 119.25 333.164062 118.660156 332.628906 119.300781 330.089844 C 119.460938 329.445312 120.925781 327.597656 122.566406 325.972656 C 124.804688 323.75 126.402344 322.605469 129.054688 321.320312 C 136.597656 317.664062 143.730469 316.070312 169.175781 312.347656 C 220.535156 304.839844 233.453125 301.871094 240.734375 295.898438 C 243.863281 293.332031 245.050781 290.894531 244.753906 287.644531 C 244.507812 284.914062 243.59375 283.15625 242.421875 283.15625 C 241.375 283.15625 241.117188 284.019531 241.796875 285.246094 C 242.539062 286.582031 242.535156 289.527344 241.792969 290.964844 C 239.546875 295.308594 229.929688 299.667969 217.15625 302.132812 C 206.5 304.1875 192.820312 306.4375 175.378906 308.996094 C 144.511719 313.527344 136.324219 315.234375 128.910156 318.6875 C 124.914062 320.550781 122.0625 322.652344 119.320312 325.761719 C 118.214844 327.011719 117.164062 328.035156 116.988281 328.035156 C 116.808594 328.035156 115.914062 327.042969 115.003906 325.828125 C 113.464844 323.78125 111.96875 320.929688 109.578125 315.484375 C 108.019531 311.9375 105.773438 311.074219 103.738281 313.246094 C 101.527344 315.613281 100.75 318.292969 99.503906 327.828125 C 98.394531 336.308594 95.984375 352.917969 95.105469 358.144531 C 94.652344 360.828125 94.390625 363.203125 94.527344 363.417969 C 94.660156 363.636719 95.117188 363.8125 95.539062 363.8125 C 96.472656 363.8125 97.144531 361.152344 98.421875 352.4375 C 98.890625 349.253906 99.640625 344.136719 100.089844 341.066406 C 100.539062 337.992188 101.375 332.035156 101.949219 327.828125 C 102.519531 323.621094 103.175781 319.523438 103.402344 318.726562 C 103.960938 316.765625 105.339844 314.59375 106.023438 314.59375 C 106.339844 314.59375 107.355469 316.398438 108.359375 318.746094 C 110.171875 322.992188 112.554688 327.046875 114.210938 328.703125 L 115.136719 329.628906 L 114.132812 330.253906 C 112.085938 331.527344 108.0625 335.988281 106.597656 338.605469 C 104.632812 342.117188 102.757812 347.984375 100.285156 358.335938 C 98.714844 364.921875 98.394531 366.824219 98.789062 367.222656 C 99.953125 368.382812 100.597656 366.878906 102.992188 357.398438 C 106.878906 342.015625 108.761719 337.984375 114.246094 333.304688 L 116.34375 331.511719 L 117.058594 333.082031 C 118.042969 335.261719 118.675781 335.730469 124.089844 338.273438 C 129.578125 340.855469 133.597656 343.222656 136.246094 345.4375 L 138.105469 346.992188 L 135.644531 349.363281 C 132.921875 351.984375 131.460938 354.753906 130.738281 358.660156 C 130.253906 361.289062 130.144531 365.839844 130.546875 366.882812 C 130.847656 367.667969 131.691406 367.734375 132.257812 367.019531 Z M 244.457031 324.191406 C 244.457031 324.011719 246.660156 321.613281 249.355469 318.859375 C 256.136719 311.941406 259.503906 306.65625 261.296875 300.113281 C 262.585938 295.421875 262.292969 288.152344 260.457031 279.382812 C 259.621094 275.375 258.171875 269.449219 257.242188 266.21875 C 256.3125 262.984375 255.613281 260.300781 255.691406 260.25 C 256.007812 260.046875 260.34375 258.785156 260.429688 258.871094 C 260.585938 259.027344 263.375 272.527344 265.140625 281.707031 C 266.0625 286.484375 267.6875 293.464844 268.753906 297.21875 C 270.394531 303.003906 270.691406 304.613281 270.707031 307.765625 C 270.71875 310.886719 270.5625 311.8125 269.730469 313.492188 C 266.914062 319.160156 260.761719 322.519531 250.664062 323.898438 C 245.867188 324.550781 244.457031 324.621094 244.457031 324.191406 Z M 276.304688 307.398438 C 275.738281 307.316406 274.878906 307.230469 274.394531 307.199219 C 273.664062 307.15625 273.472656 306.796875 273.242188 305.058594 C 273.089844 303.910156 272.308594 300.886719 271.507812 298.335938 C 269.652344 292.433594 269.339844 291.066406 266.792969 277.570312 C 265.632812 271.429688 264.222656 264.472656 263.65625 262.109375 C 263.089844 259.746094 262.679688 257.792969 262.746094 257.761719 C 262.808594 257.730469 263.933594 257.199219 265.242188 256.578125 L 267.621094 255.453125 L 267.644531 260.722656 C 267.671875 266.757812 268.125 268.535156 269.894531 269.566406 C 271.546875 270.523438 275.632812 271.148438 280.441406 271.179688 C 282.605469 271.195312 285.863281 271.394531 287.679688 271.628906 C 292.542969 272.246094 293.71875 272.136719 294.917969 270.9375 C 295.871094 269.988281 295.972656 269.523438 296.160156 265.257812 L 296.367188 260.613281 L 304.898438 260.667969 C 312.867188 260.71875 316.429688 261.136719 316.429688 262.015625 C 316.429688 262.183594 315.878906 262.847656 315.207031 263.492188 C 312.769531 265.824219 312.707031 266.457031 312.707031 287.957031 L 312.707031 307.503906 L 311.777344 307.710938 C 310.789062 307.933594 278.0625 307.644531 276.304688 307.398438 Z M 314.984375 300.257812 C 314.820312 296.925781 314.816406 288.316406 314.976562 281.128906 C 315.285156 267.570312 315.476562 266.164062 317.152344 265.117188 C 317.832031 264.691406 317.867188 265.117188 317.75 272.390625 C 317.640625 278.964844 317.714844 280.199219 318.261719 280.648438 C 318.613281 280.941406 319.179688 281.074219 319.527344 280.941406 C 320.050781 280.738281 320.152344 279.589844 320.152344 273.914062 C 320.152344 270.179688 320.265625 266.558594 320.40625 265.863281 C 320.816406 263.796875 321.742188 263.875 322.707031 266.058594 C 323.511719 267.882812 323.546875 268.527344 323.34375 278.566406 C 323.105469 290.277344 322.414062 294.96875 320.179688 300.046875 C 319.070312 302.5625 316.347656 306.320312 315.628906 306.320312 C 315.441406 306.320312 315.152344 303.59375 314.984375 300.257812 Z M 195.234375 285.859375 C 195.234375 285.527344 195.601562 285.058594 196.046875 284.816406 C 196.804688 284.414062 207.984375 281.683594 216.535156 279.816406 C 221.0625 278.828125 232.113281 276.242188 242.230469 273.796875 C 250.671875 271.757812 251.613281 271.648438 251.410156 272.710938 C 251.207031 273.761719 249.078125 274.625 243.007812 276.109375 C 225.648438 280.359375 219.675781 281.777344 210.746094 283.765625 C 199.050781 286.375 199.246094 286.335938 196.992188 286.410156 C 195.699219 286.449219 195.234375 286.304688 195.234375 285.859375 Z M 182 285.648438 C 179.382812 285.417969 175.753906 285.128906 173.933594 285.003906 C 172.113281 284.882812 169.785156 284.699219 168.761719 284.59375 C 167.738281 284.488281 164.667969 284.214844 161.9375 283.988281 C 157.007812 283.578125 148.171875 282.71875 140.636719 281.921875 C 136.34375 281.46875 128.742188 280.785156 124.503906 280.472656 C 123.023438 280.363281 119.859375 280.085938 117.472656 279.851562 C 115.082031 279.621094 110.988281 279.238281 108.371094 279.007812 C 105.753906 278.773438 103.148438 278.5 102.582031 278.394531 C 102.011719 278.292969 99.128906 278.015625 96.167969 277.785156 C 93.210938 277.550781 89.527344 277.144531 87.976562 276.878906 L 85.164062 276.398438 L 83.582031 273.675781 C 82.714844 272.179688 80 267.046875 77.550781 262.269531 C 75.101562 257.488281 71.5625 250.695312 69.6875 247.171875 C 67.8125 243.644531 63.113281 234.710938 59.25 227.316406 C 55.386719 219.921875 51.636719 212.847656 50.917969 211.597656 C 49.039062 208.335938 48.644531 207.488281 48.898438 207.234375 C 49.019531 207.113281 52.816406 207.214844 57.339844 207.460938 C 61.863281 207.710938 70.957031 208.179688 77.554688 208.507812 C 121.296875 210.683594 132.6875 211.25 143.675781 211.785156 C 153.695312 212.273438 156.222656 212.515625 157.058594 213.0625 C 157.628906 213.4375 158.652344 214.980469 159.335938 216.496094 C 160.019531 218.011719 162.683594 223.71875 165.257812 229.175781 C 179.824219 260.101562 184.484375 270.09375 187.695312 277.3125 C 191.136719 285.054688 191.230469 285.347656 190.453125 285.914062 C 189.949219 286.28125 189.109375 286.421875 188.203125 286.285156 C 187.40625 286.167969 184.613281 285.882812 182 285.648438 Z M 191.890625 280.847656 L 190.820312 278.796875 L 196.441406 278.785156 C 201.394531 278.777344 202.671875 278.621094 207.230469 277.449219 C 214.808594 275.503906 223.957031 272.648438 225.1875 271.84375 C 226.539062 270.957031 226.609375 269.335938 225.328125 268.519531 C 223.785156 267.539062 215.015625 266.171875 209.917969 266.121094 L 207.851562 266.097656 L 210.746094 265.304688 C 212.835938 264.734375 214.621094 264.550781 217.15625 264.652344 C 220.429688 264.78125 220.875 264.910156 223.574219 266.515625 C 226.449219 268.226562 226.558594 268.253906 235.984375 269.597656 C 241.210938 270.34375 245.027344 271.015625 244.457031 271.089844 C 243.523438 271.210938 234.085938 273.292969 216.949219 277.15625 C 206.074219 279.609375 196.726562 281.921875 195.234375 282.523438 C 194.4375 282.847656 193.601562 283.0625 193.375 283.003906 C 193.144531 282.945312 192.476562 281.976562 191.890625 280.847656 Z M 191.75 276.191406 C 190.632812 276.039062 189.644531 275.695312 189.554688 275.421875 C 189.4375 275.078125 189.804688 274.992188 190.761719 275.144531 C 191.515625 275.261719 194.179688 275.605469 196.683594 275.902344 L 201.230469 276.449219 L 197.507812 276.457031 C 195.460938 276.460938 192.871094 276.34375 191.75 276.191406 Z M 194.691406 273.191406 C 190.609375 272.769531 189.898438 272.597656 190.359375 272.132812 C 190.664062 271.828125 191.375 271.59375 191.9375 271.609375 C 195.984375 271.730469 196.582031 271.605469 199.800781 269.960938 C 202.796875 268.429688 203.417969 268.265625 206.15625 268.265625 C 209.800781 268.265625 220.933594 269.394531 222.230469 269.894531 C 223.332031 270.316406 223.707031 270.152344 216.535156 272.394531 L 211.160156 274.078125 L 205.367188 273.886719 C 202.183594 273.777344 197.378906 273.464844 194.691406 273.191406 Z M 188.023438 269.402344 C 188.519531 267.8125 194.332031 260.144531 196.644531 258.03125 C 199.136719 255.75 200.410156 255.289062 206.09375 254.59375 C 209.925781 254.125 210.125 254.050781 210.125 253.117188 C 210.125 252.179688 210 252.132812 207.332031 252.140625 C 204.128906 252.148438 199.613281 253.011719 197.757812 253.972656 C 195.53125 255.125 193.53125 257.183594 189.996094 261.957031 C 188.101562 264.515625 186.367188 266.609375 186.136719 266.609375 C 184.09375 266.609375 189.554688 258.46875 194.117188 254.714844 C 196.996094 252.351562 204.890625 248.386719 207.242188 248.125 C 208.625 247.972656 210.347656 248.308594 214.054688 249.441406 C 218.527344 250.8125 219.367188 250.945312 222.535156 250.78125 C 227.835938 250.503906 230.035156 249.585938 244.410156 241.648438 C 252.742188 237.046875 254.851562 235.445312 257.292969 231.84375 C 260.199219 227.566406 262.558594 226.617188 271.425781 226.148438 C 277.804688 225.8125 279.617188 225.253906 279.617188 223.613281 C 279.617188 221.558594 276.851562 220.726562 273.191406 221.683594 C 271.851562 222.03125 270.667969 222.230469 270.5625 222.121094 C 270.277344 221.835938 272.996094 219.113281 274.445312 218.238281 C 275.128906 217.824219 276.582031 217.359375 277.675781 217.203125 C 279.898438 216.882812 280.636719 215.960938 279.398438 215.054688 C 278.296875 214.25 277.042969 214.359375 274.558594 215.476562 C 272.535156 216.390625 270.515625 218.085938 269.078125 220.078125 C 268.546875 220.816406 268.535156 220.726562 268.960938 219.25 C 269.328125 217.988281 270.574219 216.46875 274.226562 212.839844 C 279.738281 207.363281 281.476562 205.046875 281.066406 203.742188 C 280.636719 202.394531 279.601562 202.890625 277.800781 205.300781 C 276.910156 206.496094 276.097656 207.390625 275.996094 207.289062 C 275.675781 206.96875 277.378906 165.964844 277.789062 164.03125 C 278.25 161.867188 275.90625 160.796875 275.246094 162.871094 C 275.101562 163.328125 274.652344 172.664062 274.246094 183.617188 C 273.84375 194.570312 273.460938 203.625 273.398438 203.738281 C 272.964844 204.539062 272.15625 189.292969 271.929688 176.027344 C 271.640625 158.984375 271.800781 156.578125 273.890625 146.363281 C 274.816406 141.835938 274.734375 140.867188 273.441406 140.867188 C 272.835938 140.867188 272.503906 141.28125 272.203125 142.417969 C 271.300781 145.828125 270.09375 153.625 269.644531 158.988281 C 268.984375 166.859375 269.394531 185.667969 270.539062 199.894531 L 271.476562 211.558594 L 269.492188 213.957031 C 266.859375 217.136719 266.253906 218.664062 266.464844 221.574219 L 266.632812 223.925781 L 265.027344 224.183594 C 264.144531 224.324219 262.257812 224.96875 260.832031 225.613281 L 258.238281 226.789062 L 254.347656 226.246094 C 252.207031 225.945312 246.917969 225.316406 242.59375 224.847656 C 238.273438 224.375 233.246094 223.8125 231.425781 223.59375 C 229.609375 223.375 223.152344 222.96875 217.082031 222.695312 C 204.886719 222.140625 199.574219 222.460938 196.53125 223.933594 L 194.824219 224.757812 L 193.96875 223.558594 C 190.660156 218.910156 182.4375 195.847656 181.179688 187.6875 C 180.875 185.730469 180.765625 183.25 180.921875 181.921875 C 181.566406 176.453125 185.367188 164.148438 187.253906 161.421875 C 187.871094 160.535156 189.496094 158.792969 190.867188 157.550781 L 193.359375 155.296875 L 193.960938 156.664062 C 200.199219 170.851562 206.4375 178.21875 212.234375 178.246094 C 215.867188 178.261719 220.15625 175.492188 229.015625 167.410156 C 241.328125 156.175781 251.621094 144.25 258.722656 132.988281 C 261.515625 128.558594 267.539062 116.910156 269.257812 112.609375 C 270.214844 110.210938 270.222656 110.207031 271.710938 110.425781 C 272.53125 110.546875 274.320312 110.761719 275.6875 110.90625 C 291.972656 112.59375 297.066406 121.9375 304.410156 163.617188 C 306.675781 176.46875 310.289062 205.207031 310.886719 215.15625 C 311.195312 220.269531 310.601562 225.851562 309.375 229.339844 C 306.953125 236.234375 299.554688 244.105469 291.847656 248 C 286.980469 250.457031 284.867188 250.914062 276.914062 251.246094 C 270.785156 251.5 269.683594 251.652344 268.433594 252.414062 C 265.925781 253.945312 259.34375 256.539062 252.9375 258.527344 C 249.523438 259.585938 243.171875 261.652344 238.824219 263.117188 C 229.242188 266.347656 227.898438 266.460938 224.589844 264.324219 C 221.511719 262.339844 219.683594 261.914062 215.710938 262.257812 C 209.515625 262.785156 206.914062 263.542969 201.148438 266.484375 C 198.148438 268.019531 195.550781 269.132812 195.382812 268.96875 C 194.925781 268.507812 198.378906 265.175781 201.429688 263.136719 C 202.914062 262.144531 205.429688 260.867188 207.023438 260.296875 C 209.203125 259.515625 209.917969 259.070312 209.917969 258.488281 C 209.917969 257.953125 209.566406 257.675781 208.769531 257.585938 C 205.890625 257.253906 200.207031 260.445312 194.570312 265.546875 C 192.121094 267.769531 188.566406 270.300781 187.863281 270.328125 C 187.792969 270.332031 187.863281 269.914062 188.023438 269.402344 Z M 291.855469 268.160156 C 290.550781 266.144531 290.59375 265.050781 292.035156 263.703125 C 292.773438 263.015625 293.453125 262.523438 293.542969 262.613281 C 293.820312 262.894531 293.769531 268.199219 293.484375 268.660156 C 293.0625 269.339844 292.507812 269.171875 291.855469 268.160156 Z M 271.648438 267.777344 C 270.289062 267.25 270.011719 266.367188 270.183594 263.078125 C 270.289062 260.964844 270.429688 260.597656 271.148438 260.492188 C 271.890625 260.386719 271.96875 260.558594 271.835938 261.992188 C 271.597656 264.488281 272.585938 265.945312 275.453125 267.304688 C 276.808594 267.945312 277.929688 268.582031 277.941406 268.714844 C 277.96875 269.054688 273.039062 268.320312 271.648438 267.777344 Z M 281.246094 267.023438 C 276.339844 265.515625 274.484375 264.347656 274.335938 262.667969 C 274.214844 261.265625 274.585938 260.527344 275.480469 260.398438 C 277.3125 260.132812 292.527344 260.507812 291.816406 260.800781 C 289.410156 261.796875 288.089844 264.738281 288.941406 267.207031 L 289.480469 268.777344 L 287.339844 268.507812 C 286.164062 268.359375 283.421875 267.691406 281.246094 267.023438 Z M 183.058594 261.039062 L 182.355469 259.191406 L 185.617188 255.351562 C 189.257812 251.070312 192.238281 248.589844 194.40625 248.027344 C 195.203125 247.820312 197.078125 247.582031 198.574219 247.5 L 201.292969 247.347656 L 196.921875 249.949219 C 192.105469 252.8125 188.679688 256.039062 185.929688 260.292969 C 185.019531 261.699219 184.160156 262.859375 184.019531 262.871094 C 183.878906 262.878906 183.449219 262.058594 183.058594 261.039062 Z M 270.101562 256.269531 C 270.101562 255.359375 270.1875 254.617188 270.289062 254.617188 C 270.394531 254.617188 271.542969 255.359375 272.839844 256.269531 L 275.203125 257.925781 L 270.101562 257.925781 Z M 180.757812 255.929688 C 180.757812 254.953125 183.386719 251.886719 184.46875 251.601562 C 185.449219 251.347656 185.390625 251.46875 183.113281 254.511719 C 181.402344 256.792969 180.757812 257.183594 180.757812 255.929688 Z M 175.03125 244.34375 C 172.949219 239.832031 171.242188 235.835938 171.242188 235.464844 C 171.242188 234.472656 172.453125 233.988281 175.574219 233.730469 C 180.265625 233.34375 182.300781 231.660156 181.878906 228.515625 C 181.398438 224.925781 179.21875 223.917969 171.414062 223.675781 C 164.773438 223.46875 165.273438 223.753906 163.546875 219.171875 C 162.902344 217.460938 162.644531 216.128906 162.8125 215.40625 C 163.425781 212.777344 165.140625 206.976562 166.351562 203.425781 C 167.648438 199.628906 167.675781 199.589844 169.347656 199.136719 C 173.222656 198.082031 173.734375 197.832031 175.089844 196.332031 C 177.875 193.25 177.5 189.195312 173.960938 184.113281 C 171.828125 181.050781 171.769531 180.886719 172.144531 179.207031 C 172.726562 176.601562 174.117188 174.539062 177.992188 170.542969 C 179.921875 168.554688 181.589844 166.925781 181.695312 166.925781 C 181.800781 166.925781 181.164062 169.84375 180.289062 173.410156 C 177.660156 184.066406 178.035156 188.484375 182.757812 202.757812 C 185.957031 212.4375 189.667969 221.484375 191.710938 224.59375 C 193.582031 227.445312 193.585938 227.449219 193.183594 229.757812 C 190.976562 242.5 190.636719 243.53125 187.679688 246.398438 C 186.730469 247.324219 184.921875 248.597656 183.664062 249.238281 C 182.40625 249.875 180.925781 250.878906 180.375 251.472656 C 179.824219 252.0625 179.246094 252.546875 179.09375 252.546875 C 178.941406 252.546875 177.113281 248.855469 175.03125 244.34375 Z M 214.726562 247.085938 C 212.59375 246.394531 209.894531 245.707031 208.730469 245.5625 L 206.609375 245.300781 L 206.609375 242.582031 C 206.609375 237.90625 208.980469 235.515625 214.402344 234.734375 C 215.804688 234.53125 224.246094 234.359375 233.164062 234.355469 C 247.859375 234.347656 249.414062 234.28125 249.765625 233.660156 C 250.285156 232.730469 249.707031 230.871094 248.351562 229.09375 L 247.246094 227.648438 L 249.144531 227.90625 C 252.742188 228.390625 254.871094 228.878906 255.304688 229.308594 C 255.824219 229.832031 254.058594 232.390625 251.953125 234.164062 C 250.445312 235.429688 237.488281 242.726562 231.425781 245.722656 C 224.496094 249.148438 221.757812 249.371094 214.726562 247.085938 Z M 191.414062 245.617188 C 192.625 243.871094 193.476562 241.394531 194.371094 237.015625 C 194.820312 234.816406 195.246094 232.96875 195.3125 232.910156 C 195.382812 232.847656 196.808594 232.671875 198.476562 232.511719 C 201.285156 232.242188 201.496094 232.277344 201.308594 232.972656 C 201.195312 233.386719 200.496094 236.269531 199.757812 239.375 L 198.410156 245.019531 L 195.890625 245.292969 C 194.507812 245.445312 192.90625 245.828125 192.339844 246.148438 C 190.785156 247.015625 190.542969 246.878906 191.414062 245.617188 Z M 49.878906 244.429688 C 50.195312 243.378906 50.34375 242.074219 50.203125 241.527344 C 49.957031 240.542969 49.976562 240.535156 52.382812 240.789062 C 56.679688 241.246094 59.5625 242.304688 59.5625 243.421875 C 59.5625 244.371094 53.902344 246.238281 50.8125 246.308594 L 49.304688 246.34375 Z M 40.234375 245.761719 C 35.980469 244.847656 34.394531 243.289062 36.667969 242.253906 C 38.300781 241.511719 42.59375 240.566406 44.371094 240.558594 C 46.195312 240.550781 46.742188 241.460938 46.742188 244.507812 L 46.742188 246.34375 L 44.777344 246.328125 C 43.695312 246.320312 41.652344 246.066406 40.234375 245.761719 Z M 201.179688 243.757812 C 201.320312 243.019531 202.011719 239.957031 202.710938 236.960938 L 203.980469 231.503906 L 206.742188 230.878906 C 212.054688 229.671875 231.558594 227.339844 236.472656 227.324219 C 237.886719 227.320312 240.023438 227.519531 241.230469 227.765625 C 243.480469 228.226562 247.351562 230.460938 247.351562 231.300781 C 247.351562 231.640625 242.679688 231.828125 230.496094 231.972656 C 212.320312 232.191406 210.675781 232.371094 207.964844 234.4375 C 205.894531 236.019531 204.273438 239.316406 204.019531 242.460938 L 203.808594 245.101562 L 202.363281 245.101562 C 200.960938 245.101562 200.929688 245.066406 201.179688 243.757812 Z M 48.648438 226.695312 L 48.382812 219.25 L 49.820312 218.347656 L 51.261719 217.445312 L 52.433594 219.589844 C 53.078125 220.769531 53.863281 222.132812 54.179688 222.621094 C 54.695312 223.429688 54.59375 223.753906 53.042969 226.136719 C 51.183594 229 49.234375 232.96875 49.226562 233.898438 C 49.222656 234.222656 49.152344 234.40625 49.066406 234.3125 C 48.984375 234.21875 48.792969 230.789062 48.648438 226.695312 Z M 168.546875 230.554688 C 168.28125 229.46875 168.300781 229.457031 170.070312 229.660156 C 173.25 230.023438 175.671875 231.421875 173.207031 231.472656 C 172.695312 231.480469 171.71875 231.738281 171.039062 232.039062 C 169.597656 232.675781 168.976562 232.304688 168.546875 230.554688 Z M 173.5 227.902344 C 172.773438 227.597656 170.945312 227.222656 169.4375 227.070312 C 165.140625 226.628906 166.21875 226.074219 171.347656 226.082031 C 175.046875 226.089844 176.359375 226.257812 177.757812 226.890625 C 179.261719 227.574219 179.515625 227.871094 179.515625 228.9375 C 179.515625 229.878906 179.238281 230.332031 178.378906 230.78125 C 177.285156 231.359375 177.195312 231.324219 176.03125 229.917969 C 175.367188 229.113281 174.226562 228.207031 173.5 227.902344 Z M 195.808594 229.617188 C 195.402344 228.554688 196.640625 226.714844 198.335938 225.867188 C 199.832031 225.121094 200.820312 225.039062 208.679688 225.039062 C 218.664062 225.039062 225.011719 225.316406 225.285156 225.765625 C 225.390625 225.933594 224.835938 226.074219 224.054688 226.074219 C 221.539062 226.074219 210.503906 227.722656 204.75 228.960938 C 198.371094 230.328125 196.144531 230.492188 195.808594 229.617188 Z M 26.058594 227.945312 C 26.058594 227.390625 33.050781 224.425781 34.332031 224.441406 C 34.894531 224.445312 37.226562 226.207031 37.226562 226.625 C 37.226562 226.835938 35.292969 227.609375 34.125 227.863281 C 32.976562 228.117188 26.058594 228.1875 26.058594 227.945312 Z M 20.835938 225.804688 C 20.492188 224.4375 20.945312 223.695312 22.996094 222.25 C 25.179688 220.714844 28.039062 220.347656 30.207031 221.324219 C 31.109375 221.730469 31.851562 222.179688 31.851562 222.316406 C 31.851562 222.457031 30.9375 222.894531 29.820312 223.292969 C 28.703125 223.691406 26.703125 224.648438 25.371094 225.421875 C 22.335938 227.191406 21.207031 227.285156 20.835938 225.804688 Z M 37.285156 223.144531 C 36.070312 221.734375 35.929688 221.339844 36.171875 220.039062 C 36.445312 218.585938 36.472656 218.566406 37.265625 219.285156 C 38.761719 220.640625 39.808594 222.726562 39.535156 223.8125 C 39.199219 225.152344 38.941406 225.074219 37.285156 223.144531 Z M 273.921875 223.722656 C 274.320312 223.617188 275.0625 223.617188 275.578125 223.714844 C 276.09375 223.8125 275.769531 223.898438 274.859375 223.902344 C 273.949219 223.90625 273.527344 223.824219 273.921875 223.722656 Z M 4.265625 215.695312 C 3.285156 215.222656 2.480469 214.660156 2.480469 214.449219 C 2.480469 214.238281 3.085938 213.699219 3.828125 213.246094 C 4.894531 212.597656 5.910156 212.429688 8.789062 212.425781 C 11.078125 212.425781 12.410156 212.585938 12.410156 212.867188 C 12.410156 214.546875 9.722656 216.558594 7.472656 216.558594 C 6.691406 216.5625 5.25 216.171875 4.265625 215.695312 Z M 35.078125 206.976562 C 33.074219 205.003906 31.4375 203.207031 31.4375 202.984375 C 31.4375 202.730469 32.253906 202.789062 33.554688 203.132812 C 39.648438 204.738281 44.65625 208.90625 46.097656 213.570312 C 46.363281 214.433594 46.066406 214.34375 42.554688 212.535156 C 39.542969 210.988281 37.9375 209.792969 35.078125 206.976562 Z M 5.125 208.804688 C 4.4375 207.894531 4.394531 206.128906 5.046875 205.476562 C 5.320312 205.203125 6.230469 204.980469 7.066406 204.980469 C 8.324219 204.980469 8.855469 205.273438 10.117188 206.671875 C 10.957031 207.601562 11.5625 208.445312 11.464844 208.542969 C 11.226562 208.78125 7.933594 209.425781 6.664062 209.484375 C 6.121094 209.507812 5.429688 209.203125 5.125 208.804688 Z M 273.550781 205.703125 C 273.664062 205.417969 273.757812 205.652344 273.757812 206.21875 C 273.757812 206.789062 273.664062 207.023438 273.550781 206.738281 C 273.4375 206.453125 273.4375 205.988281 273.550781 205.703125 Z M 65.195312 203.636719 C 65.542969 202.667969 65.933594 200.160156 66.0625 198.058594 L 66.300781 194.238281 L 67.378906 194.496094 C 70.046875 195.132812 71.816406 196.667969 72.40625 198.851562 C 72.804688 200.332031 72.726562 200.582031 71.144531 202.910156 L 69.460938 205.394531 L 64.5625 205.394531 Z M 60.390625 204.546875 C 62.578125 202.789062 63.632812 202.621094 62.355469 204.234375 C 61.804688 204.929688 60.984375 205.3125 59.976562 205.351562 C 59.574219 205.367188 59.722656 205.082031 60.390625 204.546875 Z M 54.558594 203.015625 C 55.789062 200.636719 61.992188 195.050781 63.402344 195.050781 C 63.585938 195.050781 63.683594 196.183594 63.617188 197.566406 L 63.492188 200.082031 L 61.296875 200.855469 C 60.089844 201.277344 58.230469 202.28125 57.164062 203.082031 C 56.09375 203.886719 54.890625 204.546875 54.488281 204.554688 C 53.800781 204.566406 53.804688 204.472656 54.558594 203.015625 Z M 83.128906 199.386719 C 80.742188 197.628906 80.800781 197.324219 83.695312 196.347656 C 86.753906 195.3125 90.011719 195.214844 92.113281 196.09375 L 93.613281 196.71875 L 92.660156 197.734375 C 90.097656 200.460938 85.632812 201.234375 83.128906 199.386719 Z M 168.761719 195.746094 C 168.761719 195.445312 169.226562 193.644531 169.796875 191.742188 C 170.363281 189.84375 170.832031 187.273438 170.832031 186.03125 L 170.832031 183.769531 L 172.046875 185.300781 C 176.066406 190.359375 174.929688 196.152344 169.898438 196.265625 C 169.21875 196.28125 168.761719 196.074219 168.761719 195.746094 Z M 33.585938 191.792969 C 32.1875 190.785156 30.15625 188.589844 29.207031 187.0625 C 28.667969 186.195312 29.53125 186.699219 32.570312 189.03125 C 34.816406 190.757812 37.292969 192.726562 38.078125 193.410156 L 39.503906 194.648438 L 37.105469 193.625 C 35.785156 193.058594 34.203125 192.234375 33.589844 191.792969 Z M 80.617188 192.109375 C 80.910156 190.78125 81.484375 189.878906 82.757812 188.742188 C 84.257812 187.402344 86.742188 186.21875 87.226562 186.617188 C 87.3125 186.6875 86.9375 187.636719 86.398438 188.726562 C 85.683594 190.167969 84.738281 191.175781 82.933594 192.410156 C 81.570312 193.34375 80.398438 194.066406 80.332031 194.015625 C 80.269531 193.964844 80.398438 193.105469 80.617188 192.109375 Z M 39.484375 191.523438 C 37.675781 190.039062 34.925781 187.875 33.378906 186.71875 C 31.832031 185.5625 30.632812 184.550781 30.714844 184.46875 C 30.988281 184.195312 34.109375 185.1875 36.296875 186.242188 C 37.492188 186.820312 39.101562 187.945312 39.878906 188.742188 C 41.390625 190.296875 43.71875 194.226562 43.128906 194.226562 C 42.933594 194.226562 41.292969 193.007812 39.484375 191.523438 Z M 145.253906 187.828125 C 142.851562 185.644531 141.667969 182.472656 142.242188 179.75 L 142.550781 178.300781 L 143.089844 179.953125 C 143.773438 182.042969 144.75 183.675781 147.773438 187.769531 C 151.234375 192.457031 151.414062 192.980469 148.855469 190.894531 C 147.632812 189.898438 146.011719 188.519531 145.253906 187.828125 Z M 51.222656 190.398438 C 52.75 188.1875 56.742188 184.371094 59.050781 182.914062 C 61.355469 181.460938 64.941406 180.050781 64.941406 180.601562 C 64.941406 182.167969 60.875 186.574219 57.503906 188.660156 C 56.105469 189.523438 51.148438 191.855469 50.132812 192.125 C 50.066406 192.140625 50.554688 191.367188 51.222656 190.398438 Z M 47.410156 190.398438 C 47.921875 187.472656 48.53125 186.320312 50.511719 184.539062 C 52.296875 182.9375 53.738281 182.179688 57.703125 180.765625 C 58.15625 180.601562 57.601562 181.074219 56.46875 181.8125 C 53.925781 183.476562 49.933594 187.570312 48.535156 189.957031 C 47.960938 190.9375 47.417969 191.742188 47.332031 191.742188 C 47.246094 191.742188 47.28125 191.136719 47.410156 190.398438 Z M 41.023438 177.484375 C 39.632812 176 38.285156 174.386719 38.023438 173.894531 C 37.554688 173.023438 37.574219 173.023438 38.9375 173.976562 C 43.074219 176.859375 46.742188 180.683594 46.742188 182.117188 C 46.742188 182.9375 44.191406 180.871094 41.023438 177.484375 Z M 170.144531 175.402344 C 170.285156 174.378906 170.765625 172.84375 171.207031 171.992188 C 171.652344 171.140625 175.390625 167.089844 179.515625 162.996094 C 187.375 155.195312 190.4375 151.691406 191.8125 148.933594 C 192.890625 146.765625 193.085938 145.867188 193.605469 140.785156 C 194.25 134.449219 195.183594 132.8125 203.667969 123.171875 C 207.476562 118.84375 208.632812 116.277344 208.65625 112.121094 C 208.671875 109.539062 208.488281 108.449219 207.8125 107.164062 L 206.949219 105.515625 L 208.90625 103.957031 C 209.984375 103.101562 211.050781 102.398438 211.273438 102.398438 C 211.5 102.398438 212.007812 103.078125 212.398438 103.90625 C 212.964844 105.089844 213.078125 106.210938 212.949219 109.191406 C 212.796875 112.644531 212.632812 113.277344 211.035156 116.476562 C 210.058594 118.429688 207.800781 121.804688 205.925781 124.113281 C 204.078125 126.390625 201.996094 129.457031 201.296875 130.933594 C 200.167969 133.324219 200 134.179688 199.765625 138.792969 C 199.585938 142.292969 199.269531 144.488281 198.789062 145.566406 C 198.316406 146.632812 193.941406 151.25 185.683594 159.398438 C 174.152344 170.777344 170.417969 174.992188 170.417969 176.613281 C 170.417969 176.972656 170.296875 177.265625 170.152344 177.265625 C 170.007812 177.265625 170.003906 176.429688 170.144531 175.402344 Z M 45.820312 173.335938 C 44.488281 170.277344 43.644531 166.113281 44.046875 164.566406 C 44.332031 163.453125 44.386719 163.5 45.484375 165.890625 C 46.753906 168.660156 47.410156 171.320312 47.722656 174.945312 C 47.96875 177.777344 47.625 177.488281 45.820312 173.335938 Z M 209.917969 175.246094 C 207.921875 174.328125 204.238281 170.523438 202.066406 167.132812 C 200.066406 164.003906 195.652344 154.964844 195.648438 153.988281 C 195.648438 153.582031 196.582031 152.292969 197.722656 151.121094 C 198.863281 149.953125 200.296875 147.96875 200.90625 146.71875 C 201.875 144.738281 202.050781 143.773438 202.25 139.242188 C 202.519531 133.1875 203.058594 131.824219 207.386719 126.246094 C 211.691406 120.703125 213.023438 118.621094 214.121094 115.734375 C 216.046875 110.65625 215.839844 103.101562 213.71875 101.128906 L 212.863281 100.328125 L 214.285156 98.785156 C 215.070312 97.9375 215.820312 97.148438 215.953125 97.03125 C 216.769531 96.3125 219.523438 91.917969 220.71875 89.425781 L 222.121094 86.496094 L 222.121094 88.414062 C 222.121094 92.675781 224.933594 98.394531 228.449219 101.273438 C 232.503906 104.597656 238.300781 107.179688 243.421875 107.945312 C 244.332031 108.082031 245.542969 108.285156 246.113281 108.394531 C 247.125 108.59375 264.855469 109.839844 266.691406 109.84375 C 267.203125 109.84375 267.621094 110.035156 267.621094 110.269531 C 267.621094 110.503906 265.945312 114.113281 263.894531 118.285156 C 260.496094 125.207031 255.0625 134.515625 252.65625 137.539062 C 252.128906 138.203125 251.050781 139.644531 250.261719 140.738281 C 244.226562 149.105469 230.375 163.605469 222.121094 170.195312 C 218.0625 173.433594 213.625 176.035156 212.195312 176.015625 C 211.851562 176.011719 210.828125 175.664062 209.917969 175.246094 Z M 55.597656 172.339844 C 57.800781 170.105469 60.644531 168.414062 62.871094 168.015625 L 64.320312 167.757812 L 63.285156 168.609375 C 61.542969 170.039062 54.558594 174.261719 53.789062 174.347656 C 53.683594 174.359375 54.496094 173.457031 55.597656 172.339844 Z M 50.117188 166.304688 C 50.25 161.757812 50.371094 161.117188 51.550781 158.652344 C 52.261719 157.175781 53.457031 155.128906 54.207031 154.105469 L 55.578125 152.25 L 55.933594 153.484375 C 56.4375 155.226562 55.921875 160.800781 54.976562 163.789062 C 54.539062 165.171875 53.511719 167.515625 52.6875 168.992188 C 51.863281 170.472656 50.980469 172.097656 50.722656 172.609375 C 50.261719 173.527344 50.253906 173.527344 50.113281 172.402344 C 50.035156 171.777344 50.039062 169.035156 50.117188 166.304688 Z M 148.496094 162.109375 C 148.496094 161.734375 150.136719 159.882812 152.140625 157.992188 C 156.300781 154.070312 157.734375 151.761719 158.464844 147.792969 C 159.140625 144.125 158.539062 140.804688 156.292969 135.8125 C 154.777344 132.449219 154.625 131.820312 154.773438 129.472656 C 154.984375 126.191406 156.894531 122.273438 160.832031 117.058594 C 166.269531 109.863281 169.179688 104.300781 170.207031 99.148438 C 170.507812 97.636719 170.765625 96.867188 170.78125 97.433594 C 170.816406 98.628906 170.199219 101.445312 168.394531 108.335938 C 166.414062 115.882812 166.707031 118.757812 170.210938 126.207031 C 172.945312 132.015625 173.726562 134.613281 173.726562 137.878906 C 173.726562 143.804688 170.707031 147.457031 159.871094 154.648438 C 153.789062 158.679688 150.179688 161.246094 149.4375 162.066406 C 148.625 162.960938 148.496094 162.96875 148.496094 162.109375 Z M 146.070312 155.015625 C 143.296875 150.796875 142.539062 148.53125 142.800781 145.261719 C 143.082031 141.746094 144.882812 137.703125 148.511719 132.421875 C 150.183594 129.984375 151.6875 127.910156 151.855469 127.804688 C 152.019531 127.703125 152.15625 128.628906 152.15625 129.859375 C 152.15625 131.429688 152.554688 133.074219 153.484375 135.347656 C 156.480469 142.695312 156.449219 142.574219 156.257812 145.625 C 155.996094 149.761719 154.855469 152.011719 151.304688 155.398438 C 149.664062 156.960938 148.292969 158.238281 148.253906 158.238281 C 148.214844 158.238281 147.234375 156.789062 146.070312 155.015625 Z M 271.394531 107.929688 C 270.171875 107.6875 270.101562 107.566406 270.101562 105.785156 C 270.101562 103.3125 268.800781 100.699219 266.652344 98.855469 C 265.707031 98.039062 261.511719 95.234375 257.332031 92.613281 C 244.300781 84.449219 239.808594 80.644531 236.019531 74.566406 C 233.382812 70.335938 232.621094 67.683594 232.253906 61.449219 C 232.082031 58.605469 231.683594 55.269531 231.363281 54.035156 C 230.0625 49.027344 225.421875 43.601562 217.128906 37.382812 C 203.058594 26.835938 192.445312 22.238281 184.914062 23.429688 C 183.675781 23.625 182.585938 23.707031 182.492188 23.613281 C 182.148438 23.269531 185.574219 19.480469 188.148438 17.351562 C 192.957031 13.375 198.828125 10.902344 203.457031 10.902344 C 210.976562 10.902344 222.828125 20.292969 233.316406 34.5625 C 238.804688 42.035156 240.660156 46.378906 242.574219 56.277344 C 244.253906 64.953125 245.203125 68.386719 246.804688 71.582031 C 249.25 76.460938 251.542969 78.910156 260.183594 85.859375 C 269.828125 93.617188 272.847656 97 274.300781 101.671875 C 274.722656 103.023438 275.066406 105.042969 275.066406 106.160156 C 275.066406 108.121094 275.023438 108.191406 273.875 108.191406 C 273.222656 108.191406 272.105469 108.074219 271.394531 107.929688 Z M 259.464844 106.574219 C 247.332031 104.21875 234.847656 97.175781 229.796875 89.84375 C 227.109375 85.945312 226.195312 82.726562 225.949219 76.320312 L 225.734375 70.714844 L 226.824219 70.003906 C 227.421875 69.609375 228.421875 68.519531 229.042969 67.578125 L 230.175781 65.867188 L 230.457031 67.484375 C 231.328125 72.542969 234.84375 78.3125 240.039062 83.222656 C 243.632812 86.621094 247.789062 89.5625 257.488281 95.566406 C 265.449219 100.5 268.035156 103.136719 268.035156 106.316406 C 268.035156 107.308594 267.917969 107.363281 265.773438 107.363281 C 264.53125 107.363281 261.691406 107.007812 259.464844 106.574219 Z M 241.972656 105.113281 C 234.902344 103.308594 230.855469 100.976562 227.824219 96.949219 C 225.347656 93.660156 224.601562 91.527344 224.390625 87.09375 C 224.296875 85.160156 224.320312 83.949219 224.441406 84.40625 C 225.101562 86.875 227.964844 91.695312 230.171875 94.054688 C 234.226562 98.394531 240.433594 102.601562 246.523438 105.140625 C 248.757812 106.070312 248.773438 106.085938 247.351562 106.101562 C 246.554688 106.109375 244.136719 105.664062 241.972656 105.113281 Z M 198.511719 103.621094 C 196.714844 102.707031 195.035156 101.132812 191.535156 97.09375 C 190.292969 95.664062 187.867188 93.503906 186.144531 92.296875 C 181.679688 89.167969 179.488281 85.957031 178.0625 80.457031 C 177.128906 76.855469 177 76.652344 172.945312 72.410156 C 170.402344 69.753906 169.164062 68.097656 168.613281 66.621094 C 167.632812 63.976562 167.234375 57.238281 167.902344 54.578125 C 168.382812 52.675781 171.738281 46.96875 172.375 46.976562 C 172.546875 46.980469 173.785156 48.378906 175.125 50.085938 C 180.734375 57.242188 187.921875 60.617188 197.507812 60.601562 C 201.5625 60.59375 202.648438 60.425781 211.273438 58.519531 L 215.519531 57.578125 L 216.648438 58.417969 C 218.089844 59.496094 219.074219 62.15625 220.140625 67.859375 C 221.28125 73.945312 221.355469 81.035156 220.320312 84.402344 C 218.839844 89.214844 213.871094 96.378906 209.003906 100.714844 C 204.796875 104.464844 201.792969 105.296875 198.511719 103.621094 Z M 221.863281 65.027344 C 221.292969 62.332031 220.542969 59.535156 220.199219 58.808594 C 219.570312 57.492188 219.570312 57.488281 221.503906 55.558594 C 222.566406 54.492188 223.304688 53.941406 223.140625 54.332031 C 222.574219 55.679688 222.433594 61.410156 222.886719 64.628906 C 223.136719 66.40625 223.429688 69.351562 223.539062 71.167969 C 223.726562 74.355469 223.71875 74.394531 223.316406 72.203125 C 223.085938 70.953125 222.433594 67.722656 221.863281 65.027344 Z M 225.207031 63.675781 C 225.042969 61.488281 225.015625 58.691406 225.140625 57.460938 C 225.375 55.191406 226.53125 52.292969 227.292969 52.0625 C 228.726562 51.625 229.691406 58.308594 228.753906 62.207031 C 228.28125 64.183594 226.390625 67.652344 225.789062 67.652344 C 225.632812 67.652344 225.371094 65.863281 225.207031 63.675781 Z M 193.785156 58.125 C 192.195312 57.898438 189.960938 57.445312 188.824219 57.117188 C 184.375 55.835938 178.535156 51.265625 175.257812 46.496094 L 173.738281 44.285156 L 174.699219 41.425781 L 175.664062 38.570312 L 175.925781 40.1875 C 176.414062 43.179688 178.640625 46.820312 181.847656 49.867188 C 186.148438 53.953125 190.410156 55.960938 196.742188 56.886719 C 198.53125 57.148438 200.644531 57.480469 201.4375 57.625 L 202.886719 57.890625 L 201.027344 58.160156 C 198.148438 58.578125 196.914062 58.570312 193.785156 58.125 Z M 197.472656 54.65625 C 183.71875 52.234375 176.039062 43.316406 178.320312 32.410156 C 178.953125 29.390625 180.066406 27.734375 182.117188 26.769531 C 187.253906 24.347656 193.957031 25.777344 203.789062 31.386719 C 209.121094 34.425781 217.386719 40.355469 221.03125 43.75 C 223.496094 46.042969 223.535156 46.109375 222.382812 46.125 C 219.960938 46.164062 217.167969 50.203125 217.160156 53.679688 L 217.15625 54.800781 L 213.332031 54.9375 C 204.054688 55.265625 200.605469 55.207031 197.472656 54.65625 Z M 219.808594 51.726562 C 220.269531 49.890625 222.070312 48.214844 223.582031 48.214844 C 225.527344 48.214844 225.679688 48.816406 224 49.855469 C 223.210938 50.34375 221.953125 51.515625 221.207031 52.457031 C 220.140625 53.804688 219.820312 54.011719 219.707031 53.433594 C 219.628906 53.03125 219.675781 52.261719 219.808594 51.726562 Z M 169.539062 46.035156 C 169.945312 45.628906 169.996094 45.675781 169.769531 46.265625 C 169.613281 46.675781 169.382812 46.902344 169.253906 46.777344 C 169.128906 46.648438 169.253906 46.316406 169.539062 46.035156 Z M 171.089844 41.164062 C 171.914062 40.015625 172.667969 39.160156 172.765625 39.257812 C 173.117188 39.609375 171.722656 42.34375 170.972656 42.78125 C 169.558594 43.601562 169.585938 43.257812 171.089844 41.164062 Z M 160.84375 30.421875 C 162.640625 27.472656 167.773438 20.996094 169.429688 19.601562 C 171.484375 17.863281 175.214844 16.820312 177.023438 17.472656 C 178.007812 17.828125 178.0625 18 177.976562 20.519531 C 177.894531 22.894531 176.34375 28.871094 175.417969 30.363281 C 175.140625 30.816406 174.820312 30.777344 173.675781 30.15625 C 172.582031 29.558594 171.378906 29.394531 168.140625 29.394531 C 164.410156 29.394531 163.824219 29.5 162.144531 30.488281 C 161.121094 31.09375 160.238281 31.605469 160.183594 31.625 C 160.132812 31.648438 160.429688 31.105469 160.84375 30.421875 Z M 180.660156 19.730469 C 180.828125 17.953125 180.710938 17.566406 179.640625 16.367188 C 178.636719 15.242188 178.128906 15.007812 176.695312 15.007812 C 175.746094 15.007812 174.964844 14.953125 174.964844 14.878906 C 174.964844 14.441406 180.914062 11.546875 183.484375 10.726562 C 187.457031 9.46875 193.644531 8.734375 195.855469 9.265625 C 196.765625 9.484375 197.171875 9.679688 196.761719 9.703125 C 195.894531 9.753906 192.121094 11.574219 189.445312 13.242188 C 188.421875 13.878906 186 16.039062 184.066406 18.039062 C 182.132812 20.039062 180.53125 21.691406 180.507812 21.710938 C 180.484375 21.726562 180.550781 20.835938 180.660156 19.730469 Z M 180.660156 19.730469 "/><path style=" stroke:none;fill-rule:nonzero;fill:#ffffff;fill-opacity:1;" d="M 56.039062 304.730469 C 61.671875 303.910156 63.832031 301.449219 66.914062 292.328125 C 70.132812 282.808594 71.863281 272.203125 71.398438 264.863281 C 70.953125 257.816406 69.253906 253.964844 64.097656 248.316406 C 62.226562 246.269531 60.554688 244.539062 60.378906 244.472656 C 60.03125 244.339844 58.722656 245.523438 58.734375 245.96875 C 58.734375 246.125 60.234375 247.828125 62.066406 249.757812 C 68.078125 256.097656 69.289062 259.484375 68.945312 269 C 68.644531 277.242188 66.726562 286.304688 63.601562 294.230469 C 61.726562 298.992188 60.625 300.585938 58.59375 301.464844 C 53.625 303.625 40.628906 303.257812 36.960938 300.855469 C 33.164062 298.367188 27.734375 278.191406 27.710938 266.496094 C 27.703125 261.113281 28.632812 258.304688 32.128906 253.144531 C 34.824219 249.167969 37.609375 245.273438 35.882812 245.273438 C 34.84375 245.273438 27.617188 254.929688 26.40625 258.320312 C 23.929688 265.261719 25.925781 281.417969 30.941406 295.015625 C 31.832031 297.433594 33.066406 300.136719 33.679688 301.023438 C 34.949219 302.859375 37.328125 304.046875 41.121094 304.742188 C 43.960938 305.261719 52.417969 305.257812 56.039062 304.730469 Z M 56.039062 304.730469 "/><path style=" stroke:none;fill-rule:nonzero;fill:#ffffff;fill-opacity:1;" d="M 355.554688 310.863281 C 360.425781 310.425781 363.636719 309.375 364.289062 308 C 364.558594 307.429688 365.261719 302.40625 365.84375 296.832031 C 366.429688 291.257812 367.179688 285.769531 367.511719 284.632812 C 368.097656 282.636719 368.332031 281.015625 368.753906 276.152344 C 368.859375 274.902344 369.222656 270.992188 369.558594 267.464844 C 369.890625 263.941406 370.285156 259.722656 370.433594 258.09375 C 370.648438 255.703125 370.894531 254.949219 371.695312 254.195312 C 372.875 253.089844 373.066406 250.398438 372.066406 248.972656 C 370.617188 246.90625 362.183594 244.304688 356.925781 244.304688 C 355.378906 244.304688 355.371094 244.296875 355.933594 243.21875 C 357.238281 240.699219 355.28125 239.414062 346.570312 237.078125 C 340.007812 235.320312 338.695312 234.828125 338.894531 234.214844 C 339.191406 233.308594 342.40625 232.648438 349.527344 232.03125 C 357.847656 231.3125 359.457031 230.808594 359.457031 228.925781 C 359.457031 228.253906 359.265625 227.34375 359.027344 226.90625 C 358.1875 225.335938 353.15625 223.136719 344.878906 220.71875 C 341.636719 219.773438 338.8125 218.839844 338.609375 218.640625 C 338.171875 218.222656 339.246094 217.730469 342.625 216.800781 C 344.710938 216.226562 345.015625 216.015625 344.902344 215.226562 C 344.789062 214.421875 344.542969 214.324219 342.824219 214.378906 C 341.75 214.417969 339.855469 214.914062 338.597656 215.488281 C 335.886719 216.730469 335.265625 218.054688 336.574219 219.804688 C 337.390625 220.898438 337.996094 221.136719 347.460938 224.039062 C 351.710938 225.339844 356.257812 227.347656 356.742188 228.132812 C 357.175781 228.835938 356.277344 229.027344 349.667969 229.632812 C 341.464844 230.382812 338.527344 230.964844 337.222656 232.085938 C 335.835938 233.28125 335.847656 235.070312 337.257812 236.285156 C 338.339844 237.214844 338.820312 237.375 347.582031 239.765625 C 350.265625 240.5 352.871094 241.433594 353.375 241.84375 L 354.285156 242.59375 L 352.699219 243.261719 C 351.605469 243.722656 348.769531 244.0625 343.597656 244.355469 C 335.34375 244.816406 331.027344 245.65625 327.914062 247.40625 C 325.484375 248.773438 324.710938 249.835938 324.710938 251.8125 C 324.710938 252.925781 324.976562 253.550781 325.683594 254.109375 C 326.574219 254.808594 326.695312 255.371094 327.148438 260.859375 C 328.371094 275.609375 329.257812 283.257812 329.867188 284.339844 C 330.277344 285.0625 330.925781 289.296875 331.691406 296.246094 C 332.34375 302.179688 333.105469 307.453125 333.378906 307.96875 C 334.757812 310.546875 344.644531 311.835938 355.554688 310.863281 Z M 338.773438 307.984375 C 336.707031 307.539062 335.050781 306.636719 335.050781 305.953125 C 335.050781 305.808594 336.585938 305.921875 338.464844 306.203125 C 344.308594 307.082031 358.203125 306.78125 361.609375 305.699219 C 362.707031 305.351562 362.507812 306.226562 361.3125 307.007812 C 358.792969 308.660156 344.777344 309.265625 338.773438 307.984375 Z M 337.386719 303.558594 C 336.285156 303.335938 335.242188 302.933594 335.070312 302.65625 C 334.808594 302.230469 334.339844 298.691406 333.121094 287.894531 L 332.882812 285.777344 L 335.3125 286.191406 C 338.679688 286.769531 359.058594 286.785156 362.144531 286.210938 C 363.507812 285.957031 364.65625 285.777344 364.695312 285.8125 C 364.734375 285.847656 364.597656 287.363281 364.390625 289.183594 C 363.085938 300.6875 362.769531 302.78125 362.273438 303.085938 C 361.980469 303.269531 360.714844 303.53125 359.460938 303.667969 C 358.207031 303.804688 356.902344 303.984375 356.5625 304.066406 C 355.296875 304.367188 339.324219 303.945312 337.386719 303.558594 Z M 338.429688 283.980469 C 336.230469 283.734375 333.832031 283.351562 333.101562 283.125 C 331.53125 282.640625 331.605469 282.960938 330.695312 273.050781 C 330.339844 269.183594 329.945312 265.675781 329.820312 265.253906 C 329.625 264.597656 329.761719 264.523438 330.769531 264.734375 C 334.515625 265.519531 338.746094 265.796875 347.046875 265.796875 C 355.511719 265.796875 359.464844 265.578125 365.46875 264.769531 L 367.554688 264.488281 L 366.632812 272.492188 C 366.125 276.894531 365.699219 280.988281 365.683594 281.589844 C 365.671875 282.214844 365.351562 282.820312 364.9375 283.003906 C 362.121094 284.25 346.152344 284.839844 338.429688 283.980469 Z M 331.691406 262.515625 C 329.828125 262.054688 329.773438 262 329.519531 260.148438 C 329.378906 259.105469 329.261719 257.648438 329.261719 256.910156 L 329.261719 255.570312 L 331.019531 255.9375 C 337.164062 257.210938 358.3125 257.328125 364.625 256.121094 C 366.445312 255.773438 368.007812 255.484375 368.097656 255.480469 C 368.3125 255.46875 367.769531 260.675781 367.476562 261.441406 C 367.230469 262.078125 364.363281 262.785156 360.902344 263.0625 C 356.558594 263.410156 333.566406 262.980469 331.691406 262.515625 Z M 334.636719 254.003906 C 330.375 253.484375 326.765625 252.5 326.792969 251.863281 C 326.800781 251.6875 327.074219 251.1875 327.402344 250.753906 C 327.984375 249.984375 328.050781 249.988281 330.683594 250.851562 C 334.5 252.105469 343.480469 252.742188 352.664062 252.410156 C 360.742188 252.117188 364.367188 251.675781 367.378906 250.609375 C 368.988281 250.039062 369.414062 250.019531 369.964844 250.476562 C 372.007812 252.171875 368.898438 253.300781 359.664062 254.222656 C 355.960938 254.589844 338.195312 254.4375 334.636719 254.003906 Z M 336.863281 249.523438 C 334.5625 249.21875 332.421875 248.8125 332.109375 248.617188 C 330.21875 247.449219 350.625 245.914062 357.242188 246.730469 C 362.101562 247.328125 365.246094 247.996094 365.246094 248.4375 C 365.246094 248.792969 361.039062 249.566406 357.800781 249.808594 C 352.773438 250.1875 340.625 250.019531 336.863281 249.523438 Z M 336.863281 249.523438 "/></g></svg>