<svg xmlns="http://www.w3.org/2000/svg" xmlns:xlink="http://www.w3.org/1999/xlink" width="500" zoomAndPan="magnify" viewBox="0 0 375 374.999991" height="500" preserveAspectRatio="xMidYMid meet" version="1.2"><defs><clipPath id="0d96912cf0"><path d="M 0 87 L 375 87 L 375 287.953125 L 0 287.953125 Z M 0 87 "/></clipPath></defs><g id="86827c7f86"><g clip-rule="nonzero" clip-path="url(#0d96912cf0)"><path style=" stroke:none;fill-rule:nonzero;fill:#4d4d4d;fill-opacity:1;" d="M 248.332031 257.851562 C 254.410156 253.769531 263.179688 251.863281 269.8125 248.894531 C 279.644531 244.492188 291.710938 249.707031 302.148438 249.085938 C 313.480469 248.410156 325.136719 243.039062 336.433594 245.6875 C 349.003906 248.640625 361.714844 249.839844 374.625 248.476562 C 361.375 247.972656 349.152344 245.679688 336.390625 242.363281 C 324.277344 239.214844 311.378906 245.007812 299.117188 245.25 C 287.355469 245.480469 277.136719 241.328125 266.144531 247.1875 C 261.683594 249.5625 245.507812 253.824219 245.273438 260.195312 C 236.203125 257.609375 226.988281 255.769531 217.621094 254.679688 C 207.460938 253.632812 198.070312 255.949219 188.105469 257.4375 C 183.246094 258.238281 178.355469 258.535156 173.433594 258.332031 C 168.511719 258.128906 163.660156 257.429688 158.882812 256.238281 C 153.46875 254.964844 147.914062 255.808594 142.429688 256.160156 C 137.21875 256.5 129.796875 258.289062 125.101562 256.082031 C 122.253906 254.746094 121.578125 252.480469 123.550781 249.945312 C 125.953125 246.859375 130.394531 246.566406 133.957031 246.226562 C 143.734375 245.285156 158.699219 246.886719 166.988281 240.992188 C 165.929688 241.609375 164.808594 242.078125 163.628906 242.402344 C 163.9375 240.257812 162.539062 239.21875 162.371094 237.359375 C 162.160156 235.082031 163.632812 235.394531 165.8125 234.21875 C 160.03125 236.636719 154.644531 235.390625 148.628906 235.707031 C 146.152344 235.839844 143.84375 236.652344 141.410156 236.976562 C 138.714844 237.332031 133.863281 235.714844 131.578125 236.582031 C 127.765625 238.027344 125.363281 244.339844 123.035156 247.5625 C 121.640625 249.3125 120.671875 251.273438 120.136719 253.441406 C 119.671875 255.464844 118.648438 257.152344 117.066406 258.496094 C 116.121094 259.269531 112.898438 261.285156 111.628906 260.1875 C 110.742188 259.417969 111.667969 259.441406 111.808594 258.289062 C 112.113281 255.808594 112.9375 253.285156 113.238281 250.742188 C 114.066406 243.753906 118.480469 238.636719 121.480469 232.441406 C 122.371094 230.601562 122.875 227.742188 124.1875 226.199219 C 126.238281 223.789062 130.828125 223.53125 133.707031 223.417969 C 129.65625 223.195312 125.132812 223.101562 122.546875 226.667969 C 120.761719 229.128906 119.628906 232.410156 117.96875 235.023438 C 115.542969 238.847656 111.976562 242.777344 111.09375 247.328125 C 110.617188 240.269531 115.941406 234.144531 119.378906 228.355469 C 122.078125 223.804688 123.824219 221.179688 129.253906 220.136719 C 135.484375 218.941406 141.855469 218.550781 148.109375 217.457031 C 143.613281 217.753906 139.109375 217.972656 134.621094 218.332031 C 136.695312 216.253906 145.226562 217.425781 148.101562 217.085938 C 153.082031 216.5 158.285156 214.046875 163.324219 214.597656 C 168.207031 215.136719 172.777344 218.839844 177.214844 220.796875 C 181.503906 222.730469 185.90625 224.355469 190.421875 225.667969 C 200.578125 228.519531 211.589844 228.945312 222.050781 230.035156 C 231.964844 231.066406 241.882812 231.746094 251.832031 232.34375 C 272.945312 233.605469 294.222656 235.1875 315.289062 232.664062 C 325.738281 231.414062 336.085938 229.511719 346.464844 227.804688 C 354.992188 226.398438 368.257812 226.027344 374.621094 219.324219 C 370.046875 223.570312 361.929688 224.21875 356.058594 225.03125 C 348.875 226.023438 341.648438 226.710938 334.460938 227.667969 C 320.179688 229.5625 305.804688 231.203125 291.378906 230.671875 C 261.84375 229.585938 232.167969 227.640625 202.828125 224.050781 C 195.746094 223.246094 188.871094 221.585938 182.207031 219.058594 C 176.292969 216.796875 170.339844 212.152344 164.015625 211.496094 C 157.480469 210.820312 150.433594 214.175781 143.886719 214.851562 C 141.074219 215.140625 137.867188 214.871094 135.140625 215.695312 C 132.800781 216.40625 130.964844 218.09375 128.785156 218.917969 C 125.824219 220.042969 123.566406 219.964844 121.285156 222.570312 C 120.019531 224.214844 118.917969 225.957031 117.976562 227.808594 C 116.644531 230.074219 115.328125 232.347656 113.996094 234.613281 C 111.800781 238.347656 109.957031 241.375 110.09375 245.949219 C 110.222656 250.121094 111.863281 250.882812 108.6875 251.808594 C 105.835938 252.640625 101.582031 251.96875 98.648438 252.035156 L 85.8125 252.324219 L 68.828125 252.707031 C 71.78125 245.824219 69.183594 239.042969 67.878906 231.929688 C 64.082031 211.269531 60.160156 190.628906 56.113281 170.011719 C 59.6875 193.359375 63.429688 216.679688 67.339844 239.976562 C 68.101562 244.554688 69.511719 249.441406 65.472656 252.789062 C 61.152344 256.363281 54.023438 258.730469 49.089844 261.292969 C 45.820312 262.996094 38.914062 268.503906 35.648438 267.601562 C 32.089844 266.621094 32.296875 261.308594 31.820312 258.507812 C 30.011719 247.949219 28.203125 237.390625 26.394531 226.835938 C 22.175781 202.292969 17.90625 177.757812 13.585938 153.234375 C 11.722656 142.726562 9.855469 132.214844 7.984375 121.699219 C 6.886719 115.539062 5.789062 109.378906 4.691406 103.214844 C 4.394531 101.558594 2.761719 97.515625 3.476562 95.871094 C 4.4375 93.675781 10.761719 93.761719 12.679688 93.488281 C 19.171875 92.5625 25.660156 91.632812 32.152344 90.707031 C 33.648438 90.492188 39.050781 88.722656 40.457031 89.535156 C 41.441406 90.109375 41.625 93.273438 41.898438 94.78125 C 46.519531 119.878906 51.15625 144.976562 56.113281 170.011719 C 53.109375 150.367188 49.972656 130.746094 46.710938 111.144531 C 45.75 105.359375 44.792969 99.574219 43.835938 93.789062 C 43.351562 90.882812 43.652344 87.726562 40.15625 87.328125 C 36.601562 86.929688 32.183594 88.335938 28.578125 88.785156 C 24.207031 89.328125 19.84375 89.875 15.476562 90.421875 C 10.773438 91.011719 1.171875 90.367188 0.597656 96.546875 C 0.3125 99.605469 1.777344 103.417969 2.308594 106.519531 C 8.550781 142.832031 14.761719 179.148438 21.199219 215.425781 C 22.632812 223.523438 24.074219 231.621094 25.511719 239.71875 C 26.644531 246.074219 27.777344 252.429688 28.910156 258.789062 C 29.554688 262.421875 29.46875 266.820312 32.824219 269.03125 C 31.707031 269.609375 30.039062 270.085938 29.167969 271.039062 C 26.675781 273.765625 29.355469 277.738281 31.476562 279.949219 C 35.21875 283.84375 41.636719 282.777344 46.574219 282.792969 C 68.589844 282.851562 90.605469 282.855469 112.621094 282.804688 C 131.441406 282.753906 150.261719 282.707031 169.082031 282.664062 C 175.601562 282.648438 182.121094 282.621094 188.640625 282.585938 C 192.609375 282.566406 196.65625 282.742188 200.617188 282.523438 C 206.550781 282.191406 209.59375 278.921875 213.351562 274.949219 L 225.222656 262.394531 C 226.089844 261.476562 227.4375 259.339844 228.605469 258.8125 C 231.285156 257.609375 238.367188 260.300781 241.320312 260.964844 C 243.8125 261.527344 244.828125 261.179688 245.734375 263.167969 C 246.65625 265.199219 245.035156 266.589844 243.929688 267.917969 C 240.980469 271.445312 239.117188 274.761719 234.839844 276.621094 C 232.167969 277.789062 225.738281 278.867188 225.480469 282.542969 C 225.105469 287.957031 233.960938 287.695312 237.082031 286.773438 C 241.9375 285.328125 245.382812 281.941406 250.515625 280.820312 C 252.535156 280.378906 256.757812 278.746094 258.664062 279.03125 C 260.179688 279.261719 262.105469 280.546875 263.808594 280.898438 C 276.132812 283.449219 288.601562 285.765625 301.21875 285.058594 C 307.136719 284.726562 313.367188 284.148438 319.027344 282.289062 C 321.625 281.433594 324.324219 279.09375 326.875 278.515625 C 329.078125 278.015625 332.867188 279.238281 335.03125 279.652344 C 348.234375 282.1875 361.175781 285.882812 374.621094 287.035156 C 365.554688 283.730469 356.261719 280.871094 346.941406 278.375 C 342.570312 277.207031 337.210938 275.148438 332.617188 275.277344 C 329.238281 275.371094 325.710938 278.289062 322.222656 279.449219 C 303.722656 285.601562 284.625 280.304688 265.910156 279.535156 C 262.449219 279.394531 259.601562 278.566406 256.335938 278.851562 C 252.351562 279.207031 247.925781 279.59375 244.210938 281.136719 C 240.972656 282.480469 238.570312 284.800781 234.953125 285.347656 C 233.207031 285.613281 227.09375 285.695312 227.460938 282.546875 C 227.714844 280.394531 234.058594 279.035156 235.570312 278.335938 C 238.898438 276.800781 241.5625 274.707031 244.511719 272.558594 C 250.355469 268.292969 256.839844 266.996094 263.84375 265.746094 C 255.933594 266.164062 248.703125 267.515625 242.226562 272.300781 C 246.59375 266.765625 254.382812 264.359375 259.871094 260.046875 C 255.5 261.785156 251.230469 263.738281 247.054688 265.902344 C 247.726562 263.894531 250.613281 263.199219 252.210938 262.25 C 255.824219 260.101562 259.707031 257.414062 262.351562 254.085938 C 257.582031 256.796875 251.054688 259.351562 247.035156 263.042969 C 246.757812 261.199219 246.539062 259.046875 248.332031 257.851562 Z M 129.371094 242.878906 C 129.96875 242.089844 130.574219 241.304688 131.183594 240.527344 C 131.625 239.039062 132.601562 238.652344 134.105469 239.367188 C 136.023438 239.011719 138.234375 239.480469 140.203125 239.242188 C 144.289062 238.75 147.988281 237.328125 152.164062 237.160156 C 153.933594 237.089844 155.703125 237.125 157.46875 236.917969 C 160.289062 236.585938 159.660156 236.179688 161.027344 237.902344 C 161.542969 238.871094 161.964844 239.878906 162.292969 240.925781 C 162.949219 242.523438 162.464844 243.253906 160.847656 243.113281 C 159.628906 243.796875 157.363281 243.6875 156.046875 243.777344 C 152.28125 244.039062 148.476562 244.011719 144.710938 244.125 C 139.34375 244.285156 132.671875 243.476562 127.664062 245.339844 C 128.195312 244.492188 128.765625 243.671875 129.371094 242.878906 Z M 147.433594 258.527344 C 148.703125 258.4375 149.976562 258.378906 151.246094 258.347656 C 150.230469 259.21875 147.417969 258.625 146.082031 258.605469 Z M 146.855469 262.460938 C 146.183594 263.109375 140.800781 262.355469 139.992188 262.339844 C 137.058594 262.289062 134.121094 262.246094 131.1875 262.210938 C 133.300781 260.800781 134.066406 259.550781 136.519531 259.113281 C 140.898438 258.328125 146.21875 258.96875 150.671875 258.863281 C 149.378906 260.039062 148.128906 261.257812 146.855469 262.460938 Z M 142.910156 266.523438 C 137.28125 266.40625 131.652344 266.300781 126.019531 266.25 C 129.363281 263.761719 130.234375 262.882812 134.445312 262.824219 C 138.542969 262.765625 142.640625 262.6875 146.738281 262.59375 C 145.601562 264.035156 144.324219 265.347656 142.914062 266.523438 Z M 124.476562 266.222656 L 113.046875 266.167969 C 116.625 263.8125 117.25 262.972656 121.183594 262.949219 C 123.722656 262.9375 126.269531 262.925781 128.808594 262.898438 C 127.824219 263.722656 125.742188 266.230469 124.476562 266.222656 Z M 64.234375 262.597656 C 67.636719 262.675781 71.042969 262.71875 74.445312 262.769531 C 71.515625 264.664062 69.714844 266.347656 66.148438 266.398438 C 63.222656 266.4375 60.300781 266.484375 57.375 266.542969 C 59.6875 265.277344 61.972656 263.953125 64.238281 262.597656 Z M 73.539062 256.675781 C 77.066406 256.835938 80.59375 256.90625 84.125 256.953125 C 79.960938 259.277344 75.226562 258.683594 70.496094 258.683594 C 70.707031 258.550781 73.039062 256.679688 73.539062 256.679688 Z M 84.847656 256.953125 C 89.417969 257.011719 93.984375 257.011719 98.554688 257.011719 C 94.199219 259.449219 87.585938 258.644531 82.65625 258.484375 C 83.375 257.984375 84.121094 257.425781 84.84375 256.957031 Z M 99.308594 256.996094 C 102.640625 256.996094 105.972656 256.957031 109.304688 256.875 C 107.824219 259.832031 100.199219 258.351562 97.347656 258.363281 C 97.570312 258.210938 98.90625 257.027344 99.308594 256.996094 Z M 108.328125 260.667969 L 109.179688 262.054688 C 107.542969 262.042969 105.910156 262.027344 104.273438 262.039062 C 104.933594 261.046875 107.273438 259.730469 108.308594 259.257812 Z M 91.78125 262.105469 C 94.832031 260.132812 95.78125 259.195312 99.199219 259.214844 L 106.460938 259.257812 C 103.230469 261.554688 102.523438 262.050781 98.792969 262.070312 Z M 81.84375 259.082031 C 86.136719 259.15625 90.429688 259.171875 94.722656 259.199219 C 91.605469 261.066406 90.445312 262.113281 86.984375 262.132812 C 83.664062 262.148438 80.347656 262.207031 77.03125 262.253906 C 77.933594 261.671875 80.824219 259.082031 81.84375 259.082031 Z M 70.257812 258.863281 C 73.644531 258.941406 77.035156 259.0625 80.417969 259.0625 C 78.335938 260.308594 76.417969 261.847656 74.105469 262.304688 C 71.132812 262.886719 67.472656 262.402344 64.445312 262.46875 C 65.695312 261.71875 68.792969 258.863281 70.257812 258.863281 Z M 75.96875 262.953125 C 78.179688 261.53125 85.738281 262.929688 88.710938 262.945312 C 85.203125 265.214844 83.980469 266.191406 79.980469 266.210938 C 76.804688 266.226562 73.628906 266.292969 70.449219 266.335938 C 72.308594 265.234375 74.144531 264.105469 75.96875 262.953125 Z M 90.5 262.953125 L 101.320312 263.011719 C 98.203125 265.777344 97.152344 266.128906 93.324219 266.148438 L 85.222656 266.1875 C 86.996094 265.132812 88.753906 264.054688 90.5 262.953125 Z M 102.917969 263.019531 C 107.304688 263.046875 111.753906 262.765625 116.074219 262.976562 C 111.910156 266.082031 110.859375 266.160156 105.8125 266.128906 C 103.390625 266.121094 100.972656 266.097656 98.550781 266.117188 C 100.03125 265.117188 101.480469 264.070312 102.921875 263.019531 Z M 122.894531 259.222656 C 126.359375 259.191406 129.835938 259.542969 133.285156 259.28125 C 130.332031 261.609375 129.554688 262.171875 125.960938 262.144531 C 123.625 262.128906 121.289062 262.121094 118.953125 262.109375 C 119.992188 261.9375 121.980469 259.886719 122.894531 259.222656 Z M 124.382812 258.367188 C 123.695312 258.257812 124.1875 258.320312 124.382812 258.367188 Z M 122.097656 256.9375 L 123.371094 257.851562 C 122.726562 258.363281 122.003906 258.527344 121.203125 258.347656 Z M 121.363281 259.222656 C 119.984375 260.308594 118.523438 261.265625 116.976562 262.097656 C 118.648438 261.242188 119.636719 259.507812 121.363281 259.222656 Z M 208.734375 276.660156 C 203.574219 282.65625 188.667969 280.167969 181.324219 280.128906 C 176.691406 280.105469 172.058594 280.09375 167.425781 280.089844 C 149.90625 280.046875 132.382812 280.003906 114.859375 279.960938 C 98.296875 279.917969 81.734375 279.902344 65.171875 279.914062 C 57.898438 279.925781 50.621094 279.945312 43.34375 279.972656 C 38.988281 279.980469 35.421875 280.445312 32.449219 276.601562 C 30.03125 273.476562 31.054688 272.582031 34.457031 271.257812 C 38.101562 269.878906 41.640625 268.265625 45.074219 266.421875 C 51.125 263.136719 57.132812 259.769531 63.226562 256.5625 C 69.234375 253.40625 78.429688 254.902344 85.066406 254.671875 L 110.140625 253.804688 C 107.96875 255.921875 111.378906 256.273438 106.835938 256.1875 C 105.214844 256.15625 99.242188 257.109375 101.535156 255.359375 C 99.074219 256.636719 96.261719 256.070312 93.503906 256.074219 C 91.707031 256.203125 89.914062 256.210938 88.117188 256.105469 C 86.730469 255.914062 84.9375 256.941406 87.007812 255.359375 C 84.710938 256.550781 82.316406 256.175781 79.71875 256.234375 C 78.601562 256.261719 72.335938 257.566406 74.835938 255.789062 C 73.25 256.550781 72.3125 256.457031 70.5 256.5625 C 71.371094 256.605469 72.269531 256.597656 73.136719 256.667969 C 70.554688 257.96875 69.277344 258.726562 66.386719 258.789062 C 67.226562 258.808594 68.078125 258.800781 68.917969 258.847656 C 66.175781 260.34375 63.699219 262.460938 60.554688 262.539062 C 64.589844 262.636719 59.761719 264.160156 58.347656 265.046875 C 56.539062 266.179688 55.695312 266.558594 53.601562 266.609375 L 55.832031 266.644531 C 54.285156 267.644531 52.738281 268.652344 51.238281 269.722656 C 53.941406 268.421875 56.074219 266.882812 59.023438 266.703125 C 62.113281 266.515625 65.300781 266.804688 68.394531 266.847656 C 67.050781 267.789062 65.703125 268.726562 64.402344 269.722656 C 66.964844 268.386719 68.636719 267.222656 71.449219 266.898438 C 73.414062 266.8125 75.378906 266.84375 77.339844 266.992188 C 79.125 267.007812 80.90625 267.007812 82.691406 267.015625 C 81.429688 267.90625 80.15625 268.785156 78.933594 269.722656 C 82.808594 267.703125 84.117188 267.023438 88.320312 267.046875 L 96.101562 267.082031 C 95.039062 267.933594 93.988281 268.8125 92.96875 269.714844 C 96.59375 267.539062 97.355469 267.109375 101.398438 267.105469 C 104.507812 267.105469 107.617188 267.074219 110.726562 267.058594 C 109.808594 267.8125 108.898438 268.570312 107.992188 269.335938 C 111.730469 267.140625 112.605469 267.050781 116.785156 267.03125 L 124.082031 266.996094 C 123.097656 267.878906 122.132812 268.785156 121.183594 269.714844 C 124.492188 267.507812 125.390625 266.988281 129.472656 266.933594 C 133.894531 266.875 138.320312 266.789062 142.738281 266.699219 C 141.917969 267.519531 141.144531 268.453125 140.398438 269.335938 C 143.65625 266.792969 143.957031 266.707031 148.101562 266.609375 C 146.667969 266.585938 145.230469 266.5625 143.789062 266.542969 C 146.09375 264.566406 147.160156 262.621094 150.214844 262.542969 C 146.921875 262.464844 148.585938 262.6875 149.789062 261.011719 C 151.191406 259.058594 152.21875 258.847656 154.445312 258.792969 L 152.019531 258.734375 C 154.917969 256.894531 160.757812 259.878906 163.871094 260.636719 C 169.648438 262.046875 175.445312 261.839844 181.320312 261.214844 C 194.785156 259.785156 207.078125 256.035156 220.75 257.523438 C 215.304688 262.496094 208.230469 271.679688 200.636719 271.980469 C 187.191406 272.519531 173.609375 271.882812 160.160156 271.863281 C 119.386719 271.804688 78.597656 272.019531 37.832031 272.835938 C 80.417969 273.695312 123.027344 273.894531 165.621094 273.804688 C 173.855469 273.785156 182.085938 273.761719 190.320312 273.726562 C 194.570312 273.714844 199.445312 274.363281 203.621094 273.472656 C 208.460938 272.441406 212.253906 267.375 215.800781 264.019531 C 217.398438 262.335938 219.082031 260.742188 220.855469 259.242188 C 223.085938 257.566406 223.4375 257.691406 226.632812 258.242188 Z M 208.734375 276.660156 "/></g><path style=" stroke:none;fill-rule:nonzero;fill:#4d4d4d;fill-opacity:1;" d="M 31.535156 221.347656 C 24.617188 179.917969 17.648438 138.492188 10.015625 97.179688 C 17.101562 144.179688 24.886719 191.082031 32.996094 237.910156 C 33.941406 243.359375 34.894531 248.804688 35.855469 254.25 C 36.199219 256.203125 36.117188 260.242188 37.203125 261.867188 C 38.316406 263.539062 37.199219 263.417969 39.886719 262.28125 C 49.4375 258.238281 58.507812 252.144531 67.636719 247.210938 C 57.816406 252.226562 47.941406 257.152344 38.152344 262.222656 C 36.007812 248.589844 33.800781 234.964844 31.535156 221.347656 Z M 31.535156 221.347656 "/></g></svg>