<svg xmlns="http://www.w3.org/2000/svg" xmlns:xlink="http://www.w3.org/1999/xlink" width="500" zoomAndPan="magnify" viewBox="0 0 375 374.999991" height="500" preserveAspectRatio="xMidYMid meet" version="1.2"><defs><clipPath id="95cc458313"><path d="M 0 87 L 375 87 L 375 287.953125 L 0 287.953125 Z M 0 87 "/></clipPath></defs><g id="4a6c81d002"><g clip-rule="nonzero" clip-path="url(#95cc458313)"><path style=" stroke:none;fill-rule:nonzero;fill:#ffffff;fill-opacity:1;" d="M 248.214844 257.851562 C 254.289062 253.769531 263.054688 251.863281 269.683594 248.894531 C 279.511719 244.492188 291.574219 249.707031 302.003906 249.085938 C 313.335938 248.410156 324.984375 243.039062 336.277344 245.6875 C 348.84375 248.640625 361.546875 249.839844 374.449219 248.476562 C 361.207031 247.972656 348.988281 245.679688 336.234375 242.363281 C 324.128906 239.214844 311.234375 245.007812 298.976562 245.25 C 287.222656 245.480469 277.007812 241.328125 266.023438 247.1875 C 261.5625 249.5625 245.394531 253.824219 245.15625 260.195312 C 236.09375 257.609375 226.882812 255.769531 217.519531 254.679688 C 207.363281 253.632812 197.976562 255.949219 188.019531 257.4375 C 183.160156 258.238281 178.269531 258.535156 173.351562 258.332031 C 168.433594 258.128906 163.585938 257.429688 158.808594 256.238281 C 153.394531 254.964844 147.84375 255.808594 142.363281 256.160156 C 137.15625 256.5 129.738281 258.289062 125.042969 256.082031 C 122.199219 254.746094 121.523438 252.480469 123.492188 249.945312 C 125.894531 246.859375 130.332031 246.566406 133.894531 246.226562 C 143.667969 245.285156 158.625 246.886719 166.910156 240.992188 C 165.851562 241.609375 164.734375 242.078125 163.550781 242.402344 C 163.859375 240.257812 162.464844 239.21875 162.292969 237.359375 C 162.085938 235.082031 163.554688 235.394531 165.738281 234.21875 C 159.957031 236.636719 154.574219 235.390625 148.558594 235.707031 C 146.082031 235.839844 143.777344 236.652344 141.34375 236.976562 C 138.652344 237.332031 133.800781 235.714844 131.519531 236.582031 C 127.707031 238.027344 125.304688 244.339844 122.980469 247.5625 C 121.582031 249.3125 120.617188 251.273438 120.078125 253.441406 C 119.613281 255.464844 118.59375 257.152344 117.011719 258.496094 C 116.066406 259.269531 112.84375 261.285156 111.578125 260.1875 C 110.691406 259.417969 111.617188 259.441406 111.757812 258.289062 C 112.058594 255.808594 112.882812 253.285156 113.183594 250.742188 C 114.011719 243.753906 118.425781 238.636719 121.425781 232.441406 C 122.3125 230.601562 122.816406 227.742188 124.128906 226.199219 C 126.179688 223.789062 130.765625 223.53125 133.644531 223.417969 C 129.59375 223.195312 125.074219 223.101562 122.488281 226.667969 C 120.703125 229.128906 119.574219 232.410156 117.914062 235.023438 C 115.488281 238.847656 111.925781 242.777344 111.042969 247.328125 C 110.566406 240.269531 115.886719 234.144531 119.320312 228.355469 C 122.019531 223.804688 123.765625 221.179688 129.195312 220.136719 C 135.421875 218.941406 141.789062 218.550781 148.042969 217.457031 C 143.546875 217.753906 139.042969 217.972656 134.554688 218.332031 C 136.632812 216.253906 145.15625 217.425781 148.03125 217.085938 C 153.007812 216.5 158.214844 214.046875 163.246094 214.597656 C 168.125 215.136719 172.695312 218.839844 177.132812 220.796875 C 181.417969 222.730469 185.820312 224.355469 190.335938 225.667969 C 200.484375 228.519531 211.492188 228.945312 221.945312 230.035156 C 231.855469 231.066406 241.769531 231.746094 251.714844 232.34375 C 272.820312 233.605469 294.085938 235.1875 315.144531 232.664062 C 325.589844 231.414062 335.929688 229.511719 346.304688 227.804688 C 354.828125 226.398438 368.085938 226.027344 374.449219 219.324219 C 369.875 223.570312 361.761719 224.21875 355.894531 225.03125 C 348.710938 226.023438 341.492188 226.710938 334.304688 227.667969 C 320.03125 229.5625 305.660156 231.203125 291.242188 230.671875 C 261.722656 229.585938 232.0625 227.640625 202.734375 224.050781 C 195.65625 223.246094 188.785156 221.585938 182.121094 219.058594 C 176.210938 216.796875 170.257812 212.152344 163.941406 211.496094 C 157.410156 210.820312 150.367188 214.175781 143.820312 214.851562 C 141.007812 215.140625 137.800781 214.871094 135.078125 215.695312 C 132.738281 216.40625 130.902344 218.09375 128.722656 218.917969 C 125.765625 220.042969 123.511719 219.964844 121.230469 222.570312 C 119.964844 224.214844 118.863281 225.957031 117.921875 227.808594 C 116.589844 230.074219 115.273438 232.347656 113.941406 234.613281 C 111.75 238.347656 109.902344 241.375 110.042969 245.949219 C 110.171875 250.121094 111.8125 250.882812 108.636719 251.808594 C 105.789062 252.640625 101.535156 251.96875 98.601562 252.035156 L 85.769531 252.324219 L 68.796875 252.707031 C 71.746094 245.824219 69.152344 239.042969 67.847656 231.929688 C 64.050781 211.269531 60.128906 190.628906 56.085938 170.011719 C 59.65625 193.359375 63.398438 216.679688 67.308594 239.976562 C 68.066406 244.554688 69.476562 249.441406 65.441406 252.789062 C 61.125 256.363281 53.996094 258.730469 49.070312 261.292969 C 45.800781 262.996094 38.894531 268.503906 35.628906 267.601562 C 32.074219 266.621094 32.285156 261.308594 31.804688 258.507812 C 30 247.949219 28.191406 237.390625 26.378906 226.835938 C 22.164062 202.292969 17.898438 177.757812 13.578125 153.234375 C 11.714844 142.726562 9.847656 132.214844 7.980469 121.699219 C 6.882812 115.539062 5.785156 109.378906 4.6875 103.214844 C 4.394531 101.558594 2.757812 97.515625 3.476562 95.871094 C 4.4375 93.675781 10.757812 93.761719 12.671875 93.488281 C 19.160156 92.5625 25.648438 91.632812 32.136719 90.707031 C 33.632812 90.492188 39.035156 88.722656 40.4375 89.535156 C 41.421875 90.109375 41.605469 93.273438 41.878906 94.78125 C 46.5 119.878906 51.132812 144.976562 56.085938 170.011719 C 53.082031 150.367188 49.949219 130.746094 46.6875 111.144531 C 45.730469 105.359375 44.773438 99.574219 43.816406 93.789062 C 43.332031 90.882812 43.632812 87.726562 40.140625 87.328125 C 36.585938 86.929688 32.167969 88.335938 28.5625 88.785156 C 24.199219 89.328125 19.832031 89.875 15.46875 90.421875 C 10.769531 91.011719 1.171875 90.367188 0.597656 96.546875 C 0.3125 99.605469 1.777344 103.417969 2.308594 106.519531 C 8.546875 142.832031 14.753906 179.148438 21.1875 215.425781 C 22.625 223.523438 24.0625 231.621094 25.5 239.71875 C 26.632812 246.074219 27.765625 252.429688 28.894531 258.789062 C 29.542969 262.421875 29.453125 266.820312 32.808594 269.03125 C 31.691406 269.609375 30.023438 270.085938 29.15625 271.039062 C 26.664062 273.765625 29.339844 277.738281 31.464844 279.949219 C 35.203125 283.84375 41.617188 282.777344 46.550781 282.792969 C 68.558594 282.851562 90.5625 282.855469 112.566406 282.804688 C 131.382812 282.753906 150.191406 282.707031 169.003906 282.664062 C 175.519531 282.648438 182.039062 282.621094 188.554688 282.585938 C 192.519531 282.566406 196.5625 282.742188 200.523438 282.523438 C 206.457031 282.191406 209.496094 278.921875 213.25 274.949219 L 225.117188 262.394531 C 225.984375 261.476562 227.332031 259.339844 228.5 258.8125 C 231.175781 257.609375 238.257812 260.300781 241.207031 260.964844 C 243.699219 261.527344 244.714844 261.179688 245.617188 263.167969 C 246.542969 265.199219 244.921875 266.589844 243.8125 267.917969 C 240.867188 271.445312 239.003906 274.761719 234.730469 276.621094 C 232.058594 277.789062 225.632812 278.867188 225.375 282.542969 C 225 287.957031 233.851562 287.695312 236.972656 286.773438 C 241.824219 285.328125 245.269531 281.941406 250.398438 280.820312 C 252.417969 280.378906 256.636719 278.746094 258.542969 279.03125 C 260.058594 279.261719 261.980469 280.546875 263.6875 280.898438 C 276.003906 283.449219 288.464844 285.765625 301.078125 285.058594 C 306.996094 284.726562 313.222656 284.148438 318.878906 282.289062 C 321.476562 281.433594 324.175781 279.09375 326.722656 278.515625 C 328.925781 278.015625 332.710938 279.238281 334.875 279.652344 C 348.070312 282.1875 361.007812 285.882812 374.445312 287.035156 C 365.382812 283.730469 356.097656 280.871094 346.78125 278.375 C 342.410156 277.207031 337.054688 275.148438 332.460938 275.277344 C 329.082031 275.371094 325.558594 278.289062 322.074219 279.449219 C 303.578125 285.601562 284.492188 280.304688 265.789062 279.535156 C 262.328125 279.394531 259.480469 278.566406 256.21875 278.851562 C 252.234375 279.207031 247.808594 279.59375 244.097656 281.136719 C 240.863281 282.480469 238.457031 284.800781 234.84375 285.347656 C 233.097656 285.613281 226.984375 285.695312 227.355469 282.546875 C 227.609375 280.394531 233.949219 279.035156 235.457031 278.335938 C 238.789062 276.800781 241.449219 274.707031 244.394531 272.558594 C 250.238281 268.292969 256.722656 266.996094 263.71875 265.746094 C 255.8125 266.164062 248.585938 267.515625 242.113281 272.300781 C 246.476562 266.765625 254.261719 264.359375 259.75 260.046875 C 255.382812 261.785156 251.113281 263.738281 246.941406 265.902344 C 247.609375 263.894531 250.496094 263.199219 252.089844 262.25 C 255.707031 260.101562 259.585938 257.414062 262.230469 254.085938 C 257.460938 256.796875 250.9375 259.351562 246.917969 263.042969 C 246.640625 261.199219 246.421875 259.046875 248.214844 257.851562 Z M 129.3125 242.878906 C 129.910156 242.089844 130.511719 241.304688 131.121094 240.527344 C 131.566406 239.039062 132.539062 238.652344 134.042969 239.367188 C 135.960938 239.011719 138.167969 239.480469 140.136719 239.242188 C 144.222656 238.75 147.917969 237.328125 152.09375 237.160156 C 153.863281 237.089844 155.632812 237.125 157.394531 236.917969 C 160.214844 236.585938 159.585938 236.179688 160.953125 237.902344 C 161.46875 238.871094 161.890625 239.878906 162.214844 240.925781 C 162.871094 242.523438 162.390625 243.253906 160.769531 243.113281 C 159.554688 243.796875 157.289062 243.6875 155.972656 243.777344 C 152.210938 244.039062 148.410156 244.011719 144.640625 244.125 C 139.277344 244.285156 132.609375 243.476562 127.605469 245.339844 C 128.136719 244.492188 128.703125 243.671875 129.3125 242.878906 Z M 147.363281 258.527344 C 148.632812 258.4375 149.90625 258.378906 151.175781 258.347656 C 150.160156 259.21875 147.351562 258.625 146.011719 258.605469 Z M 146.789062 262.460938 C 146.117188 263.109375 140.734375 262.355469 139.925781 262.339844 C 136.992188 262.289062 134.058594 262.246094 131.125 262.210938 C 133.238281 260.800781 134.003906 259.550781 136.453125 259.113281 C 140.832031 258.328125 146.152344 258.96875 150.601562 258.863281 C 149.308594 260.039062 148.058594 261.257812 146.789062 262.460938 Z M 142.84375 266.523438 C 137.21875 266.40625 131.589844 266.300781 125.960938 266.25 C 129.304688 263.761719 130.175781 262.882812 134.382812 262.824219 C 138.480469 262.765625 142.574219 262.6875 146.667969 262.59375 C 145.53125 264.035156 144.257812 265.347656 142.847656 266.523438 Z M 124.417969 266.222656 L 112.992188 266.167969 C 116.570312 263.8125 117.195312 262.972656 121.128906 262.949219 C 123.664062 262.9375 126.210938 262.925781 128.75 262.898438 C 127.765625 263.722656 125.683594 266.230469 124.417969 266.222656 Z M 64.207031 262.597656 C 67.605469 262.675781 71.007812 262.71875 74.410156 262.769531 C 71.480469 264.664062 69.683594 266.347656 66.117188 266.398438 C 63.195312 266.4375 60.273438 266.484375 57.347656 266.542969 C 59.660156 265.277344 61.945312 263.953125 64.207031 262.597656 Z M 73.503906 256.675781 C 77.027344 256.835938 80.558594 256.90625 84.085938 256.953125 C 79.925781 259.277344 75.191406 258.683594 70.464844 258.683594 C 70.675781 258.550781 73.003906 256.679688 73.503906 256.679688 Z M 84.804688 256.953125 C 89.375 257.011719 93.941406 257.011719 98.507812 257.011719 C 94.152344 259.449219 87.546875 258.644531 82.617188 258.484375 C 83.335938 257.984375 84.082031 257.425781 84.804688 256.957031 Z M 99.261719 256.996094 C 102.59375 256.996094 105.925781 256.957031 109.253906 256.875 C 107.773438 259.832031 100.152344 258.351562 97.304688 258.363281 C 97.523438 258.210938 98.859375 257.027344 99.261719 256.996094 Z M 108.277344 260.667969 L 109.128906 262.054688 C 107.496094 262.042969 105.859375 262.027344 104.222656 262.039062 C 104.886719 261.046875 107.222656 259.730469 108.261719 259.257812 Z M 91.738281 262.105469 C 94.789062 260.132812 95.738281 259.195312 99.152344 259.214844 L 106.414062 259.257812 C 103.183594 261.554688 102.476562 262.050781 98.746094 262.070312 Z M 81.804688 259.082031 C 86.097656 259.15625 90.386719 259.171875 94.679688 259.199219 C 91.5625 261.066406 90.402344 262.113281 86.945312 262.132812 C 83.625 262.148438 80.3125 262.207031 76.996094 262.253906 C 77.898438 261.671875 80.789062 259.082031 81.804688 259.082031 Z M 70.226562 258.863281 C 73.609375 258.941406 76.996094 259.0625 80.382812 259.0625 C 78.300781 260.308594 76.382812 261.847656 74.070312 262.304688 C 71.101562 262.886719 67.441406 262.402344 64.414062 262.46875 C 65.664062 261.71875 68.761719 258.863281 70.226562 258.863281 Z M 75.933594 262.953125 C 78.140625 261.53125 85.699219 262.929688 88.667969 262.945312 C 85.164062 265.214844 83.941406 266.191406 79.941406 266.210938 C 76.765625 266.226562 73.59375 266.292969 70.417969 266.335938 C 72.273438 265.234375 74.109375 264.105469 75.933594 262.953125 Z M 90.457031 262.953125 L 101.273438 263.011719 C 98.160156 265.777344 97.109375 266.128906 93.28125 266.148438 L 85.183594 266.1875 C 86.957031 265.132812 88.714844 264.054688 90.457031 262.953125 Z M 102.871094 263.019531 C 107.253906 263.046875 111.699219 262.765625 116.019531 262.976562 C 111.859375 266.082031 110.804688 266.160156 105.765625 266.128906 C 103.34375 266.121094 100.925781 266.097656 98.503906 266.117188 C 99.984375 265.117188 101.433594 264.070312 102.875 263.019531 Z M 122.835938 259.222656 C 126.300781 259.191406 129.777344 259.542969 133.222656 259.28125 C 130.269531 261.609375 129.496094 262.171875 125.902344 262.144531 C 123.566406 262.128906 121.230469 262.121094 118.894531 262.109375 C 119.933594 261.9375 121.925781 259.886719 122.835938 259.222656 Z M 124.324219 258.367188 C 123.636719 258.257812 124.128906 258.320312 124.328125 258.367188 Z M 122.039062 256.9375 L 123.3125 257.851562 C 122.667969 258.363281 121.945312 258.527344 121.144531 258.347656 Z M 121.304688 259.222656 C 119.929688 260.308594 118.46875 261.265625 116.921875 262.097656 C 118.59375 261.242188 119.582031 259.507812 121.308594 259.222656 Z M 208.636719 276.660156 C 203.480469 282.65625 188.582031 280.167969 181.242188 280.128906 C 176.609375 280.105469 171.980469 280.09375 167.347656 280.089844 C 149.835938 280.046875 132.320312 280.003906 114.804688 279.960938 C 98.25 279.917969 81.699219 279.902344 65.144531 279.914062 C 57.871094 279.925781 50.597656 279.945312 43.324219 279.972656 C 38.972656 279.980469 35.40625 280.445312 32.433594 276.601562 C 30.019531 273.476562 31.039062 272.582031 34.441406 271.257812 C 38.085938 269.878906 41.621094 268.265625 45.054688 266.421875 C 51.097656 263.136719 57.105469 259.769531 63.195312 256.5625 C 69.203125 253.40625 78.390625 254.902344 85.027344 254.671875 L 110.085938 253.804688 C 107.917969 255.921875 111.324219 256.273438 106.789062 256.1875 C 105.164062 256.15625 99.195312 257.109375 101.488281 255.359375 C 99.027344 256.636719 96.214844 256.070312 93.457031 256.074219 C 91.664062 256.203125 89.871094 256.210938 88.074219 256.105469 C 86.691406 255.914062 84.898438 256.941406 86.96875 255.359375 C 84.671875 256.550781 82.277344 256.175781 79.683594 256.234375 C 78.5625 256.261719 72.300781 257.566406 74.800781 255.789062 C 73.214844 256.550781 72.28125 256.457031 70.46875 256.5625 C 71.339844 256.605469 72.238281 256.597656 73.105469 256.667969 C 70.519531 257.96875 69.246094 258.726562 66.355469 258.789062 C 67.195312 258.808594 68.046875 258.800781 68.886719 258.847656 C 66.148438 260.34375 63.667969 262.460938 60.527344 262.539062 C 64.558594 262.636719 59.734375 264.160156 58.320312 265.046875 C 56.511719 266.179688 55.671875 266.558594 53.574219 266.609375 L 55.804688 266.644531 C 54.257812 267.644531 52.714844 268.652344 51.214844 269.722656 C 53.914062 268.421875 56.046875 266.882812 58.996094 266.703125 C 62.082031 266.515625 65.269531 266.804688 68.363281 266.847656 C 67.019531 267.789062 65.671875 268.726562 64.371094 269.722656 C 66.933594 268.386719 68.605469 267.222656 71.414062 266.898438 C 73.378906 266.8125 75.34375 266.84375 77.304688 266.992188 C 79.085938 267.007812 80.871094 267.007812 82.652344 267.015625 C 81.390625 267.90625 80.121094 268.785156 78.894531 269.722656 C 82.769531 267.703125 84.078125 267.023438 88.28125 267.046875 L 96.054688 267.082031 C 94.992188 267.933594 93.945312 268.8125 92.925781 269.714844 C 96.550781 267.539062 97.308594 267.109375 101.351562 267.105469 C 104.457031 267.105469 107.566406 267.074219 110.671875 267.058594 C 109.757812 267.8125 108.847656 268.570312 107.941406 269.335938 C 111.675781 267.140625 112.554688 267.050781 116.730469 267.03125 L 124.023438 266.996094 C 123.039062 267.878906 122.074219 268.785156 121.128906 269.714844 C 124.433594 267.507812 125.332031 266.988281 129.414062 266.933594 C 133.832031 266.875 138.257812 266.789062 142.671875 266.699219 C 141.851562 267.519531 141.078125 268.453125 140.332031 269.335938 C 143.585938 266.792969 143.890625 266.707031 148.03125 266.609375 C 146.597656 266.585938 145.160156 266.5625 143.722656 266.542969 C 146.023438 264.566406 147.09375 262.621094 150.144531 262.542969 C 146.851562 262.464844 148.515625 262.6875 149.71875 261.011719 C 151.121094 259.058594 152.148438 258.847656 154.371094 258.792969 L 151.949219 258.734375 C 154.847656 256.894531 160.683594 259.878906 163.796875 260.636719 C 169.570312 262.046875 175.363281 261.839844 181.238281 261.214844 C 194.695312 259.785156 206.980469 256.035156 220.648438 257.523438 C 215.203125 262.496094 208.132812 271.679688 200.542969 271.980469 C 187.105469 272.519531 173.527344 271.882812 160.085938 271.863281 C 119.332031 271.804688 78.558594 272.019531 37.8125 272.835938 C 80.378906 273.695312 122.96875 273.894531 165.542969 273.804688 C 173.773438 273.785156 182.003906 273.761719 190.230469 273.726562 C 194.480469 273.714844 199.351562 274.363281 203.527344 273.472656 C 208.363281 272.441406 212.152344 267.375 215.703125 264.019531 C 217.296875 262.335938 218.980469 260.742188 220.75 259.242188 C 222.980469 257.566406 223.332031 257.691406 226.527344 258.242188 Z M 208.636719 276.660156 "/></g><path style=" stroke:none;fill-rule:nonzero;fill:#ffffff;fill-opacity:1;" d="M 31.519531 221.347656 C 24.605469 179.917969 17.640625 138.492188 10.011719 97.179688 C 17.09375 144.179688 24.875 191.082031 32.984375 237.910156 C 33.925781 243.359375 34.878906 248.804688 35.839844 254.25 C 36.183594 256.203125 36.101562 260.242188 37.183594 261.867188 C 38.300781 263.539062 37.179688 263.417969 39.867188 262.28125 C 49.414062 258.238281 58.480469 252.144531 67.605469 247.210938 C 57.789062 252.226562 47.921875 257.152344 38.132812 262.222656 C 35.988281 248.589844 33.785156 234.964844 31.519531 221.347656 Z M 31.519531 221.347656 "/></g></svg>