<svg xmlns="http://www.w3.org/2000/svg" xmlns:xlink="http://www.w3.org/1999/xlink" width="500" zoomAndPan="magnify" viewBox="0 0 375 374.999991" height="500" preserveAspectRatio="xMidYMid meet" version="1.2"><defs><clipPath id="c59e68723f"><path d="M 0 55 L 375 55 L 375 320.796875 L 0 320.796875 Z M 0 55 "/></clipPath></defs><g id="ab99298f30"><g clip-rule="nonzero" clip-path="url(#c59e68723f)"><path style=" stroke:none;fill-rule:nonzero;fill:#000000;fill-opacity:1;" d="M 223.632812 169.421875 C 224.71875 170.375 225.535156 171.273438 226.527344 171.933594 C 230.386719 174.515625 232.984375 178.203125 235.425781 182.023438 C 241.214844 191.074219 246.359375 200.503906 250.898438 210.246094 C 252.828125 214.394531 254.308594 218.789062 255.757812 223.144531 C 257.527344 228.464844 258.863281 233.933594 260.730469 239.222656 C 262.140625 243.222656 264.167969 247.003906 265.777344 250.945312 C 268.207031 256.867188 270.53125 262.835938 272.839844 268.8125 C 273.199219 269.738281 273.640625 270.117188 274.628906 270.105469 C 278.632812 270.078125 282.585938 270.484375 286.476562 271.511719 C 287.53125 271.792969 288.332031 272.257812 288.746094 273.320312 C 288.90625 273.726562 289.300781 274.046875 289.472656 274.453125 C 289.734375 275.054688 290.027344 275.6875 290.09375 276.328125 C 290.300781 278.421875 290.414062 280.527344 290.554688 282.628906 C 290.609375 283.449219 290.988281 283.457031 291.601562 283.109375 C 295.339844 280.996094 297.945312 282.410156 298.105469 286.710938 C 298.257812 290.746094 297.730469 294.699219 295.867188 298.347656 C 294.558594 300.902344 292.53125 302.800781 289.953125 304.042969 C 289.292969 304.363281 288.511719 304.421875 287.796875 304.648438 C 287.425781 304.761719 287.078125 304.96875 286.730469 305.128906 C 286.757812 305.277344 286.796875 305.429688 286.824219 305.570312 C 287.390625 305.617188 287.957031 305.695312 288.519531 305.703125 C 312.910156 305.828125 337.3125 305.949219 361.703125 306.070312 C 364.601562 306.089844 367.503906 306.101562 370.394531 306.148438 C 371.140625 306.15625 371.902344 306.25 372.617188 306.457031 C 374.011719 306.863281 374.933594 308.117188 374.925781 309.464844 C 374.925781 310.757812 374.039062 312.003906 372.664062 312.378906 C 371.742188 312.632812 370.734375 312.71875 369.773438 312.710938 C 347.445312 312.597656 325.125 312.464844 302.796875 312.34375 C 296.695312 312.304688 290.601562 312.265625 284.5 312.304688 C 283.746094 312.304688 282.777344 312.570312 282.265625 313.078125 C 279.601562 315.753906 276.277344 316.933594 272.671875 317.019531 C 266.199219 317.171875 259.910156 316.320312 254.296875 312.652344 C 253.675781 312.246094 252.820312 312.03125 252.074219 312.023438 C 243.15625 311.945312 234.230469 311.917969 225.3125 311.890625 C 224.859375 311.890625 224.378906 311.84375 223.964844 311.992188 C 223.511719 312.152344 222.863281 312.4375 222.777344 312.777344 C 222.644531 313.351562 222.683594 314.210938 223.03125 314.605469 C 223.972656 315.671875 224.652344 316.726562 224.097656 318.160156 C 223.492188 319.734375 222.164062 320.347656 220.601562 320.375 C 218.492188 320.414062 216.382812 320.308594 214.28125 320.292969 C 201.03125 320.167969 187.78125 320.054688 174.53125 319.921875 C 145.847656 319.621094 117.160156 319.320312 88.476562 319.007812 C 85.160156 318.972656 81.855469 318.90625 78.539062 318.839844 C 77.316406 318.8125 76.035156 318.980469 74.894531 318.660156 C 72.242188 317.894531 71.714844 314.8125 73.757812 312.925781 C 74.113281 312.597656 74.464844 312.023438 74.464844 311.558594 C 74.445312 310.078125 74.265625 309.964844 72.796875 309.984375 C 60.300781 310.117188 47.800781 310.277344 35.304688 310.378906 C 25.558594 310.464844 15.800781 310.484375 6.054688 310.523438 C 4.898438 310.523438 3.710938 310.617188 2.582031 310.4375 C 0.894531 310.164062 -0.0390625 308.890625 0 307.25 C 0.0390625 305.683594 1.148438 304.402344 2.75 304.121094 C 3.191406 304.042969 3.644531 304.023438 4.097656 304.023438 C 11.921875 303.988281 19.757812 303.960938 27.582031 303.910156 C 29.335938 303.902344 29.34375 303.863281 28.875 302.195312 C 28.761719 301.800781 28.574219 301.382812 28.589844 300.988281 C 28.75 298.640625 27.800781 296.566406 27.085938 294.425781 C 26.046875 291.351562 25.625 288.171875 25.792969 284.957031 C 25.925781 282.335938 25.210938 280.234375 23.402344 278.1875 C 20.464844 274.878906 20.632812 270.917969 22.507812 267.171875 C 23.554688 265.089844 25.164062 263.277344 26.679688 261.46875 C 27.386719 260.621094 27.714844 259.996094 27.292969 258.882812 C 26.332031 256.386719 27.28125 253.8125 29.484375 252.511719 C 31.171875 251.511719 32.648438 251.980469 33.367188 253.8125 C 33.722656 254.714844 34.269531 254.652344 34.855469 254.199219 C 38.035156 251.765625 41.078125 249.199219 43.019531 245.570312 C 45.363281 241.175781 46.730469 236.441406 47.820312 231.621094 C 49.789062 222.929688 50.636719 214.074219 51.691406 205.238281 C 52.644531 197.328125 54.28125 189.554688 56.769531 181.976562 C 58.304688 177.308594 60.015625 172.714844 62.859375 168.679688 C 64.058594 166.980469 65.535156 165.40625 67.109375 164.046875 C 68.585938 162.777344 70.433594 162.164062 72.484375 162.785156 C 72.804688 162.878906 73.425781 162.679688 73.605469 162.40625 C 77.703125 156.449219 83.609375 153.007812 90.078125 150.242188 C 93.617188 148.734375 97.394531 148.632812 101.058594 147.886719 C 101.972656 147.699219 102.628906 147.460938 102.675781 146.394531 C 103.035156 138.523438 105.390625 131.074219 107.519531 123.566406 C 109.261719 117.410156 110.523438 111.109375 112.207031 104.933594 C 113.675781 99.558594 115.203125 94.183594 117.144531 88.96875 C 120.070312 81.132812 124.902344 74.539062 131.335938 69.15625 C 138.492188 63.167969 146.355469 58.460938 155.425781 55.984375 C 158.191406 55.226562 161 54.925781 163.910156 55.097656 C 166.09375 55.226562 168.230469 55.097656 170.292969 56.078125 C 174.277344 57.964844 177.367188 60.875 180.050781 64.300781 C 184.042969 69.390625 186.304688 75.257812 187.707031 81.507812 C 189.582031 89.828125 190.878906 98.238281 191.738281 106.726562 C 192.351562 112.761719 194.414062 118.304688 197.925781 123.285156 C 198.160156 123.621094 198.386719 123.980469 198.679688 124.273438 C 198.894531 124.480469 199.214844 124.699219 199.488281 124.6875 C 199.648438 124.6875 199.882812 124.265625 199.921875 124 C 200.65625 119.144531 202.90625 114.949219 205.695312 111.015625 C 206.449219 109.949219 207.332031 108.941406 208.273438 108.035156 C 210.316406 106.046875 213.125 106.355469 214.265625 108.929688 C 215.507812 111.730469 216.503906 114.691406 217.175781 117.683594 C 217.691406 119.953125 218.21875 121.265625 220.960938 121.699219 C 224.046875 122.191406 226.96875 123.765625 229.953125 124.886719 C 230.96875 125.273438 231.941406 125.792969 232.984375 126.101562 C 233.417969 126.234375 234.003906 126.066406 234.453125 125.867188 C 237.421875 124.605469 240.351562 123.21875 243.34375 122.03125 C 244.511719 121.566406 245.832031 121.378906 247.09375 121.292969 C 249.277344 121.152344 250.691406 122.527344 250.652344 124.726562 C 250.597656 127.78125 249.644531 130.667969 248.5625 133.476562 C 247.328125 136.675781 245.765625 139.746094 244.636719 142.972656 C 244.089844 144.519531 244.183594 146.292969 244.042969 147.972656 C 243.949219 149.054688 243.9375 150.160156 243.929688 151.253906 C 243.835938 157.523438 240.746094 161.9375 235.414062 164.917969 C 232.042969 166.800781 228.445312 168.113281 224.726562 169.101562 C 224.445312 169.179688 224.160156 169.273438 223.605469 169.441406 Z M 148.539062 308.476562 C 148.539062 308.476562 148.539062 308.4375 148.539062 308.417969 C 170.558594 308.578125 192.585938 308.738281 214.601562 308.898438 C 216.28125 308.910156 216.289062 308.890625 216.316406 307.203125 C 216.488281 296.121094 216.65625 285.042969 216.835938 273.953125 C 217.136719 255.066406 217.457031 236.1875 217.757812 217.300781 C 217.785156 215.535156 217.691406 215.382812 215.96875 215.320312 C 209.574219 215.0625 203.179688 214.667969 196.796875 214.660156 C 182.378906 214.640625 167.957031 214.753906 153.539062 214.921875 C 144.734375 215.027344 135.929688 215.402344 127.125 215.546875 C 118.734375 215.675781 110.34375 215.667969 101.953125 215.667969 C 98.609375 215.667969 95.257812 215.402344 91.914062 215.441406 C 88.703125 215.480469 85.558594 215.988281 82.542969 217.234375 C 80.234375 218.183594 79.132812 219.816406 78.796875 222.257812 C 78.191406 226.558594 78.53125 230.832031 78.699219 235.128906 C 78.992188 242.855469 79.179688 250.578125 79.453125 258.300781 C 79.867188 269.9375 80.347656 281.574219 80.726562 293.21875 C 80.867188 297.621094 80.800781 302.035156 80.839844 306.449219 C 80.859375 307.9375 80.875 307.949219 82.375 307.957031 C 104.429688 308.128906 126.496094 308.304688 148.550781 308.476562 Z M 245.519531 126.527344 C 244.796875 126.695312 244.429688 126.746094 244.078125 126.859375 C 240.40625 128.054688 237.015625 129.828125 233.863281 132.054688 C 231.855469 133.46875 230.253906 132.941406 229.578125 130.628906 C 229.464844 130.253906 229.132812 129.78125 228.785156 129.648438 C 225.886719 128.5 222.964844 127.421875 220.046875 126.308594 C 219.085938 125.941406 218.605469 126.1875 218.378906 127.242188 C 218.117188 128.5 217.277344 129.101562 216.15625 129.09375 C 215.074219 129.082031 214.1875 128.394531 213.914062 127.226562 C 213.691406 126.273438 213.644531 125.28125 213.445312 124.332031 C 212.691406 120.804688 211.910156 117.277344 211.117188 113.757812 C 211.0625 113.496094 210.828125 113.269531 210.675781 113.023438 C 210.414062 113.195312 210.054688 113.308594 209.894531 113.550781 C 209.027344 114.824219 208.097656 116.078125 207.410156 117.445312 C 206.203125 119.851562 204.800781 122.207031 205.035156 125.101562 C 205.082031 125.632812 204.722656 126.261719 204.394531 126.746094 C 203.953125 127.394531 203.367188 127.941406 202.839844 128.527344 C 199.253906 132.457031 195.898438 136.550781 193.808594 141.539062 C 192.511719 144.640625 192.367188 147.679688 194.007812 150.675781 C 195.015625 152.527344 196.164062 154.296875 197.164062 156.15625 C 197.960938 157.628906 197.632812 159.070312 196.464844 159.738281 C 195.296875 160.417969 193.902344 159.957031 193 158.5625 C 192.160156 157.257812 191.332031 155.957031 190.5625 154.628906 C 188.546875 151.15625 187.253906 147.507812 188.214844 143.417969 C 188.5625 141.9375 188.988281 140.484375 189.402344 138.957031 C 189.074219 139.050781 188.820312 139.117188 188.574219 139.191406 C 186.078125 139.910156 185.03125 139.117188 185.097656 136.503906 C 185.164062 133.675781 184.722656 130.941406 183.527344 128.367188 C 183.355469 128 183.054688 127.695312 182.660156 127.148438 C 182.167969 128.574219 181.773438 129.707031 181.386719 130.835938 C 178.988281 137.964844 176.105469 144.867188 171.699219 151.046875 C 171.40625 151.449219 171.300781 152.109375 171.359375 152.621094 C 171.632812 155.128906 172.054688 157.617188 172.308594 160.125 C 172.574219 162.699219 172.941406 165.207031 174.476562 167.386719 C 174.71875 167.726562 174.785156 168.234375 174.824219 168.679688 C 175.003906 171.007812 176.066406 172.960938 177.207031 174.941406 C 179.183594 178.390625 180.992188 181.9375 182.839844 185.464844 C 183.695312 187.09375 184.328125 188.859375 185.304688 190.40625 C 188.582031 195.601562 190.164062 201.351562 191.144531 207.332031 C 191.191406 207.613281 191.691406 208.039062 191.992188 208.046875 C 194.816406 208.105469 197.640625 208.105469 200.457031 208.039062 C 200.777344 208.039062 201.316406 207.558594 201.371094 207.226562 C 202.125 203.363281 202.078125 199.457031 201.03125 195.6875 C 200.175781 192.621094 198.800781 189.699219 197.746094 186.679688 C 196.324219 182.597656 194.921875 178.496094 195.449219 174.042969 C 195.710938 171.800781 196.851562 171.082031 199.09375 171.421875 C 200.816406 171.6875 202.699219 171.921875 204.328125 171.5 C 208.5 170.40625 212.585938 168.972656 216.695312 167.605469 C 217.496094 167.339844 218.445312 166.953125 218.886719 166.3125 C 219.925781 164.820312 221.25 164.320312 222.945312 164.445312 C 223.203125 164.464844 223.484375 164.40625 223.71875 164.320312 C 226.902344 163.085938 230.160156 162.011719 233.230469 160.539062 C 236.1875 159.117188 238.363281 156.75 238.84375 153.347656 C 239.210938 150.78125 239.257812 148.167969 239.410156 145.574219 C 239.425781 145.300781 239.257812 144.980469 239.097656 144.753906 C 238.089844 143.351562 237.0625 141.964844 236.027344 140.570312 C 235.132812 139.363281 235.160156 137.945312 236.113281 137.089844 C 237.09375 136.203125 238.617188 136.316406 239.683594 137.363281 C 240.078125 137.75 240.425781 138.171875 241.019531 138.824219 C 242.921875 134.84375 244.617188 131.027344 245.53125 126.554688 Z M 72.355469 245.109375 C 72.210938 236.648438 72.015625 230.6875 72.050781 224.738281 C 72.082031 221.070312 72.777344 217.476562 74.445312 214.128906 C 74.632812 213.753906 74.632812 213.148438 74.464844 212.761719 C 73.21875 209.800781 70.695312 207.832031 68.691406 205.464844 C 68.417969 205.144531 67.945312 204.957031 67.542969 204.765625 C 66.363281 204.21875 65.902344 204.34375 65.46875 205.585938 C 65.007812 206.925781 64.621094 208.320312 64.441406 209.726562 C 64.09375 212.488281 64.027344 215.289062 63.632812 218.042969 C 62.691406 224.464844 60.929688 230.6875 58.925781 236.867188 C 56.851562 243.257812 54.054688 249.257812 50.109375 254.707031 C 46.390625 259.855469 41.9375 263.769531 35.125 263.863281 C 34.664062 263.863281 34.121094 264.050781 33.769531 264.335938 C 31.726562 266.011719 29.777344 267.796875 28.695312 270.292969 C 28.015625 271.859375 28.203125 273.246094 29.371094 274.585938 C 30.257812 275.59375 31.273438 276.667969 31.640625 277.894531 C 32.253906 279.875 32.667969 282.015625 32.648438 284.082031 C 32.632812 288.03125 33.308594 291.785156 34.777344 295.445312 C 35.175781 296.433594 35.4375 297.546875 35.476562 298.613281 C 35.511719 300.066406 35.917969 301.335938 36.613281 302.574219 C 37.046875 303.347656 37.613281 303.714844 38.515625 303.703125 C 49.996094 303.621094 61.46875 303.554688 72.945312 303.496094 C 73.859375 303.496094 74.238281 303.15625 74.226562 302.234375 C 74.085938 292.585938 74.125 282.929688 73.792969 273.292969 C 73.445312 263.050781 72.769531 252.820312 72.363281 245.097656 Z M 128.320312 129.074219 C 128.339844 133.46875 129.601562 137.617188 130.9375 141.738281 C 131.636719 143.886719 132.851562 145.734375 134.601562 147.207031 C 137.570312 149.6875 140.816406 151.667969 144.445312 153.074219 C 152.269531 156.097656 160.40625 153.816406 165.191406 147.839844 C 166.988281 145.59375 168.515625 143.078125 169.878906 140.539062 C 173.167969 134.4375 174.910156 127.714844 177.347656 121.273438 C 177.648438 120.492188 177.328125 119.898438 176.792969 119.34375 C 175.351562 117.851562 173.871094 116.390625 172.507812 114.84375 C 166.808594 108.394531 163.324219 100.933594 162.449219 92.316406 C 162.328125 91.148438 162.109375 91.023438 161.148438 91.617188 C 155.941406 94.863281 150.714844 98.078125 145.535156 101.359375 C 140.347656 104.640625 135.527344 108.269531 132.746094 114.0625 C 130.449219 118.84375 128.132812 123.574219 128.3125 129.074219 Z M 186.179688 207.980469 C 185.53125 205.058594 184.957031 202.34375 184.308594 199.644531 C 184.070312 198.675781 183.734375 197.695312 183.273438 196.808594 C 182.265625 194.875 181.085938 193.027344 180.105469 191.074219 C 178.429688 187.753906 176.90625 184.371094 175.199219 181.070312 C 173.871094 178.503906 172.367188 176.035156 170.972656 173.496094 C 170.472656 172.582031 169.9375 173.074219 169.382812 173.355469 C 162.328125 176.976562 154.832031 177.636719 147.164062 176.289062 C 140.734375 175.167969 135.722656 171.339844 131.144531 166.886719 C 130.074219 165.839844 128.914062 164.886719 127.738281 163.953125 C 126.824219 163.226562 125.769531 163.199219 124.769531 163.773438 C 123.667969 164.417969 122.605469 165.125 121.53125 165.820312 C 120.421875 166.546875 120.410156 166.71875 121.445312 167.621094 C 122.351562 168.414062 123.253906 169.226562 124.175781 169.988281 C 128.398438 173.449219 132.539062 177.023438 137.464844 179.503906 C 138.746094 180.144531 140.082031 180.691406 141.289062 181.4375 C 143.539062 182.832031 143.699219 185.597656 141.664062 187.09375 C 140.527344 187.933594 139.21875 187.953125 138.011719 187.359375 C 135.242188 186 132.3125 184.832031 129.847656 183.039062 C 124.976562 179.503906 120.355469 175.628906 115.683594 171.835938 C 114.976562 171.261719 114.441406 170.421875 114.015625 169.601562 C 113.621094 168.828125 113.242188 168.714844 112.527344 169.132812 C 111.257812 169.867188 109.910156 170.46875 108.6875 171.261719 C 107.921875 171.761719 107.179688 172.421875 106.679688 173.175781 C 105.691406 174.667969 105.871094 175.410156 107.199219 176.570312 C 107.847656 177.136719 108.488281 177.730469 109.167969 178.257812 C 109.503906 178.523438 109.917969 178.683594 110.304688 178.890625 C 110.457031 178.496094 110.644531 178.109375 110.757812 177.703125 C 111.132812 176.289062 111.390625 174.835938 111.851562 173.449219 C 112.234375 172.308594 113.292969 171.835938 114.496094 172.035156 C 115.570312 172.214844 116.398438 172.960938 116.25 174.175781 C 115.957031 176.515625 115.617188 178.910156 114.835938 181.105469 C 114.421875 182.265625 114.609375 182.644531 115.464844 183.097656 C 118.121094 184.503906 120.789062 185.898438 123.453125 187.292969 C 125.757812 188.507812 128 189.792969 129.734375 191.820312 C 132.484375 195.042969 131.484375 198.863281 127.519531 200.296875 C 124.640625 201.335938 121.664062 201.136719 118.695312 201.089844 C 118.1875 201.089844 117.613281 201.097656 117.171875 201.316406 C 115.964844 201.890625 114.730469 201.890625 113.546875 201.476562 C 112.132812 200.984375 110.777344 200.324219 109.402344 199.710938 C 108.1875 199.175781 108.128906 199.195312 107.933594 200.523438 C 107.519531 203.378906 106.238281 205.730469 103.84375 207.40625 C 103.175781 207.878906 102.480469 208.292969 101.574219 208.878906 C 102.148438 208.972656 102.488281 209.058594 102.835938 209.074219 C 105.730469 209.1875 108.628906 209.425781 111.519531 209.359375 C 120.851562 209.160156 130.175781 208.773438 139.507812 208.625 C 154.492188 208.367188 169.464844 208.246094 184.449219 208.058594 C 184.996094 208.058594 185.550781 208 186.179688 207.964844 Z M 230.058594 276.386719 C 230.039062 276.527344 230.027344 276.667969 230.011719 276.8125 C 230.339844 277.046875 230.667969 277.273438 231.007812 277.507812 C 232.824219 278.78125 234.765625 279.914062 236.421875 281.363281 C 237.355469 282.1875 238.015625 283.457031 238.46875 284.65625 C 239.011719 286.109375 238.335938 287.304688 236.941406 288.011719 C 235.320312 288.832031 234.425781 288.730469 233.042969 287.511719 C 230.652344 285.410156 228.0625 283.617188 225.113281 282.375 C 223.484375 281.6875 223.238281 281.863281 223.210938 283.617188 C 223.105469 290.183594 223.003906 296.734375 222.871094 303.300781 C 222.835938 305.148438 222.976562 305.402344 224.859375 305.410156 C 232.683594 305.457031 240.519531 305.457031 248.34375 305.496094 C 249.277344 305.496094 249.4375 305.109375 249.242188 304.308594 C 248.910156 302.914062 248.523438 301.527344 248.335938 300.113281 C 247.582031 294.578125 247.207031 289.011719 247.308594 283.421875 C 247.328125 282.601562 247.1875 281.769531 247.121094 280.949219 C 246.941406 278.753906 247.414062 276.78125 248.949219 275.113281 C 250.492188 273.425781 252.480469 272.492188 254.628906 272.058594 C 257.980469 271.378906 261.371094 270.953125 264.761719 270.464844 C 265.53125 270.351562 266.023438 270.191406 265.65625 269.285156 C 263.515625 263.96875 261.613281 258.546875 259.203125 253.367188 C 256.339844 247.238281 253.714844 241.050781 251.988281 234.5 C 251.632812 233.152344 251.191406 231.832031 250.773438 230.5 C 250.539062 229.746094 250.164062 229.566406 249.457031 230.105469 C 245.011719 233.460938 240.492188 236.734375 236.09375 240.136719 C 232.289062 243.078125 228.589844 246.164062 224.859375 249.199219 C 223.984375 249.917969 223.699219 250.867188 223.699219 252.011719 C 223.664062 257.78125 223.570312 263.542969 223.492188 269.3125 C 223.492188 269.503906 223.492188 269.691406 223.492188 269.878906 C 223.472656 270.746094 223.746094 271.085938 224.640625 270.644531 C 225.179688 270.378906 225.761719 270.179688 226.347656 270.066406 C 232.34375 268.878906 238.410156 269.144531 244.464844 269.417969 C 246.367188 269.503906 247.449219 271.085938 247.339844 273.113281 C 247.234375 274.878906 245.785156 276.339844 244.042969 276.339844 C 242.160156 276.339844 240.273438 276.207031 238.402344 276.214844 C 235.632812 276.234375 232.855469 276.328125 230.085938 276.394531 Z M 223.984375 240.570312 C 225.480469 239.375 226.714844 238.335938 227.984375 237.367188 C 234.40625 232.507812 240.847656 227.671875 247.242188 222.785156 C 247.574219 222.53125 247.800781 221.75 247.660156 221.34375 C 246.753906 218.667969 245.925781 215.941406 244.730469 213.394531 C 240.605469 204.671875 236 196.203125 230.96875 187.960938 C 228.824219 184.445312 226.601562 181.003906 223.371094 178.34375 C 222.015625 177.222656 220.328125 176.328125 219.367188 174.929688 C 217.65625 172.421875 215.761719 172.753906 213.566406 173.863281 C 213.5 173.902344 213.425781 173.921875 213.359375 173.941406 C 209.394531 175.242188 205.476562 176.742188 201.191406 176.601562 C 200.355469 176.570312 200.242188 177.15625 200.390625 177.75 C 200.929688 179.976562 201.429688 182.21875 202.132812 184.398438 C 203.332031 188.074219 204.929688 191.640625 205.902344 195.375 C 206.851562 199.035156 207.390625 202.824219 206.335938 206.632812 C 205.988281 207.878906 206.289062 208.144531 207.605469 208.238281 C 211.277344 208.511719 214.96875 208.679688 218.632812 209.085938 C 219.800781 209.21875 221.242188 209.640625 221.957031 210.453125 C 223.324219 212.007812 224.367188 213.875 224.332031 216.148438 C 224.191406 223.71875 224.105469 231.300781 224 238.875 C 224 239.347656 224 239.828125 224 240.542969 Z M 121.953125 128.78125 C 121.84375 128.78125 121.730469 128.761719 121.617188 128.761719 C 121.390625 129.308594 121.136719 129.835938 120.949219 130.394531 C 119.675781 134.109375 119.1875 137.929688 119.347656 141.859375 C 119.441406 144.152344 119.367188 146.460938 119.28125 148.753906 C 119.234375 150.074219 118.347656 151.027344 117.199219 151.242188 C 115.785156 151.515625 114.695312 151.082031 114.195312 149.667969 C 113.546875 147.839844 112.933594 145.945312 112.679688 144.019531 C 111.898438 138.042969 112.640625 132.175781 114.890625 126.601562 C 119.695312 114.730469 126.75 104.667969 138.058594 98.039062 C 142.730469 95.304688 147.304688 92.402344 151.847656 89.429688 C 154.699219 87.5625 157.476562 85.546875 160.105469 83.367188 C 161.101562 82.539062 162.035156 81.140625 162.214844 79.886719 C 162.65625 76.804688 162.628906 73.664062 161.726562 70.589844 C 160.988281 68.109375 160.414062 65.582031 159.699219 63.101562 C 159.605469 62.792969 159.136719 62.433594 158.796875 62.386719 C 158.34375 62.320312 157.835938 62.507812 157.363281 62.648438 C 146.683594 65.867188 137.585938 71.597656 130.316406 80.074219 C 126.910156 84.054688 124.328125 88.621094 122.613281 93.542969 C 121.050781 98.011719 120.035156 102.671875 118.773438 107.253906 C 117.980469 110.121094 117.125 112.96875 116.40625 115.851562 C 115.351562 120.125 114.542969 124.453125 113.355469 128.6875 C 111.953125 133.65625 110.398438 138.570312 109.890625 143.746094 C 109.503906 147.714844 108.863281 151.65625 108.449219 155.617188 C 108.234375 157.710938 108.148438 159.824219 108.167969 161.9375 C 108.175781 163.210938 108.640625 163.371094 109.742188 162.710938 C 111.625 161.597656 113.449219 160.398438 115.382812 159.390625 C 116.3125 158.898438 117.425781 158.738281 118.460938 158.464844 C 119.316406 158.230469 120.261719 158.191406 121.042969 157.816406 C 123.679688 156.5625 126.335938 155.882812 129.226562 156.855469 C 129.46875 156.9375 129.867188 156.910156 130.0625 156.769531 C 131.210938 155.929688 131.34375 153.476562 130.222656 152.601562 C 126.382812 149.574219 124.414062 145.398438 123.394531 140.804688 C 122.699219 137.664062 122.585938 134.402344 122.210938 131.1875 C 122.113281 130.394531 122.03125 129.601562 121.945312 128.808594 Z M 120.984375 195.949219 C 121.003906 196.074219 121.03125 196.195312 121.050781 196.316406 C 122.359375 196.195312 123.667969 196.109375 124.976562 195.929688 C 125.335938 195.882812 125.664062 195.582031 126.015625 195.394531 C 125.816406 195.054688 125.710938 194.59375 125.421875 194.394531 C 123.960938 193.402344 122.5 192.394531 120.964844 191.546875 C 118.628906 190.253906 116.164062 189.199219 113.875 187.832031 C 109.101562 184.972656 105.050781 181.183594 100.898438 177.515625 C 99.984375 176.714844 99.785156 175.695312 99.945312 174.535156 C 100.152344 173.007812 100.378906 171.480469 100.492188 169.933594 C 100.898438 164.519531 101.238281 159.109375 101.632812 153.703125 C 101.6875 152.976562 101.40625 152.714844 100.726562 152.828125 C 99.871094 152.96875 99.023438 153.128906 98.167969 153.28125 C 96.726562 153.535156 95.199219 153.570312 93.863281 154.089844 C 91.207031 155.117188 88.5625 156.257812 86.074219 157.636719 C 82.023438 159.878906 78.683594 162.925781 76.527344 167.132812 C 74.859375 170.375 73.851562 173.847656 73.058594 177.371094 C 72.683594 179.0625 72.390625 180.769531 73.390625 182.417969 C 73.871094 183.210938 74.105469 184.144531 74.492188 184.992188 C 75.480469 187.140625 76.214844 189.480469 77.570312 191.367188 C 78.945312 193.28125 80.828125 194.894531 82.683594 196.394531 C 84.945312 198.222656 87.042969 200.34375 89.972656 201.230469 C 90.972656 201.53125 91.894531 202.078125 92.855469 202.503906 C 94.285156 203.152344 95.671875 203.984375 97.167969 204.398438 C 99.042969 204.917969 100.691406 204.070312 101.886719 202.644531 C 102.960938 201.371094 103.648438 199.710938 102.933594 198.117188 C 101.960938 195.96875 100.710938 193.921875 98.449219 192.773438 C 94.503906 190.753906 90.59375 188.660156 86.648438 186.652344 C 85.546875 186.09375 84.324219 185.773438 83.230469 185.210938 C 82.34375 184.757812 81.6875 183.90625 81.96875 182.910156 C 82.175781 182.199219 82.769531 181.429688 83.410156 181.078125 C 83.984375 180.769531 84.898438 180.851562 85.59375 181.03125 C 86.648438 181.296875 87.675781 181.703125 88.644531 182.183594 C 92.101562 183.925781 95.53125 185.738281 98.976562 187.5 C 101.546875 188.820312 103.976562 190.28125 105.53125 192.855469 C 105.730469 193.175781 106.125 193.441406 106.492188 193.582031 C 109.035156 194.601562 111.566406 195.636719 114.148438 196.554688 C 114.957031 196.84375 115.917969 196.941406 116.777344 196.84375 C 118.199219 196.675781 119.601562 196.269531 121.003906 195.960938 Z M 269.894531 312.417969 C 273.480469 312.511719 276.191406 312.050781 278.320312 309.917969 C 280.429688 307.816406 281.9375 305.355469 282.832031 302.46875 C 284.472656 297.152344 285.394531 291.699219 285.957031 286.183594 C 286.15625 284.230469 285.816406 282.214844 285.703125 280.222656 C 285.667969 279.621094 285.347656 279.402344 284.714844 279.480469 C 281.769531 279.828125 278.820312 280.222656 275.863281 280.449219 C 268.386719 281.042969 260.910156 281.355469 253.46875 280.109375 C 252.441406 279.941406 252.074219 280.289062 252.019531 281.222656 C 252 281.488281 251.925781 281.742188 251.925781 282.007812 C 251.847656 289.171875 252.046875 296.332031 253.796875 303.335938 C 254.609375 306.582031 256.539062 309.023438 259.722656 310.257812 C 263.226562 311.617188 266.898438 312.171875 269.902344 312.398438 Z M 190.769531 135.964844 C 190.832031 135.984375 190.890625 136.003906 190.957031 136.015625 C 192.046875 134.402344 193.132812 132.78125 194.234375 131.175781 C 194.695312 130.496094 194.402344 129.988281 193.96875 129.460938 C 188.675781 123.046875 185.765625 115.617188 184.890625 107.402344 C 183.949219 98.585938 182.613281 89.84375 180.523438 81.21875 C 179.070312 75.230469 176.414062 69.871094 171.933594 65.582031 C 170.726562 64.421875 169.257812 63.515625 167.828125 62.632812 C 167.035156 62.140625 166.601562 62.527344 166.78125 63.453125 C 166.875 63.933594 167.074219 64.386719 167.214844 64.855469 C 167.65625 66.335938 168.203125 67.789062 168.523438 69.296875 C 169.757812 75.136719 169.578125 81.09375 169.316406 86.96875 C 168.929688 95.617188 171.753906 102.960938 177.085938 109.476562 C 179.417969 112.324219 182.09375 114.902344 184.582031 117.625 C 187.433594 120.746094 189.695312 124.21875 190.957031 128.308594 C 191.679688 130.640625 192 132.929688 190.929688 135.242188 C 190.824219 135.46875 190.816406 135.730469 190.769531 135.976562 Z M 164.839844 157.589844 C 163.816406 158.109375 162.929688 158.589844 162.027344 159.011719 C 156.300781 161.71875 150.300781 161.617188 144.238281 160.730469 C 143.90625 160.683594 143.578125 160.550781 143.277344 160.410156 C 141.996094 159.796875 140.742188 159.125 139.441406 158.550781 C 137.671875 157.769531 137.285156 157.949219 136.496094 159.777344 C 136.089844 160.710938 135.601562 161.632812 136.582031 162.558594 C 139.425781 165.238281 142.53125 167.554688 146.242188 168.859375 C 150.460938 170.339844 154.859375 170.242188 159.171875 169.472656 C 161.546875 169.046875 163.835938 168.054688 166.09375 167.171875 C 167.488281 166.625 167.46875 166.3125 167 164.90625 C 166.386719 163.097656 165.820312 161.257812 165.265625 159.429688 C 165.105469 158.898438 165.011719 158.351562 164.839844 157.609375 Z M 40.34375 257.226562 C 40.417969 257.328125 40.503906 257.421875 40.578125 257.527344 C 41.324219 256.933594 42.113281 256.40625 42.792969 255.746094 C 46.511719 252.113281 49.253906 247.777344 51.304688 243.0625 C 55.683594 232.980469 58.59375 222.496094 59.339844 211.480469 C 59.582031 207.832031 59.613281 204.171875 59.933594 200.53125 C 60.554688 193.5 61.515625 186.519531 64.320312 179.957031 C 65.214844 177.855469 66.035156 175.515625 67.558594 173.949219 C 69.019531 172.449219 69.800781 170.855469 70.414062 169.019531 C 70.535156 168.660156 70.59375 168.273438 70.6875 167.90625 C 70.148438 167.925781 69.800781 168.066406 69.566406 168.3125 C 68.71875 169.214844 67.816406 170.082031 67.109375 171.09375 C 63.792969 175.855469 62.023438 181.316406 60.375 186.804688 C 58.257812 193.867188 57.125 201.117188 56.144531 208.40625 C 55.1875 215.609375 54.273438 222.824219 53.085938 229.992188 C 52.058594 236.214844 50.296875 242.25 47.3125 247.871094 C 45.46875 251.351562 43.121094 254.453125 40.335938 257.234375 Z M 93.824219 208.726562 C 93.496094 208.5 93.277344 208.292969 93.023438 208.171875 C 90.960938 207.179688 88.9375 206.105469 86.828125 205.238281 C 84.117188 204.117188 82.121094 202.03125 79.832031 200.355469 C 77.496094 198.636719 75.226562 196.835938 73.617188 194.367188 C 73.230469 193.773438 72.824219 193.707031 72.382812 194.28125 C 71.695312 195.175781 70.996094 196.0625 70.328125 196.96875 C 69.914062 197.542969 70.046875 197.96875 70.667969 198.355469 C 71.496094 198.863281 72.289062 199.449219 73.050781 200.042969 C 76.109375 202.429688 78.277344 205.503906 79.859375 209.019531 C 80.539062 210.519531 81.027344 210.667969 82.628906 210.21875 C 83.75 209.90625 84.886719 209.59375 86.039062 209.460938 C 88.570312 209.160156 91.113281 208.972656 93.835938 208.71875 Z M 288.820312 299.066406 C 291.582031 298.40625 294.558594 290.859375 293.199219 288.003906 C 290.734375 289.105469 288.238281 295.40625 288.820312 299.066406 Z M 280.214844 275.332031 C 276.785156 274.179688 260.917969 274.839844 259.570312 276.234375 C 266.605469 276.539062 273.414062 276.167969 280.214844 275.332031 Z M 68.070312 183.511719 C 67.4375 185.804688 66.863281 187.898438 66.296875 189.980469 C 69.507812 188.019531 69.8125 187.046875 68.519531 183.890625 C 68.511719 183.859375 68.464844 183.84375 68.078125 183.511719 Z M 68.070312 183.511719 "/></g><path style=" stroke:none;fill-rule:nonzero;fill:#ffffff;fill-opacity:1;" d="M 148.539062 308.476562 C 126.484375 308.304688 104.417969 308.128906 82.363281 307.957031 C 80.867188 307.949219 80.847656 307.9375 80.828125 306.449219 C 80.78125 302.035156 80.859375 297.621094 80.714844 293.21875 C 80.339844 281.582031 79.859375 269.945312 79.445312 258.300781 C 79.171875 250.578125 78.984375 242.855469 78.691406 235.128906 C 78.53125 230.839844 78.191406 226.558594 78.785156 222.257812 C 79.125 219.816406 80.226562 218.183594 82.535156 217.234375 C 85.546875 215.988281 88.691406 215.480469 91.902344 215.441406 C 95.246094 215.402344 98.601562 215.65625 101.941406 215.667969 C 110.335938 215.667969 118.726562 215.667969 127.117188 215.546875 C 135.921875 215.414062 144.726562 215.035156 153.53125 214.921875 C 167.949219 214.753906 182.367188 214.628906 196.785156 214.660156 C 203.179688 214.667969 209.574219 215.054688 215.960938 215.320312 C 217.691406 215.382812 217.777344 215.535156 217.75 217.300781 C 217.445312 236.1875 217.128906 255.066406 216.824219 273.953125 C 216.648438 285.035156 216.476562 296.113281 216.308594 307.203125 C 216.28125 308.882812 216.269531 308.910156 214.59375 308.898438 C 192.574219 308.738281 170.546875 308.578125 148.53125 308.417969 C 148.53125 308.4375 148.53125 308.457031 148.53125 308.476562 Z M 138.859375 264.230469 C 139.320312 270.257812 142.34375 274.800781 147.289062 278.027344 C 149.660156 279.574219 153.277344 278.582031 154.753906 276.167969 C 156.160156 273.859375 157.515625 271.492188 158.570312 269.011719 C 159.332031 267.210938 159.859375 265.210938 159.972656 263.261719 C 160.152344 260.394531 157.816406 258.375 154.980469 258.855469 C 153.511719 259.101562 152.082031 259.828125 150.742188 260.554688 C 149.332031 261.316406 149.386719 261.429688 148.390625 260.234375 C 146.054688 257.414062 142.175781 257.328125 140.113281 260.0625 C 139.199219 261.28125 138.851562 262.695312 138.851562 264.230469 Z M 138.859375 264.230469 "/><path style=" stroke:none;fill-rule:nonzero;fill:#ffffff;fill-opacity:1;" d="M 72.355469 245.109375 C 72.757812 252.839844 73.445312 263.070312 73.785156 273.300781 C 74.113281 282.941406 74.078125 292.597656 74.21875 302.242188 C 74.226562 303.167969 73.851562 303.507812 72.9375 303.507812 C 61.457031 303.5625 49.988281 303.628906 38.507812 303.714844 C 37.613281 303.714844 37.046875 303.355469 36.605469 302.582031 C 35.910156 301.335938 35.511719 300.074219 35.464844 298.621094 C 35.4375 297.554688 35.175781 296.445312 34.769531 295.453125 C 33.300781 291.804688 32.621094 288.050781 32.640625 284.089844 C 32.648438 282.023438 32.234375 279.894531 31.632812 277.90625 C 31.257812 276.679688 30.238281 275.605469 29.363281 274.59375 C 28.203125 273.265625 28.007812 271.871094 28.683594 270.304688 C 29.777344 267.804688 31.71875 266.023438 33.761719 264.34375 C 34.109375 264.050781 34.65625 263.882812 35.117188 263.871094 C 41.917969 263.769531 46.378906 259.855469 50.101562 254.714844 C 54.035156 249.265625 56.832031 243.269531 58.914062 236.875 C 60.921875 230.699219 62.683594 224.476562 63.625 218.054688 C 64.027344 215.300781 64.085938 212.5 64.433594 209.734375 C 64.613281 208.332031 65 206.933594 65.460938 205.597656 C 65.894531 204.351562 66.355469 204.230469 67.53125 204.777344 C 67.9375 204.964844 68.398438 205.152344 68.679688 205.472656 C 70.6875 207.839844 73.210938 209.8125 74.453125 212.773438 C 74.613281 213.160156 74.613281 213.761719 74.433594 214.140625 C 72.769531 217.488281 72.070312 221.082031 72.042969 224.75 C 72.003906 230.699219 72.203125 236.648438 72.34375 245.117188 Z M 56.804688 268.636719 C 57.9375 268.636719 59.066406 268.71875 60.1875 268.617188 C 61.984375 268.445312 63.164062 267.011719 63.125 265.222656 C 63.085938 263.484375 61.871094 262.222656 59.894531 261.882812 C 53.09375 260.703125 46.84375 262.441406 40.851562 265.503906 C 40.230469 265.824219 39.675781 266.316406 39.167969 266.816406 C 37.734375 268.21875 37.546875 270.359375 38.6875 271.726562 C 39.910156 273.199219 41.746094 273.332031 43.546875 272.132812 C 47.566406 269.445312 52.039062 268.445312 56.816406 268.636719 Z M 56.804688 268.636719 "/><path style=" stroke:none;fill-rule:nonzero;fill:#ffffff;fill-opacity:1;" d="M 128.320312 129.074219 C 128.140625 123.574219 130.457031 118.84375 132.757812 114.0625 C 135.535156 108.28125 140.355469 104.640625 145.546875 101.359375 C 150.726562 98.078125 155.953125 94.863281 161.160156 91.617188 C 162.109375 91.023438 162.335938 91.148438 162.460938 92.316406 C 163.335938 100.933594 166.820312 108.382812 172.515625 114.84375 C 173.882812 116.398438 175.359375 117.851562 176.800781 119.34375 C 177.339844 119.898438 177.648438 120.492188 177.359375 121.273438 C 174.917969 127.714844 173.175781 134.4375 169.890625 140.539062 C 168.515625 143.078125 167 145.59375 165.199219 147.839844 C 160.414062 153.816406 152.277344 156.097656 144.453125 153.074219 C 140.828125 151.667969 137.578125 149.6875 134.613281 147.207031 C 132.851562 145.734375 131.644531 143.898438 130.949219 141.738281 C 129.613281 137.617188 128.359375 133.46875 128.332031 129.074219 Z M 128.320312 129.074219 "/><path style=" stroke:none;fill-rule:nonzero;fill:#ffffff;fill-opacity:1;" d="M 186.179688 207.980469 C 185.542969 208.019531 184.996094 208.066406 184.449219 208.078125 C 169.464844 208.265625 154.484375 208.386719 139.507812 208.640625 C 130.175781 208.800781 120.84375 209.1875 111.519531 209.378906 C 108.628906 209.433594 105.730469 209.199219 102.835938 209.09375 C 102.488281 209.085938 102.140625 208.992188 101.574219 208.898438 C 102.480469 208.3125 103.175781 207.898438 103.84375 207.425781 C 106.238281 205.746094 107.519531 203.410156 107.933594 200.542969 C 108.121094 199.203125 108.175781 199.183594 109.402344 199.730469 C 110.777344 200.34375 112.132812 201.003906 113.546875 201.496094 C 114.730469 201.910156 115.964844 201.910156 117.171875 201.335938 C 117.613281 201.117188 118.1875 201.109375 118.695312 201.109375 C 121.664062 201.144531 124.648438 201.351562 127.519531 200.316406 C 131.496094 198.882812 132.492188 195.0625 129.734375 191.839844 C 128 189.8125 125.757812 188.527344 123.453125 187.3125 C 120.789062 185.90625 118.121094 184.519531 115.464844 183.117188 C 114.609375 182.664062 114.421875 182.285156 114.835938 181.125 C 115.625 178.929688 115.957031 176.535156 116.25 174.195312 C 116.398438 172.980469 115.570312 172.234375 114.496094 172.054688 C 113.300781 171.855469 112.234375 172.328125 111.851562 173.46875 C 111.390625 174.855469 111.125 176.308594 110.757812 177.722656 C 110.652344 178.128906 110.457031 178.515625 110.304688 178.910156 C 109.929688 178.703125 109.503906 178.542969 109.167969 178.277344 C 108.488281 177.742188 107.847656 177.15625 107.199219 176.589844 C 105.871094 175.429688 105.683594 174.6875 106.679688 173.195312 C 107.179688 172.441406 107.921875 171.78125 108.6875 171.28125 C 109.910156 170.480469 111.257812 169.875 112.527344 169.148438 C 113.242188 168.734375 113.609375 168.839844 114.015625 169.621094 C 114.441406 170.441406 114.984375 171.289062 115.683594 171.855469 C 120.355469 175.65625 124.976562 179.53125 129.847656 183.058594 C 132.3125 184.851562 135.242188 186.019531 138.011719 187.378906 C 139.207031 187.960938 140.527344 187.953125 141.664062 187.113281 C 143.699219 185.605469 143.539062 182.851562 141.289062 181.457031 C 140.074219 180.703125 138.746094 180.164062 137.464844 179.523438 C 132.539062 177.050781 128.398438 173.480469 124.175781 170.007812 C 123.246094 169.246094 122.351562 168.441406 121.445312 167.640625 C 120.410156 166.734375 120.421875 166.566406 121.53125 165.839844 C 122.605469 165.140625 123.667969 164.433594 124.769531 163.792969 C 125.769531 163.21875 126.824219 163.246094 127.738281 163.972656 C 128.914062 164.90625 130.074219 165.867188 131.144531 166.90625 C 135.722656 171.355469 140.722656 175.175781 147.164062 176.308594 C 154.832031 177.648438 162.328125 176.988281 169.382812 173.375 C 169.9375 173.09375 170.464844 172.601562 170.972656 173.515625 C 172.367188 176.054688 173.871094 178.523438 175.199219 181.089844 C 176.90625 184.390625 178.429688 187.785156 180.105469 191.09375 C 181.097656 193.035156 182.273438 194.882812 183.273438 196.828125 C 183.734375 197.714844 184.070312 198.695312 184.308594 199.664062 C 184.957031 202.363281 185.53125 205.078125 186.179688 208 Z M 152.277344 190.1875 C 152.277344 190.1875 152.277344 190.152344 152.277344 190.132812 C 153.109375 190.09375 153.9375 190.121094 154.753906 190.007812 C 156.535156 189.765625 158.351562 189.59375 160.078125 189.113281 C 161.761719 188.632812 162.515625 187.085938 162.242188 185.371094 C 162.015625 183.917969 160.828125 182.871094 159.164062 182.730469 C 158.53125 182.671875 157.882812 182.71875 157.25 182.75 C 154.671875 182.890625 152.082031 183.003906 149.5 183.210938 C 148.738281 183.265625 147.910156 183.445312 147.269531 183.832031 C 146.082031 184.558594 145.546875 185.757812 145.855469 187.140625 C 146.1875 188.640625 147.210938 189.59375 148.691406 189.878906 C 149.859375 190.101562 151.082031 190.09375 152.277344 190.1875 Z M 152.277344 190.1875 "/><path style=" stroke:none;fill-rule:nonzero;fill:#ffffff;fill-opacity:1;" d="M 230.058594 276.386719 C 232.824219 276.320312 235.605469 276.226562 238.371094 276.207031 C 240.257812 276.199219 242.140625 276.328125 244.011719 276.328125 C 245.765625 276.328125 247.207031 274.867188 247.308594 273.105469 C 247.433594 271.078125 246.339844 269.503906 244.4375 269.40625 C 238.382812 269.132812 232.316406 268.871094 226.320312 270.058594 C 225.734375 270.171875 225.152344 270.371094 224.613281 270.632812 C 223.71875 271.078125 223.4375 270.738281 223.464844 269.871094 C 223.464844 269.683594 223.464844 269.492188 223.464844 269.304688 C 223.539062 263.535156 223.632812 257.773438 223.671875 252 C 223.671875 250.859375 223.953125 249.90625 224.832031 249.191406 C 228.570312 246.152344 232.261719 243.070312 236.066406 240.128906 C 240.472656 236.714844 244.984375 233.453125 249.429688 230.09375 C 250.144531 229.558594 250.511719 229.746094 250.746094 230.492188 C 251.171875 231.820312 251.613281 233.140625 251.960938 234.488281 C 253.683594 241.042969 256.3125 247.230469 259.175781 253.359375 C 261.597656 258.535156 263.5 263.957031 265.625 269.277344 C 265.992188 270.191406 265.503906 270.339844 264.730469 270.453125 C 261.351562 270.945312 257.953125 271.371094 254.597656 272.046875 C 252.460938 272.480469 250.472656 273.414062 248.921875 275.105469 C 247.386719 276.773438 246.90625 278.742188 247.09375 280.941406 C 247.160156 281.761719 247.289062 282.589844 247.28125 283.410156 C 247.179688 289.003906 247.554688 294.566406 248.308594 300.101562 C 248.496094 301.515625 248.882812 302.902344 249.210938 304.296875 C 249.402344 305.101562 249.242188 305.488281 248.316406 305.488281 C 240.492188 305.449219 232.65625 305.449219 224.832031 305.402344 C 222.945312 305.390625 222.804688 305.128906 222.84375 303.289062 C 222.976562 296.726562 223.070312 290.171875 223.183594 283.609375 C 223.210938 281.847656 223.457031 281.675781 225.085938 282.363281 C 228.023438 283.609375 230.621094 285.390625 233.015625 287.503906 C 234.398438 288.71875 235.300781 288.824219 236.914062 288.003906 C 238.308594 287.296875 238.996094 286.097656 238.4375 284.648438 C 237.988281 283.449219 237.328125 282.175781 236.394531 281.355469 C 234.738281 279.902344 232.796875 278.761719 230.980469 277.5 C 230.648438 277.261719 230.320312 277.035156 229.980469 276.800781 C 230 276.660156 230.011719 276.519531 230.027344 276.375 Z M 230.058594 276.386719 "/><path style=" stroke:none;fill-rule:nonzero;fill:#ffffff;fill-opacity:1;" d="M 223.984375 240.570312 C 223.984375 239.84375 223.984375 239.375 223.984375 238.902344 C 224.085938 231.332031 224.171875 223.75 224.3125 216.175781 C 224.351562 213.902344 223.304688 212.035156 221.9375 210.480469 C 221.222656 209.660156 219.78125 209.238281 218.613281 209.113281 C 214.953125 208.707031 211.269531 208.539062 207.585938 208.265625 C 206.269531 208.171875 205.976562 207.898438 206.316406 206.664062 C 207.371094 202.851562 206.832031 199.0625 205.882812 195.402344 C 204.914062 191.667969 203.3125 188.105469 202.117188 184.425781 C 201.410156 182.25 200.917969 180.003906 200.375 177.777344 C 200.230469 177.183594 200.34375 176.601562 201.175781 176.628906 C 205.449219 176.769531 209.375 175.269531 213.339844 173.96875 C 213.417969 173.949219 213.484375 173.921875 213.546875 173.894531 C 215.753906 172.78125 217.636719 172.449219 219.347656 174.960938 C 220.308594 176.355469 221.996094 177.25 223.351562 178.371094 C 226.582031 181.03125 228.804688 184.472656 230.953125 187.992188 C 235.980469 196.234375 240.578125 204.699219 244.710938 213.421875 C 245.914062 215.96875 246.734375 218.695312 247.640625 221.371094 C 247.769531 221.769531 247.554688 222.5625 247.226562 222.816406 C 240.832031 227.710938 234.390625 232.539062 227.964844 237.394531 C 226.6875 238.363281 225.460938 239.394531 223.964844 240.601562 Z M 223.984375 240.570312 "/><path style=" stroke:none;fill-rule:nonzero;fill:#ffffff;fill-opacity:1;" d="M 121.953125 128.78125 C 122.039062 129.574219 122.125 130.367188 122.21875 131.15625 C 122.59375 134.363281 122.707031 137.636719 123.40625 140.777344 C 124.421875 145.367188 126.382812 149.535156 130.234375 152.574219 C 131.355469 153.460938 131.222656 155.902344 130.074219 156.742188 C 129.875 156.882812 129.480469 156.910156 129.234375 156.824219 C 126.351562 155.855469 123.6875 156.53125 121.050781 157.789062 C 120.269531 158.164062 119.328125 158.210938 118.46875 158.4375 C 117.433594 158.722656 116.324219 158.882812 115.390625 159.363281 C 113.460938 160.371094 111.625 161.570312 109.75 162.679688 C 108.648438 163.332031 108.1875 163.171875 108.175781 161.90625 C 108.160156 159.804688 108.234375 157.683594 108.460938 155.589844 C 108.875 151.628906 109.515625 147.6875 109.902344 143.71875 C 110.398438 138.53125 111.964844 133.628906 113.367188 128.660156 C 114.554688 124.433594 115.363281 120.097656 116.417969 115.824219 C 117.132812 112.9375 117.992188 110.089844 118.78125 107.222656 C 120.042969 102.652344 121.058594 97.984375 122.625 93.511719 C 124.347656 88.589844 126.917969 84.027344 130.328125 80.046875 C 137.605469 71.570312 146.695312 65.835938 157.375 62.621094 C 157.84375 62.480469 158.34375 62.300781 158.804688 62.359375 C 159.144531 62.40625 159.625 62.761719 159.710938 63.074219 C 160.425781 65.5625 161 68.082031 161.734375 70.5625 C 162.636719 73.636719 162.667969 76.765625 162.222656 79.859375 C 162.042969 81.113281 161.121094 82.507812 160.113281 83.339844 C 157.488281 85.515625 154.707031 87.535156 151.855469 89.402344 C 147.324219 92.371094 142.75 95.277344 138.066406 98.011719 C 126.757812 104.640625 119.703125 114.710938 114.902344 126.574219 C 112.640625 132.148438 111.90625 138.011719 112.6875 143.992188 C 112.941406 145.90625 113.554688 147.800781 114.203125 149.640625 C 114.703125 151.046875 115.796875 151.488281 117.207031 151.214844 C 118.359375 150.988281 119.242188 150.046875 119.289062 148.726562 C 119.375 146.433594 119.449219 144.125 119.355469 141.832031 C 119.195312 137.898438 119.683594 134.089844 120.957031 130.367188 C 121.144531 129.808594 121.398438 129.28125 121.625 128.734375 C 121.738281 128.734375 121.851562 128.753906 121.964844 128.753906 Z M 121.953125 128.78125 "/><path style=" stroke:none;fill-rule:nonzero;fill:#ffffff;fill-opacity:1;" d="M 190.769531 135.964844 C 190.824219 135.722656 190.824219 135.457031 190.929688 135.230469 C 192 132.921875 191.671875 130.628906 190.957031 128.300781 C 189.695312 124.21875 187.433594 120.738281 184.582031 117.617188 C 182.09375 114.890625 179.410156 112.324219 177.085938 109.46875 C 171.753906 102.953125 168.929688 95.617188 169.316406 86.960938 C 169.578125 81.085938 169.757812 75.125 168.523438 69.289062 C 168.203125 67.78125 167.65625 66.328125 167.214844 64.847656 C 167.074219 64.375 166.875 63.921875 166.78125 63.441406 C 166.601562 62.519531 167.035156 62.121094 167.828125 62.621094 C 169.257812 63.515625 170.726562 64.421875 171.933594 65.574219 C 176.414062 69.871094 179.070312 75.21875 180.523438 81.207031 C 182.613281 89.828125 183.949219 98.566406 184.890625 107.394531 C 185.765625 115.597656 188.675781 123.039062 193.96875 129.449219 C 194.402344 129.980469 194.703125 130.496094 194.234375 131.167969 C 193.132812 132.769531 192.046875 134.390625 190.957031 136.003906 C 190.890625 135.984375 190.832031 135.964844 190.769531 135.957031 Z M 190.769531 135.964844 "/><path style=" stroke:none;fill-rule:nonzero;fill:#ffffff;fill-opacity:1;" d="M 164.839844 157.589844 C 165.011719 158.335938 165.097656 158.882812 165.265625 159.410156 C 165.832031 161.238281 166.386719 163.078125 167 164.886719 C 167.480469 166.292969 167.488281 166.605469 166.09375 167.152344 C 163.835938 168.039062 161.546875 169.027344 159.171875 169.453125 C 154.859375 170.234375 150.472656 170.328125 146.242188 168.839844 C 142.53125 167.539062 139.433594 165.21875 136.582031 162.539062 C 135.601562 161.617188 136.089844 160.683594 136.496094 159.757812 C 137.285156 157.929688 137.671875 157.75 139.441406 158.53125 C 140.742188 159.109375 141.996094 159.777344 143.277344 160.390625 C 143.578125 160.53125 143.90625 160.664062 144.238281 160.710938 C 150.3125 161.597656 156.300781 161.699219 162.027344 158.996094 C 162.929688 158.570312 163.804688 158.097656 164.839844 157.570312 Z M 164.839844 157.589844 "/><path style=" stroke:none;fill-rule:nonzero;fill:#ffffff;fill-opacity:1;" d="M 93.824219 208.726562 C 91.105469 208.980469 88.5625 209.171875 86.027344 209.472656 C 84.878906 209.605469 83.738281 209.914062 82.617188 210.226562 C 81.019531 210.679688 80.527344 210.527344 79.851562 209.027344 C 78.257812 205.511719 76.101562 202.4375 73.042969 200.050781 C 72.277344 199.449219 71.488281 198.875 70.660156 198.363281 C 70.035156 197.976562 69.894531 197.554688 70.320312 196.976562 C 70.988281 196.074219 71.675781 195.175781 72.371094 194.289062 C 72.816406 193.714844 73.21875 193.78125 73.605469 194.375 C 75.214844 196.84375 77.484375 198.648438 79.820312 200.363281 C 82.121094 202.042969 84.105469 204.136719 86.820312 205.246094 C 88.929688 206.113281 90.953125 207.191406 93.015625 208.179688 C 93.269531 208.304688 93.484375 208.5 93.816406 208.738281 Z M 93.824219 208.726562 "/><path style=" stroke:none;fill-rule:nonzero;fill:#ffffff;fill-opacity:1;" d="M 280.214844 275.332031 C 273.425781 276.167969 266.605469 276.539062 259.570312 276.234375 C 260.917969 274.832031 276.785156 274.179688 280.214844 275.332031 Z M 280.214844 275.332031 "/><path style=" stroke:none;fill-rule:nonzero;fill:#ffffff;fill-opacity:1;" d="M 68.070312 183.511719 C 68.453125 183.84375 68.503906 183.859375 68.511719 183.890625 C 69.800781 187.046875 69.5 188.019531 66.289062 189.980469 C 66.863281 187.886719 67.4375 185.804688 68.058594 183.511719 Z M 68.070312 183.511719 "/><path style=" stroke:none;fill-rule:nonzero;fill:#000000;fill-opacity:1;" d="M 138.859375 264.230469 C 138.859375 262.695312 139.207031 261.28125 140.121094 260.0625 C 142.183594 257.328125 146.0625 257.414062 148.398438 260.234375 C 149.398438 261.441406 149.339844 261.328125 150.753906 260.554688 C 152.089844 259.828125 153.523438 259.109375 154.992188 258.855469 C 157.824219 258.375 160.160156 260.394531 159.980469 263.261719 C 159.859375 265.203125 159.34375 267.210938 158.578125 269.011719 C 157.523438 271.492188 156.167969 273.859375 154.765625 276.167969 C 153.296875 278.582031 149.679688 279.574219 147.296875 278.027344 C 142.34375 274.800781 139.328125 270.257812 138.867188 264.230469 Z M 138.859375 264.230469 "/><path style=" stroke:none;fill-rule:nonzero;fill:#000000;fill-opacity:1;" d="M 219.160156 158.484375 C 219.539062 158.484375 219.914062 158.476562 220.292969 158.484375 C 221.554688 158.53125 222.457031 159.238281 222.675781 160.324219 C 222.910156 161.472656 222.410156 162.417969 221.261719 162.984375 C 218.917969 164.152344 214.886719 163.625 212.9375 161.578125 C 211.636719 160.210938 210.449219 159.671875 208.519531 160.003906 C 206.117188 160.417969 203.886719 159.542969 202.210938 157.691406 C 201.625 157.050781 201.183594 156.203125 200.949219 155.363281 C 200.675781 154.382812 201.125 153.46875 202.058594 152.988281 C 202.964844 152.527344 203.894531 152.601562 204.707031 153.28125 C 205.042969 153.570312 205.335938 153.921875 205.648438 154.25 C 206.617188 155.25 207.792969 155.457031 209.066406 155.035156 C 210.28125 154.628906 210.542969 153.996094 210.082031 152.800781 C 209.621094 151.621094 209.359375 150.460938 210.308594 149.414062 C 211.25 148.386719 212.445312 148.414062 213.652344 148.792969 C 214.726562 149.128906 215.800781 149.488281 216.824219 149.949219 C 217.832031 150.414062 218.539062 151.195312 218.492188 152.414062 C 218.445312 153.5625 217.757812 154.261719 216.761719 154.703125 C 216.695312 154.730469 216.609375 154.75 216.550781 154.796875 C 216.035156 155.222656 215.015625 155.796875 215.09375 156.0625 C 215.308594 156.824219 215.828125 157.675781 216.476562 158.078125 C 217.210938 158.53125 218.230469 158.542969 219.125 158.75 L 219.171875 158.464844 Z M 219.160156 158.484375 "/><path style=" stroke:none;fill-rule:nonzero;fill:#000000;fill-opacity:1;" d="M 206.464844 135.15625 C 209.273438 135.15625 212.757812 138.511719 212.898438 141.332031 C 212.957031 142.492188 212.410156 143.40625 211.429688 143.746094 C 210.335938 144.125 209.441406 143.785156 208.71875 142.925781 C 208.546875 142.726562 208.398438 142.5 208.292969 142.265625 C 207.738281 140.984375 206.824219 140.152344 205.507812 139.652344 C 204.28125 139.191406 203.714844 138.078125 203.953125 136.964844 C 204.1875 135.855469 205.167969 135.15625 206.476562 135.15625 Z M 206.464844 135.15625 "/><path style=" stroke:none;fill-rule:nonzero;fill:#000000;fill-opacity:1;" d="M 225.3125 144.132812 C 227.496094 144.332031 229.164062 145.246094 230.472656 146.847656 C 231.386719 147.960938 231.347656 149.46875 230.433594 150.335938 C 229.546875 151.175781 228.097656 151.175781 227.0625 150.175781 C 226.1875 149.328125 225.3125 149.207031 224.191406 149.554688 C 222.871094 149.96875 221.789062 149.488281 221.300781 148.46875 C 220.753906 147.3125 221.089844 145.90625 222.304688 145.234375 C 223.230469 144.726562 224.304688 144.492188 225.3125 144.132812 Z M 225.3125 144.132812 "/><path style=" stroke:none;fill-rule:nonzero;fill:#000000;fill-opacity:1;" d="M 56.804688 268.636719 C 52.03125 268.445312 47.558594 269.445312 43.535156 272.132812 C 41.738281 273.332031 39.902344 273.199219 38.675781 271.726562 C 37.539062 270.359375 37.726562 268.21875 39.15625 266.816406 C 39.664062 266.316406 40.222656 265.824219 40.84375 265.503906 C 46.832031 262.429688 53.085938 260.695312 59.886719 261.882812 C 61.863281 262.230469 63.078125 263.496094 63.117188 265.222656 C 63.152344 267.011719 61.976562 268.445312 60.175781 268.617188 C 59.054688 268.71875 57.925781 268.636719 56.796875 268.636719 Z M 56.804688 268.636719 "/><path style=" stroke:none;fill-rule:nonzero;fill:#000000;fill-opacity:1;" d="M 152.277344 190.1875 C 151.082031 190.09375 149.867188 190.09375 148.691406 189.878906 C 147.210938 189.59375 146.1875 188.632812 145.855469 187.140625 C 145.554688 185.757812 146.082031 184.558594 147.269531 183.832031 C 147.910156 183.445312 148.738281 183.277344 149.5 183.210938 C 152.082031 183.003906 154.671875 182.878906 157.25 182.75 C 157.890625 182.710938 158.53125 182.671875 159.164062 182.730469 C 160.828125 182.871094 162.015625 183.917969 162.242188 185.371094 C 162.507812 187.09375 161.761719 188.640625 160.078125 189.113281 C 158.351562 189.605469 156.546875 189.765625 154.753906 190.007812 C 153.9375 190.121094 153.109375 190.09375 152.277344 190.132812 C 152.277344 190.152344 152.277344 190.167969 152.277344 190.1875 Z M 152.277344 190.1875 "/><path style=" stroke:none;fill-rule:nonzero;fill:#000000;fill-opacity:1;" d="M 280.222656 302.976562 C 280.222656 304.234375 279.253906 305.222656 278.039062 305.214844 C 276.71875 305.195312 275.476562 303.902344 275.46875 302.554688 C 275.46875 301.300781 276.445312 300.300781 277.652344 300.320312 C 278.972656 300.347656 280.214844 301.640625 280.214844 302.976562 Z M 280.222656 302.976562 "/><path style=" stroke:none;fill-rule:nonzero;fill:#000000;fill-opacity:1;" d="M 259.503906 303.648438 C 259.523438 302.289062 260.597656 301.214844 261.933594 301.222656 C 263.1875 301.234375 264.167969 302.269531 264.148438 303.5625 C 264.128906 304.921875 263.046875 305.988281 261.699219 305.957031 C 260.371094 305.929688 259.488281 304.996094 259.496094 303.636719 Z M 259.503906 303.648438 "/><path style=" stroke:none;fill-rule:nonzero;fill:#000000;fill-opacity:1;" d="M 259.148438 289.125 C 259.148438 290.34375 258.140625 291.378906 256.945312 291.378906 C 255.730469 291.378906 254.816406 290.464844 254.816406 289.21875 C 254.816406 287.945312 255.746094 286.984375 257 286.976562 C 258.214844 286.976562 259.148438 287.910156 259.15625 289.117188 Z M 259.148438 289.125 "/><path style=" stroke:none;fill-rule:nonzero;fill:#000000;fill-opacity:1;" d="M 283.519531 283.136719 C 283.519531 284.183594 282.765625 284.921875 281.757812 284.902344 C 280.675781 284.875 279.929688 284.109375 279.960938 283.035156 C 279.988281 281.996094 280.695312 281.347656 281.796875 281.355469 C 282.859375 281.355469 283.527344 282.054688 283.519531 283.136719 Z M 283.519531 283.136719 "/><path style=" stroke:none;fill-rule:nonzero;fill:#000000;fill-opacity:1;" d="M 270.582031 294.671875 C 269.347656 294.671875 268.835938 294.179688 268.847656 293.011719 C 268.867188 291.9375 269.5625 291.238281 270.597656 291.257812 C 271.625 291.277344 272.398438 292.105469 272.371094 293.171875 C 272.351562 294.191406 271.765625 294.671875 270.570312 294.671875 Z M 270.582031 294.671875 "/></g></svg>