<svg width="838" height="704" viewBox="0 0 838 704" fill="none" xmlns="http://www.w3.org/2000/svg">
<g clip-path="url(#clip0_1_2)">
<path d="M837.4 0V626.6L722.147 662.609C719.769 665.643 717.029 668.412 713.965 670.844C698.365 683.643 676.265 689.043 654.865 692.443C616.047 697.696 576.936 700.502 537.765 700.844C431.765 703.844 325.464 707.044 219.765 699.844C171.965 696.644 123.065 690.744 81.4648 670.644C60.9649 660.844 42.1646 646.643 34.2646 627.943C26.2647 608.943 30.3655 587.744 39.5654 569.144C48.7654 550.544 62.4647 533.943 74.2646 516.443C99.5647 479.243 116.065 432.243 92.7646 394.243C87.8165 386.119 81.2335 378.759 75.9131 370.873C59.6242 353.824 55.2112 330.83 67.5 300.3C69.6689 294.911 71.6701 289.594 73.5137 284.35C73.8096 283.459 74.1179 282.573 74.4365 281.691C138.609 94.5326 0 0 0 0H837.4Z" fill="url(#paint0_linear_1_2)"/>
</g>
<defs>
<linearGradient id="paint0_linear_1_2" x1="418.7" y1="0" x2="418.7" y2="704.212" gradientUnits="userSpaceOnUse">
<stop stop-color="#D97706"/>
<stop offset="0.5" stop-color="#DC2626"/>
<stop offset="1" stop-color="#7E22CE"/>
</linearGradient>
<clipPath id="clip0_1_2">
<rect width="837.3" height="703.7" fill="white"/>
</clipPath>
</defs>
</svg>
